<svg xmlns="http://www.w3.org/2000/svg" xmlns:xlink="http://www.w3.org/1999/xlink" viewBox="0 0 1918.43 601"><defs><style>.cls-1,.cls-10,.cls-15{fill:none;}.cls-2,.cls-7{fill:#010101;}.cls-3{fill:#4b4b65;stroke:#1d1d1b;}.cls-10,.cls-15,.cls-3,.cls-8{stroke-miterlimit:10;}.cls-15,.cls-4,.cls-7,.cls-9{opacity:0.1;}.cls-5{fill:#403e56;}.cls-6,.cls-8,.cls-9{fill:#fdcc5a;}.cls-15,.cls-7,.cls-9{isolation:isolate;}.cls-8{stroke:#fff;}.cls-10{stroke:#403e56;stroke-width:4px;}.cls-11{fill:url(#Degradado_sin_nombre_2);}.cls-12{fill:#be6f73;}.cls-13{fill:#ed6e64;}.cls-14{fill:url(#ad310e25-2b04-44c8-bb7b-9823891);}.cls-15{stroke:#010101;}.cls-16{fill:url(#Degradado_sin_nombre_2-2);}.cls-17{fill:#302f42;}.cls-18{fill:#f7bebe;}.cls-19{fill:#e8e9f0;}.cls-20{fill:#ed6d72;}</style><linearGradient id="Degradado_sin_nombre_2" x1="680.9" y1="450.23" x2="680.9" y2="622.31" gradientTransform="matrix(1, 0, 0, -1, 512, 1032.37)" gradientUnits="userSpaceOnUse"><stop offset="0" stop-color="#808181" stop-opacity="0.25"/><stop offset="0.54" stop-color="#808181" stop-opacity="0.12"/><stop offset="1" stop-color="#808181" stop-opacity="0.1"/></linearGradient><pattern id="ad310e25-2b04-44c8-bb7b-9823891" data-name="ad310e25-2b04-44c8-bb7b-9823891" width="36.88" height="49.48" patternTransform="matrix(1, 0, 0, -1, 512, 168.63)" patternUnits="userSpaceOnUse" viewBox="0 0 36.88 49.48"><rect class="cls-1" width="36.88" height="49.48"/><rect class="cls-1" width="36.88" height="49.48"/><path class="cls-2" d="M4.33,36.29c4.5,0,4.51,7,0,7S-.19,36.29,4.33,36.29Z"/><path class="cls-2" d="M4.51,32.32c4.51,0,4.52,7,0,7S0,32.32,4.51,32.32Z"/><path class="cls-2" d="M4.51,28.54c4.51,0,4.52,7,0,7S0,28.54,4.51,28.54Z"/><path class="cls-2" d="M3.38,24.76c4.51,0,4.51,7,0,7S-1.13,24.76,3.38,24.76Z"/><path class="cls-2" d="M1.09,21.19l.2-.38a3.52,3.52,0,0,1,4.78-1.25,3.58,3.58,0,0,1,1.26,4.79l-.19.37A3.53,3.53,0,0,1,2.35,26,3.58,3.58,0,0,1,1.09,21.19Z"/><path class="cls-2" d="M1.49,19.38l.18-.57a3.73,3.73,0,0,1,1.61-2.09A3.59,3.59,0,0,1,6,16.37a3.54,3.54,0,0,1,2.44,4.31l-.18.56a3.68,3.68,0,0,1-1.61,2.1,3.61,3.61,0,0,1-2.69.35A3.56,3.56,0,0,1,1.49,19.38Z"/><path class="cls-2" d="M1.58,15.6v-.38a3.54,3.54,0,0,1,3.5-3.5,3.56,3.56,0,0,1,3.5,3.5v.38a3.54,3.54,0,0,1-3.5,3.5A3.57,3.57,0,0,1,1.58,15.6Z"/><path class="cls-2" d="M4.89,7.18c4.51,0,4.51,7,0,7S.38,7.18,4.89,7.18Z"/><path class="cls-2" d="M1.77,7.48V7.29a3.54,3.54,0,0,1,3.5-3.5,3.56,3.56,0,0,1,3.5,3.5v.19A3.54,3.54,0,0,1,5.27,11,3.56,3.56,0,0,1,1.77,7.48Z"/><path class="cls-2" d="M6,.19c4.5,0,4.51,7,0,7S1.48.19,6,.19Z"/><path class="cls-2" d="M10,35.34c4.5,0,4.51,7,0,7S5.48,35.34,10,35.34Z"/><path class="cls-2" d="M6.59,28.54c4.51,0,4.52,7,0,7S2.08,28.54,6.59,28.54Z"/><path class="cls-2" d="M8.48,22.48c4.51,0,4.51,7,0,7S4,22.48,8.48,22.48Z"/><path class="cls-2" d="M8.48,20.22c4.51,0,4.51,7,0,7S4,20.22,8.48,20.22Z"/><path class="cls-2" d="M14.91,15.69c4.5,0,4.51,7,0,7S10.4,15.69,14.91,15.69Z"/><path class="cls-2" d="M9.81,11c4.5,0,4.51,7,0,7S5.29,11,9.81,11Z"/><path class="cls-2" d="M10.56,4.35c4.51,0,4.51,7,0,7S6.05,4.35,10.56,4.35Z"/><path class="cls-2" d="M10.56,0c4.51,0,4.51,7,0,7S6.05,0,10.56,0Z"/><path class="cls-2" d="M12.83,31.36c2.57,0,2.58,4,0,4S10.25,31.36,12.83,31.36Z"/><path class="cls-2" d="M13,29.09c2.57,0,2.58,4,0,4S10.42,29.09,13,29.09Z"/><path class="cls-2" d="M13.1,28.48v-.19a2,2,0,0,1,4,0v.19a2,2,0,0,1-4,0Z"/><path class="cls-2" d="M15.1,23.61c2.57,0,2.58,4,0,4S12.52,23.61,15.1,23.61Z"/><path class="cls-2" d="M16.61,38.41a1,1,0,1,1-1,1A1,1,0,0,1,16.61,38.41Z"/><path class="cls-2" d="M21.71,32.93a1,1,0,1,1-1,1A1,1,0,0,1,21.71,32.93Z"/><path class="cls-2" d="M16.85,40.54v.38a1,1,0,0,1-2,0v-.38a1,1,0,0,1,2,0Z"/><path class="cls-2" d="M16.48,44.7v.19a1,1,0,0,1-2,0V44.7a1,1,0,0,1,2,0Z"/><path class="cls-2" d="M15.48,47.48a1,1,0,1,1-1,1A1,1,0,0,1,15.48,47.48Z"/><path class="cls-2" d="M10.56,47.48a1,1,0,1,1-1,1A1,1,0,0,1,10.56,47.48Z"/><path class="cls-2" d="M10.37,44.83a1,1,0,1,1-1,1A1,1,0,0,1,10.37,44.83Z"/><path class="cls-2" d="M7.35,43.32a1,1,0,1,1-1,1A1,1,0,0,1,7.35,43.32Z"/><path class="cls-2" d="M11.88,42.38h.38a1,1,0,0,1,0,2h-.38a1,1,0,0,1,0-2Z"/><path class="cls-2" d="M13.28,38.48l.57-1.32a1,1,0,0,1,1.37-.36h0a1,1,0,0,1,.36,1.37h0L15,39.48a1,1,0,0,1-1.37.36h0A1,1,0,0,1,13.28,38.48Z"/><path class="cls-2" d="M18.44,30.15V30a1,1,0,0,1,2,0v.19a1,1,0,0,1-2,0Z"/><path class="cls-2" d="M20.68,24.55l.19-.38c.57-1.15,2.3-.14,1.72,1l-.19.38C21.83,26.7,20.1,25.69,20.68,24.55Z"/><path class="cls-2" d="M22.13,20.1a2.5,2.5,0,0,1-.84-1.86,1,1,0,0,1,2,0,.56.56,0,0,0,.25.44,1,1,0,0,1,0,1.41h0A1,1,0,0,1,22.13,20.1Z"/><path class="cls-2" d="M20.32,16.07l-.54-1.71c-.38-1.23,1.55-1.76,1.93-.53l.54,1.71C22.63,16.77,20.7,17.3,20.32,16.07Z"/><path class="cls-2" d="M19.44,12.48h-.19a1,1,0,0,1,0-2h.19a1,1,0,0,1,0,2Z"/><path class="cls-2" d="M17.64,8l-.19-.38c-.58-1.15,1.15-2.16,1.72-1l.19.38C19.94,8.13,18.21,9.14,17.64,8Z"/><path class="cls-2" d="M15.8,1.61V1.05a1,1,0,0,1,2,0v.56a1,1,0,0,1-2,0Z"/><path class="cls-2" d="M14.34.05a1,1,0,1,1-1,1A1,1,0,0,1,14.34.05Z"/><path class="cls-2" d="M14.34,8.17a1,1,0,1,1-1,1A1,1,0,0,1,14.34,8.17Z"/><path class="cls-2" d="M17.13,13a2,2,0,0,1,1,1.64,1,1,0,1,1-2,0c0,.13.19.2,0,.08C15,14.15,16,12.43,17.13,13Z"/><path class="cls-2" d="M17.37,18.19a1,1,0,1,1-1,1A1,1,0,0,1,17.37,18.19Z"/><path class="cls-2" d="M18.12,21a1,1,0,1,1-1,1A1,1,0,0,1,18.12,21Z"/><path class="cls-2" d="M19,24.54l.19.38c.58,1.15-1.15,2.16-1.72,1l-.19-.38C16.7,24.39,18.43,23.38,19,24.54Z"/><path class="cls-2" d="M17.93,33.48a1,1,0,1,1-1,1A1,1,0,0,1,17.93,33.48Z"/><path class="cls-2" d="M24.64,33.43l.57-.94a1,1,0,0,1,1.72,1l-.56,1a1,1,0,0,1-1.73-1Z"/><path class="cls-2" d="M34.88,19.76v-.19a1,1,0,0,1,2,0v.19a1,1,0,0,1-2,0Z"/><path class="cls-2" d="M24,10.25a1,1,0,1,1-1,1A1,1,0,0,1,24,10.25Z"/><path class="cls-2" d="M22.85,20.48a1,1,0,1,1-1,1A1,1,0,0,1,22.85,20.48Z"/><path class="cls-2" d="M18.24,27.58l.57.56c.93.89-.48,2.3-1.41,1.41L16.82,29C15.89,28.1,17.31,26.69,18.24,27.58Z"/></pattern><linearGradient id="Degradado_sin_nombre_2-2" x1="324.77" y1="522.08" x2="324.77" y2="623.07" xlink:href="#Degradado_sin_nombre_2"/></defs><g id="Capa_2" data-name="Capa 2"><g id="Capa_1-2" data-name="Capa 1"><rect class="cls-3" x="0.5" y="0.5" width="1917.43" height="600"/><g class="cls-4"><ellipse class="cls-5" cx="905.23" cy="374.35" rx="11.38" ry="14.9"/><path class="cls-5" d="M914.24,310.6a18,18,0,0,0,2.38-9.11c0-8.23-5.1-14.9-11.39-14.9s-11.42,6.69-11.42,14.92a18,18,0,0,0,2.38,9.11,18.57,18.57,0,0,0,0,18.21,18.57,18.57,0,0,0,0,18.21,17.87,17.87,0,0,0-2.38,9.11c0,8.22,5.1,14.9,11.38,14.9s11.39-6.68,11.39-14.9A18,18,0,0,0,914.2,347a18.62,18.62,0,0,0,0-18.21,18.62,18.62,0,0,0,0-18.21Z"/><ellipse class="cls-5" cx="905.23" cy="283.3" rx="11.38" ry="14.9"/><ellipse class="cls-5" cx="905.23" cy="265.09" rx="11.38" ry="14.9"/><path class="cls-6" d="M862.63,140.46a52.69,52.69,0,0,1-4.24-6.24l29.9-4.91-32.34.24a54.61,54.61,0,0,1-1-43.2l43.39,22.51-40-29.42a54.53,54.53,0,1,1,94.79,53.92,54,54,0,0,1-4.79,7.08,54.68,54.68,0,0,1,6.22,9.94L915.73,170.6l41.39-13.89a54.54,54.54,0,0,1-8.79,51.2,54.52,54.52,0,1,1-85.7,0,54.52,54.52,0,0,1,0-67.42Z"/><path class="cls-7" d="M960,174.17a54.31,54.31,0,0,1-11.67,33.71,54.52,54.52,0,1,1-85.7,0C855.32,198.6,960,168.05,960,174.17Z"/></g><g class="cls-4"><ellipse class="cls-5" cx="1038.09" cy="342.49" rx="8.51" ry="11.13"/><path class="cls-5" d="M1044.81,294.86a13.51,13.51,0,0,0,1.77-6.8c0-6.15-3.81-11.14-8.5-11.14s-8.51,5-8.51,11.14a13.29,13.29,0,0,0,1.78,6.8,13.86,13.86,0,0,0,0,13.61,13.86,13.86,0,0,0,0,13.61,13.32,13.32,0,0,0-1.78,6.8c0,6.15,3.81,11.14,8.51,11.14s8.5-5,8.5-11.14a13.51,13.51,0,0,0-1.77-6.8,14,14,0,0,0,0-13.61A14,14,0,0,0,1044.81,294.86Z"/><ellipse class="cls-5" cx="1038.09" cy="274.45" rx="8.51" ry="11.13"/><ellipse class="cls-5" cx="1038.09" cy="260.84" rx="8.51" ry="11.13"/><path class="cls-6" d="M1006.25,167.71a37.85,37.85,0,0,1-3.17-4.66l22.35-3.67-24.17.18a40.82,40.82,0,0,1-.78-32.29l32.43,16.83-29.91-22a40.75,40.75,0,1,1,67.29,45.6,42.06,42.06,0,0,1,4.65,7.43l-29,15.07,30.93-10.38a40.77,40.77,0,0,1-6.57,38.26,40.74,40.74,0,1,1-64,0,40.73,40.73,0,0,1,0-50.38Z"/><path class="cls-7" d="M1079,192.9a40.59,40.59,0,0,1-8.72,25.19,40.74,40.74,0,1,1-64,0C1000.81,211.16,1079,188.33,1079,192.9Z"/></g><g class="cls-4"><ellipse class="cls-5" cx="1464.39" cy="334.35" rx="11.38" ry="14.9"/><path class="cls-5" d="M1455.38,270.6a18,18,0,0,1-2.38-9.11c0-8.23,5.1-14.9,11.39-14.9s11.38,6.67,11.38,14.9a18,18,0,0,1-2.38,9.11,18.62,18.62,0,0,1,0,18.21,18.62,18.62,0,0,1,0,18.21,18,18,0,0,1,2.38,9.11c0,8.22-5.1,14.9-11.38,14.9s-11.39-6.68-11.39-14.9a17.87,17.87,0,0,1,2.38-9.11,18.57,18.57,0,0,1,0-18.21A18.57,18.57,0,0,1,1455.38,270.6Z"/><ellipse class="cls-5" cx="1464.39" cy="243.3" rx="11.38" ry="14.9"/><ellipse class="cls-5" cx="1464.39" cy="225.09" rx="11.38" ry="14.9"/><path class="cls-8" d="M1507,100.46a53.92,53.92,0,0,0,4.24-6.24l-29.9-4.91,32.34.24a54.65,54.65,0,0,0,1-43.2l-43.39,22.51,40-29.42a54.53,54.53,0,0,0-94.8,53.92,53.06,53.06,0,0,0,4.8,7.08,54.14,54.14,0,0,0-6.22,9.94l38.83,20.22-41.39-13.89a54.51,54.51,0,0,0,8.79,51.2,54.52,54.52,0,1,0,85.7,0,54.52,54.52,0,0,0,0-67.42Z"/><path class="cls-7" d="M1409.62,134.17a54.25,54.25,0,0,0,11.67,33.71,54.52,54.52,0,1,0,85.7,0C1514.3,158.6,1409.62,128.05,1409.62,134.17Z"/></g><g class="cls-4"><ellipse class="cls-5" cx="1354.53" cy="336.49" rx="8.51" ry="11.13"/><path class="cls-5" d="M1347.81,288.86a13.31,13.31,0,0,1-1.77-6.8c0-6.15,3.81-11.14,8.5-11.14s8.51,5,8.51,11.14a13.39,13.39,0,0,1-1.78,6.8,13.91,13.91,0,0,1,0,13.61,13.91,13.91,0,0,1,0,13.61,13.42,13.42,0,0,1,1.78,6.8c0,6.15-3.81,11.14-8.51,11.14s-8.5-5-8.5-11.14a13.31,13.31,0,0,1,1.77-6.8,14,14,0,0,1,0-13.61A14,14,0,0,1,1347.81,288.86Z"/><ellipse class="cls-5" cx="1354.53" cy="268.45" rx="8.51" ry="11.13"/><ellipse class="cls-5" cx="1354.53" cy="254.84" rx="8.51" ry="11.13"/><path class="cls-6" d="M1386.37,161.71a40.21,40.21,0,0,0,3.17-4.66l-22.35-3.67,24.17.18a40.9,40.9,0,0,0,.78-32.29l-32.43,16.83,29.91-22a40.75,40.75,0,1,0-67.29,45.6,41.49,41.49,0,0,0-4.65,7.43l29,15.07-30.87-10.37a40.72,40.72,0,0,0,6.57,38.26,40.74,40.74,0,1,0,64,0,40.76,40.76,0,0,0,0-50.38Z"/><path class="cls-7" d="M1313.61,186.9a40.53,40.53,0,0,0,8.72,25.19,40.74,40.74,0,1,0,64,0C1391.81,205.16,1313.61,182.33,1313.61,186.9Z"/></g><g class="cls-4"><ellipse class="cls-5" cx="487.4" cy="334.35" rx="11.38" ry="14.9"/><path class="cls-5" d="M496.4,270.6a18,18,0,0,0,2.38-9.11c0-8.23-5.1-14.9-11.38-14.9S476,253.26,476,261.49a17.86,17.86,0,0,0,2.37,9.11,18.67,18.67,0,0,0,0,18.21,18.67,18.67,0,0,0,0,18.21,17.86,17.86,0,0,0-2.37,9.11c0,8.22,5.09,14.9,11.38,14.9s11.41-6.66,11.41-14.88a18,18,0,0,0-2.38-9.11,18.62,18.62,0,0,0,0-18.21,18.62,18.62,0,0,0,0-18.21Z"/><ellipse class="cls-5" cx="487.4" cy="243.3" rx="11.38" ry="14.9"/><ellipse class="cls-5" cx="487.4" cy="225.09" rx="11.38" ry="14.9"/><path class="cls-6" d="M444.81,100.46a52.69,52.69,0,0,1-4.24-6.24l29.91-4.91-32.37.29a54.61,54.61,0,0,1-1-43.2l43.4,22.51-40-29.42a54.52,54.52,0,1,1,94.65,54.14,55.1,55.1,0,0,1-4.65,6.86,54.68,54.68,0,0,1,6.22,9.94L497.89,130.6l41.4-13.89a54.62,54.62,0,0,1-8.8,51.2,54.52,54.52,0,1,1-85.7,0,54.52,54.52,0,0,1,0-67.42Z"/><path class="cls-7" d="M542.16,134.17a54.31,54.31,0,0,1-11.67,33.71,54.52,54.52,0,1,1-85.7,0C437.48,158.6,542.16,128.05,542.16,134.17Z"/></g><g class="cls-4"><ellipse class="cls-5" cx="597.25" cy="336.49" rx="8.51" ry="11.13"/><path class="cls-5" d="M604,288.86a13.51,13.51,0,0,0,1.77-6.8c0-6.15-3.8-11.14-8.5-11.14s-8.51,5-8.51,11.14a13.39,13.39,0,0,0,1.78,6.8,13.86,13.86,0,0,0,0,13.61,13.86,13.86,0,0,0,0,13.61,13.42,13.42,0,0,0-1.78,6.8c0,6.15,3.81,11.14,8.51,11.14s8.5-5,8.5-11.14a13.51,13.51,0,0,0-1.77-6.8,14,14,0,0,0,0-13.61A14,14,0,0,0,604,288.86Z"/><ellipse class="cls-5" cx="597.25" cy="268.45" rx="8.51" ry="11.13"/><ellipse class="cls-5" cx="597.25" cy="254.84" rx="8.51" ry="11.13"/><path class="cls-6" d="M565.41,161.71a38.62,38.62,0,0,1-3.17-4.66l22.35-3.67-24.17.18a40.82,40.82,0,0,1-.78-32.29l32.43,16.83-29.91-22a40.75,40.75,0,1,1,67.29,45.6,40.79,40.79,0,0,1,4.65,7.43l-29,15.07L636,173.82a40.77,40.77,0,0,1-6.57,38.26,40.74,40.74,0,1,1-64,0,40.73,40.73,0,0,1,0-50.38Z"/><path class="cls-7" d="M638.17,186.9a40.59,40.59,0,0,1-8.72,25.19,40.74,40.74,0,1,1-64,0C560,205.16,638.17,182.33,638.17,186.9Z"/></g><ellipse class="cls-9" cx="973.81" cy="505.36" rx="548" ry="8.86"/><ellipse class="cls-9" cx="973.81" cy="578.11" rx="548" ry="8.86"/><ellipse class="cls-9" cx="973.81" cy="353.53" rx="548" ry="8.86"/><ellipse class="cls-9" cx="973.81" cy="429.44" rx="548" ry="8.86"/><path class="cls-9" d="M1234.6,122.6a18.34,18.34,0,0,0-10.6,1.16,15.62,15.62,0,0,1-12.74,0,17.87,17.87,0,0,0-15,.29,9.15,9.15,0,0,1-4.31,1.08c-6.08,0-11.13-6.12-12.18-14.19a12,12,0,0,0,3-3.27c3.56-5.74,9.07-9.43,15.27-9.43s11.64,3.64,15.2,9.32a11.65,11.65,0,0,0,10.09,5.54h.16C1228.38,113.05,1232.57,116.93,1234.6,122.6Z"/><path class="cls-9" d="M1253.11,97.25l-9.82,6.22,6-10.84a9.72,9.72,0,0,0-5.94-2.11h-.16a11.16,11.16,0,0,1-2-.15l-3.38,2.11,1.43-2.6a11.71,11.71,0,0,1-5.83-4.42l-6,3.78,3.76-6.84c-3.48-4.18-8.18-6.74-13.34-6.74-6.2,0-11.71,3.68-15.28,9.42a11.41,11.41,0,0,1-10.09,5.44h-.33c-6.84,0-12.38,7.75-12.38,17.31s5.54,17.32,12.38,17.32a9.39,9.39,0,0,0,4.31-1.08,17.84,17.84,0,0,1,15-.3,15.55,15.55,0,0,0,12.74,0,17.93,17.93,0,0,1,14.86.29,9.27,9.27,0,0,0,4.26,1.06c6.84,0,12.38-7.76,12.38-17.32A22,22,0,0,0,1253.11,97.25Z"/><path class="cls-9" d="M817.07,117.19a12.86,12.86,0,0,0-7.43.81,10.89,10.89,0,0,1-8.91,0,12.49,12.49,0,0,0-10.49.21,6.69,6.69,0,0,1-3,.75c-4.25,0-7.79-4.28-8.53-9.93a8.46,8.46,0,0,0,2.13-2.29c2.49-4,6.35-6.6,10.69-6.6s8.15,2.55,10.64,6.52a8.16,8.16,0,0,0,7.07,3.88h.11C812.71,110.52,815.64,113.24,817.07,117.19Z"/><path class="cls-9" d="M830,99.46l-6.87,4.36,4.17-7.59a6.8,6.8,0,0,0-4.15-1.48h-.12a7.49,7.49,0,0,1-1.42-.11l-2.33,1.48,1-1.82a8.2,8.2,0,0,1-4.08-3.09l-4.17,2.64,2.64-4.78a12.24,12.24,0,0,0-9.34-4.73c-4.34,0-8.2,2.58-10.69,6.6a8,8,0,0,1-7.07,3.81h-.23c-4.79,0-8.67,5.42-8.67,12.12S782.57,119,787.36,119a6.58,6.58,0,0,0,3-.76,12.5,12.5,0,0,1,10.48-.2,10.74,10.74,0,0,0,8.92.06,12.55,12.55,0,0,1,10.4.2,6.37,6.37,0,0,0,3,.74c4.78,0,8.66-5.43,8.66-12.12A15.36,15.36,0,0,0,830,99.46Z"/><path class="cls-9" d="M695.4,195.6a12.84,12.84,0,0,1,7.42.81,10.92,10.92,0,0,0,8.92,0,12.53,12.53,0,0,1,10.49.2,6.51,6.51,0,0,0,3,.76c4.25,0,7.79-4.29,8.52-9.94a8.12,8.12,0,0,1-2.12-2.29c-2.5-4-6.36-6.59-10.69-6.59s-8.15,2.54-10.65,6.52a8.2,8.2,0,0,1-7.06,3.88h-.11C699.75,189,696.81,191.68,695.4,195.6Z"/><path class="cls-9" d="M682.44,177.9l6.88,4.36-4.18-7.58a6.76,6.76,0,0,1,4.16-1.49h.11a8.67,8.67,0,0,0,1.43-.1l2.33,1.47-1-1.81a8.32,8.32,0,0,0,4.07-3.09l4.17,2.64-2.6-4.79a12.17,12.17,0,0,1,9.34-4.72c4.33,0,8.2,2.58,10.69,6.6a8,8,0,0,0,7.06,3.81h.24c4.78,0,8.66,5.43,8.66,12.12s-3.88,12.12-8.66,12.12a6.38,6.38,0,0,1-3-.75,12.49,12.49,0,0,0-10.49-.21,10.74,10.74,0,0,1-8.92.06,12.52,12.52,0,0,0-10.39.2,6.43,6.43,0,0,1-3,.74c-4.79,0-8.67-5.42-8.67-12.12A15.4,15.4,0,0,1,682.44,177.9Z"/><path class="cls-10" d="M1090.12,502.49c2.61-4.84-.35-10.76-3.75-15.07s-7.56-8.8-7.47-14.29c.13-7.89,8.51-12.56,15.2-16.74a74.46,74.46,0,0,0,13.65-11,20.13,20.13,0,0,0,4.19-5.62c1.39-3.08,1.35-6.6,1.26-10q-.43-16.89-1.67-33.76"/><path class="cls-6" d="M1124.26,395.45a12.34,12.34,0,0,0-6.15-10.09l-2.76,5.45.09-6.6a12.31,12.31,0,1,0,8.33,15.29A12.61,12.61,0,0,0,1124.26,395.45Z"/><path class="cls-6" d="M1102.3,478.77a12.31,12.31,0,0,1-23.24-5,11.87,11.87,0,0,1,.8-5,12.32,12.32,0,0,1,23,.13l-7.69,6.26,8.46-2A12.29,12.29,0,0,1,1102.3,478.77Z"/><path class="cls-6" d="M1096.22,454.87a12.31,12.31,0,0,1-3.9-24.15l-.07,5.07,2.79-5.52h0a12.31,12.31,0,0,1,1.15,24.6Z"/><path class="cls-6" d="M1126.11,435a12.31,12.31,0,1,1,5.44-23l-2.17,6,4.43-4.38a12.31,12.31,0,0,1-7.74,21.37Z"/><path class="cls-7" d="M1122.6,398.73c-2.84.31-5.6,1.19-8.46,1.37s-6-.51-7.78-2.72a38.53,38.53,0,0,1-2.28-4,8.85,8.85,0,0,0-3.1-2.92,12.31,12.31,0,0,0,21.92,11.2,12.51,12.51,0,0,0,1.08-3C1123.53,398.65,1123.06,398.68,1122.6,398.73Z"/><path class="cls-7" d="M1126.11,435a12.31,12.31,0,0,1-12.88-11.71,12.16,12.16,0,0,1,1.17-5.85,9.25,9.25,0,0,1,2.47,2.48,40.94,40.94,0,0,0,2.44,4.07c1.92,2.25,5.2,3,8.17,2.85s5.84-1,8.8-1.25c.41,0,.82-.06,1.24-.07A12.31,12.31,0,0,1,1126.11,435Z"/><path class="cls-7" d="M1096.22,454.87a12.3,12.3,0,0,1-11.81-17.33A10.17,10.17,0,0,1,1087,440a38.53,38.53,0,0,0,2.67,4.15c2.07,2.31,5.57,3.13,8.71,3s6-.81,9-1A12.32,12.32,0,0,1,1096.22,454.87Z"/><path class="cls-7" d="M1102.3,478.77a12.31,12.31,0,0,1-23.24-5,11.87,11.87,0,0,1,.8-5,12.64,12.64,0,0,1,2.7,2.41c1.17,1.42,1.94,3,3.3,4.37,2.51,2.47,6.58,3.49,10.19,3.58A50.27,50.27,0,0,0,1102.3,478.77Z"/><path class="cls-10" d="M480.12,430.49c2.61-4.84-.35-10.76-3.75-15.07s-7.56-8.82-7.47-14.29c.13-7.89,8.51-12.56,15.2-16.74a74.46,74.46,0,0,0,13.65-11,20.13,20.13,0,0,0,4.19-5.62c1.39-3.08,1.35-6.6,1.26-10q-.45-16.89-1.67-33.76"/><path class="cls-6" d="M514.26,323.45a12.34,12.34,0,0,0-6.15-10.09l-2.76,5.45.09-6.6a12.31,12.31,0,1,0,8.33,15.29,12.61,12.61,0,0,0,.49-4.05Z"/><path class="cls-6" d="M492.3,406.77a12.31,12.31,0,0,1-23.24-5,11.87,11.87,0,0,1,.8-5,12.32,12.32,0,0,1,23,.13l-7.69,6.26,8.46-2A12.29,12.29,0,0,1,492.3,406.77Z"/><path class="cls-6" d="M486.22,382.87a12.31,12.31,0,0,1-3.9-24.15l-.07,5.07,2.79-5.52h0a12.31,12.31,0,0,1,1.15,24.6Z"/><path class="cls-6" d="M516.11,363a12.31,12.31,0,1,1,5.44-23l-2.17,6,4.43-4.38A12.31,12.31,0,0,1,516.07,363Z"/><path class="cls-7" d="M512.6,326.73c-2.84.31-5.6,1.19-8.46,1.37s-6-.51-7.78-2.72a38.53,38.53,0,0,1-2.28-4,8.85,8.85,0,0,0-3.1-2.92,12.31,12.31,0,0,0,21.92,11.2,12.51,12.51,0,0,0,1.08-3C513.53,326.65,513.06,326.68,512.6,326.73Z"/><path class="cls-7" d="M516.11,363a12.31,12.31,0,0,1-12.88-11.71,12.16,12.16,0,0,1,1.17-5.85,9.25,9.25,0,0,1,2.47,2.48,40.94,40.94,0,0,0,2.44,4.07c1.92,2.25,5.2,3,8.17,2.85s5.84-1,8.8-1.25c.41,0,.82-.06,1.24-.07A12.31,12.31,0,0,1,516.11,363Z"/><path class="cls-7" d="M486.22,382.87a12.3,12.3,0,0,1-11.81-17.33A10.17,10.17,0,0,1,477,368a38.53,38.53,0,0,0,2.67,4.15c2.07,2.31,5.57,3.13,8.71,3s6-.81,9-1A12.32,12.32,0,0,1,486.22,382.87Z"/><path class="cls-7" d="M492.3,406.77a12.31,12.31,0,0,1-23.24-5,11.87,11.87,0,0,1,.8-5,12.64,12.64,0,0,1,2.7,2.41c1.17,1.42,1.94,3,3.3,4.37,2.51,2.47,6.58,3.49,10.19,3.58A50.27,50.27,0,0,0,492.3,406.77Z"/><path class="cls-10" d="M886.33,348.12c-2.61-4.83.35-10.75,3.76-15.06s7.55-8.8,7.46-14.29c-.12-7.9-8.5-12.56-15.2-16.74a73.32,73.32,0,0,1-13.64-11,19.42,19.42,0,0,1-4.2-5.61c-1.38-3.09-1.34-6.6-1.26-10q.45-16.89,1.67-33.76"/><path class="cls-6" d="M852.2,241.09A12.28,12.28,0,0,1,858.34,231l2.76,5.45-.08-6.6a12.58,12.58,0,0,1,4.05-.49,12.31,12.31,0,1,1-12.87,11.73Z"/><path class="cls-6" d="M874.15,324.41a12.31,12.31,0,1,0-.59-9.91l7.69,6.26-8.46-2A12.2,12.2,0,0,0,874.15,324.41Z"/><path class="cls-6" d="M880.23,300.51a12.31,12.31,0,0,0,3.91-24.15l.06,5.07-2.79-5.52h0a12.31,12.31,0,1,0-1.18,24.6Z"/><path class="cls-6" d="M850.35,280.6a12.31,12.31,0,1,0-5.45-23l2.18,6-4.48-4.29a12.17,12.17,0,0,0-4,8.5,11.72,11.72,0,0,0,.31,3.39A12.29,12.29,0,0,0,850.35,280.6Z"/><path class="cls-7" d="M853.86,244.37c2.84.31,5.6,1.19,8.45,1.37s6-.51,7.79-2.72a40.35,40.35,0,0,0,2.27-4,8.79,8.79,0,0,1,3.11-2.92,12.31,12.31,0,1,1-21.92,11.21,11.72,11.72,0,0,1-1.08-3C852.93,244.28,853.39,244.32,853.86,244.37Z"/><path class="cls-7" d="M850.35,280.6A12.32,12.32,0,0,0,862.06,263a9.15,9.15,0,0,0-2.48,2.48,42.94,42.94,0,0,1-2.44,4.07c-1.91,2.25-5.19,3-8.16,2.85s-5.84-1-8.8-1.25c-.41,0-.83-.06-1.24-.07A12.28,12.28,0,0,0,850.35,280.6Z"/><path class="cls-7" d="M880.23,300.51A12.31,12.31,0,0,0,892,283.18a9.67,9.67,0,0,0-2.6,2.5,41.86,41.86,0,0,1-2.67,4.15c-2.08,2.31-5.57,3.13-8.72,3s-6-.81-9-1A12.29,12.29,0,0,0,880.23,300.51Z"/><path class="cls-7" d="M874.15,324.41a12.31,12.31,0,0,0,22.45-10,11.7,11.7,0,0,0-2.7,2.41c-1.17,1.42-2,3-3.3,4.37-2.52,2.47-6.58,3.49-10.2,3.58A54.31,54.31,0,0,1,874.15,324.41Z"/><circle class="cls-5" cx="1205.54" cy="250.41" r="99.96"/><path class="cls-6" d="M1248.45,276.19c-3.48-3.48-11.85-8.73-16-10.69-4.79-2.3-6.55-2.26-9.94.19-2.82,2-4.65,3.93-7.89,3.22s-9.66-5.55-15.87-11.74-11-12.57-11.72-15.86,1.21-5.08,3.23-7.9c2.44-3.39,2.51-5.15.19-9.94-2-4.15-7.19-12.5-10.7-16s-4.27-2.73-6.19-2a35.3,35.3,0,0,0-5.67,3c-3.48,2.33-5.43,4.27-6.8,7.19s-2.92,8.34,5.05,22.53a125.35,125.35,0,0,0,22.1,29.47h0a125.3,125.3,0,0,0,29.57,22.14c14.18,8,19.61,6.41,22.53,5.05s4.86-3.29,7.18-6.8a35.3,35.3,0,0,0,3-5.67C1251.18,280.46,1252,279.68,1248.45,276.19Z"/><path class="cls-7" d="M1205.54,150.46a100,100,0,1,0,100,100v-.1A100,100,0,0,0,1205.54,150.46Zm0,186.62a86.67,86.67,0,1,1,86.67-86.67h0a86.67,86.67,0,0,1-86.67,86.67Z"/><circle class="cls-5" cx="975.89" cy="402.24" r="99.96"/><path class="cls-6" d="M1032.74,372l-29.93,30.45a.53.53,0,0,0,0,.76l0,0,21,22.33a3.61,3.61,0,1,1-5.11,5.11l-20.89-22.25a.57.57,0,0,0-.8,0l-5.09,5.14a22.36,22.36,0,0,1-16,6.73,22.84,22.84,0,0,1-16.28-6.92l-4.89-5a.57.57,0,0,0-.8,0l-20.84,22.2a3.62,3.62,0,0,1-5.11,0h0a3.6,3.6,0,0,1,0-5.09l0,0,20.92-22.28a.6.6,0,0,0,0-.78L919,372a.55.55,0,0,0-.78,0,.51.51,0,0,0-.16.39v60.93a8.92,8.92,0,0,0,8.89,8.89h97.87a8.93,8.93,0,0,0,8.89-8.89V372.43a.56.56,0,0,0-.53-.57A.55.55,0,0,0,1032.74,372Z"/><path class="cls-6" d="M975.89,413.1a15.12,15.12,0,0,0,10.92-4.5l43.59-44.37a8.71,8.71,0,0,0-5.5-2H927a8.68,8.68,0,0,0-5.5,2l43.6,44.37A15.08,15.08,0,0,0,975.89,413.1Z"/><path class="cls-7" d="M974.63,302.29a100,100,0,1,0,99.95,100v-.1A100,100,0,0,0,974.63,302.29Zm0,186.62a86.67,86.67,0,1,1,86.67-86.67h0A86.67,86.67,0,0,1,974.63,488.91Z"/><circle class="cls-5" cx="738.66" cy="327.59" r="99.96"/><path class="cls-6" d="M738.66,279.76,698.81,371.7l3.72,3.72,36.14-15.94,36.14,15.94,3.72-3.72Z"/><path class="cls-7" d="M738.66,227.6a100,100,0,1,0,100,100v0A100,100,0,0,0,738.66,227.6Zm0,186.62a86.67,86.67,0,1,1,86.67-86.67v.05a86.68,86.68,0,0,1-86.67,86.66Z"/><path class="cls-11" d="M1214.74,453.48q-1.37-3.32-2.79-6.62a19.72,19.72,0,0,0-3.41-5.89,6.26,6.26,0,0,0-2-1.5,8.65,8.65,0,0,0-2.61-.52,20.83,20.83,0,0,0-4.1-.11c-.53-.16-1.13-.37-1.72-.61A14.28,14.28,0,0,0,1208.75,425v-.61a14.25,14.25,0,0,0-14.19-14.31h0a14,14,0,0,0-7.45,2.13,13.36,13.36,0,0,0-15,7.23,16.53,16.53,0,0,0-5.1,12.3v.63c.26,7.77,5.28,14,11.62,14.63a6.74,6.74,0,0,0-1.84,1.23c-1.94,1.87-2.26,4.84-2.47,7.54l-.15,2-3.36,1.2a.62.62,0,0,0-.38.79.57.57,0,0,0,.23.3l3.21,2.29v.57a2.5,2.5,0,0,0,.06.65,4.49,4.49,0,0,0-1.24,1.77,8.07,8.07,0,0,0-.29,3.24l.12,2.79a21.75,21.75,0,0,0,.85,6.21c.42,1.24,2.24,4.23,3.55,4.25-1.21,5.5-1.53,17.1-1.53,17.1-.15.15.27.29,1,.41.72,5.52,3.07,21,7.24,27.81a60.22,60.22,0,0,1,1.57,6.76s1.19,14.71,2.76,19.08c1.34,3.72,2.4,12.9,2.69,15.56a1.5,1.5,0,0,0-1.11,1.14c-.79,2.38-5.91,6-5.91,6a25,25,0,0,0-4.42,2.83c-1.61,1.45-1.55,2.76,5.6,1.94,13.8-1.59,16.16-6,16.16-6s-.22-.74-.55-1.7a18.9,18.9,0,0,0-1.81-4.27c-.2-.19-.4.13-.64.63a85.51,85.51,0,0,1-.94-19.31s.39-6.76-1.58-11.53a21.76,21.76,0,0,1,0-7.55c.79-3.18-3.15-18.69-3.15-18.69L1190,500.6a3.47,3.47,0,0,1,.63,1.33l.06.23.06.33a.52.52,0,0,0,.16.31c1.54,6.4,5.76,24.13,5.76,26.73,0,3.18,3.94,11.13,3.94,11.13s1.57,13.12,4.33,18.28c2.1,3.93,2.15,9.69,2,12.23h0s-.47,3.27-1.26,4.06a9.69,9.69,0,0,0-1.49,2.59l-.09.19s-1.18,2.39-.39,2.79a19.31,19.31,0,0,0,9.46,1.19s1.58-2,1.58-2.78c0-.48-.1-1-.18-1.42-.29-1.88-.83-4.84-.84-4.87.33-1.28-1-4.84-1-4.84l-.4-11.13a51.42,51.42,0,0,0-2.76-22.27s-2-7.15-1.57-9.14-.79-23.06-.79-23.06l-.12-.3a22.26,22.26,0,0,1,.12-4.47c.39-4.77-1.18-14.71-1.58-15.1a12.67,12.67,0,0,1-.56-3.29c.09-.83.36-3.26.73-6.28a113.36,113.36,0,0,0,11.62-1,1.44,1.44,0,0,0,1-.4,1.53,1.53,0,0,0,.23-.81C1219.2,464.84,1217,459,1214.74,453.48Zm-7.93,12.61c.41-2.85.85-5.61,1.29-7.66l.06.18a57.78,57.78,0,0,1,1.9,6.3A21,21,0,0,1,1206.81,466.09Z"/><path class="cls-12" d="M1176.18,498.28s2.36,21.23,7.47,29.48a58.87,58.87,0,0,1,1.57,6.68S1186.4,549,1188,553.3s2.75,16.12,2.75,16.12,5.5,6.28,7.47,1.18a82.37,82.37,0,0,1-1.18-20.44s.39-6.68-1.57-11.4a21.25,21.25,0,0,1,0-7.46c.78-3.15-3.15-18.47-3.15-18.47l-3.14-15.33Z"/><path class="cls-13" d="M1200.94,574.53s-2.36,4.32-16.11,5.89c-7.14.81-7.19-.48-5.58-1.92a25.22,25.22,0,0,1,4.4-2.8s5.11-3.53,5.89-5.89,3.54-.39,3.54-.39c3.93,5.89,4.72-1.58,5.5-.79a18,18,0,0,1,1.81,4.21C1200.72,573.79,1200.94,574.53,1200.94,574.53Z"/><path class="cls-7" d="M1200.94,574.53s-2.36,4.32-16.11,5.89c-7.14.81-7.19-.48-5.58-1.92,1.12.71,3.38,1,7.93-.83,6.55-2.68,11.3-4.23,13.21-4.83C1200.72,573.79,1200.94,574.53,1200.94,574.53Z"/><path class="cls-7" d="M1197,550.16s.39-6.68-1.57-11.4a21.25,21.25,0,0,1,0-7.46c.78-3.15-3.15-18.47-3.15-18.47l-3.14-15.33-2.72.16,3.11,15.17s3.93,15.32,3.15,18.47a21.25,21.25,0,0,0,0,7.46c2,4.72,1.57,11.4,1.57,11.4a82.37,82.37,0,0,0,1.18,20.44,3.51,3.51,0,0,1-1.14,1.62c1.46.66,3,.63,3.89-1.62A82.37,82.37,0,0,1,1197,550.16Z"/><path class="cls-5" d="M1194.45,412a14,14,0,0,0-7.42,2.11,13.35,13.35,0,0,0-15,7.15,16.25,16.25,0,0,0-5.09,12.16c0,8.36,5.63,15.13,12.57,15.13,5,0,9.38-3.56,11.39-8.71a13.59,13.59,0,0,0,3.54.46,14.15,14.15,0,0,0,0-28.3Z"/><path class="cls-12" d="M1206.05,500.25l1.18,3.14s1.18,20.83.78,22.8,1.58,9,1.58,9a50.34,50.34,0,0,1,2.75,22l.39,11s1.57,4.32.79,5.11-6.71-.7-6.71-.7.79-8.25-2-13.36-4.32-18.08-4.32-18.08-3.93-7.86-3.93-11-6.29-28.69-6.29-28.69Z"/><path class="cls-5" d="M1175.39,499.86s.4-14.15,2-18.47a29.64,29.64,0,0,0,1.75-6.27s23.79,4.3,25.76,2.73c0,0,.39,5.5.79,5.89s2,10.22,1.57,14.94,0,4.71,0,4.71-16.12,2.36-16.51,0-1.57-2.35-1.57-2.35S1174.61,500.6,1175.39,499.86Z"/><g class="cls-4"><path class="cls-2" d="M1188.36,499.86s-9.94-.27-12.94-.81v.81c-.78.78,13.76,1.18,13.76,1.18a1.11,1.11,0,0,1,.54.22C1189.19,499.86,1188.36,499.86,1188.36,499.86Z"/><path class="cls-2" d="M1205.66,483.74c-.4-.39-.79-5.89-.79-5.89a1.69,1.69,0,0,1-.67.24c.14,1.66.41,4.21.67,4.47s2,10.22,1.57,14.94,0,4.71,0,4.71-12.75,1.87-15.84.62a4.74,4.74,0,0,0,.12.56c.39,2.36,16.51,0,16.51,0s-.4,0,0-4.71S1206.05,484.14,1205.66,483.74Z"/><path class="cls-14" d="M1188.36,499.86s-9.94-.27-12.94-.81v.81c-.78.78,13.76,1.18,13.76,1.18a1.11,1.11,0,0,1,.54.22C1189.19,499.86,1188.36,499.86,1188.36,499.86Z"/><path class="cls-14" d="M1205.66,483.74c-.4-.39-.79-5.89-.79-5.89a1.69,1.69,0,0,1-.67.24c.14,1.66.41,4.21.67,4.47s2,10.22,1.57,14.94,0,4.71,0,4.71-12.75,1.87-15.84.62a4.74,4.74,0,0,0,.12.56c.39,2.36,16.51,0,16.51,0s-.4,0,0-4.71S1206.05,484.14,1205.66,483.74Z"/></g><path class="cls-12" d="M1192.71,436.78a5.09,5.09,0,0,0,1.5,1.94,3.3,3.3,0,0,0,1.41.61c-.88.51-1.84.89-2.72,1.4a46.85,46.85,0,0,0-4,3,8.14,8.14,0,0,1-4.59,1.78,5.64,5.64,0,0,0,.64-5.59,5.14,5.14,0,0,1-.7-1.94c0-1.13,1-2,1.93-2.6.75-.51,1.52-1,2.3-1.49.61-.38,1.53-1.18,2.3-1.15s.86.71,1,1.41A10.7,10.7,0,0,0,1192.71,436.78Z"/><path class="cls-7" d="M1192.71,436.78a5.09,5.09,0,0,0,1.5,1.94,3.3,3.3,0,0,0,1.41.61c-.88.51-1.84.89-2.72,1.4a46.85,46.85,0,0,0-4,3,8.14,8.14,0,0,1-4.59,1.78,5.64,5.64,0,0,0,.64-5.59,5.14,5.14,0,0,1-.7-1.94c0-1.13,1-2,1.93-2.6.75-.51,1.52-1,2.3-1.49.61-.38,1.53-1.18,2.3-1.15s.86.71,1,1.41A10.7,10.7,0,0,0,1192.71,436.78Z"/><circle class="cls-12" cx="1201.92" cy="450.93" r="9.04"/><path class="cls-13" d="M1214.69,579.24c0,.79-1.57,2.75-1.57,2.75a19.42,19.42,0,0,1-9.43-1.18c-.79-.39.39-2.75.39-2.75l.09-.19a9.53,9.53,0,0,1,1.49-2.56c.78-.78,1.25-4,1.25-4,2.44-4,6.77,1.73,6.77,1.73s.55,3,.84,4.82A13.69,13.69,0,0,1,1214.69,579.24Z"/><path class="cls-7" d="M1214.69,579.24c0,.79-1.57,2.75-1.57,2.75a19.42,19.42,0,0,1-9.43-1.18c-.79-.39.39-2.75.39-2.75l.09-.19a18.85,18.85,0,0,0,8.56,1.76l1.79-1.79C1214.62,578.51,1214.69,579,1214.69,579.24Z"/><circle class="cls-12" cx="1183.84" cy="432.06" r="8.84"/><path class="cls-12" d="M1176.71,449.74c-1.94,1.85-2.26,4.78-2.46,7.45l-.3,3.91a18.63,18.63,0,0,0-.07,3.17c0,.65.16,1.31.22,2s.08,1.56.09,2.35v5.78a6.71,6.71,0,0,0,.64,3.47,2.37,2.37,0,0,0,3,1.08,3.44,3.44,0,0,0,1.24-1.92,30.3,30.3,0,0,0,2-7.32c.08-.87.09-1.74.17-2.61s.23-1.78.36-2.66c.56-3.68.81-7.4,1.06-11.11.07-1.1,1.06-5.43-.38-5.91-.7-.23-2.15.49-2.82.73A7.9,7.9,0,0,0,1176.71,449.74Z"/><path class="cls-7" d="M1176.71,449.74c-1.94,1.85-2.26,4.78-2.46,7.45l-.3,3.91a18.63,18.63,0,0,0-.07,3.17c0,.65.16,1.31.22,2s.08,1.56.09,2.35v5.78a6.71,6.71,0,0,0,.64,3.47,2.37,2.37,0,0,0,3,1.08,3.44,3.44,0,0,0,1.24-1.92,30.3,30.3,0,0,0,2-7.32c.08-.87.09-1.74.17-2.61s.23-1.78.36-2.66c.56-3.68.81-7.4,1.06-11.11.07-1.1,1.06-5.43-.38-5.91-.7-.23-2.15.49-2.82.73A7.9,7.9,0,0,0,1176.71,449.74Z"/><path class="cls-13" d="M1195,437.76s-6.68,5.11-10.61,6.29c0,0-2.33,2.66-2.73,3.3s-1.2,7.7-2,9.28-2.75,5.11,0,8.64c0,0,.78,3.54.39,4.72s-1.82,5.5-.52,5.7,5.24,2.94,8.77,2.16,16.71,3,16.71,3,2.18-20.25,3.76-23.83l-3.54-1.18s-9.82-5.89-3.93-14.93C1201.33,440.91,1195.81,439.73,1195,437.76Z"/><path class="cls-5" d="M1170.65,461.43l8.12,5.75a.59.59,0,0,0,.71,0l2.2-1.65a.61.61,0,0,0,.06-.87l-.06-.07-6.25-5.55a.6.6,0,0,0-.61-.12l-4,1.44a.61.61,0,0,0-.38.78A.63.63,0,0,0,1170.65,461.43Z"/><path class="cls-12" d="M1173.38,478.75a21.55,21.55,0,0,1-.85-6.13l-.12-2.77a7.89,7.89,0,0,1,.29-3.2,5.22,5.22,0,0,1,3.37-2.95,11.65,11.65,0,0,1,4.59-.33.82.82,0,0,1,.91.7,3.64,3.64,0,0,1,.18,2.89,3.09,3.09,0,0,1-.92,1c-1.09.78-2.36,1.3-3.39,2.15a1.25,1.25,0,0,0-.46.58,1.34,1.34,0,0,0,0,.63,9.16,9.16,0,0,0,.52,1.61,1.48,1.48,0,0,0,.45.68c.19.16.44.22.64.37.43.35,1.33.81,1.28,1.36-.15,2-1.35,4.24-1.82,6.22C1177.15,485.38,1174,480.44,1173.38,478.75Z"/><g class="cls-4"><path class="cls-2" d="M1186,477.85h-.22a6.54,6.54,0,0,0,2.57,0h.25A9.43,9.43,0,0,0,1186,477.85Z"/><path class="cls-2" d="M1206.64,456.43c-1.41,3.17-3.49,20.34-3.86,23.75,1.38.36,2.29.62,2.29.62s2.16-20.2,3.74-23.78Z"/></g><path class="cls-12" d="M1202.23,451.21a3,3,0,0,0,1.29,2,17.93,17.93,0,0,1,2.29,2.32,16.85,16.85,0,0,1,2.27,4.55,56.4,56.4,0,0,1,1.89,6.22c-5,2.32-10.68,2.21-16,3.74a12.79,12.79,0,0,0-6,3.55,8.23,8.23,0,0,0-2.21,6.51.78.78,0,0,0,.12.39.83.83,0,0,0,.7.28,6,6,0,0,0,3.67-1.26,17.89,17.89,0,0,0,2.81-2.76,4.48,4.48,0,0,1,2-1.48c2.89-.88,6-.83,9-.88a113.75,113.75,0,0,0,13.41-1.06,1.08,1.08,0,0,0,1.2-.94,1.13,1.13,0,0,0,0-.26c.44-5.9-1.75-11.66-4-17.13-.9-2.19-1.83-4.38-2.78-6.55a19.68,19.68,0,0,0-3.4-5.82,6.06,6.06,0,0,0-2-1.48,8.47,8.47,0,0,0-2.68-.5,19,19,0,0,0-4.39-.08,8.83,8.83,0,0,0-.42,2.27c.08,2.7,1.26,5.23,2.42,7.67C1201.57,450.83,1202,450.85,1202.23,451.21Z"/><path class="cls-15" d="M1186.22,456.27a7.23,7.23,0,0,0-1,3.82,4.85,4.85,0,0,0,.25,1.56,5,5,0,0,0,3.19,3"/><path class="cls-5" d="M1191.31,423.42a4.68,4.68,0,0,0-1.45.23c-1.31-2-4.39-3.38-8-3.38-4.78,0-8.65,2.47-8.65,5.51s3.87,5.5,8.65,5.5a12.08,12.08,0,0,0,5.19-1.1,4.71,4.71,0,1,0,4.24-6.76Z"/><path class="cls-7" d="M1191.7,431.67a4.7,4.7,0,0,1-4.24-2.67,12.08,12.08,0,0,1-5.19,1.1c-4.77,0-8.64-2.46-8.64-5.5a2.53,2.53,0,0,1,0-.55,3.62,3.62,0,0,0-.44,1.73c0,3,3.87,5.5,8.65,5.5a12.08,12.08,0,0,0,5.19-1.1,4.71,4.71,0,0,0,8.87-1.17A4.69,4.69,0,0,1,1191.7,431.67Z"/><path class="cls-7" d="M1172,423.6a13.35,13.35,0,0,1,15-7.15,14.14,14.14,0,0,1,21.52,10.86v-1.18a14.14,14.14,0,0,0-21.57-12,13.35,13.35,0,0,0-15,7.15,16.25,16.25,0,0,0-5.09,12.16v1.18A16,16,0,0,1,1172,423.6Z"/><path class="cls-10" d="M1262.2,426.6c2.61-4.83-.35-10.76-3.76-15.07s-7.55-8.79-7.46-14.29c.12-7.89,8.5-12.55,15.2-16.74a74,74,0,0,0,13.64-11,20.07,20.07,0,0,0,4.2-5.61c1.38-3.09,1.34-6.6,1.26-10q-.45-16.9-1.67-33.76"/><path class="cls-6" d="M1296.33,319.53a12.3,12.3,0,0,0-6.14-10.08l-2.76,5.45.08-6.6a12.11,12.11,0,0,0-4-.49,12.31,12.31,0,1,0,12.87,11.72Z"/><path class="cls-6" d="M1274.38,402.86a12.31,12.31,0,1,1,.59-9.92l-7.69,6.26,8.46-2A12.36,12.36,0,0,1,1274.38,402.86Z"/><path class="cls-6" d="M1268.3,379a12.31,12.31,0,0,1-3.91-24.15l-.06,5.07,2.79-5.51h0a12.31,12.31,0,0,1,1.16,24.6h0Z"/><path class="cls-6" d="M1298.18,359.07a12.31,12.31,0,1,1,5.45-23l-2.18,6,4.48-4.3a12.25,12.25,0,0,1,4,8.5,12.08,12.08,0,0,1-.31,3.39A12.31,12.31,0,0,1,1298.18,359.07Z"/><path class="cls-7" d="M1294.68,322.81c-2.84.32-5.61,1.2-8.46,1.38s-6-.51-7.79-2.73a36.71,36.71,0,0,1-2.27-4,8.94,8.94,0,0,0-3.1-2.92A12.31,12.31,0,1,0,1295,325.75a12.51,12.51,0,0,0,1.08-3C1295.6,322.73,1295.14,322.76,1294.68,322.81Z"/><path class="cls-7" d="M1298.18,359.07a12.31,12.31,0,0,1-11.71-17.56A9.4,9.4,0,0,1,1289,344a38.1,38.1,0,0,0,2.44,4.07c1.91,2.26,5.19,3,8.16,2.86s5.84-1,8.8-1.25c.41,0,.83-.07,1.24-.08A12.32,12.32,0,0,1,1298.18,359.07Z"/><path class="cls-7" d="M1268.3,379a12.3,12.3,0,0,1-12.89-11.68,12.17,12.17,0,0,1,1.08-5.67,10.13,10.13,0,0,1,2.6,2.5c1,1.35,1.55,2.91,2.67,4.15,2.08,2.32,5.57,3.13,8.72,3.06s6-.82,9-1.05A12.31,12.31,0,0,1,1268.3,379Z"/><path class="cls-7" d="M1274.38,402.86a12.32,12.32,0,0,1-22.45-10,12.38,12.38,0,0,1,2.7,2.41c1.18,1.43,1.95,3,3.3,4.38,2.52,2.47,6.58,3.48,10.2,3.58A52.28,52.28,0,0,0,1274.38,402.86Z"/><path class="cls-10" d="M1421.2,578.6c2.61-4.83-.35-10.76-3.76-15.07s-7.55-8.79-7.46-14.29c.12-7.89,8.5-12.55,15.2-16.74a74,74,0,0,0,13.64-11,20.07,20.07,0,0,0,4.2-5.61c1.38-3.09,1.34-6.6,1.26-10q-.43-16.9-1.67-33.76"/><path class="cls-6" d="M1455.33,471.53a12.3,12.3,0,0,0-6.14-10.08l-2.76,5.45.08-6.6a12.3,12.3,0,1,0,8.87,11.23h-.05Z"/><path class="cls-6" d="M1433.38,554.86a12.31,12.31,0,1,1,.59-9.92l-7.69,6.26,8.46-2A12.36,12.36,0,0,1,1433.38,554.86Z"/><path class="cls-6" d="M1427.3,531a12.31,12.31,0,0,1-3.91-24.15l-.06,5.07,2.79-5.51h0a12.31,12.31,0,0,1,1.16,24.6h0Z"/><path class="cls-6" d="M1457.18,511.07a12.31,12.31,0,1,1,5.45-23l-2.18,6,4.48-4.3a12.25,12.25,0,0,1,4,8.5,12.08,12.08,0,0,1-.31,3.39A12.31,12.31,0,0,1,1457.18,511.07Z"/><path class="cls-7" d="M1453.68,474.81c-2.84.32-5.61,1.2-8.46,1.38s-6-.51-7.79-2.73a36.71,36.71,0,0,1-2.27-4,8.94,8.94,0,0,0-3.1-2.92A12.31,12.31,0,1,0,1454,477.75a12.51,12.51,0,0,0,1.08-3C1454.6,474.73,1454.14,474.76,1453.68,474.81Z"/><path class="cls-7" d="M1457.18,511.07a12.31,12.31,0,0,1-11.71-17.56A9.4,9.4,0,0,1,1448,496a38.1,38.1,0,0,0,2.44,4.07c1.91,2.26,5.19,3,8.16,2.86s5.84-1,8.8-1.25c.41,0,.83-.07,1.24-.08A12.32,12.32,0,0,1,1457.18,511.07Z"/><path class="cls-7" d="M1427.3,531a12.3,12.3,0,0,1-12.89-11.68,12.17,12.17,0,0,1,1.08-5.67,10.13,10.13,0,0,1,2.6,2.5c1,1.35,1.55,2.91,2.67,4.15,2.08,2.32,5.57,3.13,8.72,3.06s6-.82,9-1A12.31,12.31,0,0,1,1427.3,531Z"/><path class="cls-7" d="M1433.38,554.86a12.32,12.32,0,0,1-22.45-10,12.38,12.38,0,0,1,2.7,2.41c1.18,1.43,2,3,3.3,4.38,2.52,2.47,6.58,3.48,10.2,3.58A52.28,52.28,0,0,0,1433.38,554.86Z"/><path class="cls-16" d="M903.81,437.51a9.84,9.84,0,0,0-3.91-7.92,11.5,11.5,0,0,0-9.61-11.28,11.49,11.49,0,0,0-7.65-8.55h0a11.68,11.68,0,0,0-1.42-.33h-1.69a11.25,11.25,0,0,0-10.88,9.62c-3.51-.81-6.72.24-7.31,2.46a2.93,2.93,0,0,0,.1,1.78c.6,1.72,2.55,3.37,5.16,4.18l.34.1.51.13h.11a8.86,8.86,0,0,0,3.87,11.59l-.23.14a3,3,0,0,0-.76,1.06A15.86,15.86,0,0,0,869,444c-.25,1.06-.29,2.16-.6,3.21-.58,1.93-2.06,3.56-2.23,5.57-.08.9.07,2-.57,2.58a3,3,0,0,1-.51.36,4,4,0,0,0-1.11,1.17,4,4,0,0,1-.78,1.12c-.58.43-1.53.39-1.81,1.06s.45,1.46.28,2.19-.79.87-1.24,1.28a4.29,4.29,0,0,0-1.07,2,6.54,6.54,0,0,1-5.4-1.38,10.81,10.81,0,0,1,.56,2,8.85,8.85,0,0,0-2.91-1.46,9.13,9.13,0,0,1-3.1-2.3l1.66-.23L842.81,450l-2.17-.45,1.94,3.73a1.19,1.19,0,0,0-.66.79,3.21,3.21,0,0,0-.07,1.27,21.83,21.83,0,0,0,.5,3l.56,2.62c.05.24.11.49.18.73a7.16,7.16,0,0,0-2.17.24,19,19,0,0,0-4.51-1.07,2.41,2.41,0,0,0-1,0,2.55,2.55,0,0,0-.95.77,30.37,30.37,0,0,0-3.35,4.72c-4,6.86-9.21,12.85-14.14,19.05-3.4,1.38-6.83,2.69-10.26,4l-7.38,2.82a11.3,11.3,0,0,1-4.58,1c-.7,0-1.57-.15-2,.45a3.75,3.75,0,0,0-.45,1l-.76.08h0a8.86,8.86,0,0,0-1.77-3.26,1.1,1.1,0,0,0-.83.64c-.18.33-.29.69-.5,1-.39.58-1.08.86-1.57,1.35s-.8,1.25-1.34,1.75a5.25,5.25,0,0,1-2.51,1,15.69,15.69,0,0,0-3.93,1.49,6.57,6.57,0,0,1-1.45.67,5.46,5.46,0,0,1-1.71.06l-3.9-.29a3.08,3.08,0,0,0-1,.05,2,2,0,0,0-1.24,2,3.14,3.14,0,0,0,1.24,2.15,7.69,7.69,0,0,0,2.22,1.15,63.69,63.69,0,0,0,10.4,3.08v.79a17.77,17.77,0,0,0,8,1.9,1.15,1.15,0,0,0,.6-.11,1.36,1.36,0,0,0,.5-.78,32.27,32.27,0,0,0,1.56-7.66h0a3.92,3.92,0,0,0,1.41-.36c1.34-.37,2.68.55,4.07.7,1.71.19,3.29-.81,4.91-1.42l.7-.23a7.68,7.68,0,0,1-1.62,1.55c-.67.48-1.42.84-2.07,1.34a14.48,14.48,0,0,1-1.76,1.36,11.05,11.05,0,0,1-1.35.52,8.62,8.62,0,0,0-1.93,1,3.91,3.91,0,0,0-1.31,1.28,1.73,1.73,0,0,0,1.18,2.7,5.3,5.3,0,0,0,1.59,0c2.12-.16,4.23-.35,6.34-.54a17.09,17.09,0,0,0,2.65-.38c.46-.11.92-.26,1.38-.39a12.2,12.2,0,0,1,2.41-.36,2.09,2.09,0,0,1,.7.07c.49.16.84.66,1.34.76a2,2,0,0,0,1-.13,22.37,22.37,0,0,1,4.69-.5,1.94,1.94,0,0,0,1.82-.81c.32-.64-.26-1.67-.52-2.52a7.13,7.13,0,0,1-.22-1.66,10.44,10.44,0,0,0-1.16-3.94,10,10,0,0,1-.87-1.8,46.06,46.06,0,0,0,8.63-4.38,15.45,15.45,0,0,1,4.92-2.37,13.42,13.42,0,0,1,6.18.72,140.61,140.61,0,0,1,14.17,4.94c2.21.91,4.41,1.87,6.69,2.56a10.24,10.24,0,0,0,2.38,2.31,10.93,10.93,0,0,0,5.15,1.41,67.48,67.48,0,0,0,7.25.27,12.22,12.22,0,0,0,5.4-1,5.55,5.55,0,0,0,1.13-.75,4.5,4.5,0,0,0,3.56-1.31,8.64,8.64,0,0,0,2.71-4.28c.59-2.28.14-5,1.54-6.82.37-.5.86-.9,1.23-1.4a4,4,0,0,0,.64-2.31.24.24,0,0,1,.06-.09,8.67,8.67,0,0,0,.6-2.3,13.14,13.14,0,0,1,.65-1.82,56.19,56.19,0,0,0,1.86-5.39,33.1,33.1,0,0,0,.86-3.7c.15-1,.24-2,.32-3a18.36,18.36,0,0,1,.91-4.63,37.74,37.74,0,0,0,2.1-11.08v-.22a7.44,7.44,0,0,0,6.58-7.56,8,8,0,0,0-.69-3.23A10.11,10.11,0,0,0,903.81,437.51ZM868,481c.11.39.24.77.37,1.15-.59-.57-1.16-1.16-1.75-1.74.23.08.47.15.69.24a4.17,4.17,0,0,1,.66.35Zm-2.83-1.92c-3.46-3-7.46-5.33-11-8.24,1.93.95,3.81,2.06,5.67,3.12q3.3,1.89,6.71,3.63a5.56,5.56,0,0,1-1.41,1.49Zm1.47-7.56.17-.17v1.19l-.93-.32a9.61,9.61,0,0,0,.73-.7Zm-30.43,8.1a29,29,0,0,0,3.68-5.25c1.37,2.39,3.6,4.12,5.49,6.13C842.36,480.09,839.3,479.76,836.24,479.6Z"/><polygon class="cls-17" points="841.16 450.48 843.34 450.92 850.77 461.91 847.5 462.35 841.16 450.48"/><path class="cls-18" d="M788.3,495.06a42.25,42.25,0,0,0,2.18,5.67,54,54,0,0,0,7.25-2.07,24.36,24.36,0,0,0-1.51-2,7.46,7.46,0,0,0-2.05-1.57,5.81,5.81,0,0,0-2.49,0C790.56,495.06,789.43,495.08,788.3,495.06Z"/><path class="cls-17" d="M794.18,498a4.46,4.46,0,0,1-2.48-2.82,9.22,9.22,0,0,0-1.89-3.37,1.08,1.08,0,0,0-.84.63c-.18.32-.29.68-.49,1-.4.57-1.1.85-1.6,1.33s-.8,1.23-1.34,1.72a5.36,5.36,0,0,1-2.53,1,16.54,16.54,0,0,0-4,1.47,6.9,6.9,0,0,1-1.47.66,5.51,5.51,0,0,1-1.72,0l-3.94-.28a3.35,3.35,0,0,0-1,0,1.9,1.9,0,0,0-1.25,2,3,3,0,0,0,1.25,2.12,8.17,8.17,0,0,0,2.24,1.14,65.54,65.54,0,0,0,10.56,3v.78a18.25,18.25,0,0,0,8.05,1.87,1.38,1.38,0,0,0,.6-.1,1.36,1.36,0,0,0,.5-.78,31.58,31.58,0,0,0,1.65-8.56,7.14,7.14,0,0,0-.17-2.21c-.22-.71.52-.41-.16-.69"/><path class="cls-17" d="M869.74,483.14c-11.68.7-23.22-2.72-34.92-3.08a17.52,17.52,0,0,0-4.34.27,21.4,21.4,0,0,0-4.3,1.67c-6.27,2.92-12.76,5.34-19.24,7.75l-7.45,2.77a11.12,11.12,0,0,1-4.61,1c-.71,0-1.58-.15-2,.44-1.21,1.8-.64,4.43.16,6.45.26.65.7,1.36,1.4,1.43a3.92,3.92,0,0,0,1.42-.36c1.35-.36,2.7.55,4.1.7,1.72.18,3.32-.8,4.95-1.4,2.7-1,5.64-1,8.48-1.44,4.75-.79,9.16-3,13.28-5.51a15.32,15.32,0,0,1,5-2.34,13.76,13.76,0,0,1,6.23.71,144.78,144.78,0,0,1,14.29,4.86,65.89,65.89,0,0,0,7.46,2.73,27,27,0,0,0,16.73-1c1.87-.74,3.9-2,4-4.06.07-1.15-.83-2.16-1.42-3.15-.38-.63-.77-1.26-1.18-1.87C875.73,486.81,873.29,482.93,869.74,483.14Z"/><path class="cls-7" d="M869.74,483.14c-11.68.7-23.22-2.72-34.92-3.08a17.52,17.52,0,0,0-4.34.27,21.4,21.4,0,0,0-4.3,1.67c-6.27,2.92-12.76,5.34-19.24,7.75l-7.45,2.77a11.12,11.12,0,0,1-4.61,1c-.71,0-1.58-.15-2,.44-1.21,1.8-.64,4.43.16,6.45.26.65.7,1.36,1.4,1.43a3.92,3.92,0,0,0,1.42-.36c1.35-.36,2.7.55,4.1.7,1.72.18,3.32-.8,4.95-1.4,2.7-1,5.64-1,8.48-1.44,4.75-.79,9.16-3,13.28-5.51a15.32,15.32,0,0,1,5-2.34,13.76,13.76,0,0,1,6.23.71,144.78,144.78,0,0,1,14.29,4.86,65.89,65.89,0,0,0,7.46,2.73,27,27,0,0,0,16.73-1c1.87-.74,3.9-2,4-4.06.07-1.15-.83-2.16-1.42-3.15-.38-.63-.77-1.26-1.18-1.87C875.73,486.81,873.29,482.93,869.74,483.14Z"/><path class="cls-18" d="M810.73,495.6c1.82.62,3.67,1.19,5.53,1.72,1-1.71,3-2.9,3.43-4.86a.57.57,0,0,0,0-.26.55.55,0,0,0-.21-.19,10.53,10.53,0,0,0-4.34-1.27c-1.2-.07-1.75,1.18-2.29,2.06C812.64,493.19,811.22,495.79,810.73,495.6Z"/><path class="cls-17" d="M813.29,494.38a4,4,0,0,1-2.69-1.77c-.25-.45-.53-1.06-1.05-1s-.69.6-.8,1.07a31.15,31.15,0,0,1-1.51,5.19,9.76,9.76,0,0,1-3.23,4.25c-.68.47-1.43.82-2.1,1.32a15.24,15.24,0,0,1-1.77,1.34,9.65,9.65,0,0,1-1.36.5,9.13,9.13,0,0,0-1.94,1,3.85,3.85,0,0,0-1.33,1.27,1.8,1.8,0,0,0-.1,1.77,1.85,1.85,0,0,0,1.29.88,5.43,5.43,0,0,0,1.61,0c2.13-.15,4.26-.34,6.39-.53a18.63,18.63,0,0,0,2.67-.37l1.39-.38a11.06,11.06,0,0,1,2.43-.36,1.89,1.89,0,0,1,.71.07c.49.16.84.65,1.35.75a2.27,2.27,0,0,0,1-.13,22.08,22.08,0,0,1,4.73-.49,2,2,0,0,0,1.84-.8c.4-.78-.26-1.65-.53-2.49a7.44,7.44,0,0,1-.22-1.63A10,10,0,0,0,818.9,500c-.54-1-1.28-2.1-.9-3.16a3,3,0,0,0,.36-1.09C818.21,494,814.27,494.6,813.29,494.38Z"/><path class="cls-18" d="M852.23,464.4a9.06,9.06,0,0,1-4.66-4.62c-.19-.44-.35-.91-.54-1.35a10.39,10.39,0,0,0-2.78-3.87,1.41,1.41,0,0,0-1-.43,1.1,1.1,0,0,0-.75.81,2.93,2.93,0,0,0-.08,1.25,22.27,22.27,0,0,0,.5,2.92l.57,2.58a5.1,5.1,0,0,0,.35,1.15,3.82,3.82,0,0,0,.95,1.13c.52.48,1.05.94,1.58,1.4a4.94,4.94,0,0,0,1,.69,5.65,5.65,0,0,0,1.77.52,15.11,15.11,0,0,1,6.64,2.56v-1.92a2.58,2.58,0,0,0-.5-1.39A8.89,8.89,0,0,0,852.23,464.4Z"/><path class="cls-7" d="M852.23,464.4a9.06,9.06,0,0,1-4.66-4.62c-.19-.44-.35-.91-.54-1.35a10.39,10.39,0,0,0-2.78-3.87,1.41,1.41,0,0,0-1-.43,1.1,1.1,0,0,0-.75.81,2.93,2.93,0,0,0-.08,1.25,22.27,22.27,0,0,0,.5,2.92l.57,2.58a5.1,5.1,0,0,0,.35,1.15,3.82,3.82,0,0,0,.95,1.13c.52.48,1.05.94,1.58,1.4a4.94,4.94,0,0,0,1,.69,5.65,5.65,0,0,0,1.77.52,15.11,15.11,0,0,1,6.64,2.56v-1.92a2.58,2.58,0,0,0-.5-1.39A8.89,8.89,0,0,0,852.23,464.4Z"/><ellipse class="cls-17" cx="876.01" cy="441.8" rx="2.84" ry="2.86"/><path class="cls-17" d="M874.25,440.08a2.31,2.31,0,0,0-3,1.37,14.82,14.82,0,0,0-1.48,3.48c-.25,1-.29,2.13-.61,3.16-.58,1.9-2.07,3.51-2.24,5.49-.08.89.07,1.93-.58,2.53a3.68,3.68,0,0,1-.51.37,3.72,3.72,0,0,0-1.12,1.15,3.91,3.91,0,0,1-.79,1.09c-.58.43-1.54.39-1.82,1s.45,1.44.28,2.16-.8.86-1.25,1.26a4.31,4.31,0,0,0-1.08,2,6.65,6.65,0,0,1-5.44-1.35,17.5,17.5,0,0,1,.85,6.22,2.54,2.54,0,0,1-.5,1.92,35.15,35.15,0,0,1,6.67,1.16,4.53,4.53,0,0,0,2.91,0,4.9,4.9,0,0,0,1.34-1.06c1.2-1.22,2.46-2.55,2.75-4.24a27.44,27.44,0,0,0,0-2.87,15.93,15.93,0,0,1,.73-3.49,42.51,42.51,0,0,0,1.27-7.18c.13-1.5,1.43-2.7,2.11-4,1.28-2.53,2.6-5.16,2.69-8C875.51,441.33,875.19,440.18,874.25,440.08Z"/><path class="cls-7" d="M874.25,440.08a2.31,2.31,0,0,0-3,1.37,14.82,14.82,0,0,0-1.48,3.48c-.25,1-.29,2.13-.61,3.16-.58,1.9-2.07,3.51-2.24,5.49-.08.89.07,1.93-.58,2.53a3.68,3.68,0,0,1-.51.37,3.72,3.72,0,0,0-1.12,1.15,3.91,3.91,0,0,1-.79,1.09c-.58.43-1.54.39-1.82,1s.45,1.44.28,2.16-.8.86-1.25,1.26a4.31,4.31,0,0,0-1.08,2,6.65,6.65,0,0,1-5.44-1.35,17.5,17.5,0,0,1,.85,6.22,2.54,2.54,0,0,1-.5,1.92,35.15,35.15,0,0,1,6.67,1.16,4.53,4.53,0,0,0,2.91,0,4.9,4.9,0,0,0,1.34-1.06c1.2-1.22,2.46-2.55,2.75-4.24a27.44,27.44,0,0,0,0-2.87,15.93,15.93,0,0,1,.73-3.49,42.51,42.51,0,0,0,1.27-7.18c.13-1.5,1.43-2.7,2.11-4,1.28-2.53,2.6-5.16,2.69-8C875.51,441.33,875.19,440.18,874.25,440.08Z"/><path class="cls-17" d="M871.59,485.6c-2.43-1.16-4.21-3.31-6.18-5.16-3.75-3.53-8.34-6-12.29-9.33-2.62-2.19-5-4.74-7.83-6.58a19.57,19.57,0,0,0-8.39-2.93,2.41,2.41,0,0,0-1,0,2.26,2.26,0,0,0-.95.75,30.22,30.22,0,0,0-3.39,4.65c-5,8.5-12.11,15.64-18,23.54a1.43,1.43,0,0,0-.29.56,1.34,1.34,0,0,0,.22.87l1.2,2.34c.67,1.32,1.75,2.85,3.19,2.59a3.6,3.6,0,0,0,1.67-1.07l5.38-5.15,5.64-5.39c3.3-3.15,6.66-6.38,8.82-10.42,1.68,2.92,4.67,4.83,6.71,7.5.78,1,1.42,2.13,2.12,3.21,1.11,1.72,2.38,3.34,3.64,5l6.47,8.25a12.21,12.21,0,0,0,3,3,11.33,11.33,0,0,0,5.19,1.39,68.59,68.59,0,0,0,7.31.26,12.6,12.6,0,0,0,5.45-1,4.94,4.94,0,0,0,3-4.39,6.48,6.48,0,0,0-.93-2.73C879,491.19,875.94,487.67,871.59,485.6Z"/><ellipse class="cls-19" cx="877.76" cy="443.78" rx="2.19" ry="2.2"/><path class="cls-18" d="M877.28,442.13a4.27,4.27,0,0,1,.24,3.16,13,13,0,0,1-1.41,2.91,14,14,0,0,1-1.83,2.6c3.38.16,6.65-1.16,9.62-2.76,2.4-1.29,4.79-2.88,6.07-5.29a2.77,2.77,0,0,1-2.24-.42,7.83,7.83,0,0,1-1.71-1.59l-1.69-1.9a7.39,7.39,0,0,1-1-1.37,3.69,3.69,0,0,1-.45-2.21,13.25,13.25,0,0,1-2.24,1.86c-1.21.79-2.54,1.36-3.76,2.14-.42.28-1.38.72-1.13,1.28S876.94,441.53,877.28,442.13Z"/><path class="cls-7" d="M877.28,442.13a4.27,4.27,0,0,1,.24,3.16,13,13,0,0,1-1.41,2.91,14,14,0,0,1-1.83,2.6c3.38.16,6.65-1.16,9.62-2.76,2.4-1.29,4.79-2.88,6.07-5.29a2.77,2.77,0,0,1-2.24-.42,7.83,7.83,0,0,1-1.71-1.59l-1.69-1.9a7.39,7.39,0,0,1-1-1.37,3.69,3.69,0,0,1-.45-2.21,13.25,13.25,0,0,1-2.24,1.86c-1.21.79-2.54,1.36-3.76,2.14-.42.28-1.38.72-1.13,1.28S876.94,441.53,877.28,442.13Z"/><path class="cls-19" d="M877.32,442.46a2.82,2.82,0,0,0,0,3.3c.1.12.46.87.61.88a.55.55,0,0,0,.38-.2,24.9,24.9,0,0,0,2.14-2.55,4.79,4.79,0,0,1,2.72-1.78,5.89,5.89,0,0,1,3.75,1.17,2.54,2.54,0,0,1,1.71,2.43,70.8,70.8,0,0,1,.38,9.09,36.79,36.79,0,0,1-.43,6.55c-.22,1.11-.54,2.2-.69,3.33a20.09,20.09,0,0,0-.14,3v4.18a10.31,10.31,0,0,0,.16,2.29c.2.91.63,1.76.92,2.65a17.5,17.5,0,0,1,.61,3.13l.57,4.32c.18,1.36.32,2.85-.51,4-.37.49-.86.89-1.24,1.38-1.41,1.84-1,4.47-1.55,6.72a8.43,8.43,0,0,1-2.74,4.2,4.54,4.54,0,0,1-3.61,1.29c-1.76-.33-2.81-2.16-3.29-3.89s-.65-3.61-1.69-5.07a13.75,13.75,0,0,0-3.34-2.79,5.72,5.72,0,0,1-2.61-3.39c-.11-.63,0-1.28-.11-1.92a4.54,4.54,0,0,0-2.79-3.67c-.9-.35-2-.48-2.52-1.3a6.09,6.09,0,0,0,2.63-3.53,18.61,18.61,0,0,0,.64-4.46l.3-5c.14-2.25.2-4.47,1.19-6.49.44-.9,1-1.75,1.45-2.64a29.47,29.47,0,0,0,1.55-3.87c.72-2.06,1.44-4.12,2.08-6.2a11.6,11.6,0,0,1,1.14-2.89C875.53,443.79,876.31,442.66,877.32,442.46Z"/><path class="cls-17" d="M866.17,475.1h1.33l.28-2a4,4,0,0,1,.28-1.17,6.55,6.55,0,0,1,.77-1.12c1.3-1.85,1.21-4.3,1.53-6.55a33.32,33.32,0,0,1,2.92-8.56l2.58-5.75a8.41,8.41,0,0,0,.56-1.47,9.69,9.69,0,0,0,.16-1.7c0-.89.28-4.13.31-5,0-.33-.73-.15-.88-.44-.32-.64-.76,1.09-1.37,1.47a3.34,3.34,0,0,0-1.19,1.74c-.56,1.44-.9,3-1.42,4.43a9.23,9.23,0,0,1-2.41,3.92c-.53.46-1.14.83-1.64,1.33-1.6,1.58-1.76,4.09-1.81,6.35C866.13,462,865.87,475.1,866.17,475.1Z"/><path class="cls-17" d="M885.31,440.07a4.54,4.54,0,0,0-2.37,3.25,16.92,16.92,0,0,1-1.2,4c-1.62,2.82-5.75,3.64-6.9,6.69a12.06,12.06,0,0,0-.46,3.15c-.2,2.19-.92,4.3-1.14,6.48a28.84,28.84,0,0,0,.12,5.09L874.81,486a23.26,23.26,0,0,1-.43,7.58,7.33,7.33,0,0,0,4.34-.72c1.35-.62,2.59-1.47,3.9-2.19,2.24-1.24,4.72-2.11,6.69-3.76a4.3,4.3,0,0,0,.9-1,8.77,8.77,0,0,0,.6-2.26,11.5,11.5,0,0,1,.65-1.78,52.45,52.45,0,0,0,1.88-5.32,32.09,32.09,0,0,0,.86-3.64c.16-1,.25-2,.33-3a17.27,17.27,0,0,1,.92-4.55,37,37,0,0,0,2.11-10.92,5.76,5.76,0,0,0-.11-1.6,8.81,8.81,0,0,0-.88-1.83c-.6-1.13-1-2.37-1.52-3.52a17.33,17.33,0,0,0-5.91-6.21C888,440.44,886.62,439.6,885.31,440.07Z"/><path class="cls-18" d="M855.1,468.17a10.22,10.22,0,0,1-2.75-2.09c-.36-.42-.66-.89-1-1.31a6.87,6.87,0,0,0-3.46-2,16.86,16.86,0,0,0-4-.39,7.29,7.29,0,0,0-2.67.32,2.71,2.71,0,0,0-1.77,1.9,3.13,3.13,0,0,0,1.35,2.8,6.31,6.31,0,0,0,2.69,1.3,21.78,21.78,0,0,0,2.43.29c4.78.5,9.05,3.1,13.24,5.47q5.52,3.14,11.26,5.84a24.85,24.85,0,0,0,.19-3.45c0-.86-.07-2.18-.88-2.69a18.18,18.18,0,0,0-3.58-1.07,54.93,54.93,0,0,1-7.21-2.92A35.89,35.89,0,0,1,855.1,468.17Z"/><ellipse class="cls-18" cx="876.01" cy="432.58" rx="8.52" ry="8.57"/><path class="cls-17" d="M887.74,449.78a13.51,13.51,0,0,0-1.65,3.09c-1,2.16-2.7,4-3.53,6.29s-.84,5.23-2.55,7.1a2.46,2.46,0,0,0-.75,1.08,6.87,6.87,0,0,1-.08.78c-.25.68-1.36.71-1.57,1.41-.06.2,0,.42-.1.62-.17.45-.77.52-1.16.79-.83.56-.66,1.86-1.25,2.67a2.24,2.24,0,0,1-2.13.75,7.46,7.46,0,0,1-2.21-.83,2.26,2.26,0,0,0-.8-.25,1.58,1.58,0,0,0-.92.32,5.64,5.64,0,0,0-2.3,4.85,15.68,15.68,0,0,0,1.32,5.43,2.12,2.12,0,0,0,.43.81,1.91,1.91,0,0,0,2.12.16,9.64,9.64,0,0,1,2.07-.93c1.32-.24,2.61.67,4,.59a5.51,5.51,0,0,0,2.66-1.17,14.7,14.7,0,0,0,3.58-3c.58-.77,1-1.64,1.52-2.46a31.54,31.54,0,0,1,2.15-2.87l4.92-6a14.81,14.81,0,0,0,1.32-1.82,13.3,13.3,0,0,0,1-2.75,21.46,21.46,0,0,0,1-4.89,18.84,18.84,0,0,0-.36-4.1,14.7,14.7,0,0,0-1-3.91C892.35,449.28,889.75,447.44,887.74,449.78Z"/><path class="cls-20" d="M904.86,438.6a9.62,9.62,0,0,0-3.94-7.8,11.42,11.42,0,0,0-9.69-11.11,11.07,11.07,0,0,0-21.81.59c-3.54-.8-6.78.24-7.37,2.42s1.91,5,5.64,6a10.51,10.51,0,0,0,3.62.36,11.06,11.06,0,0,0,7.62,4.75,11.34,11.34,0,0,0,8.32,8.58,9.54,9.54,0,0,0,2.57,3.55v.83a7.21,7.21,0,0,0,14.42,0v0a7.79,7.79,0,0,0-.69-3.19A9.66,9.66,0,0,0,904.86,438.6Z"/><path class="cls-7" d="M864.45,423.16c.59-2.18,3.83-3.22,7.37-2.42a11.25,11.25,0,0,1,11-9.48h.73a10.81,10.81,0,0,0-3.14-.47,11.25,11.25,0,0,0-11,9.48c-3.54-.8-6.78.24-7.37,2.42s1.91,5,5.64,6a11,11,0,0,0,2.14.37C866.25,428,863.86,425.39,864.45,423.16Z"/><path class="cls-7" d="M892.18,447.19a5.61,5.61,0,0,1,0-.82,9.25,9.25,0,0,1-2.57-3.55,11.34,11.34,0,0,1-8.32-8.59,11,11,0,0,1-7.63-4.74,9.48,9.48,0,0,1-2.13-.06,11.11,11.11,0,0,0,7.35,4.37,11.34,11.34,0,0,0,8.32,8.58,9.54,9.54,0,0,0,2.57,3.55v.83a7.33,7.33,0,0,0,7.17,7.46A7.43,7.43,0,0,1,892.18,447.19Z"/><ellipse class="cls-18" cx="878.86" cy="434.33" rx="1.31" ry="1.75" transform="translate(-83.71 620.06) rotate(-37.22)"/></g></g></svg>