<svg xmlns="http://www.w3.org/2000/svg" viewBox="0 0 311.85 64.52"><defs><style>.cls-1{fill:#fff;}</style></defs><g id="Capa_2" data-name="Capa 2"><g id="Capa_1-2" data-name="Capa 1"><path class="cls-1" d="M26.49,23.53A23.24,23.24,0,0,1,32,24.61a15.13,15.13,0,0,1,4.7,2.46A12.11,12.11,0,0,1,39.91,31a11,11,0,0,1,1.23,5.27A15.29,15.29,0,0,1,40,42.4a10.68,10.68,0,0,1-3.18,4.19A13.43,13.43,0,0,1,32,49a24.34,24.34,0,0,1-6.28.76H.15a15.5,15.5,0,0,0,.75-3c.22-1.25.4-2.62.54-4.12s.26-3.06.33-4.72.13-3.26.18-4.8.08-3,.11-4.26,0-2.36,0-3.18c0-1.68,0-3.67,0-6s-.11-4.62-.25-7-.37-4.7-.66-7A35.12,35.12,0,0,0,0,0,16.43,16.43,0,0,0,2.89.43c1.2.1,2.46.16,3.79.18s2.64,0,4,0h13.6a23.13,23.13,0,0,1,5.16.58A14.88,14.88,0,0,1,34,3a10.59,10.59,0,0,1,3.25,3.14,8.3,8.3,0,0,1,1.26,4.66,10.23,10.23,0,0,1-.94,4.51A11,11,0,0,1,35,18.69a19.16,19.16,0,0,1-3.79,2.6C29.74,22.06,28.17,22.81,26.49,23.53ZM14.72,1.3a32,32,0,0,0-1.08,4.94Q13.2,9.16,13,12.31t-.36,6c-.08,1.93-.11,3.52-.11,4.77l3,.07c3.7,0,6.64-.87,8.8-2.6s3.25-4.64,3.25-8.73a9.9,9.9,0,0,0-3-7.55Q21.51,1.46,14.72,1.3Zm-.14,47.78a23.09,23.09,0,0,0,6.1-1.19,15.64,15.64,0,0,0,4.8-2.64,12.08,12.08,0,0,0,3.17-4,11.45,11.45,0,0,0,1.16-5.19q0-5.64-3.21-8.92t-8.84-3.28H12.49c0,1.69,0,3.63.07,5.85s.14,4.49.29,6.85.35,4.63.61,6.82A34.43,34.43,0,0,0,14.58,49.08Z"/><path class="cls-1" d="M73.76,22.45A8.9,8.9,0,0,1,73.4,26a4.47,4.47,0,0,1-1.52,2.13,5.87,5.87,0,0,1-2.49,1.05,17,17,0,0,1-3.21.29,4.87,4.87,0,0,1-2.34-.4,1.27,1.27,0,0,1-.65-1.26,6.08,6.08,0,0,1,.65-2.2c.4-.89.9-1.94,1.47-3.14.82-1.54.92-2.79.29-3.76a3.65,3.65,0,0,0-3.32-1.44A4.15,4.15,0,0,0,59,18.69a10.13,10.13,0,0,0-1.87,3.54q-.44,3.39-.58,7.4t0,7.83A70.12,70.12,0,0,0,57,44.53a19.35,19.35,0,0,0,1.29,5.2H44a16,16,0,0,0,.91-3.47c.26-1.54.49-3.26.68-5.16s.34-3.91.44-6,.1-4.14,0-6.07a44.38,44.38,0,0,0-.47-5.19,11.75,11.75,0,0,0-1-3.54,17.37,17.37,0,0,0,3.65-.51,24.73,24.73,0,0,0,3.32-1.08c1.08-.43,2.14-.91,3.17-1.44L58,15.59a12.73,12.73,0,0,0-.32,1.66,18.12,18.12,0,0,1-.33,1.8,8,8,0,0,1,7.15-3.75,12.3,12.3,0,0,1,3.25.44A9.76,9.76,0,0,1,70.58,17a7.58,7.58,0,0,1,2.17,2.2A6.8,6.8,0,0,1,73.76,22.45Z"/><path class="cls-1" d="M99,49.73a19.43,19.43,0,0,0,1.22-4.12,47.47,47.47,0,0,0,.65-4.76c-.43.92-.94,1.85-1.51,2.82a20.24,20.24,0,0,1-1.91,2.66,18,18,0,0,1-2.24,2.21A9.16,9.16,0,0,1,92.67,50a7.58,7.58,0,0,1-2,.4,21.86,21.86,0,0,1-2.2.11,10.53,10.53,0,0,1-4.58-.94A9.8,9.8,0,0,1,80.54,47a10.74,10.74,0,0,1-2.05-3.86,16.32,16.32,0,0,1-.69-4.84c0-1.39,0-2.8.11-4.22s.11-2.82.11-4.22c0-.62,0-1.43,0-2.42s-.08-2-.18-3.07-.23-2.05-.4-3a6.85,6.85,0,0,0-.76-2.27,42.8,42.8,0,0,0,6.79-.87A25.27,25.27,0,0,0,89.85,16a11.45,11.45,0,0,0-.79,3.36c-.19,1.56-.35,3.22-.47,5s-.19,3.46-.22,5.12,0,2.88,0,3.65,0,2,0,3.61a43.42,43.42,0,0,0,.36,4.79,22.85,22.85,0,0,0,1,4.41,3.47,3.47,0,0,0,2,2.42,2.49,2.49,0,0,0,2-.4,10.91,10.91,0,0,0,2.53-2.06,25.82,25.82,0,0,0,2.52-3.17,22.2,22.2,0,0,0,2.09-3.83c.1-1.63.14-3.17.11-4.62s0-2.84,0-4.18c0-.68,0-1.52,0-2.53s-.08-2-.18-3.07a23.62,23.62,0,0,0-.47-3,8.17,8.17,0,0,0-.83-2.31,42.65,42.65,0,0,0,6.93-.83A23.66,23.66,0,0,0,112.8,16a19.21,19.21,0,0,0-.72,3.4c-.19,1.39-.35,2.85-.47,4.36s-.19,3-.21,4.44,0,2.62,0,3.54c0,1.1,0,2.47,0,4.11s.1,3.31.25,5,.35,3.35.61,4.94a17.7,17.7,0,0,0,1,3.9Z"/><path class="cls-1" d="M131.21,16a8.41,8.41,0,0,0-.72,2.53,38.74,38.74,0,0,0-.44,4c-.09,1.49-.18,3.06-.25,4.69s-.11,3.22-.11,4.76v7.08q0,3.31.07,6.6t.08,6.6a17.42,17.42,0,0,1-.65,4.84,12,12,0,0,1-1.92,3.9,8.8,8.8,0,0,1-3.17,2.59,10.09,10.09,0,0,1-4.51.94,20.82,20.82,0,0,1-3.65-.32A9.41,9.41,0,0,1,112.8,63a7,7,0,0,1-2.27-2.2,6.66,6.66,0,0,1-1-3.53,1.87,1.87,0,0,1,.61-1.59,2.3,2.3,0,0,1,1.62-.65,2.16,2.16,0,0,1,1.48.54,1.58,1.58,0,0,1,.62,1.19,1.52,1.52,0,0,1-.33.94c-.22.29-.44.6-.68.94a4.32,4.32,0,0,0-.58,1.08,1.75,1.75,0,0,0,.07,1.3,2.6,2.6,0,0,0,1.52,1.51,2.33,2.33,0,0,0,1.94.15,3.85,3.85,0,0,0,2.28-2.6,19.57,19.57,0,0,0,1-4.66c.17-1.7.25-3.36.25-5V46.84c0-.91,0-2.12,0-3.61s0-3.14.07-4.94,0-3.67,0-5.59-.09-3.77-.18-5.53-.25-3.33-.47-4.72A13.6,13.6,0,0,0,118,19.2a36.36,36.36,0,0,0,6.82-.94A31.41,31.41,0,0,0,131.21,16Zm-6.43-3.46a5.37,5.37,0,0,1-4-1.66,5.57,5.57,0,0,1-1.62-4,5.64,5.64,0,0,1,1.65-4.08,5.37,5.37,0,0,1,4-1.7,5.26,5.26,0,0,1,3.94,1.7,5.69,5.69,0,0,1,1.62,4.08,5.59,5.59,0,0,1-1.62,4A5.26,5.26,0,0,1,124.78,12.56Z"/><path class="cls-1" d="M148,16a28.56,28.56,0,0,0-.83,4.48c-.22,1.83-.38,3.81-.5,5.95s-.2,4.37-.22,6.68,0,4.51.18,6.6.35,4,.61,5.77a16.58,16.58,0,0,0,1.12,4.23H134.09a16,16,0,0,0,.91-3.54q.39-2.38.68-5.38c.19-2,.34-4.1.43-6.31s.11-4.32,0-6.32a47.12,47.12,0,0,0-.47-5.37,11.84,11.84,0,0,0-1-3.61,38.61,38.61,0,0,0,7-.83A27.91,27.91,0,0,0,148,16ZM135.61,6.71a5.43,5.43,0,0,1,1.7-4,5.45,5.45,0,0,1,4-1.7,5.37,5.37,0,0,1,4,1.7,5.51,5.51,0,0,1,1.66,4,5.61,5.61,0,0,1-1.66,4.08,5.37,5.37,0,0,1-4,1.7,5.51,5.51,0,0,1-4-1.66A5.59,5.59,0,0,1,135.61,6.71Z"/><path class="cls-1" d="M190.2,32.33a12.44,12.44,0,0,0,3,2,12.2,12.2,0,0,0,3.49,1,9.68,9.68,0,0,0,3.56-.15,8.32,8.32,0,0,0,3.28-1.55c0,1.73-.06,3.61-.18,5.63a20.17,20.17,0,0,1-1.11,5.63,8.61,8.61,0,0,1-2.7,4,7.42,7.42,0,0,1-3.93,1.69,6.33,6.33,0,0,1-4-.9,6.43,6.43,0,0,1-2.77-3.79,19.16,19.16,0,0,1-.94-3.57q-.36-2.05-.72-4.26c-.24-1.47-.54-2.92-.9-4.37a14.83,14.83,0,0,0-1.54-3.89,9.57,9.57,0,0,0-2.63-2.93,8,8,0,0,0-4.14-1.4c0,1,0,2.13,0,3.5s.07,2.85.14,4.44.17,3.21.29,4.87.27,3.26.47,4.8.43,2.94.71,4.22a14.29,14.29,0,0,0,1,3.07,19.19,19.19,0,0,0-2.92-.33c-1.28-.07-2.65-.13-4.12-.18s-2.91-.08-4.33-.11l-3.57,0a33.86,33.86,0,0,0,1-5.81q.44-3.93.69-8.81t.25-10.25q0-5.37-.18-10.17t-.62-8.55A21.64,21.64,0,0,0,165.69.65h21.42a28.65,28.65,0,0,1,5.79.61,18.85,18.85,0,0,1,5.44,2,11.45,11.45,0,0,1,4,3.68,9.83,9.83,0,0,1,1.55,5.63,10.37,10.37,0,0,1-2.34,7.21,14.1,14.1,0,0,1-5.83,3.87,27.77,27.77,0,0,1-7.49,1.55q-4,.28-7.3.29a8.72,8.72,0,0,1,2.44,1,17,17,0,0,1,2.38,1.69c.77.65,1.52,1.34,2.27,2.06S189.48,31.66,190.2,32.33ZM180.27,1.52a26.44,26.44,0,0,0-1.15,5.05c-.29,2-.51,4.11-.68,6.28s-.29,4.29-.36,6.38S178,23.1,178,24.54a26.63,26.63,0,0,0,5.68-.94,19.37,19.37,0,0,0,5.13-2.2,12.57,12.57,0,0,0,3.71-3.46,8.38,8.38,0,0,0,1.43-4.88,9,9,0,0,0-1-4,12.29,12.29,0,0,0-2.81-3.64,15.37,15.37,0,0,0-4.31-2.71A15.65,15.65,0,0,0,180.27,1.52Z"/><path class="cls-1" d="M220.77,16a27.44,27.44,0,0,0-.83,4.48q-.33,2.74-.51,5.95t-.21,6.68q0,3.46.18,6.6c.14,2.09.35,4,.61,5.77a16.18,16.18,0,0,0,1.12,4.23H206.84a15.56,15.56,0,0,0,.9-3.54c.27-1.59.49-3.38.69-5.38s.33-4.1.43-6.31.11-4.32,0-6.32a49.52,49.52,0,0,0-.47-5.37,11.84,11.84,0,0,0-1-3.61,38.83,38.83,0,0,0,7-.83A28.08,28.08,0,0,0,220.77,16ZM208.35,6.71a5.47,5.47,0,0,1,1.7-4,5.49,5.49,0,0,1,4-1.7,5.37,5.37,0,0,1,4,1.7,5.55,5.55,0,0,1,1.66,4A5.65,5.65,0,0,1,218,10.79a5.37,5.37,0,0,1-4,1.7A5.55,5.55,0,0,1,210,10.83,5.63,5.63,0,0,1,208.35,6.71Z"/><path class="cls-1" d="M245.88,1.88a5.44,5.44,0,0,1,3.29,1.87,5.67,5.67,0,0,1,1.41,3.9,7.29,7.29,0,0,1-.83,3.54,3,3,0,0,1-2.49,1.66,2.7,2.7,0,0,1-2.24-.69,2.63,2.63,0,0,1-.87-2,3.42,3.42,0,0,1,.4-1.63c.26-.5.55-1,.87-1.48a8.74,8.74,0,0,0,.75-1.4,2.2,2.2,0,0,0,.08-1.48A1.61,1.61,0,0,0,244.69,3a7,7,0,0,0-2.63.43,14.33,14.33,0,0,0-2.74,1.3,8.34,8.34,0,0,0-1.81,1.38c-.24,1.1-.45,2.49-.65,4.15s-.36,3.79-.5,6.38h6.85v.72h-6.85q-.23,4.41-.22,9.28t.18,9.34q.18,4.49.62,8.12a22.25,22.25,0,0,0,1.22,5.6H224a29.49,29.49,0,0,0,1.19-5.89q.47-3.86.68-8.44t.22-9.38c0-3.2-.07-6.07-.22-8.63h-1.73v-.72h1.66c-.1-1.3-.24-2.55-.43-3.75a15,15,0,0,0-1.08-3.61,16,16,0,0,0,6.85-1.19,41.59,41.59,0,0,0,5.16-2.74c1.57-1,3.08-1.87,4.55-2.64A8.6,8.6,0,0,1,245.88,1.88Z"/><path class="cls-1" d="M279.59,16.53a16,16,0,0,0-.69,3.72c-.17,1.7-.3,3.63-.39,5.77s-.13,4.4-.08,6.78.15,4.67.29,6.86a57.91,57.91,0,0,0,.69,6,16.21,16.21,0,0,0,1.12,4c-.82,0-1.62,0-2.39-.08s-1.53-.12-2.31-.21a35.91,35.91,0,0,0-5.44-.15c-1.52.1-2.95.24-4.3.44l-4,.57a32.75,32.75,0,0,1-4.55.29A13.61,13.61,0,0,1,248.84,48c-2.16-1.71-3.25-4.42-3.25-8.12a11.26,11.26,0,0,1,.84-4.66,8.9,8.9,0,0,1,2.23-3.06,9.82,9.82,0,0,1,3.25-1.88,32.06,32.06,0,0,1,3.86-1.08c.63-.15,1.47-.31,2.53-.51s2.18-.43,3.35-.72a34.12,34.12,0,0,0,3.54-1.08,11.38,11.38,0,0,0,3.07-1.66c0-1,0-1.66,0-2.09a14.31,14.31,0,0,0-.18-1.59,5.87,5.87,0,0,0-1.84-1.88,20.86,20.86,0,0,0-2.89-1.69,17.66,17.66,0,0,0-3.13-1.2,6.75,6.75,0,0,0-2.6-.28,2,2,0,0,0-1.3.79,2.61,2.61,0,0,0-.51,1.66,14.67,14.67,0,0,0,.22,2.42,10.62,10.62,0,0,1,.11,2.56,3.6,3.6,0,0,1-.83,2.06,3.34,3.34,0,0,1-2.6.83,3.61,3.61,0,0,1-3-1.34,5.17,5.17,0,0,1-1.08-3.36,6.49,6.49,0,0,1,.93-3.64A6.12,6.12,0,0,1,252,16.31a9.64,9.64,0,0,1,3.29-.9,16.05,16.05,0,0,1,3.6,0,18.58,18.58,0,0,1,3.36.72c1.08.33,2.17.7,3.25,1.08s2.14.73,3.18,1.05a16,16,0,0,0,3.14.61,7.69,7.69,0,0,0,2.27,0,9.8,9.8,0,0,0,1.87-.54,14.26,14.26,0,0,0,1.77-.83C278.29,17.19,278.91,16.87,279.59,16.53ZM266.38,48.14q.58-2.52,1-5.3c.27-1.86.48-3.73.62-5.63s.23-3.77.25-5.6,0-3.56,0-5.19a9.44,9.44,0,0,1-1.81,1.33q-1.15.69-2.34,1.26l-2.24,1.09c-.7.33-1.22.6-1.55.79a11.89,11.89,0,0,0-3.68,3.21,9.72,9.72,0,0,0-1.59,6A9.48,9.48,0,0,0,256,44.5a7.74,7.74,0,0,0,2.49,2.92,7.65,7.65,0,0,0,3.61,1.3A9.75,9.75,0,0,0,266.38,48.14Z"/><path class="cls-1" d="M310.11,25.48c-.67-.72-1.51-1.53-2.52-2.42a34.68,34.68,0,0,0-3.25-2.53,24.17,24.17,0,0,0-3.54-2,8.06,8.06,0,0,0-3.31-.83,3,3,0,0,0-2,.54,1.79,1.79,0,0,0-.57,1.34,4.34,4.34,0,0,0,.39,1.7,7.28,7.28,0,0,0,1,1.62,47.92,47.92,0,0,0,4.11,4.47,36.79,36.79,0,0,0,4.69,3.9c.92.72,1.78,1.45,2.6,2.17a17.73,17.73,0,0,1,2.17,2.27,10.8,10.8,0,0,1,1.48,2.53,7.7,7.7,0,0,1,.54,2.92,8.75,8.75,0,0,1-1,4.29,8.2,8.2,0,0,1-2.63,2.89,11.88,11.88,0,0,1-3.9,1.66,19.89,19.89,0,0,1-4.69.54,8.66,8.66,0,0,1-2.35-.32c-.74-.22-1.47-.47-2.2-.76s-1.44-.6-2.16-.94-1.45-.65-2.17-.94a9.29,9.29,0,0,0-3.68-.72,12.24,12.24,0,0,0-3.68.87,3.32,3.32,0,0,0,.94-1.59,10.46,10.46,0,0,0,.36-2.17,17.19,17.19,0,0,0,0-2.27c0-.75-.1-1.41-.14-2A27.33,27.33,0,0,0,287,42.8a28.34,28.34,0,0,0,3,2.89,17.53,17.53,0,0,0,3.18,2.09,6.6,6.6,0,0,0,3,.79,4.28,4.28,0,0,0,2.2-.61,2.07,2.07,0,0,0,1-1.91,5.88,5.88,0,0,0-1.15-3.54,18.78,18.78,0,0,0-2.89-3.1q-1.72-1.52-3.72-3A38.69,38.69,0,0,1,288,33.13a16.92,16.92,0,0,1-2.89-3.83,9.66,9.66,0,0,1-1.15-4.76,8.88,8.88,0,0,1,2.6-6.75,9.77,9.77,0,0,1,7.07-2.49,11.6,11.6,0,0,1,4.47.79,30.34,30.34,0,0,1,3.47,1.74c1.05.62,2.06,1.2,3,1.73a6.45,6.45,0,0,0,3.17.79,6.94,6.94,0,0,0,1.34-.14,9,9,0,0,0,1.33-.36,18.45,18.45,0,0,0-.36,2.81A20.24,20.24,0,0,0,310.11,25.48Zm0,0q-1-1.08-2.52-2.46a31.86,31.86,0,0,0-3.25-2.56,23.29,23.29,0,0,0-3.54-2,8.06,8.06,0,0,0-3.31-.83,3,3,0,0,0-2,.54,1.78,1.78,0,0,0-.57,1.34,4.25,4.25,0,0,0,.39,1.69,7.35,7.35,0,0,0,1,1.63,40.68,40.68,0,0,0,4.11,4.51,39,39,0,0,0,4.69,3.86c.92.72,1.78,1.44,2.6,2.16a17.79,17.79,0,0,1,2.17,2.28,10.59,10.59,0,0,1,1.48,2.56,8,8,0,0,1,.54,3,8.75,8.75,0,0,1-1,4.29,8.2,8.2,0,0,1-2.63,2.89,11.88,11.88,0,0,1-3.9,1.66,19.89,19.89,0,0,1-4.69.54,8.66,8.66,0,0,1-2.35-.32c-.74-.22-1.47-.47-2.2-.76s-1.44-.6-2.16-.94-1.45-.65-2.17-.94a9.29,9.29,0,0,0-3.68-.72,12.24,12.24,0,0,0-3.68.87,3.32,3.32,0,0,0,.94-1.59,10.46,10.46,0,0,0,.36-2.17,17.81,17.81,0,0,0,0-2.31c0-.76-.1-1.41-.14-1.94A27.33,27.33,0,0,0,287,42.8a28.34,28.34,0,0,0,3,2.89,17.53,17.53,0,0,0,3.18,2.09,6.6,6.6,0,0,0,3,.79,4.28,4.28,0,0,0,2.2-.61,2.07,2.07,0,0,0,1-1.91,6.06,6.06,0,0,0-1.15-3.58,17.32,17.32,0,0,0-2.89-3.1c-1.15-1-2.39-2-3.72-3A35.29,35.29,0,0,1,288,33.09a18,18,0,0,1-2.89-3.82,9.49,9.49,0,0,1-1.15-4.73,8.83,8.83,0,0,1,2.6-6.78,9.85,9.85,0,0,1,7.07-2.46,11.6,11.6,0,0,1,4.47.79,30.34,30.34,0,0,1,3.47,1.74c1.05.62,2.06,1.2,3,1.73a6.45,6.45,0,0,0,3.17.79,5.9,5.9,0,0,0,1.34-.18,10.14,10.14,0,0,0,1.33-.4,20.51,20.51,0,0,0-.36,2.86A21,21,0,0,0,310.11,25.48Z"/></g></g></svg>