<svg xmlns="http://www.w3.org/2000/svg" viewBox="0 0 351.5 72.73"><defs><style>.cls-1{fill:#fdcb67;}</style></defs><g id="Capa_2" data-name="Capa 2"><g id="Capa_1-2" data-name="Capa 1"><path class="cls-1" d="M29.86,26.52A26.54,26.54,0,0,1,36,27.74a16.87,16.87,0,0,1,5.29,2.77A13.8,13.8,0,0,1,45,34.9a12.46,12.46,0,0,1,1.38,5.94,17.3,17.3,0,0,1-1.26,6.95,12,12,0,0,1-3.58,4.72A15,15,0,0,1,36,55.19a27.25,27.25,0,0,1-7.08.86H.16A17.24,17.24,0,0,0,1,52.71c.24-1.41.44-3,.61-4.63s.28-3.46.36-5.33.15-3.67.21-5.41.09-3.34.12-4.8,0-2.66,0-3.58q0-2.85,0-6.71c0-2.58-.12-5.21-.29-7.89s-.4-5.3-.73-7.85A40.11,40.11,0,0,0,0,0,18.8,18.8,0,0,0,3.25.49C4.61.6,6,.66,7.53.69s3,0,4.47,0H27.33a26.62,26.62,0,0,1,5.82.65,16.74,16.74,0,0,1,5.13,2A11.54,11.54,0,0,1,41.93,7a9.27,9.27,0,0,1,1.43,5.24,11.5,11.5,0,0,1-1.06,5.09,12.3,12.3,0,0,1-2.89,3.78A22.12,22.12,0,0,1,35.14,24C33.52,24.87,31.75,25.71,29.86,26.52ZM16.6,1.46A35.77,35.77,0,0,0,15.37,7q-.48,3.29-.77,6.83t-.4,6.79c-.09,2.17-.13,4-.13,5.37l3.42.08c4.18,0,7.48-1,9.93-2.93s3.66-5.23,3.66-9.84a11.12,11.12,0,0,0-3.42-8.5Q24.24,1.63,16.6,1.46Zm-.17,53.86A26.17,26.17,0,0,0,23.31,54a18.05,18.05,0,0,0,5.41-3,13.75,13.75,0,0,0,3.58-4.48,13,13,0,0,0,1.3-5.85c0-4.24-1.21-7.58-3.62-10s-5.74-3.7-10-3.7H14.07c0,1.9,0,4.09.09,6.59s.16,5.07.32,7.72.39,5.22.69,7.69A38.4,38.4,0,0,0,16.43,55.32Z"/><path class="cls-1" d="M83.14,25.3a9.78,9.78,0,0,1-.41,4A5.12,5.12,0,0,1,81,31.69a6.78,6.78,0,0,1-2.8,1.17,18.73,18.73,0,0,1-3.62.33A5.64,5.64,0,0,1,72,32.74a1.44,1.44,0,0,1-.73-1.42A7,7,0,0,1,72,28.84c.46-1,1-2.19,1.67-3.54Q75,22.69,74,21.07a4.13,4.13,0,0,0-3.75-1.63,4.64,4.64,0,0,0-3.74,1.63,11,11,0,0,0-2.11,4q-.49,3.81-.65,8.33c-.11,3-.13,6,0,8.83a78.33,78.33,0,0,0,.6,8,22.12,22.12,0,0,0,1.47,5.86H49.62a18,18,0,0,0,1-3.91c.3-1.73.55-3.67.77-5.81s.38-4.41.49-6.8.12-4.66,0-6.83a50.53,50.53,0,0,0-.53-5.86,13,13,0,0,0-1.14-4,19.5,19.5,0,0,0,4.11-.57,30.25,30.25,0,0,0,3.74-1.22c1.22-.49,2.42-1,3.58-1.63s2.37-1.22,3.62-1.87A12.48,12.48,0,0,0,65,19.44c-.14.92-.26,1.6-.37,2a9,9,0,0,1,8-4.23,14.16,14.16,0,0,1,3.67.48,11.29,11.29,0,0,1,3.25,1.47A8.48,8.48,0,0,1,82,21.68,7.63,7.63,0,0,1,83.14,25.3Z"/><path class="cls-1" d="M111.53,56.05a20.61,20.61,0,0,0,1.38-4.64,53.05,53.05,0,0,0,.73-5.37,33.39,33.39,0,0,1-1.71,3.18,23.67,23.67,0,0,1-2.15,3,20.31,20.31,0,0,1-2.52,2.48,10.48,10.48,0,0,1-2.81,1.67,9.33,9.33,0,0,1-2.24.44c-.89.08-1.72.12-2.48.12a12,12,0,0,1-5.16-1A11.09,11.09,0,0,1,90.78,53a12.1,12.1,0,0,1-2.31-4.35,18.36,18.36,0,0,1-.78-5.45c0-1.58,0-3.16.13-4.76s.12-3.19.12-4.76c0-.71,0-1.61,0-2.73s-.1-2.26-.21-3.45-.25-2.32-.45-3.38a7.6,7.6,0,0,0-.85-2.56,48.27,48.27,0,0,0,7.65-1,28.58,28.58,0,0,0,7.24-2.52,12.65,12.65,0,0,0-.9,3.78q-.31,2.65-.53,5.62c-.13,2-.21,3.9-.24,5.77s0,3.24,0,4.11,0,2.28,0,4.07a45.23,45.23,0,0,0,.41,5.41,25.09,25.09,0,0,0,1.14,5,3.91,3.91,0,0,0,2.23,2.72,2.81,2.81,0,0,0,2.28-.44,12.58,12.58,0,0,0,2.85-2.32,29.25,29.25,0,0,0,2.84-3.58,25,25,0,0,0,2.36-4.31c.11-1.85.15-3.58.13-5.21s0-3.2,0-4.72c0-.76,0-1.71,0-2.85s-.09-2.29-.2-3.45a25.91,25.91,0,0,0-.53-3.38,9.15,9.15,0,0,0-.93-2.6,47.8,47.8,0,0,0,7.81-.94,26.65,26.65,0,0,0,7.24-2.64,21.79,21.79,0,0,0-.82,3.82c-.21,1.58-.39,3.22-.52,4.92s-.22,3.38-.25,5,0,2.95,0,4c0,1.25,0,2.8,0,4.64s.12,3.73.29,5.65.39,3.79.69,5.58a18.93,18.93,0,0,0,1.18,4.39Z"/><path class="cls-1" d="M147.89,18.06a9.26,9.26,0,0,0-.81,2.85,44.57,44.57,0,0,0-.49,4.47c-.11,1.68-.2,3.45-.29,5.29s-.12,3.63-.12,5.37v8c0,2.49,0,5,.08,7.44s.08,4.95.08,7.45a19.41,19.41,0,0,1-.73,5.45,13.53,13.53,0,0,1-2.15,4.39,10,10,0,0,1-3.58,2.93,11.53,11.53,0,0,1-5.09,1.06,23.1,23.1,0,0,1-4.11-.37,10.33,10.33,0,0,1-3.53-1.3,8.11,8.11,0,0,1-2.57-2.48,7.74,7.74,0,0,1-1.1-4,2.14,2.14,0,0,1,.7-1.79,2.54,2.54,0,0,1,1.83-.73,2.4,2.4,0,0,1,1.66.61,1.66,1.66,0,0,1,.33,2.4c-.24.32-.5.68-.77,1.06a5.11,5.11,0,0,0-.65,1.22,1.92,1.92,0,0,0,.08,1.46,2.94,2.94,0,0,0,1.71,1.71,2.65,2.65,0,0,0,2.19.16,4.36,4.36,0,0,0,2.57-2.93,21.57,21.57,0,0,0,1.13-5.24c.19-1.93.29-3.8.29-5.62V52.79c0-1,0-2.38,0-4.06s0-3.54.08-5.57,0-4.14,0-6.31-.1-4.24-.2-6.22-.29-3.76-.53-5.33a15.18,15.18,0,0,0-.94-3.66,40.45,40.45,0,0,0,7.69-1.06A35.9,35.9,0,0,0,147.89,18.06Zm-7.24-3.9a6,6,0,0,1-4.51-1.88,6.22,6.22,0,0,1-1.84-4.55,6.35,6.35,0,0,1,1.88-4.6,6,6,0,0,1,4.47-1.91,5.91,5.91,0,0,1,4.43,1.91,6.43,6.43,0,0,1,1.83,4.6,6.3,6.3,0,0,1-1.83,4.51A5.88,5.88,0,0,1,140.65,14.16Z"/><path class="cls-1" d="M166.84,18.06a31.47,31.47,0,0,0-.93,5q-.37,3.09-.57,6.71t-.24,7.53q0,3.9.2,7.44t.69,6.51a18.48,18.48,0,0,0,1.26,4.76H151.14a18.11,18.11,0,0,0,1-4c.3-1.79.55-3.81.77-6.06s.38-4.62.49-7.12.12-4.86,0-7.11a53.66,53.66,0,0,0-.53-6.06,13.17,13.17,0,0,0-1.14-4.07,43.19,43.19,0,0,0,7.85-.94A31,31,0,0,0,166.84,18.06Zm-14-10.49a6.19,6.19,0,0,1,1.91-4.52,6.2,6.2,0,0,1,4.52-1.91,6.06,6.06,0,0,1,4.47,1.91,6.23,6.23,0,0,1,1.87,4.52,6.3,6.3,0,0,1-1.87,4.59,6,6,0,0,1-4.47,1.91,6.2,6.2,0,0,1-4.56-1.87A6.28,6.28,0,0,1,152.85,7.57Z"/><path class="cls-1" d="M214.39,36.44a13.91,13.91,0,0,0,3.37,2.2,13.58,13.58,0,0,0,3.93,1.18,11.09,11.09,0,0,0,4-.16,9.5,9.5,0,0,0,3.69-1.75c0,2-.07,4.07-.2,6.34a22.87,22.87,0,0,1-1.26,6.35,9.6,9.6,0,0,1-3,4.51A8.42,8.42,0,0,1,220.48,57a7.08,7.08,0,0,1-7.63-5.29,22.35,22.35,0,0,1-1-4c-.27-1.55-.54-3.14-.81-4.8s-.61-3.29-1-4.92a16.36,16.36,0,0,0-1.74-4.39,11,11,0,0,0-3-3.3,9,9,0,0,0-4.67-1.58c0,1.08,0,2.4,0,3.94s.08,3.21.16,5,.19,3.62.33,5.5.31,3.67.52,5.4.49,3.33.81,4.76a16.06,16.06,0,0,0,1.14,3.46,23.45,23.45,0,0,0-3.3-.36c-1.43-.09-3-.16-4.63-.21l-4.88-.12c-1.6,0-2.95,0-4,0a39.34,39.34,0,0,0,1.14-6.55c.32-3,.58-6.26.77-9.92S189,32.07,189,28s-.07-7.86-.21-11.47-.36-6.81-.69-9.64a24.64,24.64,0,0,0-1.3-6.18H210.9a32.46,32.46,0,0,1,6.53.69,21.12,21.12,0,0,1,6.13,2.24,12.89,12.89,0,0,1,4.5,4.15,11.08,11.08,0,0,1,1.75,6.35q0,5.2-2.64,8.13a16.06,16.06,0,0,1-6.57,4.35,31.11,31.11,0,0,1-8.44,1.75q-4.5.33-8.24.33a9.51,9.51,0,0,1,2.76,1.14,18.84,18.84,0,0,1,2.68,1.91c.86.73,1.72,1.5,2.55,2.32S213.58,35.68,214.39,36.44ZM203.2,1.71a28.87,28.87,0,0,0-1.3,5.69c-.33,2.28-.58,4.64-.77,7.08s-.33,4.84-.41,7.2-.12,4.35-.12,6A29.6,29.6,0,0,0,207,26.6a22,22,0,0,0,5.79-2.48A14.08,14.08,0,0,0,217,20.21a9.32,9.32,0,0,0,1.62-5.49,10.06,10.06,0,0,0-1.13-4.47,13.89,13.89,0,0,0-3.16-4.11,17.4,17.4,0,0,0-4.86-3A17.91,17.91,0,0,0,203.2,1.71Z"/><path class="cls-1" d="M248.84,18.06a31.47,31.47,0,0,0-.93,5q-.37,3.09-.57,6.71t-.25,7.53c0,2.6,0,5.08.21,7.44s.39,4.53.69,6.51a18.48,18.48,0,0,0,1.26,4.76H233.14a18.11,18.11,0,0,0,1-4c.3-1.79.55-3.81.77-6.06s.38-4.62.49-7.12.12-4.86,0-7.11a53.66,53.66,0,0,0-.53-6.06,13.17,13.17,0,0,0-1.14-4.07,43.19,43.19,0,0,0,7.85-.94A31,31,0,0,0,248.84,18.06Zm-14-10.49a6.19,6.19,0,0,1,1.91-4.52,6.2,6.2,0,0,1,4.52-1.91,6.06,6.06,0,0,1,4.47,1.91,6.23,6.23,0,0,1,1.87,4.52,6.3,6.3,0,0,1-1.87,4.59,6,6,0,0,1-4.47,1.91,6.2,6.2,0,0,1-4.56-1.87A6.28,6.28,0,0,1,234.85,7.57Z"/><path class="cls-1" d="M277.15,2.11a6.13,6.13,0,0,1,3.7,2.12,6.37,6.37,0,0,1,1.59,4.39,8.12,8.12,0,0,1-.94,4,3.37,3.37,0,0,1-2.8,1.87,3,3,0,0,1-2.53-.77,3,3,0,0,1-1-2.24,3.87,3.87,0,0,1,.45-1.83,18.58,18.58,0,0,1,1-1.67,9.6,9.6,0,0,0,.86-1.59,2.53,2.53,0,0,0,.08-1.66,1.79,1.79,0,0,0-1.75-1.3,7.67,7.67,0,0,0-3,.48,15.92,15.92,0,0,0-3.09,1.47,9.41,9.41,0,0,0-2,1.54c-.27,1.25-.51,2.81-.73,4.68s-.4,4.27-.57,7.2h7.73v.81h-7.73q-.24,5-.24,10.46t.2,10.53q.21,5.05.69,9.16a25.55,25.55,0,0,0,1.39,6.3H252.5a32.57,32.57,0,0,0,1.34-6.63c.36-2.9.61-6.07.78-9.52s.24-7,.24-10.57-.08-6.85-.24-9.73h-2v-.81h1.87c-.11-1.46-.27-2.87-.49-4.23a17.18,17.18,0,0,0-1.22-4.07,18,18,0,0,0,7.73-1.34,47.26,47.26,0,0,0,5.81-3.09q2.64-1.66,5.13-3A9.79,9.79,0,0,1,277.15,2.11Z"/><path class="cls-1" d="M315.14,18.63a18.39,18.39,0,0,0-.77,4.19q-.28,2.88-.45,6.51c-.11,2.41-.13,5-.08,7.64s.16,5.26.33,7.73a62.64,62.64,0,0,0,.77,6.71A18.53,18.53,0,0,0,316.2,56c-.92,0-1.82,0-2.69-.08s-1.73-.14-2.6-.25a41.38,41.38,0,0,0-6.14-.16c-1.71.11-3.32.27-4.84.49l-4.56.65a37.54,37.54,0,0,1-5.12.32q-6.11,0-9.76-2.88t-3.66-9.15a12.86,12.86,0,0,1,.93-5.25,10,10,0,0,1,2.52-3.46,11.1,11.1,0,0,1,3.66-2.11,36.17,36.17,0,0,1,4.36-1.23c.7-.16,1.65-.35,2.84-.56s2.46-.49,3.79-.82a36.22,36.22,0,0,0,4-1.22,12.83,12.83,0,0,0,3.46-1.87c0-1.08,0-1.87,0-2.36s-.1-1.08-.2-1.79a6.63,6.63,0,0,0-2.08-2.11,24.6,24.6,0,0,0-3.25-1.92,20.67,20.67,0,0,0-3.54-1.34,7.57,7.57,0,0,0-2.93-.32,2.28,2.28,0,0,0-1.46.89,3,3,0,0,0-.57,1.87,17.41,17.41,0,0,0,.24,2.73,11.81,11.81,0,0,1,.12,2.89,3.93,3.93,0,0,1-.93,2.31,3.74,3.74,0,0,1-2.93.94,4.07,4.07,0,0,1-3.34-1.51,5.81,5.81,0,0,1-1.22-3.78,7.19,7.19,0,0,1,1.06-4.1,6.72,6.72,0,0,1,2.73-2.4,10.5,10.5,0,0,1,3.7-1,18.37,18.37,0,0,1,4.06,0,21.44,21.44,0,0,1,3.79.81c1.22.38,2.44.79,3.66,1.22s2.41.83,3.58,1.18a17.18,17.18,0,0,0,3.54.69,8.62,8.62,0,0,0,2.56,0,10.87,10.87,0,0,0,2.11-.61,19.05,19.05,0,0,0,2-.93C313.68,19.37,314.38,19,315.14,18.63ZM300.25,54.26c.44-1.9.8-3.89,1.1-6s.53-4.2.69-6.35.26-4.24.29-6.3,0-4,0-5.86a10.79,10.79,0,0,1-2,1.51c-.87.51-1.75,1-2.65,1.42l-2.52,1.22c-.79.38-1.37.68-1.75.9a13.27,13.27,0,0,0-4.15,3.62c-1.19,1.54-1.79,3.81-1.79,6.79a10.76,10.76,0,0,0,1.06,4.92,8.82,8.82,0,0,0,2.81,3.3,8.52,8.52,0,0,0,4.06,1.46A10.93,10.93,0,0,0,300.25,54.26Z"/><path class="cls-1" d="M349.55,28.72A38.87,38.87,0,0,0,346.7,26,37.88,37.88,0,0,0,343,23.14a27,27,0,0,0-4-2.27,9,9,0,0,0-3.74-.94,3.3,3.3,0,0,0-2.28.61,2,2,0,0,0-.65,1.5,4.92,4.92,0,0,0,.44,1.92,8.31,8.31,0,0,0,1.1,1.83,53.38,53.38,0,0,0,4.64,5,40.26,40.26,0,0,0,5.29,4.39c1,.82,2,1.63,2.93,2.44a20.22,20.22,0,0,1,2.44,2.57,11.53,11.53,0,0,1,1.66,2.84,8.69,8.69,0,0,1,.61,3.3,9.92,9.92,0,0,1-1.09,4.84,9.37,9.37,0,0,1-3,3.25,13.38,13.38,0,0,1-4.4,1.87,22.2,22.2,0,0,1-5.28.61,9.58,9.58,0,0,1-2.65-.36c-.84-.25-1.67-.53-2.48-.86s-1.63-.67-2.44-1-1.63-.73-2.44-1.06a10.6,10.6,0,0,0-4.15-.82,13.81,13.81,0,0,0-4.15,1A3.67,3.67,0,0,0,320.51,52a11.62,11.62,0,0,0,.41-2.44,21.86,21.86,0,0,0,0-2.56c-.06-.84-.11-1.59-.17-2.24a29.15,29.15,0,0,0,2.77,3.5,30.68,30.68,0,0,0,3.42,3.25,18.55,18.55,0,0,0,3.58,2.36,7.45,7.45,0,0,0,3.33.9,4.81,4.81,0,0,0,2.48-.69,2.32,2.32,0,0,0,1.18-2.16,6.64,6.64,0,0,0-1.3-4A21.77,21.77,0,0,0,333,44.42c-1.31-1.14-2.7-2.28-4.19-3.42a41,41,0,0,1-4.19-3.66A19.34,19.34,0,0,1,321.32,33a10.92,10.92,0,0,1-1.3-5.37A10.06,10.06,0,0,1,323,20.05a11,11,0,0,1,8-2.8,12.85,12.85,0,0,1,5.05.89,33.75,33.75,0,0,1,3.9,1.95q1.78,1.07,3.42,1.95a7.26,7.26,0,0,0,3.58.9,8,8,0,0,0,1.5-.16,9.9,9.9,0,0,0,1.51-.41,19.49,19.49,0,0,0-.41,3.17A20.92,20.92,0,0,0,349.55,28.72Zm0,0c-.76-.82-1.71-1.74-2.85-2.77A34,34,0,0,0,343,23.06a27,27,0,0,0-4-2.27,9,9,0,0,0-3.74-.94,3.3,3.3,0,0,0-2.28.61,2,2,0,0,0-.65,1.5,4.92,4.92,0,0,0,.44,1.92,8.8,8.8,0,0,0,1.1,1.83,46.19,46.19,0,0,0,4.64,5.08,42.27,42.27,0,0,0,5.29,4.35c1,.82,2,1.63,2.93,2.44a20.22,20.22,0,0,1,2.44,2.57A11.23,11.23,0,0,1,350.89,43a9,9,0,0,1,.61,3.34,9.92,9.92,0,0,1-1.09,4.84,9.37,9.37,0,0,1-3,3.25,13.38,13.38,0,0,1-4.4,1.87,22.2,22.2,0,0,1-5.28.61,9.58,9.58,0,0,1-2.65-.36c-.84-.25-1.67-.53-2.48-.86s-1.63-.67-2.44-1-1.63-.73-2.44-1.06a10.6,10.6,0,0,0-4.15-.82,13.81,13.81,0,0,0-4.15,1A3.67,3.67,0,0,0,320.51,52a11.62,11.62,0,0,0,.41-2.44,22.55,22.55,0,0,0,0-2.6c-.06-.87-.11-1.6-.17-2.2a29.15,29.15,0,0,0,2.77,3.5,30.68,30.68,0,0,0,3.42,3.25,18.55,18.55,0,0,0,3.58,2.36,7.45,7.45,0,0,0,3.33.9,4.81,4.81,0,0,0,2.48-.69,2.32,2.32,0,0,0,1.18-2.16,6.8,6.8,0,0,0-1.3-4A19.51,19.51,0,0,0,333,44.38c-1.31-1.12-2.7-2.24-4.19-3.38a38,38,0,0,1-4.19-3.7A20.81,20.81,0,0,1,321.32,33a10.68,10.68,0,0,1-1.3-5.33A10,10,0,0,1,323,20a11.15,11.15,0,0,1,8-2.76,12.85,12.85,0,0,1,5.05.89,33.75,33.75,0,0,1,3.9,1.95q1.78,1.07,3.42,1.95a7.26,7.26,0,0,0,3.58.9,6.9,6.9,0,0,0,1.5-.2,14.66,14.66,0,0,0,1.51-.45,21.21,21.21,0,0,0-.41,3.21A21.75,21.75,0,0,0,349.55,28.72Z"/></g></g></svg>