<svg xmlns="http://www.w3.org/2000/svg" viewBox="0 0 1921 601"><defs><style>.cls-1{fill:#4b4b65;stroke:#fdcb59;}.cls-1,.cls-4{stroke-miterlimit:10;}.cls-2{fill:#f2f2f2;}.cls-3,.cls-4{fill:#fff;}.cls-4{stroke:#1d1d1b;}.cls-5{fill:#403e56;}.cls-6{fill:#fdcc5a;}.cls-7{fill:#f8f8f9;}.cls-8{fill:#cdcccc;}.cls-9{fill:#a1626a;}.cls-10{fill:#302f42;}</style></defs><g id="Capa_2" data-name="Capa 2"><g id="Capa_1-2" data-name="Capa 1"><rect class="cls-1" x="0.5" y="0.5" width="1920" height="600"/><path class="cls-2" d="M1521,531.17c-27.64,19.91-63.47,20.91-98.09,18.47q-7.26-.51-14.39-1.18h-.1l-.67-.05-2.94-.28.23.44.72,1.36-.78-1.36c-.07-.14-.16-.27-.23-.41-9-15.61-17.87-31.79-20.14-49.61-2.35-18.5,4.25-39.45,20.53-48.54a33,33,0,0,1,6.74-2.83c1-.29,2-.53,3-.75a35.23,35.23,0,0,1,41,45.78c13.8-14.15,11.22-37.12,6.46-56.31s-10.54-40.54-.84-57.78c5.39-9.6,14.88-15.55,25.53-17.95l1-.2a51.37,51.37,0,0,1,36.92,6.47c20.36,12.83,30.81,37.15,34.21,61C1564.56,465.74,1552.46,508.53,1521,531.17Z"/><path class="cls-3" d="M1512.11,469.71a87.12,87.12,0,0,1-6,24.62,75.42,75.42,0,0,1-11.78,19.24c-9.93,12-23.07,20.94-37.33,26.93a140.21,140.21,0,0,1-34,9.14q-7.26-.51-14.39-1.18h-.1l-.67-.05-2.94-.28.23.44.72,1.36-.78-1.36c-.07-.14-.16-.27-.23-.41a76.64,76.64,0,0,0,7.13-101c1-.29,2-.53,3-.75a82,82,0,0,1,7.38,12.22,79.2,79.2,0,0,1,6.83,49.29,81.06,81.06,0,0,1-20.52,40.41l2.77-.22c17.28-1.47,34.53-5.18,50.21-12.79a90.45,90.45,0,0,0,33.87-27.8c9.5-13.09,13.68-28.84,14.4-44.85.76-17.14-1.46-34.58-5.37-51.24a215.54,215.54,0,0,0-18.08-49.24,1.55,1.55,0,0,1,.62-2,1.35,1.35,0,0,1,1-.2,1.16,1.16,0,0,1,.75.65c1,1.93,2,3.86,2.89,5.81a217.5,217.5,0,0,1,17,51.07C1512.08,434.53,1513.91,452.36,1512.11,469.71Z"/><path class="cls-2" d="M1151.2,540c14.12,10.17,32.41,10.68,50.1,9.43,2.47-.17,4.92-.38,7.35-.6h0c.12,0,.23,0,.35,0l1.5-.14-.12.22-.37.7c.13-.24.27-.46.4-.7l.12-.21c4.58-8,9.13-16.24,10.28-25.34,1.2-9.45-2.16-20.15-10.48-24.8a17.11,17.11,0,0,0-3.45-1.44c-.49-.15-1-.27-1.51-.38a18,18,0,0,0-20.92,23.38c-7-7.23-5.73-19-3.3-28.76s5.39-20.71.43-29.52a19.46,19.46,0,0,0-13-9.16l-.5-.11a26.24,26.24,0,0,0-18.86,3.31c-10.4,6.55-15.74,19-17.48,31.14C1129,506.55,1135.14,528.4,1151.2,540Z"/><path class="cls-3" d="M1155.75,508.58a44.67,44.67,0,0,0,3.08,12.57,39,39,0,0,0,6,9.83,49.67,49.67,0,0,0,19.07,13.75,71.27,71.27,0,0,0,17.38,4.67c2.47-.17,4.92-.38,7.35-.6h0c.12,0,.23,0,.35,0l1.5-.14-.12.22-.37.7c.13-.24.27-.46.4-.7l.12-.21a39.48,39.48,0,0,1-11.07-34.55,39.88,39.88,0,0,1,7.42-17c-.49-.15-1-.27-1.51-.38a41.57,41.57,0,0,0-3.77,6.24,40.53,40.53,0,0,0-3.49,25.18,41.35,41.35,0,0,0,10.49,20.64l-1.42-.11a72.64,72.64,0,0,1-25.64-6.54,46.17,46.17,0,0,1-17.31-14.2c-4.85-6.69-7-14.73-7.35-22.91a96.49,96.49,0,0,1,2.74-26.17,109.83,109.83,0,0,1,9.23-25.15.78.78,0,0,0-.31-1,.69.69,0,0,0-.5-.11.61.61,0,0,0-.39.33c-.5,1-1,2-1.47,3a111.16,111.16,0,0,0-8.7,26.09A89.56,89.56,0,0,0,1155.75,508.58Z"/><path class="cls-4" d="M774.71,81.49h-147a17,17,0,0,0-17,17v231a17,17,0,0,0,17,17h147a17,17,0,0,0,17-17v-231A17,17,0,0,0,774.71,81.49Zm15,248a15,15,0,0,1-15,15h-147a15,15,0,0,1-15-15v-231a15,15,0,0,1,15-15h147a15,15,0,0,1,15,15Z"/><path class="cls-3" d="M1089.71,346.49h-147a17,17,0,0,1-17-17v-231a17,17,0,0,1,17-17h147a17,17,0,0,1,17,17v231A17,17,0,0,1,1089.71,346.49Zm-147-263a15,15,0,0,0-15,15v231a15,15,0,0,0,15,15h147a15,15,0,0,0,15-15v-231a15,15,0,0,0-15-15Z"/><path class="cls-5" d="M878.71,215.49h-61a1,1,0,0,1,0-2h61a1,1,0,0,1,0,2Z"/><path class="cls-5" d="M865.71,242.92a1,1,0,0,1-.6-1.8l31.82-24.24a3,3,0,0,0,.57-4.21,3.08,3.08,0,0,0-.57-.57l-31.82-24.24a1,1,0,1,1,1.21-1.59h0l31.82,24.24a5,5,0,0,1,1,7,4.75,4.75,0,0,1-1,.95l-31.82,24.24A1,1,0,0,1,865.71,242.92Z"/><path class="cls-5" d="M1192.71,215.49h-61a1,1,0,0,1,0-2h61a1,1,0,0,1,0,2Z"/><path class="cls-5" d="M1179.71,242.92a1,1,0,0,1-.6-1.8l31.82-24.24a3,3,0,0,0,.57-4.21,3.08,3.08,0,0,0-.57-.57l-31.82-24.24a1,1,0,1,1,1.21-1.59h0l31.82,24.24a5,5,0,0,1,.95,7,4.75,4.75,0,0,1-.95.95l-31.82,24.24A1,1,0,0,1,1179.71,242.92Z"/><path class="cls-6" d="M1034.21,175h-35a8.51,8.51,0,0,1-8.5-8.5v-34a8.52,8.52,0,0,1,8.5-8.5h35a8.51,8.51,0,0,1,8.5,8.5v34A8.51,8.51,0,0,1,1034.21,175Z"/><path class="cls-3" d="M1040.71,174.49a1,1,0,0,1-.7-.29l-48-48a1,1,0,0,1,0-1.42,1,1,0,0,1,1.41,0l48,48a1,1,0,0,1,0,1.42,1,1,0,0,1-.71.29Z"/><path class="cls-3" d="M992.71,174.49a1,1,0,0,1-1-1,1,1,0,0,1,.3-.71l48-48a1,1,0,0,1,1.41,0,1,1,0,0,1,0,1.42h0l-48,48A1,1,0,0,1,992.71,174.49Z"/><path class="cls-3" d="M1048.71,227.49h-65a12.5,12.5,0,0,1,0-25h65a12.5,12.5,0,0,1,0,25Zm-65-23a10.5,10.5,0,0,0,0,21h65a10.5,10.5,0,0,0,0-21Z"/><path class="cls-3" d="M1048.71,265.49h-65a12.5,12.5,0,0,1,0-25h65a12.5,12.5,0,0,1,0,25Zm-65-23a10.5,10.5,0,0,0,0,21h65a10.5,10.5,0,0,0,0-21Z"/><path class="cls-3" d="M1048.71,303.49h-65a12.5,12.5,0,0,1,0-25h65a12.5,12.5,0,0,1,0,25Zm-65-23a10.5,10.5,0,0,0,0,21h65a10.5,10.5,0,0,0,0-21Z"/><path class="cls-7" d="M1391.55,68.5l-145,24.07a17,17,0,0,0-14,19.55L1270.36,340a17,17,0,0,0,19.56,14l145-24.07a17,17,0,0,0,14-19.55L1411.1,82.49A17,17,0,0,0,1391.55,68.5ZM1447,310.7A15,15,0,0,1,1434.61,328l-145,24.07a15,15,0,0,1-17.25-12.34l-37.83-227.89a15,15,0,0,1,12.35-17.25l145-24.07a15,15,0,0,1,17.26,12.34Z"/><path class="cls-8" d="M1366,161.94l-64.12,10.64a12.5,12.5,0,0,1-4.1-24.66h0l64.13-10.64a12.5,12.5,0,0,1,4.09,24.66Zm-67.89-12.05a10.5,10.5,0,0,0,3.44,20.72L1365.67,160a10.5,10.5,0,0,0-3.44-20.72Z"/><path class="cls-8" d="M1373.53,207.32,1309.41,218a12.5,12.5,0,1,1-4.13-24.65h0l64.12-10.64a12.5,12.5,0,1,1,4.09,24.66Zm-67.89-12a10.5,10.5,0,0,0,3.44,20.72l64.12-10.64a10.5,10.5,0,0,0-3.43-20.72Z"/><path class="cls-8" d="M1381.06,252.7l-64.12,10.64a12.5,12.5,0,1,1-4.12-24.66h0L1377,228a12.5,12.5,0,0,1,4.09,24.66Zm-67.89-12a10.5,10.5,0,0,0,3.42,20.72h0l64.13-10.64a10.5,10.5,0,0,0-3.42-20.72h0Z"/><path class="cls-8" d="M1388.59,298.08l-64.12,10.64a12.5,12.5,0,1,1-4.09-24.66h0l64.12-10.64a12.5,12.5,0,0,1,4.09,24.66ZM1320.71,286a10.5,10.5,0,0,0,3.43,20.72h0l64.13-10.64a10.5,10.5,0,0,0-3.44-20.72Z"/><path class="cls-3" d="M1412.31,95.86l-176.59,29.31a1,1,0,1,1-.33-2h0L1412,93.89a1,1,0,0,1,.33,2Z"/><circle class="cls-6" cx="1254.9" cy="106.38" r="7"/><path class="cls-5" d="M1394.33,79.19l-19.73,3.27a1,1,0,1,1-.32-2L1394,77.21a1,1,0,0,1,.32,2Z"/><path class="cls-5" d="M1395.32,85.1l-19.73,3.28a1,1,0,0,1-1.15-.83,1,1,0,0,1,.82-1.14L1395,83.13a1,1,0,0,1,.33,2Z"/><path class="cls-5" d="M1396.3,91l-19.73,3.28a1,1,0,0,1-1.15-.82,1,1,0,0,1,.82-1.15h0L1396,89.05a1,1,0,0,1,1.15.82,1,1,0,0,1-.82,1.15Z"/><path class="cls-6" d="M738.71,232h-75a8.51,8.51,0,0,1-8.5-8.5v-76a8.52,8.52,0,0,1,8.5-8.5h75a8.51,8.51,0,0,1,8.5,8.5v76A8.51,8.51,0,0,1,738.71,232Z"/><path class="cls-3" d="M733.21,288.49h-65a12.5,12.5,0,0,1,0-25h65a12.5,12.5,0,0,1,0,25Zm-65-23a10.5,10.5,0,0,0,0,21h65a10.5,10.5,0,0,0,0-21Z"/><path class="cls-3" d="M745.21,230.49a1,1,0,0,1-.7-.29l-88-88a1,1,0,0,1,1.4-1.43h0l88,88a1,1,0,0,1,0,1.42,1,1,0,0,1-.71.29Z"/><path class="cls-3" d="M657.21,230.49a1,1,0,0,1-1-1,1,1,0,0,1,.3-.71l88-88a1,1,0,1,1,1.42,1.41h0l-88,88A1,1,0,0,1,657.21,230.49Z"/><path class="cls-9" d="M1429.77,332.68a10.74,10.74,0,0,0-7.1-13.43,10.51,10.51,0,0,0-1.85-.4l-51.34-60-12,12.57L1408.64,329a10.8,10.8,0,0,0,21.13,3.73Z"/><path class="cls-6" d="M1384.35,271.5,1366,284.91a4.5,4.5,0,0,1-6.29-1,4.73,4.73,0,0,1-.35-.56l-10.55-20.06a12.5,12.5,0,0,1,20.23-14.69l15.85,16.08a4.5,4.5,0,0,1,0,6.37,5.17,5.17,0,0,1-.51.42Z"/><circle class="cls-9" cx="1348.95" cy="206.87" r="24.56"/><path class="cls-10" d="M1359.62,317.68a3.84,3.84,0,0,1-.76-.07l-43.1-7.25A4.5,4.5,0,0,1,1312,306c-.13-9.86.6-34.75,10.26-52.87a26.49,26.49,0,0,1,49.2,18.38,394.74,394.74,0,0,0-7.4,42.21,4.5,4.5,0,0,1-4.45,4Z"/><path class="cls-9" d="M1269.26,236.81a11,11,0,0,1,.24,1.64l43,24.78,10.44-6L1334,271.79l-17.45,12.44a8,8,0,0,1-9.6-.24l-44.29-34.94a10.55,10.55,0,1,1,6.57-12.24Z"/><path class="cls-6" d="M1313.05,260.75a4.47,4.47,0,0,1,2.21-3l19.71-11a12.5,12.5,0,0,1,15.33,19.75l-15.72,16.32a4.5,4.5,0,0,1-6.36.12,5,5,0,0,1-.44-.49l-13.88-18A4.5,4.5,0,0,1,1313.05,260.75Z"/><polygon class="cls-9" points="1292.25 537.96 1279.99 537.96 1277.11 490.82 1292.25 490.67 1292.25 537.96"/><path class="cls-10" d="M1295.38,549.84h-39.53v-.5A15.38,15.38,0,0,1,1271.23,534h24.15Z"/><polygon class="cls-9" points="1409.25 537.96 1396.99 537.96 1391.16 490.67 1409.25 490.67 1409.25 537.96"/><path class="cls-10" d="M1412.38,549.84h-39.53v-.5A15.38,15.38,0,0,1,1388.23,534h24.15Z"/><path class="cls-10" d="M1395.31,513.43a4.52,4.52,0,0,1-4.25-3L1352,398.79a2.5,2.5,0,0,0-4.36-.67l-38.11,50.81a3.57,3.57,0,0,0-.62,1.34l-12.14,54.18a4.52,4.52,0,0,1-4.19,3.51l-14.54.66a4.49,4.49,0,0,1-3.4-1.32,4.54,4.54,0,0,1-1.3-3.4l2.54-49.46a115.45,115.45,0,0,1,12.1-46,259.36,259.36,0,0,0,27.14-102.18l0-.55,44.75,7.12,6.72,9.3a127.31,127.31,0,0,0,9.72,12c8.56,9.27,11.12,21.68,11.77,30.45a255,255,0,0,0,4.57,32.09l22.2,109.06a4.51,4.51,0,0,1-3.18,5.52,3.84,3.84,0,0,1-.59.11l-15.21,2A5.49,5.49,0,0,1,1395.31,513.43Z"/><path class="cls-10" d="M1376.1,189.82a108.51,108.51,0,0,1-4.3-18.14c-.29-3.59.63-7.45,3.24-9.92,4.89-4.64,13.2-2.43,18.31,2,7.39,6.34,11.07,16.07,12.46,25.7s.78,19.43,1.12,29.15,1.72,19.73,6.68,28.1,14.16,14.8,23.87,14.09A16.84,16.84,0,0,0,1448,256.3a12.19,12.19,0,0,0,3.66-10.59c5,8.88,2.45,20.92-5,27.9s-18.78,9-28.51,6-17.73-10.46-22.51-19.44-6.54-19.35-6.28-29.52c.19-7.81,1.52-15.69.2-23.39s-6.14-15.51-13.74-17.33Z"/><path class="cls-10" d="M1342,199.94c-1.3,4.33-6.25,7-10.71,6.27s-8.13-4.4-9.48-8.71a17.93,17.93,0,0,1,1.4-13.15,20.46,20.46,0,0,1,11.72-10.44,16.82,16.82,0,0,1,15.29,2.44,5.62,5.62,0,0,1,3.93-4.11,10.72,10.72,0,0,1,5.89.09,24.35,24.35,0,0,1,13.53,9.84,39.41,39.41,0,0,1,6.12,15.8c1.51,8.46,1,17.72-3.8,24.88s-14.49,11.4-22.38,8c-.49-2.52.67-5.05,2-7.23s3-4.31,3.47-6.82-.48-5.58-2.91-6.4c-2.07-.7-4.28.43-6.46.57a7.08,7.08,0,0,1-7.51-6.63,7.15,7.15,0,0,1,.71-3.58Z"/><path class="cls-8" d="M1522.53,550.49h-381a1,1,0,0,1,0-2h381a1,1,0,0,1,0,2Z"/></g></g></svg>