<svg xmlns="http://www.w3.org/2000/svg" viewBox="0 0 1921 601"><defs><style>.cls-1{fill:#4b4b65;stroke:#1d1d1b;stroke-miterlimit:10;}.cls-2{fill:#f0f0f0;}.cls-3{fill:#fdcb59;}.cls-4{fill:#fff;}.cls-5{fill:#e4e4e3;}.cls-6{fill:#e7e6e6;}.cls-7{fill:#fdcc5a;}.cls-8{fill:#a0626b;}.cls-9{fill:#302f42;}.cls-10{fill:#cdcccc;}.cls-11{fill:#f2f2f2;}.cls-12{fill:#403e56;}.cls-13{fill:#f6b6b9;}</style></defs><g id="Capa_2" data-name="Capa 2"><g id="Capa_1-2" data-name="Capa 1"><rect class="cls-1" x="0.5" y="0.5" width="1920" height="600"/><path class="cls-2" d="M850.14,477.13c-.31.33-.62.67-.92,1A112.74,112.74,0,0,0,837.9,493c-.27.4-.53.81-.77,1.21a115.81,115.81,0,0,0-15.89,41.1c-.58,3.29-1,6.59-1.31,9.92-.21,2.56-.33,5.12-.38,7.68-.16,10.78.84,22.76-6.43,31a22.45,22.45,0,0,1-7,5.24,30.15,30.15,0,0,1-6.32,2.28H777.15l-3.42-.51h-.09l-.23.08-1.37.44-.06,0v0a.25.25,0,0,0,0-.12.74.74,0,0,0,0-.21h0c0-.19,0-.37,0-.56l0-.51h0c0-.29,0-.58,0-.87-1-24.93,1.51-50.68,13.83-72.63a81.89,81.89,0,0,1,16.12-20.26l.12-.1c12.81-11.67,29.37-19.3,46.85-19Z"/><path class="cls-3" d="M850.2,477.67a103.57,103.57,0,0,0-46,44,42.29,42.29,0,0,0-4.65,12.9,23.91,23.91,0,0,0,1.71,13c1.57,3.88,3.65,7.67,4.22,11.85a14.83,14.83,0,0,1-4,11.91c-3.63,4.1-8.6,6.7-13.54,9.09-5.49,2.64-11.24,5.31-15.05,10.1a.58.58,0,0,1-.92-.72c6.63-8.33,18.31-10.15,26.27-16.92,3.71-3.16,6.45-7.4,6.14-12.3-.27-4.28-2.41-8.19-4-12.1a25.57,25.57,0,0,1-2.17-12.69,38.83,38.83,0,0,1,4.12-13,98,98,0,0,1,18.23-25.24,107.53,107.53,0,0,1,29.24-21c.68-.33,1.09.74.42,1.07Z"/><path class="cls-4" d="M807.08,515.43a14.76,14.76,0,0,1-5.3-19c.33-.65,1.42-.19,1.09.46a13.68,13.68,0,0,0,5,17.65C808.46,515,807.7,515.84,807.08,515.43Z"/><path class="cls-3" d="M800.18,545.79a30.84,30.84,0,0,0,19.1-11c.47-.57,1.38.14.92.72a32.15,32.15,0,0,1-19.9,11.42c-.75.13-.86-1-.12-1.12Z"/><path class="cls-4" d="M829.58,490.45a9.27,9.27,0,0,0,8.11,2.54c.75-.13.86,1,.11,1.12a10.34,10.34,0,0,1-9-2.79.57.57,0,0,1-.08-.8.61.61,0,0,1,.83-.07Z"/><path class="cls-2" d="M905.35,546.23l-1.39.29h0a125.52,125.52,0,0,0-18.38,5.33l-1.38.53h0A125.66,125.66,0,0,0,845.74,576l-.12.1a.3.3,0,0,1-.08.08l0,0a118.54,118.54,0,0,0-12.31,13l0,0c-.6.75-1.21,1.49-1.81,2.26H772l-.06,0v0h-.25l0,0v0l.2-.28h0L772,591c.06-.1.13-.17.18-.26.4-.53.79-1.08,1.19-1.61.65-.89,1.31-1.78,2-2.66h0l0,0,0,0a173.15,173.15,0,0,1,28.16-29.92c.32-.27.64-.54,1-.79a115.29,115.29,0,0,1,15.37-10.47q4.44-2.52,9.15-4.61a88.28,88.28,0,0,1,25.59-6.89h.16c17.61-2,35.66,1.48,49.47,11.74C904.66,545.7,905,546,905.35,546.23Z"/><path class="cls-4" d="M771.73,591.41H772v0l.06,0h15.87c-4.73-.78-9.45-1.38-14.18-.51l-.32.07c-.48.09-1,.2-1.44.32l-.1,0-.12.06a.11.11,0,0,0-.07,0Z"/><path class="cls-3" d="M905.06,546.7c-.37-.06-.73-.13-1.1-.18h0a110.52,110.52,0,0,0-23.35-1.12c-.39,0-.79.05-1.19.06a109.79,109.79,0,0,0-31.57,6.87h0l-.32.11c-2.35.91-4.67,1.91-6.94,3a46.2,46.2,0,0,0-11.85,7.63,24.3,24.3,0,0,0-6.21,9.44c-.13.36-.26.72-.38,1.08l-.27.87c-1.18,4-1.91,8.22-4.09,11.88a13.77,13.77,0,0,1-2.2,2.81,15.05,15.05,0,0,1-3,2.28h-2.52a14.71,14.71,0,0,0,3.79-2.28,12.05,12.05,0,0,0,2.29-2.5c2.48-3.57,3.24-7.92,4.4-12,.19-.66.39-1.3.61-1.94a25.27,25.27,0,0,1,5.67-9.44,42.45,42.45,0,0,1,11.49-8c2.7-1.35,5.48-2.58,8.32-3.68.37-.16.74-.29,1.11-.42a112.78,112.78,0,0,1,56.53-5.69c.37,0,.73.11,1.1.17C906.15,545.73,905.81,546.82,905.06,546.7Z"/><path class="cls-3" d="M850,552.06c-1.54-7.06.53-14.76,4.88-18.2.43-.33.79.66.36,1-4,3.19-6,10.38-4.51,16.94.15.69-.58,1-.73.27Z"/><path class="cls-3" d="M822.19,572.33a31.92,31.92,0,0,0,22.19,2.19.57.57,0,1,1,.28,1.1,33.2,33.2,0,0,1-23.09-2.32c-.68-.34-.06-1.3.62-1Z"/><path class="cls-3" d="M880.55,547.59c.34,1.93,2.17,3.61,4.87,4.49.68.22.06.86-.62.64-3-1-5-2.83-5.4-5-.07-.2.12-.4.43-.45a.67.67,0,0,1,.72.27Z"/><path class="cls-2" d="M846.35,165.81q.4-47.43,4-95.77c0-.64.09-1.27.14-1.91q1.92-25.17,4.7-50.52v-.1a10.75,10.75,0,0,0-11-10.5h-295a10.78,10.78,0,0,0-11,10.45q-3.84,34.92-6,69.48c-.06.75-.1,1.5-.14,2.25q-1.08,17.1-1.72,34.1c0,.66-.06,1.33-.07,2a1349.61,1349.61,0,0,0,8,208.38,10.8,10.8,0,0,0,11,10.45h295a10.77,10.77,0,0,0,11-10.51v-.1q-2.18-18.43-3.82-37.11c-.16-1.83-.31-3.65-.47-5.48q-1.14-13.44-2-27c-.12-1.83-.23-3.65-.33-5.48q-1.61-27.12-2.1-54.68c0-1.82-.07-3.64-.1-5.47q-.18-13.46-.11-27C846.31,169.46,846.32,167.64,846.35,165.81Z"/><path class="cls-4" d="M935.23,78.63a10.75,10.75,0,0,0-11-10.5h-295a10.78,10.78,0,0,0-11,10.45c-10,90.7-11.61,179.79-4.94,265.54q1.22,15.92,2.84,31.66.87,8.45,1.85,16.83c.08.73.16,1.45.25,2.18a10.79,10.79,0,0,0,11,10.44h295a10.75,10.75,0,0,0,11-10.5v-.11c-11.93-101-11.93-207.28,0-315.89Z"/><path class="cls-5" d="M935.23,78.63a10.75,10.75,0,0,0-11-10.5h-295a10.78,10.78,0,0,0-11,10.45c-10,90.7-11.61,179.79-4.94,265.54q1.22,15.92,2.84,31.66.87,8.45,1.85,16.83c.08.73.16,1.45.25,2.18a10.79,10.79,0,0,0,11,10.44h295a10.75,10.75,0,0,0,11-10.5v-.11c-11.93-101-11.93-207.28,0-315.89Zm-2,316.16a8.8,8.8,0,0,1-9,8.53h-295a8.82,8.82,0,0,1-9-8.59v-.11l-.21-1.84q-1-8.76-1.93-17.58-1.58-15.45-2.79-31.08c-6.67-85.7-5-174.74,4.93-265.39v-.1a8.82,8.82,0,0,1,9-8.59h295a8.8,8.8,0,0,1,9,8.54C921.3,187.28,921.3,293.67,933.23,394.79Z"/><path id="a974c3de-8d03-408b-a459-3ce6ba461bdb" class="cls-6" d="M649.57,165.81a2.74,2.74,0,1,0,0,5.48H889.3a2.74,2.74,0,1,0,0-5.48Z"/><path id="e9133026-9528-4ac3-aa69-83f109aff1e3" class="cls-6" d="M649.57,182.24a2.74,2.74,0,1,0,0,5.47H812.31a2.74,2.74,0,1,0,0-5.47Z"/><path id="a406ca83-8296-4426-a4ed-8cd27cbcb96b" class="cls-6" d="M649.57,198.29a2.74,2.74,0,1,0,0,5.48H889.3a2.74,2.74,0,1,0,0-5.48Z"/><path id="be321b5a-3e39-41eb-b9b2-711d73db0143" class="cls-6" d="M649.57,214.72a2.74,2.74,0,1,0,0,5.47H812.31a2.74,2.74,0,1,0,0-5.47Z"/><path id="a5a7e885-834f-470d-9162-1a1fa51c1163" class="cls-6" d="M649.57,258.44a2.74,2.74,0,1,0,0,5.48H889.3a2.74,2.74,0,1,0,0-5.48Z"/><path id="a5fcdb43-4805-483f-9462-6a7e4850dca6" class="cls-6" d="M649.57,274.87a2.74,2.74,0,1,0,0,5.47H812.31a2.74,2.74,0,1,0,0-5.47Z"/><path id="b765b6a8-7afa-43c2-95d1-39dcbde99f83" class="cls-6" d="M649.57,290.92a2.74,2.74,0,1,0,0,5.48H889.3a2.74,2.74,0,1,0,0-5.48Z"/><path id="e421dd9d-74a5-4920-9c7d-c121b8cd01e8" class="cls-6" d="M649.57,307.35a2.74,2.74,0,1,0,0,5.47H812.31a2.74,2.74,0,1,0,0-5.47Z"/><path id="ea3081fc-4e36-4189-92a3-e6d1b5b4a040" class="cls-7" d="M697,131.82H651.21a2.18,2.18,0,0,1-2.23-2.13v-7a2.18,2.18,0,0,1,2.23-2.13H697a2.18,2.18,0,0,1,2.24,2.13v7A2.18,2.18,0,0,1,697,131.82Z"/><path class="cls-7" d="M856.07,357.18l-14,4.42-7,2.22c-2.16.68-4.51,1.49-6.82,1.19-1.6-.2-3.43-1.08-3.93-2.65s.53-3.05,1.74-3.93c3.35-2.43,7.58,0,10,2.56,2.9,3.08,4.54,7.06,7.26,10.28a25.78,25.78,0,0,0,9,6.83c6.94,3.13,15.41,2.8,21.6-1.76,7.39-5.45,8.15-14.88,8.18-23.12a1.51,1.51,0,0,0-3,0c0,7.46-.48,16.61-7.6,21.28-6.83,4.48-15.8,3.29-22.08-1.48-3.5-2.65-5.66-6.12-8-9.7s-5-6.9-9.25-8.26a8.57,8.57,0,0,0-10,3.33,5.92,5.92,0,0,0,2.21,8.31,7.92,7.92,0,0,0,.72.35c4.9,2.23,10.51-.38,15.22-1.87l16.6-5.24a1.44,1.44,0,1,0-.8-2.76Z"/><polygon class="cls-8" points="814.51 567.75 804.67 570.84 787.5 536.09 802.01 531.52 814.51 567.75"/><path class="cls-9" d="M821.52,575.64l-.67-1.94-1.76-5.11-1.2-3.47-3.28,1-.68,0-9-.58-1.2-.08-1.78-.11-1.84-.13L795,572.34h0a15.08,15.08,0,0,0-8.92,7.33c-.11.21-.21.42-.31.63a15.45,15.45,0,0,0-.63,1.59,14,14,0,0,0-.42,7.24c.13.59.3,1.18.49,1.76l0,.1.12.35.72-.23,6.32-2,22.14-7,4.39-1.38,1.35-.43h0l2.62-.82Z"/><polygon class="cls-8" points="721.29 575.92 710.93 575.92 706.01 537.78 721.29 537.78 721.29 575.92"/><path class="cls-9" d="M704.72,408.72l-4.59,7.59s-5,1.31-3.4,17c1.17,11.09,1.54,60.73,4.48,93,1.21,13.42,2.88,23.83,5.22,27.19l1.45,1.24,15.06,1.37.38-.12,5.53-37.32a59.6,59.6,0,0,0-.44-20.16h0l-1-10.51,13.88-53.19s14.12,34.09,23.12,66.56c2.17,7.82,10.4,12.79,13.52,19.5,1.05,2.24,2.07,4.42,3.07,6.51,6.6,13.76,9.91,23.77,12.41,24.61h2l12-3.82,2.36-5.67-18.36-51.63-13.74-83.37C751.47,394,726.89,392.55,704.72,408.72Z"/><path class="cls-7" d="M779.76,296.4a37,37,0,0,0-3.18-5.48,29.06,29.06,0,0,0-11.17-9.75l-3.94-.83-7.06-1.49-3.72-4-6.1-6.52h-21l-2.81,6.52-2.36,5.47-1,2.33-18,8.59h0c.24,1.72.48,3.43.71,5.13q.76,5.53,1.44,11c.23,1.83.45,3.66.66,5.47q1,8.54,1.73,16.78.64,7.36,1,14.52a301.34,301.34,0,0,1,.14,32.51c-.14,2.55,2.51,5.46,2.3,7.95-.35,4.07-3.64,7.68-4.22,11.56-.36,2.39-.2,4.93-.83,7.18a7.46,7.46,0,0,1-.78,1.9h0c-7.2,12.29-1.55,6.42-2.22,9.18l.32.08,1.35.31c4.23,1,21.67-14.66,33.38-14.66,7,0,25.64,11,31.87,11.84,4.93.63,9.33,1.2,12-1a5.73,5.73,0,0,0,1.69-2.36l0-.09v-.09l-.25-3.2-.15-1.91-2.14-27.4a9.39,9.39,0,0,1-1.3-10.21l.44-.89-1.62-20.7-.3-3.87-.11-1.31h0l-.78-10,1.88-5.46h0l3.66-10.64,1.88-5.47,1.18-3.44.08-.23A37.33,37.33,0,0,0,779.76,296.4Z"/><path class="cls-8" d="M798,395.15l-20.16-49.76-9.37-18.17,18-9.49,14.5,24.4,9.72,51a8.63,8.63,0,0,1,2.44,12.33,9.57,9.57,0,0,1-12.91,2.33,8.63,8.63,0,0,1-2.44-12.33l.21-.28Z"/><path class="cls-7" d="M798.41,326.6l-5.16-3.19-5.93-10.59-3.06-5.47-1.93-3.44-.82-1.47-9.27-6L766,292.31l-5.1,4.09-2.43,1.94,2.38,9,1.44,5.47,3.14,11.87,9.21,15.56,2.29,3.87,1.31,2.22v0l.18.3,23.27-.93.73,0,0-1.58,0-.58c0-.28,0-.57,0-.86A33.89,33.89,0,0,0,798.41,326.6Z"/><path class="cls-8" d="M622.29,375.36l41.24-36,14.33-14.92L693.66,337l-18.55,21.75-46.22,27.15a9.3,9.3,0,0,1-11.14,6.63,8.87,8.87,0,0,1-7-10.64,9.31,9.31,0,0,1,11.15-6.64l.35.08Z"/><path class="cls-7" d="M707.42,312.82l-.08-5.47-.15-11-.06-4.25L707,292a7.81,7.81,0,0,0-3.09-1.11,9.6,9.6,0,0,0-2.93,0,11.34,11.34,0,0,0-1.51.34h0a17.23,17.23,0,0,0-7.57,5.12h0a72,72,0,0,0-7.94,11c-1.13,1.83-2.21,3.69-3.22,5.47-3.82,6.79-6.57,12.67-6.62,12.78l-11.42,14.16.16.26,2.51,4.1,9.2,15,1.46,2.39,3.73-1.91a21,21,0,0,0,9.72-10.1l1.33-4.85.49-.55L704,329.6l3.64-4.16Z"/><ellipse class="cls-8" cx="732.01" cy="246.71" rx="19.25" ry="18.38"/><path class="cls-9" d="M713.4,234.66c-.86-2.86-2.57-5.31-1.71-5.31s1.28-2,1.28-2,.86-.41,1.28,0,.86-2.86.86-2.86.43-1.23.85-.41.43.41.86-.82,2.57-2,2.57-2,8.13.41,9.41-1.23,15.83-.4,18.82,1.64,14.79,5.69,7.79,17.15c4,6.69-2,18.61-3.51,20-2.44,2.23-4.13,3-15.67,5.23-2.26.43-7.82-17.62-7.82-17.62S714.25,237.52,713.4,234.66Z"/><path class="cls-9" d="M721.91,574.43l-.62-.24-11.14-4.34-1.71-.65-7.22,5.23h0c-8.49,0-15.37,6.58-15.38,14.7v.47h39.53V574.43Z"/><path class="cls-10" d="M838.1,590.26a1.17,1.17,0,0,1-1.19,1.15H633.61a1.14,1.14,0,1,1,0-2.28h203.3A1.16,1.16,0,0,1,838.1,590.26Z"/><path class="cls-3" d="M628.21,7C625,61.76,585.66,108.5,530.35,123.29c0,.66-.06,1.33-.07,2C586.74,110.46,627,62.84,630.21,7Z"/><path class="cls-3" d="M597.58,7c-9.39,34.07-33,63-65.37,79.93-.06.75-.1,1.5-.14,2.25,33.54-17.2,58-47,67.58-82.18Z"/><path class="cls-6" d="M1388.11,329.65h-13.78v-2H1388c.31,0,6.74.19,12.67-7,8.83-10.71,16.08-37.24.48-102.75-21-88.1-3.48-165.93,5-195.3a9.75,9.75,0,0,0-6.67-12.07,9.91,9.91,0,0,0-2.71-.38H1194.15a9.78,9.78,0,0,0-7.89,4c-3.6,5-8.54,14.46-11.63,31.66l-2-.36c3.16-17.57,8.26-27.36,12-32.48a11.78,11.78,0,0,1,9.51-4.84h202.58a11.74,11.74,0,0,1,11.76,11.74,11.28,11.28,0,0,1-.46,3.27c-8.45,29.22-25.85,106.64-5,194.27,15.81,66.44,8.21,93.54-1,104.58C1396.05,329.28,1389.39,329.65,1388.11,329.65Z"/><path class="cls-10" d="M1351.61,366.15h-13.78v-2h13.62c.31,0,6.74.19,12.67-7,8.83-10.71,16.08-37.24.48-102.75-21-88.1-3.48-165.93,5-195.3A9.75,9.75,0,0,0,1362.94,47a9.91,9.91,0,0,0-2.71-.38H1157.65a9.78,9.78,0,0,0-7.89,4c-3.6,4.95-8.54,14.46-11.63,31.66l-2-.36c3.16-17.57,8.26-27.36,12-32.48a11.78,11.78,0,0,1,9.51-4.84h202.58A11.74,11.74,0,0,1,1372,56.39a11.28,11.28,0,0,1-.46,3.27c-8.45,29.22-25.85,106.64-5,194.27,15.81,66.44,8.21,93.54-1,104.58C1359.55,365.78,1352.89,366.15,1351.61,366.15Z"/><path class="cls-4" d="M1315.11,402.65H1115.44a11.74,11.74,0,0,1-10.92-16.1c7.23-18.08,17-61.46.93-148.84-19-103.18-2-140.47,6.19-151.72a11.78,11.78,0,0,1,9.52-4.84h202.57a11.74,11.74,0,0,1,11.76,11.74,11.28,11.28,0,0,1-.46,3.27c-8.45,29.22-25.85,106.64-5,194.27,15.81,66.44,8.21,93.54-1,104.58C1323.05,402.28,1316.39,402.65,1315.11,402.65ZM1121.16,83.15a9.78,9.78,0,0,0-7.9,4c-8,11-24.66,47.76-5.84,150.18,15.33,83.47,7.89,127.61-1.05,149.94a9.6,9.6,0,0,0,1,9.06,9.77,9.77,0,0,0,8.09,4.3H1315c.31,0,6.74.19,12.67-7,8.83-10.71,16.08-37.24.48-102.75-21-88.1-3.48-165.93,5-195.3a9.75,9.75,0,0,0-6.67-12.07,9.91,9.91,0,0,0-2.71-.38Z"/><path class="cls-7" d="M1289.27,171.15h-159a8,8,0,0,1,0-16h159a8,8,0,0,1,0,16Z"/><path class="cls-10" d="M1289.27,205.15h-159a8,8,0,0,1,0-16h159a8,8,0,0,1,0,16Z"/><path class="cls-10" d="M1289.27,239.15h-159a8,8,0,0,1,0-16h159a8,8,0,0,1,0,16Z"/><path class="cls-10" d="M1301.27,273.15h-159a8,8,0,0,1,0-16h159a8,8,0,0,1,0,16Z"/><path class="cls-10" d="M1301.27,307.15h-159a8,8,0,0,1,0-16h159a8,8,0,0,1,0,16Z"/><path class="cls-7" d="M1205.27,137.15h-75a8,8,0,0,1,0-16h75a8,8,0,0,1,0,16Z"/><path class="cls-4" d="M1195.59,362c1.61-6.83,9.2-9.07,15.4-8.82A66,66,0,0,1,1222.6,355c4,.89,7.93,1.95,11.85,3.07,7.2,2.05,14.33,4.54,21.64,6.14,6.1,1.34,12.72,2.12,18.79.28,5.84-1.78,10.79-6.13,12.38-12.15,1.5-5.67-.56-11.87-6-14.46-5-2.37-11.34-1.17-13.83,4.18-2.8,6,0,12.6,4.43,17a50.13,50.13,0,0,0,8.24,6.26,30.81,30.81,0,0,0,9.87,4.42c5.78,1.23,12.67-.59,15.65-6.12a10.2,10.2,0,0,0,1.18-4c.17-1.93-2.83-1.91-3,0-.51,5.5-7,8.08-11.77,7.47a23.9,23.9,0,0,1-9.13-3.54,53.09,53.09,0,0,1-7.56-5.33c-4.08-3.54-7.92-9.36-5.17-14.88,2.23-4.5,8.06-4.45,11.61-1.55,4.29,3.51,3.52,9.88.69,14.05-3.13,4.62-8.81,6.55-14.17,6.76-5.82.23-11.6-1.11-17.16-2.69-6.91-2-13.75-4.16-20.7-6-3.94-1.05-7.92-2-11.93-2.73a39.13,39.13,0,0,0-11.57-.8c-6.26.72-12.65,4.37-14.19,10.89-.45,1.88,2.45,2.68,2.89.8Z"/><path class="cls-11" d="M1502.09,531.59a456.16,456.16,0,0,0,4.32,58.85c.09.69.2,1.37.29,2.06l184.4-1c.54-.68,1.08-1.37,1.59-2.07a85.65,85.65,0,0,0,4.82-7.13c7.12-11.81,10.38-25.65,7.11-35.19l-.06-.15a16.56,16.56,0,0,0-3.27-5.68c-7.44-8.39-22.5-7-36.16-.22,12.25-13.42,22-30.35,22.75-45.46.73-14.73-7-25.26-15.34-34.21-.27-.3-.54-.58-.82-.87s-.27-.29-.41-.44c-6.52-6.81-14.12-13.54-25.12-12.72-12.07.89-25.46,11-34.84,22.78s-15.62,25.15-21.94,38.2-13.17,26.42-23.32,37.57c13.75-17.4,24.84-37.19,28.93-56.44s.5-37.74-11.76-46.81a28.74,28.74,0,0,0-12.56-5.07l-1.61-.22c-11.35-1.29-24.9,2.64-36.42,12-12.7,10.33-21.5,25.64-25.88,40.17S1502,518.06,1502.09,531.59Z"/><path class="cls-3" d="M1622.74,591.85l3.52,0c1.12-.7,2.25-1.39,3.38-2.07.7-.45,1.4-.87,2.11-1.3q17.55-10.73,35.31-20.56t35.67-18.79a1.47,1.47,0,0,0,.85-1.69.43.43,0,0,0,0-.12c-.17-.32-.54-.45-1.09-.18-1.46.74-2.94,1.47-4.4,2.22q-18,9.09-35.8,19.1t-35.41,20.88l-.74.46Z"/><path class="cls-3" d="M1577.27,592.1h2.18l1.47-2.06q17.32-24.3,34.65-48.61,28.38-39.79,56.73-79.58a1.44,1.44,0,0,0,.24-.48c.17-.59-.27-.93-.82-.87a1.65,1.65,0,0,0-1.15.73q-15.9,22.32-31.8,44.61L1582.33,585c-1.2,1.67-2.4,3.36-3.59,5Z"/><path class="cls-3" d="M1528.7,579.44c.11,3.68.35,7.29.67,10.88l.18,2h2.29c-.07-.69-.14-1.37-.2-2.06-.48-5.17-.83-10.41-.87-15.78a219.77,219.77,0,0,1,4.33-44.39A275.81,275.81,0,0,1,1548.53,484a315.44,315.44,0,0,1,22-45.63,1.23,1.23,0,0,0,.2-.81c-.09-.66-1-.85-1.61-.23a1.91,1.91,0,0,0-.33.42q-1.58,2.72-3.11,5.46a316.75,316.75,0,0,0-21,45.79,274.42,274.42,0,0,0-12.52,46.19A216.54,216.54,0,0,0,1528.7,579.44Z"/><path class="cls-12" d="M1305.82,362.68a2.5,2.5,0,0,1,1.36-4.41,41.44,41.44,0,0,1,16.19,1.66l53.32,16.47a5.5,5.5,0,1,1-3.25,10.51l-53.31-16.47A41.28,41.28,0,0,1,1305.82,362.68Z"/><path class="cls-13" d="M1524.37,431.08a10.74,10.74,0,0,1-5.76-14.06,11.27,11.27,0,0,1,.89-1.68l-9.14-47.79,23.29-1.81,1.41,46.74a10.8,10.8,0,0,1-10.69,18.6Z"/><path class="cls-7" d="M1508.92,406.42,1485.2,295.93a17.5,17.5,0,1,1,34.21-7.36v0l23.72,110.48a4.5,4.5,0,0,1-3.45,5.34l-25.42,5.46a4.5,4.5,0,0,1-5.35-3.45Z"/><polygon class="cls-13" points="1469.98 580.21 1457.72 580.21 1451.89 532.92 1469.99 532.93 1469.98 580.21"/><path class="cls-9" d="M1449,576.71h23.64V591.6h-38.53A14.89,14.89,0,0,1,1449,576.71Z"/><polygon class="cls-13" points="1510.98 579.21 1498.72 579.21 1492.89 531.92 1510.99 531.93 1510.98 579.21"/><path class="cls-9" d="M1490,575.71h23.64V590.6h-38.53A14.89,14.89,0,0,1,1490,575.71Z"/><path class="cls-9" d="M1455.29,571.39a4.46,4.46,0,0,1-1.61-3.06l-14.25-156.78a4.5,4.5,0,0,1,4.07-4.89h.24l71.48-2.68a4.49,4.49,0,0,1,4.66,4.33,1.82,1.82,0,0,1,0,.33l-5.71,156.17a4.51,4.51,0,0,1-4.09,4.32l-14.41,1.31a4.49,4.49,0,0,1-4.89-4.07s0-.07,0-.11L1484.16,467a1.44,1.44,0,0,0-1.47-1.4h0a1.44,1.44,0,0,0-1.49,1.38v0l-5.92,99.89a4.47,4.47,0,0,1-4,4.21l-12.59,1.26a4.45,4.45,0,0,1-3.31-1Z"/><circle class="cls-13" cx="1482.79" cy="227.11" r="24.56"/><path class="cls-7" d="M1435.49,412.61a4.47,4.47,0,0,1-1-3.68c4.53-27.56,2-68.07-1-97.2a44.17,44.17,0,0,1,18.24-40.3l12.82-11a4.57,4.57,0,0,1,3.06-1.08l31.87.91a4.44,4.44,0,0,1,3,1.32l4.92,10.9.06,0a44.08,44.08,0,0,1,17.91,37.69l-4.69,96.93a4.53,4.53,0,0,1-4.35,4.29L1439,414.14h-.15A4.46,4.46,0,0,1,1435.49,412.61Z"/><path class="cls-13" d="M1342.72,372.16a10.73,10.73,0,0,1,10.47-11,10,10,0,0,1,1.89.12l39.87-27.9,11.19,20.51-42.08,20.41a10.8,10.8,0,0,1-21.34-2.14Z"/><path class="cls-7" d="M1376.26,377a4.47,4.47,0,0,1-2.94-1.78l-15.38-21a4.51,4.51,0,0,1,1-6.3L1450,281.11a17.5,17.5,0,1,1,20.71,28.22h0l-91.09,66.86a4.45,4.45,0,0,1-2.65.87A4.12,4.12,0,0,1,1376.26,377Z"/><path class="cls-9" d="M1484.05,249c3.25-4,2.9-10.08.28-14.52s-7-7.5-11.61-9.89-9.42-4.27-13.72-7.11-4.11-14.89-5.25-19.92l2.73.91c-1-1.34-1.39-5.3-2.44-6.65,3.09.31,5.46,3.24,8.54,3.54l-1.78-4.77c10.58-.66,17.15,6.69,27.72,6,5.24-.32,10.93-.53,15.24,2.47,3.74,2.61,5.64,7.12,6.88,11.51,2.67,9.43,3.09,20-1.53,28.62s-15.23,14.47-24.52,11.35Z"/><path class="cls-12" d="M1349.2,592.15h381a1,1,0,0,0,0-2h-381a1,1,0,0,0,0,2Z"/></g></g></svg>