<svg id="Capa_1" data-name="Capa 1" xmlns="http://www.w3.org/2000/svg" viewBox="0 0 177.1 76.64"><defs><style>.cls-1{fill:#fff;stroke:#1d1d1b;stroke-miterlimit:10;}</style></defs><path class="cls-1" d="M16.31,29a7.8,7.8,0,0,1,3.08,1.26A9.4,9.4,0,0,1,22,33.15a17,17,0,0,1,1.83,4.55,25,25,0,0,1,.69,6.15,35.54,35.54,0,0,1-.63,7.22A15.55,15.55,0,0,1,22.14,56a7.5,7.5,0,0,1-2.75,2.77,7.21,7.21,0,0,1-3.55.9H1.44a34.78,34.78,0,0,0,.43-3.46c.12-1.46.22-3.07.3-4.81s.15-3.58.19-5.52.07-3.8.1-5.61,0-3.45.06-5,0-2.76,0-3.71q0-3,0-6.95c0-2.67-.06-5.4-.14-8.18S2.17,10.93,2,8.28q-.19-3.42-.65-6.74A5,5,0,0,0,3,2a16,16,0,0,0,2.13.21c.75,0,1.5,0,2.24,0h7.7A7,7,0,0,1,18,2.92a7.23,7.23,0,0,1,2.56,2.13,11.65,11.65,0,0,1,1.83,3.67,17.8,17.8,0,0,1,.71,5.43,23,23,0,0,1-.51,5.31,15.78,15.78,0,0,1-1.44,3.92,15.53,15.53,0,0,1-2.14,3C18.15,27.29,17.26,28.16,16.31,29Zm-6.64-26c-.28,1.89-.49,3.82-.61,5.78q-.26,3.42-.39,7.08c-.1,2.45-.17,4.79-.2,7s-.07,4.1-.07,5.57l1.71.08a5.58,5.58,0,0,0,5-3c1.23-2,1.84-5.43,1.84-10.2a19.42,19.42,0,0,0-1.72-8.8A6.13,6.13,0,0,0,9.67,3ZM9.59,58.86A7.58,7.58,0,0,0,13,57.48a10.13,10.13,0,0,0,2.71-3.08,17.34,17.34,0,0,0,1.78-4.64,25.91,25.91,0,0,0,.66-6.07q0-6.57-1.81-10.41t-5-3.84h-3c0,2,0,4.25,0,6.84s.08,5.25.15,8,.21,5.41.35,8c.12,2.23.33,4.44.64,6.59Z" transform="translate(-0.74 -0.67)"/><path class="cls-1" d="M43,27.73a20.22,20.22,0,0,1-.21,4.13,6.57,6.57,0,0,1-.85,2.49,2.9,2.9,0,0,1-1.41,1.22,4.58,4.58,0,0,1-1.81.34,1.6,1.6,0,0,1-1.32-.46A2.23,2.23,0,0,1,37,34a13,13,0,0,1,.37-2.57c.23-1.07.51-2.26.83-3.67a8.11,8.11,0,0,0,.17-4.38c-.44-1.21-1.15-1.85-1.87-1.69-.72-.06-1.41.56-1.88,1.69a17.52,17.52,0,0,0-1.06,4.14q-.24,3.95-.33,8.64c-.05,3.11-.06,6.16,0,9.14q.06,4.14.31,8.27a44,44,0,0,0,.73,6.07H26.22a35.28,35.28,0,0,0,.51-4q.22-2.7.39-6t.25-7c.05-2.46.06-4.83,0-7.09,0-2-.12-4-.27-6.06a24.62,24.62,0,0,0-.57-4.13,5.39,5.39,0,0,0,2-.59,10.91,10.91,0,0,0,1.88-1.27,20,20,0,0,0,1.79-1.69l1.81-1.93c-.09.63-.15,1.28-.18,1.93-.07,1-.13,1.66-.19,2.13.87-2.86,2.41-4.54,4-4.39a3.67,3.67,0,0,1,1.83.51,5.13,5.13,0,0,1,1.63,1.52A9.1,9.1,0,0,1,42.41,24,14.65,14.65,0,0,1,43,27.73Z" transform="translate(-0.74 -0.67)"/><path class="cls-1" d="M57.19,59.61a40.94,40.94,0,0,0,.69-4.81c.17-1.84.29-3.7.37-5.57-.26,1.13-.54,2.22-.85,3.29a32.58,32.58,0,0,1-1.08,3.12,20.5,20.5,0,0,1-1.26,2.57A6.68,6.68,0,0,1,53.65,60a2.67,2.67,0,0,1-1.12.45,6.3,6.3,0,0,1-1.24.13,3.56,3.56,0,0,1-2.57-1.06,8.84,8.84,0,0,1-1.89-3A19.94,19.94,0,0,1,45.66,52a39,39,0,0,1-.38-5.65c0-1.63,0-3.26.06-4.93s.06-3.3.06-4.92V33.63c0-1.15,0-2.35-.1-3.58s-.13-2.4-.23-3.51a14.67,14.67,0,0,0-.42-2.65,12.54,12.54,0,0,0,3.83-1.06,10.73,10.73,0,0,0,3.62-2.6,25.69,25.69,0,0,0-.44,3.91c-.12,1.83-.2,3.77-.27,5.82s-.11,4-.12,6,0,3.35,0,4.25v4.25c0,1.88.08,3.75.2,5.61s.3,3.47.57,5.13A4.65,4.65,0,0,0,53.16,58c.4.2.81,0,1.14-.47a10.29,10.29,0,0,0,1.43-2.4,34.13,34.13,0,0,0,1.42-3.71A40.27,40.27,0,0,0,58.33,47q.09-2.86.06-5.4c0-1.69,0-3.32,0-4.89V33.75c0-1.18,0-2.38-.1-3.59s-.14-2.35-.26-3.5a17.26,17.26,0,0,0-.47-2.7,12.33,12.33,0,0,0,3.91-1,10.81,10.81,0,0,0,3.62-2.73c-.19,1.29-.33,2.61-.4,3.95q-.16,2.46-.27,5.1T64.3,34.5c0,1.69,0,3.06,0,4.14v4.8c0,1.91.06,3.86.14,5.86s.2,3.92.35,5.77a39.15,39.15,0,0,0,.59,4.56Z" transform="translate(-0.74 -0.67)"/><path class="cls-1" d="M75.4,20.24A18.27,18.27,0,0,0,75,23.18c-.12,1.54-.2,3.08-.24,4.64-.06,1.74-.11,3.57-.15,5.48s-.06,3.76-.06,5.56v8.22q0,3.89,0,7.72t0,7.71a39.05,39.05,0,0,1-.37,5.65,21.66,21.66,0,0,1-1.08,4.55,8.32,8.32,0,0,1-1.79,3,3.4,3.4,0,0,1-2.54,1.06,5.43,5.43,0,0,1-2-.38A4.07,4.07,0,0,1,65,75.08a8,8,0,0,1-1.29-2.57,15.05,15.05,0,0,1-.55-4.13,3.85,3.85,0,0,1,.35-1.86c.24-.49.57-.76.92-.75s.6.21.83.63a2.93,2.93,0,0,1,.35,1.39,3.13,3.13,0,0,1-.19,1.06l-.38,1.06a7.85,7.85,0,0,0-.33,1.27,4.3,4.3,0,0,0,0,1.52,2.92,2.92,0,0,0,.86,1.77.74.74,0,0,0,1.1.16,4.89,4.89,0,0,0,1.28-3,43.35,43.35,0,0,0,.57-5.44c.09-1.93.14-3.87.14-5.81v-8.5c0-1.79,0-3.67,0-5.77s0-4.26,0-6.54-.05-4.4-.1-6.45-.14-3.89-.27-5.53a28.87,28.87,0,0,0-.46-3.79,10.6,10.6,0,0,0,3.85-1.07A13.51,13.51,0,0,0,75.4,20.24Zm-3.63-4c-.85,0-1.67-.67-2.26-2a11.13,11.13,0,0,1-.92-4.72,11.16,11.16,0,0,1,.94-4.76c.58-1.28,1.39-2,2.24-2s1.65.69,2.22,2a11.23,11.23,0,0,1,.91,4.76A10.83,10.83,0,0,1,74,14.2C73.42,15.49,72.62,16.21,71.77,16.19Z" transform="translate(-0.74 -0.67)"/><path class="cls-1" d="M84.89,20.24q-.35,2.57-.48,5.22c-.11,2.12-.21,4.45-.28,7S84,37.52,84,40.21s0,5.31.1,7.71.2,4.7.34,6.75a37,37,0,0,0,.64,4.94H77a36.57,36.57,0,0,0,.52-4.14q.23-2.78.38-6.28t.25-7.38c.06-2.58.06-5,0-7.37q0-3.16-.27-6.28a25.15,25.15,0,0,0-.57-4.26,11,11,0,0,0,3.94-1A12.72,12.72,0,0,0,84.89,20.24Zm-7-10.89c0-3.65,1.45-6.59,3.22-6.65.84,0,1.66.7,2.24,2a10.86,10.86,0,0,1,.93,4.67,11,11,0,0,1-.93,4.77c-.58,1.28-1.4,2-2.24,2s-1.69-.67-2.28-1.94A11,11,0,0,1,77.88,9.35Z" transform="translate(-0.74 -0.67)"/><path class="cls-1" d="M108.69,39.28a8.84,8.84,0,0,0,1.69,2.28,4.66,4.66,0,0,0,2,1.22,2.71,2.71,0,0,0,2-.17,4.6,4.6,0,0,0,1.85-1.81c0,2,0,4.25-.1,6.58a46.74,46.74,0,0,1-.63,6.57,13.54,13.54,0,0,1-1.54,4.69,3.78,3.78,0,0,1-2.22,2c-1.75.41-3.38-1.93-3.81-5.48-.24-1.35-.41-2.75-.52-4.17-.13-1.6-.27-3.26-.4-5s-.3-3.41-.51-5.1a29.81,29.81,0,0,0-.88-4.55,12.15,12.15,0,0,0-1.48-3.42,3.43,3.43,0,0,0-2.34-1.64v4.08c0,1.6,0,3.34.09,5.19s.09,3.75.16,5.7.15,3.8.26,5.6c.1,1.65.23,3.3.41,4.93a26.76,26.76,0,0,0,.57,3.58,5.79,5.79,0,0,0-1.66-.38c-.72-.08-1.49-.15-2.32-.2s-1.64-.11-2.44-.13-1.47,0-2,0c.28-2.23.47-4.5.57-6.79.16-3.06.28-6.5.38-10.28s.14-7.79.14-12,0-8.15-.1-11.88-.18-7.07-.34-10a52.59,52.59,0,0,0-.65-6.38h12.08a8.37,8.37,0,0,1,6.35,3,12,12,0,0,1,2.26,4.25,21.65,21.65,0,0,1,.87,6.58,21.8,21.8,0,0,1-1.32,8.43,10.9,10.9,0,0,1-3.29,4.5A9.1,9.1,0,0,1,107.56,31a27.23,27.23,0,0,1-4.1.34,4.51,4.51,0,0,1,1.38,1.18,14.54,14.54,0,0,1,1.34,2c.43.75.86,1.56,1.28,2.4S108.28,38.5,108.69,39.28Zm-5.61-36a56.62,56.62,0,0,0-.64,5.9c-.17,2.36-.3,4.82-.39,7.34s-.16,5-.21,7.44-.06,4.51-.06,6.2A7.9,7.9,0,0,0,105,29.1a9.67,9.67,0,0,0,2.9-2.57,13.77,13.77,0,0,0,2.09-4,17.82,17.82,0,0,0,.8-5.7,19.7,19.7,0,0,0-.56-4.63,17.76,17.76,0,0,0-1.58-4.25,11.36,11.36,0,0,0-2.44-3.19,5.47,5.47,0,0,0-3.12-1.44Z" transform="translate(-0.74 -0.67)"/><path class="cls-1" d="M125.93,20.24c-.22,1.71-.37,3.45-.46,5.22-.13,2.12-.22,4.44-.29,7s-.11,5.1-.12,7.79,0,5.31.1,7.71.2,4.7.35,6.75a35.45,35.45,0,0,0,.63,4.94h-8.06a34.43,34.43,0,0,0,.51-4.14q.22-2.78.39-6.28t.24-7.38c.06-2.58.07-5,0-7.37,0-2.11-.11-4.2-.26-6.28a26.35,26.35,0,0,0-.57-4.26,11,11,0,0,0,3.93-1A12.48,12.48,0,0,0,125.93,20.24Zm-7-10.89c0-3.65,1.45-6.6,3.22-6.65.84,0,1.66.7,2.24,2a10.89,10.89,0,0,1,.93,4.67,11,11,0,0,1-.93,4.77c-.58,1.28-1.39,2-2.24,2s-1.69-.67-2.28-1.94A11.07,11.07,0,0,1,118.93,9.35Z" transform="translate(-0.74 -0.67)"/><path class="cls-1" d="M140.11,3.71A3.6,3.6,0,0,1,142,5.9a11.66,11.66,0,0,1,.8,4.55,16.65,16.65,0,0,1-.47,4.13c-.27,1.12-.81,1.86-1.41,1.94-.84.24-1.62-1-1.74-2.73,0-.12,0-.26,0-.39a7.65,7.65,0,0,1,.23-1.89c.14-.59.31-1.17.48-1.73a15.26,15.26,0,0,0,.43-1.65,5.22,5.22,0,0,0,0-1.72c-.11-.81-.47-1.36-.88-1.35a2.11,2.11,0,0,0-1.48.5,7.87,7.87,0,0,0-1.54,1.52,7.23,7.23,0,0,0-1,1.6c-.13,1.3-.25,2.92-.36,4.85s-.21,4.42-.29,7.44h3.89v.84h-3.87c-.09,3.43-.12,7.05-.12,10.84s0,7.44.09,10.92.19,6.64.35,9.48a51,51,0,0,0,.7,6.53h-8a66.6,66.6,0,0,0,.67-6.87c.18-3,.3-6.29.39-9.87s.12-7.22.12-11,0-7.09-.12-10.08h-1V21h.94c-.05-1.52-.13-3-.24-4.39a33.7,33.7,0,0,0-.61-4.25,5.14,5.14,0,0,0,3.86-1.39,25.11,25.11,0,0,0,2.91-3.19c.89-1.16,1.74-2.18,2.57-3.08A2.83,2.83,0,0,1,140.11,3.71Z" transform="translate(-0.74 -0.67)"/><path class="cls-1" d="M159.15,20.82a38.42,38.42,0,0,0-.39,4.35c-.09,2-.17,4.25-.22,6.74s-.07,5.14,0,7.93.08,5.45.17,8c.06,2.33.19,4.66.38,7a37.3,37.3,0,0,0,.62,4.72,7.54,7.54,0,0,1-1.35-.08c-.43-.09-.87-.14-1.3-.26a10.3,10.3,0,0,0-3.08-.17,17.68,17.68,0,0,0-2.43.51l-2.28.67a9,9,0,0,1-2.56.34,5.54,5.54,0,0,1-4.89-3q-1.83-3-1.83-9.48a26.23,26.23,0,0,1,.47-5.44A13.29,13.29,0,0,1,141.68,39a6.6,6.6,0,0,1,1.83-2.19,12.84,12.84,0,0,1,2.18-1.27c.36-.17.83-.36,1.43-.58a16.87,16.87,0,0,0,1.89-.85,12.15,12.15,0,0,0,2-1.27,7,7,0,0,0,1.73-1.93V28.5c0-.63-.06-1.25-.11-1.86a7.19,7.19,0,0,0-1-2.19,13.77,13.77,0,0,0-1.63-2,8.24,8.24,0,0,0-1.77-1.39,2,2,0,0,0-1.47-.34,1.43,1.43,0,0,0-.73.92,5.71,5.71,0,0,0-.29,1.95c0,.94.05,1.88.13,2.81a25,25,0,0,1,.06,3,7.06,7.06,0,0,1-.47,2.4c-.4.74-.93,1.1-1.47,1-.64.06-1.26-.51-1.67-1.55a11,11,0,0,1-.61-3.92,14.23,14.23,0,0,1,.52-4.26,6.19,6.19,0,0,1,1.36-2.48,3.55,3.55,0,0,1,1.85-1.07,4.77,4.77,0,0,1,2.06,0,6.85,6.85,0,0,1,1.89.84c.61.4,1.23.82,1.84,1.27s1.2.86,1.79,1.22a4.94,4.94,0,0,0,1.77.72,2.15,2.15,0,0,0,1.28,0,3.54,3.54,0,0,0,1.06-.63,8.25,8.25,0,0,0,1-1A10.55,10.55,0,0,1,159.15,20.82Zm-7.48,36.89q.33-2.94.55-6.19t.35-6.57q.12-3.33.14-6.54c0-2.13,0-4.15,0-6.07a8.53,8.53,0,0,1-1,1.57,19.06,19.06,0,0,1-1.32,1.46l-1.26,1.27c-.39.39-.69.7-.88.93a12.21,12.21,0,0,0-2.05,3.74,21.21,21.21,0,0,0-.89,7,21.17,21.17,0,0,0,.51,5.1,10.12,10.12,0,0,0,1.41,3.41,3.33,3.33,0,0,0,2.05,1.52A3,3,0,0,0,151.67,57.71Z" transform="translate(-0.74 -0.67)"/><path class="cls-1" d="M176.35,31.28c-.38-.85-.85-1.79-1.42-2.83a29.73,29.73,0,0,0-1.84-2.95,15.76,15.76,0,0,0-2-2.36,3,3,0,0,0-1.87-1,1.14,1.14,0,0,0-1.14.63,3.24,3.24,0,0,0-.33,1.56,9.12,9.12,0,0,0,.23,2,12.35,12.35,0,0,0,.54,1.89c.72,1.84,1.5,3.59,2.33,5.23A34.44,34.44,0,0,0,173.5,38c.52.84,1,1.69,1.47,2.53a22.63,22.63,0,0,1,1.22,2.66,17.32,17.32,0,0,1,.84,2.95,19.06,19.06,0,0,1,.3,3.41,19.47,19.47,0,0,1-.55,5A10.63,10.63,0,0,1,175.3,58a6.09,6.09,0,0,1-2.21,1.94,5.85,5.85,0,0,1-2.64.63,2.57,2.57,0,0,1-1.33-.38,9.74,9.74,0,0,1-1.24-.88c-.4-.34-.81-.71-1.22-1.07s-.82-.75-1.22-1.06a3.16,3.16,0,0,0-2.06-.85,4.36,4.36,0,0,0-2,1.06,5.74,5.74,0,0,0,.51-1.86c.11-.82.18-1.67.21-2.53s0-1.77,0-2.65S162,48.67,162,48a36.39,36.39,0,0,0,1.38,3.62A30.44,30.44,0,0,0,165.06,55a13.28,13.28,0,0,0,1.8,2.45,2.45,2.45,0,0,0,1.66.92,1.66,1.66,0,0,0,1.25-.72,3.57,3.57,0,0,0,.59-2.23,12.69,12.69,0,0,0-.65-4.13,24.79,24.79,0,0,0-1.63-3.62c-.66-1.19-1.36-2.37-2.1-3.55a38.82,38.82,0,0,1-2.1-3.8,25.27,25.27,0,0,1-1.63-4.46,21.68,21.68,0,0,1-.65-5.56,17.73,17.73,0,0,1,1.47-7.88c1.09-2,2.52-3.08,4-2.92a3.67,3.67,0,0,1,2.52.93,17.27,17.27,0,0,1,2,2c.59.73,1.16,1.4,1.71,2a2.33,2.33,0,0,0,1.79.92,2.19,2.19,0,0,0,.75-.16,3.37,3.37,0,0,0,.76-.42c-.11,1.08-.18,2.18-.21,3.28S176.31,30.22,176.35,31.28Zm0,0c-.38-.85-.85-1.81-1.42-2.87a30.64,30.64,0,0,0-1.84-3,15.76,15.76,0,0,0-2-2.36,2.91,2.91,0,0,0-1.87-1,1.13,1.13,0,0,0-1.14.63,3.22,3.22,0,0,0-.33,1.56,9.1,9.1,0,0,0,.23,2,12.48,12.48,0,0,0,.54,1.9,53,53,0,0,0,2.33,5.31A36.42,36.42,0,0,0,173.5,38c.52.85,1,1.69,1.47,2.53a21.75,21.75,0,0,1,1.22,2.65,17.93,17.93,0,0,1,.84,3,21.77,21.77,0,0,1-.25,8.47A10.63,10.63,0,0,1,175.3,58a6.22,6.22,0,0,1-2.21,2,5.84,5.84,0,0,1-2.64.62,2.48,2.48,0,0,1-1.33-.38,9.74,9.74,0,0,1-1.24-.88c-.4-.34-.81-.7-1.22-1.07s-.82-.75-1.22-1.06a3.16,3.16,0,0,0-2.06-.85,4.36,4.36,0,0,0-2,1.06,5.67,5.67,0,0,0,.51-1.86c.11-.82.18-1.67.21-2.52s0-1.81,0-2.7S162,48.66,162,48a37.56,37.56,0,0,0,1.38,3.63A32.3,32.3,0,0,0,165.06,55a12.86,12.86,0,0,0,1.8,2.44,2.45,2.45,0,0,0,1.66.92,1.66,1.66,0,0,0,1.25-.72,3.55,3.55,0,0,0,.59-2.23,13,13,0,0,0-.65-4.17,21.67,21.67,0,0,0-1.63-3.62q-1-1.74-2.1-3.51a36.34,36.34,0,0,1-2.1-3.84,27.65,27.65,0,0,1-1.63-4.46,21.31,21.31,0,0,1-.65-5.52,17.64,17.64,0,0,1,1.47-7.92c1.09-2,2.53-3,4-2.87a3.66,3.66,0,0,1,2.52.92,18.09,18.09,0,0,1,2,2c.59.73,1.16,1.4,1.71,2a2.3,2.3,0,0,0,1.79.92,1.59,1.59,0,0,0,.75-.2,5.49,5.49,0,0,0,.76-.46c-.11,1.09-.18,2.2-.21,3.32S176.31,30.22,176.35,31.28Z" transform="translate(-0.74 -0.67)"/></svg>