<svg id="Capa_1" data-name="Capa 1" xmlns="http://www.w3.org/2000/svg" viewBox="0 0 342.73 68.4"><defs><style>.cls-1{fill:#fff;}</style></defs><path class="cls-1" d="M30.36,25.76a27.79,27.79,0,0,1,6,1.15,17.08,17.08,0,0,1,5.16,2.61,13.13,13.13,0,0,1,3.57,4.14,11.46,11.46,0,0,1,1.35,5.59,15.94,15.94,0,0,1-1.23,6.56,11.35,11.35,0,0,1-3.49,4.44,14.84,14.84,0,0,1-5.36,2.52,27.14,27.14,0,0,1-6.9.81H1.4a15.66,15.66,0,0,0,.84-3.14c.23-1.33.43-2.79.59-4.37s.28-3.26.36-5,.14-3.45.2-5.1.09-3.13.11-4.52,0-2.5,0-3.37q0-2.68,0-6.31c0-2.43-.11-4.91-.27-7.43s-.4-5-.72-7.4A37.56,37.56,0,0,0,1.25.8a18.77,18.77,0,0,0,3.17.45c1.32.11,2.71.17,4.16.2s2.91,0,4.36,0h15a27,27,0,0,1,5.67.6,16.93,16.93,0,0,1,5,1.94,11.23,11.23,0,0,1,3.56,3.33,8.49,8.49,0,0,1,1.39,4.93,10.33,10.33,0,0,1-1,4.83,12,12,0,0,1-2.81,3.57,21.7,21.7,0,0,1-4.17,2.76C34,24.2,32.21,25,30.36,25.76ZM17.43,2.17a30.67,30.67,0,0,0-1.19,5.25c-.32,2.07-.57,4.21-.76,6.44s-.32,4.35-.39,6.39S15,24,15,25.31l3.33.08q6.11,0,9.68-2.76t3.57-9.28a10.31,10.31,0,0,0-3.34-8q-3.33-3-10.78-3.21Zm-.16,50.71A25.91,25.91,0,0,0,24,51.63a17.74,17.74,0,0,0,5.28-2.8,13.07,13.07,0,0,0,3.48-4.21A11.8,11.8,0,0,0,34,39.1q0-6-3.52-9.46t-9.72-3.49H15c0,1.79,0,3.86.08,6.21s.16,4.77.31,7.27.39,4.92.68,7.25a34.24,34.24,0,0,0,1.23,6Z" transform="translate(-1.25 -0.8)"/><path class="cls-1" d="M82.31,24.6a9,9,0,0,1-.4,3.75,4.74,4.74,0,0,1-1.66,2.26,6.59,6.59,0,0,1-2.74,1.11A18.24,18.24,0,0,1,74,32a5.69,5.69,0,0,1-2.58-.42,1.33,1.33,0,0,1-.71-1.34,6.24,6.24,0,0,1,.71-2.34c.45-1,1-2.05,1.63-3.33.9-1.64,1-3,.32-4a4.08,4.08,0,0,0-3.65-1.54,4.59,4.59,0,0,0-3.65,1.54A10.23,10.23,0,0,0,64,24.37q-.48,3.6-.64,7.86c-.1,2.83-.12,5.6,0,8.3a67.63,67.63,0,0,0,.6,7.52,19.54,19.54,0,0,0,1.42,5.51H49.67a16.85,16.85,0,0,0,1-3.68q.44-2.45.76-5.48c.21-2,.36-4.15.47-6.39a60.12,60.12,0,0,0,0-6.44,46.41,46.41,0,0,0-.51-5.52,12.05,12.05,0,0,0-1.12-3.74,20.7,20.7,0,0,0,4-.54,30.91,30.91,0,0,0,3.65-1.15c1.19-.47,2.35-1,3.49-1.54l3.53-1.76a10.78,10.78,0,0,0-.36,1.76c-.13.87-.25,1.51-.36,1.93a8.91,8.91,0,0,1,7.86-4,13.89,13.89,0,0,1,3.57.47,10.94,10.94,0,0,1,3.17,1.38A8.13,8.13,0,0,1,81.2,21.2,7.1,7.1,0,0,1,82.31,24.6Z" transform="translate(-1.25 -0.8)"/><path class="cls-1" d="M110,53.56a19.66,19.66,0,0,0,1.35-4.36,51.08,51.08,0,0,0,.71-5.07,31.14,31.14,0,0,1-1.66,3,22.39,22.39,0,0,1-2.1,2.84,19.45,19.45,0,0,1-2.46,2.34,11,11,0,0,1-2.74,1.57,9,9,0,0,1-2.18.42c-.87.07-1.68.11-2.42.11a12,12,0,0,1-5-1,10.7,10.7,0,0,1-3.68-2.73,11.3,11.3,0,0,1-2.27-4.09,16.93,16.93,0,0,1-.75-5.14c0-1.48,0-3,.12-4.48S87,34,87,32.53V30c0-1.05-.09-2.14-.2-3.26s-.25-2.18-.44-3.19a7.14,7.14,0,0,0-.83-2.4,48.05,48.05,0,0,0,7.46-1,28.2,28.2,0,0,0,7.06-2.36,11.48,11.48,0,0,0-.87,3.55c-.22,1.66-.39,3.43-.52,5.29s-.21,3.67-.24,5.44,0,3,0,3.87v3.86a41.55,41.55,0,0,0,.4,5.1A22.59,22.59,0,0,0,100,49.55a3.7,3.7,0,0,0,2.18,2.57,2.81,2.81,0,0,0,2.22-.42,11.85,11.85,0,0,0,2.78-2.19,25.59,25.59,0,0,0,2.77-3.37,23.47,23.47,0,0,0,2.3-4c.11-1.74.15-3.37.12-4.91s0-3,0-4.44V30.06c0-1.07-.09-2.16-.2-3.25a24.63,24.63,0,0,0-.51-3.19,8.93,8.93,0,0,0-.91-2.45,47.44,47.44,0,0,0,7.61-.88,27.07,27.07,0,0,0,7.06-2.48,19.18,19.18,0,0,0-.79,3.59c-.21,1.49-.39,3-.52,4.64s-.21,3.17-.24,4.71,0,2.78,0,3.76v4.36c0,1.74.12,3.51.28,5.32s.38,3.57.68,5.25a17.56,17.56,0,0,0,1.15,4.14Z" transform="translate(-1.25 -0.8)"/><path class="cls-1" d="M145.45,17.79a8.67,8.67,0,0,0-.8,2.67,39.86,39.86,0,0,0-.47,4.21c-.11,1.59-.2,3.25-.28,5s-.12,3.42-.12,5.05v7.47q0,3.52.08,7t.08,7a18,18,0,0,1-.72,5.14,12.33,12.33,0,0,1-2.1,4.13,9.63,9.63,0,0,1-3.49,2.76,11.67,11.67,0,0,1-4.95,1,23.32,23.32,0,0,1-4-.35,10.25,10.25,0,0,1-3.45-1.23,7.54,7.54,0,0,1-2.5-2.33,7,7,0,0,1-1.07-3.75,2,2,0,0,1,.67-1.69,2.6,2.6,0,0,1,1.79-.69,2.46,2.46,0,0,1,1.63.57,1.73,1.73,0,0,1,.67,1.27,1.6,1.6,0,0,1-.36,1l-.75,1a4.63,4.63,0,0,0-.64,1.15,1.89,1.89,0,0,0,.08,1.38,2.82,2.82,0,0,0,1.67,1.61,2.66,2.66,0,0,0,2.14.15,4.17,4.17,0,0,0,2.5-2.76,19.88,19.88,0,0,0,1.11-4.94,51.88,51.88,0,0,0,.28-5.28V46.51c0-1.62.05-3.33.08-5.24s0-3.87,0-5.94-.1-4-.2-5.87a47.77,47.77,0,0,0-.52-5A13.84,13.84,0,0,0,130.9,21a39.38,39.38,0,0,0,7.5-1A36.84,36.84,0,0,0,145.45,17.79Zm-7.06-3.68A6.06,6.06,0,0,1,134,12.34a5.75,5.75,0,0,1-1.78-4.29A5.87,5.87,0,0,1,134,3.72a6,6,0,0,1,4.37-1.79,5.88,5.88,0,0,1,4.32,1.79,5.94,5.94,0,0,1,1.78,4.33,5.83,5.83,0,0,1-1.78,4.25A5.86,5.86,0,0,1,138.39,14.11Z" transform="translate(-1.25 -0.8)"/><path class="cls-1" d="M163.93,17.79a28.35,28.35,0,0,0-.92,4.74c-.23,1.93-.42,4-.55,6.33s-.21,4.63-.24,7.07a69.27,69.27,0,0,0,.2,7c.2,2.18.38,4.27.67,6.13a16.65,16.65,0,0,0,1.23,4.48H148.58a16.31,16.31,0,0,0,1-3.76q.43-2.52.75-5.7t.48-6.71a65.07,65.07,0,0,0,0-6.7,47.51,47.51,0,0,0-.52-5.71,12.13,12.13,0,0,0-1.11-3.86,42.92,42.92,0,0,0,7.66-.88A32,32,0,0,0,163.93,17.79ZM150.28,7.9a6.26,6.26,0,0,1,6.27-6.05,6,6,0,0,1,4.36,1.8,5.79,5.79,0,0,1,1.83,4.25,5.84,5.84,0,0,1-1.83,4.32A6,6,0,0,1,156.55,14a6.13,6.13,0,0,1-4.44-1.77A5.77,5.77,0,0,1,150.28,7.9Z" transform="translate(-1.25 -0.8)"/><path class="cls-1" d="M210.29,35.09a14.11,14.11,0,0,0,7.13,3.18,10.71,10.71,0,0,0,3.91-.15,9.15,9.15,0,0,0,3.6-1.64c0,1.83-.06,3.86-.19,6a20.68,20.68,0,0,1-1.23,6,9.09,9.09,0,0,1-3,4.26,8.26,8.26,0,0,1-4.31,1.8,6.85,6.85,0,0,1-7.43-5,19.68,19.68,0,0,1-1-3.78c-.26-1.46-.53-3-.79-4.52s-.59-3.1-1-4.64a15.19,15.19,0,0,0-1.7-4.13,10.33,10.33,0,0,0-2.89-3.11,9.08,9.08,0,0,0-4.55-1.49v3.71c0,1.45.08,3,.16,4.71s.19,3.41.32,5.18.3,3.46.51,5.09a42.41,42.41,0,0,0,.79,4.48,13.5,13.5,0,0,0,1.11,3.26,23.14,23.14,0,0,0-3.22-.35c-1.4-.07-2.91-.14-4.52-.18s-3.2-.1-4.76-.12-2.87,0-3.92,0a36,36,0,0,0,1.11-6.17c.31-2.78.56-5.9.75-9.34s.28-7.08.28-10.89-.07-7.4-.2-10.79-.36-6.43-.67-9.08a23.14,23.14,0,0,0-1.27-5.8h23.54a33.25,33.25,0,0,1,6.37.65,21.22,21.22,0,0,1,6,2.11,12.59,12.59,0,0,1,4.39,3.87,10.26,10.26,0,0,1,1.7,6,10.88,10.88,0,0,1-2.57,7.66,15.82,15.82,0,0,1-6.41,4.09,31.17,31.17,0,0,1-8.23,1.65c-2.93.2-5.6.31-8,.31a10,10,0,0,1,2.69,1.07,19.51,19.51,0,0,1,2.61,1.8c.85.68,1.68,1.42,2.49,2.18S209.5,34.38,210.29,35.09ZM199.37,2.38a26.1,26.1,0,0,0-1.26,5.36c-.32,2.15-.57,4.38-.75,6.67S197,19,197,21.17s-.12,4.1-.12,5.64a29.27,29.27,0,0,0,6.24-1,21.35,21.35,0,0,0,5.65-2.34,13.62,13.62,0,0,0,4.07-3.67,8.57,8.57,0,0,0,1.57-5.17,9.26,9.26,0,0,0-1.1-4.21,13.11,13.11,0,0,0-3.08-3.87,17.18,17.18,0,0,0-4.74-2.89,17.85,17.85,0,0,0-6.08-1.31Z" transform="translate(-1.25 -0.8)"/><path class="cls-1" d="M243.88,17.79a28.33,28.33,0,0,0-.91,4.74q-.36,2.89-.56,6.33c-.13,2.26-.21,4.63-.23,7.07s0,4.83.19,7,.39,4.27.68,6.13a16.65,16.65,0,0,0,1.23,4.48h-15.7a16.31,16.31,0,0,0,1-3.76q.43-2.52.76-5.7t.47-6.71c.1-2.34.12-4.57,0-6.7A49.63,49.63,0,0,0,230.3,25a12.75,12.75,0,0,0-1.11-3.86,42.8,42.8,0,0,0,7.65-.88A31.76,31.76,0,0,0,243.88,17.79ZM230.24,7.9a6.25,6.25,0,0,1,6.26-6.05,6,6,0,0,1,4.37,1.8,5.79,5.79,0,0,1,1.82,4.25,5.83,5.83,0,0,1-1.82,4.32A6,6,0,0,1,236.5,14a6.13,6.13,0,0,1-4.44-1.77A5.81,5.81,0,0,1,230.24,7.9Z" transform="translate(-1.25 -0.8)"/><path class="cls-1" d="M271.48,2.77a6.06,6.06,0,0,1,3.61,2,5.88,5.88,0,0,1,1.55,4.13,7.5,7.5,0,0,1-.91,3.76A3.29,3.29,0,0,1,273,14.41a3,3,0,0,1-3.38-2.48,2.07,2.07,0,0,1,0-.35A3.58,3.58,0,0,1,270,9.86a17,17,0,0,1,1-1.58,9.44,9.44,0,0,0,.83-1.49,2.29,2.29,0,0,0,.08-1.57A1.74,1.74,0,0,0,270.17,4a7.65,7.65,0,0,0-2.89.45,16.31,16.31,0,0,0-3,1.38,8.49,8.49,0,0,0-2,1.46c-.26,1.18-.5,2.65-.71,4.4s-.4,4-.56,6.76h7.57v.77H261c-.16,3.12-.23,6.4-.23,9.85s.06,6.76.19,9.92.36,6,.68,8.61A22.86,22.86,0,0,0,263,53.54H247.45a29.71,29.71,0,0,0,1.31-6.25c.34-2.73.59-5.71.75-9s.24-6.56.24-10-.08-6.44-.24-9.15h-1.93v-.77h1.82c-.1-1.38-.26-2.7-.47-4a16,16,0,0,0-1.19-3.86,18.08,18.08,0,0,0,7.53-1.26,47.27,47.27,0,0,0,5.67-2.9q2.58-1.58,5-2.8A9.85,9.85,0,0,1,271.48,2.77Z" transform="translate(-1.25 -0.8)"/><path class="cls-1" d="M308.58,18.32a16.63,16.63,0,0,0-.76,3.95c-.18,1.8-.33,3.86-.43,6.12s-.14,4.68-.08,7.21.16,4.95.32,7.27a52,52,0,0,0,.75,6.33,16.84,16.84,0,0,0,1.2,4.28c-.9,0-1.77,0-2.62-.07s-1.69-.13-2.54-.24a42.91,42.91,0,0,0-6-.15c-1.66.11-3.24.26-4.72.46l-4.44.61a36.39,36.39,0,0,1-5,.31q-5.94,0-9.51-2.72t-3.57-8.62a11.66,11.66,0,0,1,.91-4.94,9.47,9.47,0,0,1,2.46-3.26,11.18,11.18,0,0,1,3.57-2,38.44,38.44,0,0,1,4.24-1.15c.69-.15,1.61-.32,2.78-.53s2.39-.46,3.68-.77a34.74,34.74,0,0,0,3.89-1.15,12.17,12.17,0,0,0,3.37-1.76V25.29a15.9,15.9,0,0,0-.2-1.69,6.44,6.44,0,0,0-2-2,23,23,0,0,0-3.17-1.79,20.09,20.09,0,0,0-3.45-1.27,7.68,7.68,0,0,0-2.86-.31,2.29,2.29,0,0,0-1.42.84,2.7,2.7,0,0,0-.56,1.77,15.73,15.73,0,0,0,.24,2.56,10.33,10.33,0,0,1,.12,2.72,3.76,3.76,0,0,1-.91,2.18,3.71,3.71,0,0,1-2.86.88,4,4,0,0,1-3.25-1.41,5.31,5.31,0,0,1-1.19-3.56,6.66,6.66,0,0,1,1-3.86,6.49,6.49,0,0,1,2.66-2.26,10.68,10.68,0,0,1,3.61-1,19.1,19.1,0,0,1,4,0,22.17,22.17,0,0,1,3.69.76c1.19.36,2.38.75,3.57,1.15s2.35.79,3.49,1.11a16.82,16.82,0,0,0,3.45.66,9.51,9.51,0,0,0,2.5,0,10.71,10.71,0,0,0,2.06-.58,16,16,0,0,0,1.94-.88A18.31,18.31,0,0,1,308.58,18.32ZM294,51.84q.63-2.67,1.07-5.63t.68-6c.15-2,.25-4,.27-5.94s0-3.77,0-5.51a11.31,11.31,0,0,1-2,1.42c-.85.48-1.72.92-2.58,1.33L289,32.69c-.76.36-1.33.64-1.7.85a12.74,12.74,0,0,0-4,3.4c-1.16,1.45-1.74,3.59-1.74,6.4a9.84,9.84,0,0,0,1,4.64,8.33,8.33,0,0,0,2.74,3.1,8.48,8.48,0,0,0,4,1.38A11,11,0,0,0,294,51.84Z" transform="translate(-1.25 -0.8)"/><path class="cls-1" d="M342.08,27.82c-.74-.77-1.67-1.62-2.78-2.57a37.35,37.35,0,0,0-3.57-2.68,27.17,27.17,0,0,0-3.88-2.15,9.55,9.55,0,0,0-3.65-.88,3.4,3.4,0,0,0-2.22.57,1.84,1.84,0,0,0-.64,1.42,4.23,4.23,0,0,0,.44,1.81,7,7,0,0,0,1.07,1.72,50.67,50.67,0,0,0,4.52,4.75A39,39,0,0,0,336.53,34c1,.76,2,1.53,2.85,2.29a20.14,20.14,0,0,1,2.38,2.42,11,11,0,0,1,1.63,2.68,8.06,8.06,0,0,1,.59,3.1A9,9,0,0,1,342.91,49,8.91,8.91,0,0,1,340,52.06a13.47,13.47,0,0,1-4.29,1.77,22.9,22.9,0,0,1-5.15.57,9.39,9.39,0,0,1-2.58-.35,22.84,22.84,0,0,1-2.42-.8l-2.38-1c-.79-.33-1.59-.69-2.38-1a10.74,10.74,0,0,0-4-.77,13.68,13.68,0,0,0-4,1,3.52,3.52,0,0,0,1-1.69,11.19,11.19,0,0,0,.4-2.3,19.38,19.38,0,0,0,0-2.41c-.06-.79-.11-1.49-.16-2.11a26.63,26.63,0,0,0,2.7,3.3,30.29,30.29,0,0,0,3.33,3.07,18.6,18.6,0,0,0,3.49,2.22,7.47,7.47,0,0,0,3.25.84,4.78,4.78,0,0,0,2.42-.66,2.16,2.16,0,0,0,1.15-2A6.09,6.09,0,0,0,329.13,46,20.14,20.14,0,0,0,326,42.71c-1.27-1.09-2.64-2.16-4.09-3.23A39.57,39.57,0,0,1,317.79,36,18.34,18.34,0,0,1,314.61,32a10.06,10.06,0,0,1-1.27-5,9.27,9.27,0,0,1,2.86-7.16A11,11,0,0,1,324,17.11a13.1,13.1,0,0,1,4.92.84,33.46,33.46,0,0,1,3.81,1.85q1.74,1,3.33,1.83a7.17,7.17,0,0,0,3.49.84,9.14,9.14,0,0,0,1.47-.14,9.37,9.37,0,0,0,1.47-.39,16.68,16.68,0,0,0-.4,3A18.71,18.71,0,0,0,342.08,27.82Zm0,0c-.74-.77-1.67-1.64-2.78-2.61a35,35,0,0,0-3.57-2.72,26.16,26.16,0,0,0-3.88-2.14,8.87,8.87,0,0,0-3.65-.88,3.29,3.29,0,0,0-2.22.58,1.79,1.79,0,0,0-.64,1.41,4.19,4.19,0,0,0,.44,1.8A7,7,0,0,0,326.85,25a43.88,43.88,0,0,0,4.52,4.83,40.91,40.91,0,0,0,5.16,4.1c1,.77,2,1.53,2.85,2.3a18.68,18.68,0,0,1,2.38,2.41,10.46,10.46,0,0,1,1.63,2.72,8.26,8.26,0,0,1,.59,3.14A9.07,9.07,0,0,1,342.91,49,8.91,8.91,0,0,1,340,52.1a13.47,13.47,0,0,1-4.29,1.77,23.49,23.49,0,0,1-5.15.57,9.39,9.39,0,0,1-2.58-.35,22.84,22.84,0,0,1-2.42-.8c-.79-.31-1.59-.64-2.38-1s-1.59-.68-2.38-1a10.74,10.74,0,0,0-4-.77,13.68,13.68,0,0,0-4,1,3.57,3.57,0,0,0,1-1.69,11.19,11.19,0,0,0,.4-2.3,20,20,0,0,0,0-2.45c-.06-.81-.11-1.5-.16-2.07a26.63,26.63,0,0,0,2.7,3.3,30.29,30.29,0,0,0,3.33,3.07,18.6,18.6,0,0,0,3.49,2.22,7.47,7.47,0,0,0,3.25.84,4.88,4.88,0,0,0,2.42-.66,2.17,2.17,0,0,0,1.15-2A6.26,6.26,0,0,0,329.13,46,18.28,18.28,0,0,0,326,42.71c-1.27-1.05-2.64-2.12-4.09-3.19A36.81,36.81,0,0,1,317.79,36,19.2,19.2,0,0,1,314.61,32a9.78,9.78,0,0,1-1.27-5,9.28,9.28,0,0,1,2.86-7.2A11.07,11.07,0,0,1,324,17.15a12.91,12.91,0,0,1,4.92.84,33.39,33.39,0,0,1,3.81,1.84c1.16.67,2.27,1.28,3.33,1.84a7.17,7.17,0,0,0,3.49.84,7.3,7.3,0,0,0,1.47-.18,14.6,14.6,0,0,0,1.47-.43,18.25,18.25,0,0,0-.4,3A18.71,18.71,0,0,0,342.08,27.82Z" transform="translate(-1.25 -0.8)"/></svg>