<svg xmlns="http://www.w3.org/2000/svg" xmlns:xlink="http://www.w3.org/1999/xlink" viewBox="0 0 1921 601"><defs><style>.cls-1{fill:#4b4b65;stroke:#1d1d1b;stroke-miterlimit:10;}.cls-2{fill:#fff;}.cls-3{fill:#f2f2f2;}.cls-15,.cls-16,.cls-30,.cls-4{fill:#010101;}.cls-20,.cls-4{opacity:0.1;}.cls-11,.cls-13,.cls-15,.cls-19,.cls-20,.cls-24,.cls-28,.cls-30,.cls-33,.cls-4,.cls-8{isolation:isolate;}.cls-5{fill:#fdcc5a;}.cls-6{fill:#fdcb59;}.cls-7,.cls-8{fill:#a67e53;}.cls-25,.cls-8{opacity:0.5;}.cls-9{fill:#f9b03d;}.cls-10,.cls-33{fill:#6cbdce;}.cls-11,.cls-12,.cls-13{fill:#3a245a;}.cls-11,.cls-14,.cls-15,.cls-24{opacity:0.3;}.cls-13,.cls-27,.cls-28,.cls-30,.cls-33{opacity:0.4;}.cls-17{fill:#c31772;}.cls-18{fill:#f0c8e0;}.cls-19,.cls-20,.cls-23{fill:#cd72ab;}.cls-19{opacity:0.25;}.cls-21{fill:#5a4696;}.cls-22,.cls-24{fill:#4d4c66;}.cls-26,.cls-28{fill:#343434;}.cls-29{fill:#818282;}.cls-31{fill:#f9fcfd;}.cls-32{fill:url(#Degradado_sin_nombre_2);}.cls-34{fill:#fdcb67;}</style><radialGradient id="Degradado_sin_nombre_2" cx="539.32" cy="739.26" r="14.27" gradientTransform="matrix(0.4, 0, 0, -0.34, 752.47, 540.05)" gradientUnits="userSpaceOnUse"><stop offset="0.06" stop-color="#f0c8e0" stop-opacity="0.4"/><stop offset="1" stop-color="#f0c8e0" stop-opacity="0"/></radialGradient></defs><g id="Capa_2" data-name="Capa 2"><g id="Capa_1-2" data-name="Capa 1"><rect class="cls-1" x="0.5" y="0.5" width="1920" height="600"/><path class="cls-2" d="M1482.48,224.89c-70.08,0-126.89-49.89-126.89-111.43S1412.4,2,1482.48,2s126.88,49.88,126.88,111.42S1552.52,224.82,1482.48,224.89Zm0-221.11c-69,0-124.9,49.11-124.9,109.68s55.92,109.69,124.9,109.69,124.9-49.11,124.9-109.69S1551.43,3.85,1482.48,3.78Z"/><ellipse class="cls-3" cx="1484.02" cy="113.78" rx="64.27" ry="55.95"/><rect class="cls-2" x="507.09" y="113.91" width="981.18" height="429.1"/><rect class="cls-4" x="782.75" y="237.96" width="367.94" height="219.63"/><ellipse class="cls-5" cx="1571.99" cy="35.14" rx="25.92" ry="22.56"/><ellipse class="cls-5" cx="536.29" cy="130.18" rx="11.68" ry="10.17"/><ellipse class="cls-5" cx="572.5" cy="130.18" rx="11.68" ry="10.17"/><ellipse class="cls-5" cx="608.71" cy="130.18" rx="11.68" ry="10.17"/><rect class="cls-5" x="620.39" y="273.55" width="23.36" height="20.34"/><rect class="cls-2" x="1331.74" y="450.48" width="23.36" height="20.34"/><polygon class="cls-5" points="1254.58 321.87 1272.74 309.08 1287.43 324.89 1269.27 337.68 1254.58 321.87"/><polygon class="cls-2" points="1190.41 585.72 456.86 585.72 456.86 242.03 459.2 242.03 459.2 583.68 1190.41 583.68 1190.41 585.72"/><path class="cls-2" d="M1203.26,597.92c-7.75,0-14-5.92-14-13.22s6.27-13.22,14-13.22,14,5.92,14,13.22h0C1217.26,592,1211,597.91,1203.26,597.92Zm0-24.41c-6.56,0-11.87,5-11.87,11.19s5.31,11.18,11.87,11.18,11.86-5,11.86-11.18-5.32-11.18-11.86-11.19Z"/><path class="cls-2" d="M458,243.05c-8.39,0-15.19-5.92-15.19-13.22s6.8-13.22,15.19-13.22,15.18,5.92,15.18,13.22h0C473.2,237.13,466.41,243,458,243.05Zm0-24.41c-7.1,0-12.85,4.21-12.85,9.41s5.75,9.4,12.85,9.4,12.85-4.21,12.85-9.4h0C470.87,222.86,465.12,218.65,458,218.64Z"/><path class="cls-6" d="M677.62,517.59,667.19,543H643.75V517.08c1.73-32.53,22.7-47.82,23.35-48.29-15.76,13.23-14,59-14,59C663.61,488.1,673,487.08,673,487.08c-5.65,7.4-8.57,41-8.75,43.12C664.9,523.13,677.62,517.59,677.62,517.59Z"/><path class="cls-6" d="M1403,521.05v22h-18l-8.84-21.57s10.08,4.4,10.64,10c-.14-1.73-2.45-28.33-6.94-34.19,0,0,7.42.81,15.76,32.26,0,0,1.38-36.27-11.11-46.77C1385,483.12,1401.63,495.24,1403,521.05Z"/><path class="cls-2" d="M782.75,221.69v235.9H1212.6V221.69Zm427.52,233.87H785.09V223.73h425.18Z"/><path class="cls-7" d="M878.82,330.17c0-.54-.49-7.79,2.43-8.22s23.11,24,41.94,34,77.41,23,113,22.22c0,0,3.27,3.28-.67,4.63s-62.67-4.39-94.71-14.36S878.82,330.17,878.82,330.17Z"/><path class="cls-7" d="M878.91,326.24a2,2,0,0,1,0-.24l.7.51C880.8,327.3,882,328,882,328l2.38,1.53c.58.4,1.18.78,1.59,1.11a3.63,3.63,0,0,1,.67.55,7.52,7.52,0,0,1-.77-.45c-.44-.29-1-.65-1.65-1l-2.45-1.45s-1.19-.76-2.31-1.61Zm18.22,9.84a44.3,44.3,0,0,0,2.94,4.62c1.17,1.63,2.43,3.22,3.42,4.38.49.58.93,1.05,1.23,1.39a3.5,3.5,0,0,0,.36.38l.14.13s.19.18.54.48l.66.52c.26.19.57.39.9.62a32.9,32.9,0,0,0,5.31,2.73c2,.84,4.14,1.54,5.73,2l.68.2-.39-.25-.24-.08c-1.57-.51-3.65-1.25-5.65-2.11a32.39,32.39,0,0,1-5.22-2.75c-.32-.23-.62-.43-.87-.62l-.64-.52c-.33-.29-.51-.47-.51-.47l-.14-.12a4.39,4.39,0,0,1-.36-.37c-.29-.33-.74-.79-1.23-1.37-1-1.14-2.28-2.71-3.48-4.31a51.76,51.76,0,0,1-3-4.56l0,0-.35-.32ZM892.84,341a13.37,13.37,0,0,0-1.5-3.37,15.29,15.29,0,0,0-2.45-2.95,12.47,12.47,0,0,0-1-.85c-.25-.2-.38-.32-.38-.32l-.41-.29c-.27-.17-.62-.46-1.1-.74a38.09,38.09,0,0,0-3.54-2c-1.32-.65-2.67-1.25-3.69-1.69v.15c1,.47,2.28,1.09,3.55,1.75a36.42,36.42,0,0,1,3.46,2c.47.29.81.58,1.07.75l.39.3.38.3a11.86,11.86,0,0,1,1,.83,14.58,14.58,0,0,1,2.48,2.85,14.13,14.13,0,0,1,1.59,3.28c.13.38.21.71.28,1l.11.09C893,341.76,893,341.38,892.84,341Zm60.91,30.79c-.63-.46-1.53-1-2.43-1.55-.45-.27-.94-.5-1.38-.74l-.64-.33-.61-.25-1.26-.51-1.34-.35-.64-.17-.75-.1a16.3,16.3,0,0,0-1.62-.2l-1.64,0a4.64,4.64,0,0,0-.75,0l-.67.06-1,.08a2.17,2.17,0,0,0-.37.06H939l1,0,.66,0a3.66,3.66,0,0,1,.74,0l1.61.09c.55,0,1.08.16,1.59.23l.72.12.63.18,1.29.36,1.25.48.61.23.64.31c.44.23.93.44,1.39.69.92.52,1.83,1,2.49,1.46l.16.1.33.08Zm-23.17-7.81a25.18,25.18,0,0,0-3.32-2c-.47-.26-.89-.43-1.18-.56l-.45-.2-.47-.18c-.3-.1-.71-.29-1.24-.44a30.75,30.75,0,0,0-3.8-1l.81.43a27,27,0,0,1,2.86.82c.51.16.91.34,1.21.45l.46.18.45.19c.28.13.7.29,1.17.53a27.06,27.06,0,0,1,3.32,1.93c.5.33,1,.68,1.42,1l.64.25C931.89,364.92,931.26,364.41,930.58,363.93Zm79.49,13.93a19.66,19.66,0,0,0,3.61.65c.5.06.93.06,1.22.08l.46,0h.46c.29,0,.72,0,1.22-.05a22.87,22.87,0,0,0,3.63-.53c.27-.06.53-.13.79-.21l-.74,0-.12,0a24,24,0,0,1-3.59.46c-.49,0-.91,0-1.2,0h-.45l-.45,0c-.29,0-.71,0-1.2-.05a21.33,21.33,0,0,1-3.56-.57c-.32-.07-.62-.19-.93-.28a7.59,7.59,0,0,1-.88-.31l-.8-.33-.33-.18-.37,0A13.41,13.41,0,0,0,1010.07,377.86ZM898,345.3c-.17-.59-.35-1.18-.52-1.73s-.36-1.06-.54-1.49-.33-.8-.44-1.05l-.2-.38-.21-.39c-.13-.24-.32-.59-.57-1a17,17,0,0,0-2.16-2.82c-.87-1-1.81-1.89-2.46-2.62s-1.06-1.22-1.09-1.2a1.78,1.78,0,0,0,.25.36c.17.23.4.56.72.92.61.75,1.52,1.7,2.36,2.68a17.72,17.72,0,0,1,2.06,2.82c.23.4.42.75.54,1s.2.38.2.38l.2.37.46,1c.19.43.36.94.57,1.48s.38,1.12.56,1.71l.06.16.35.26C898.08,345.62,898,345.46,898,345.3Zm117.85,35h-1.13c-.67,0-1.57.05-2.47.09s-1.79.14-2.45.24a8.84,8.84,0,0,0-1.11.18,8.33,8.33,0,0,0,1.12,0c.67-.06,1.56-.09,2.46-.13s1.78,0,2.45,0h1.12l1.12,0c.67,0,1.55.07,2.44.12s1.78.16,2.44.27a6.87,6.87,0,0,0,1.11.12,7.83,7.83,0,0,0-1.08-.25c-.66-.15-1.55-.25-2.44-.37s-1.78-.18-2.46-.19ZM913.77,353.7c-.88-.35-1.46-.6-1.46-.6l-.39-.17c-.25-.12-.61-.27-1-.48a26.68,26.68,0,0,1-3-1.65,18,18,0,0,1-2.6-2.05c-.64-.62-1-1.08-1-1.06a1.37,1.37,0,0,0,.23.33,8.43,8.43,0,0,0,.69.81,15.9,15.9,0,0,0,2.55,2.16,25.88,25.88,0,0,0,3,1.73c.42.22.79.38,1,.5l.4.18s.59.25,1.49.58,2.12.74,3.37,1.07,2.51.62,3.47.77c.48.09.89.13,1.17.17a2.13,2.13,0,0,0,.45,0s-.64-.14-1.58-.34-2.2-.51-3.43-.86S914.66,354,913.77,353.7ZM1033.58,383l-1.07-.6c-.41-.23-.85-.39-1.25-.57l-.58-.25-.53-.18L1029,381s-1.83-.5-3.67-.91c-.92-.22-1.84-.42-2.52-.6a8.14,8.14,0,0,0-1.16-.26,9.89,9.89,0,0,0,1.11.38c.67.22,1.58.46,2.49.7,1.83.47,3.62,1,3.62,1l1.11.35.54.17.58.23c.39.17.84.31,1.24.52l.79.4Zm-96.79-19.7-.45-.2a2.85,2.85,0,0,0-.41-.15,2.42,2.42,0,0,0,.37.21l.44.23a4.19,4.19,0,0,0,.59.25,11.09,11.09,0,0,0,3.48.7,17.27,17.27,0,0,0,3.58-.29l.25-.05-.65-.19a17.51,17.51,0,0,1-3.17.3,11.87,11.87,0,0,1-3.43-.59A3.45,3.45,0,0,1,936.79,363.29Zm-11.24-6c.71.61,1.39,1.24,2,1.65l1,.7,1,.64c.6.4,1.45.84,2.29,1.32s1.72.88,2.39,1.17a11,11,0,0,0,1.13.48,9.78,9.78,0,0,0-1-.59c-.65-.33-1.48-.8-2.32-1.26s-1.65-1-2.23-1.37l-1-.65-1-.68c-.56-.36-1.21-.92-1.88-1.46l-.73-.34Z"/><path class="cls-8" d="M1035.57,382.8c3.93-1.34.67-4.63.67-4.63-2.06.05-4.19,0-6.39,0,.64,1,1,1.91.28,2.36-2.52,1.6-18.4-.66-24.85-2.13s-63.22-11-75-15.95-34.91-21.66-43.4-29c-4.38-3.79-6.38-7.3-7.28-10-1,2.27-.78,6.33-.76,6.72,0,0,30,28.3,62,38.27S1031.63,384.14,1035.57,382.8Z"/><path class="cls-9" d="M1034.77,375.41s5-16.1,22.08-18.57,20.49,11.33,30.32,12.6,8.45-5.53,8.45-5.53,5.58,8.63-1,10.66c0,0,12.75-3.19,11.63-10.31,0,0,16.24,20.3-12.62,36.89s-58.35,5-59.45-16.21c0,0-10.69,2.36-9.87.09s9.75-3.84,9.75-3.84-12-2.32-8.86-2.77,9.31.27,9.31.27-10.49-9.27-7.13-8.4S1034.77,375.41,1034.77,375.41Z"/><path class="cls-10" d="M1034.53,385.18c-.12-.05.54-1.27.86-2.55a9.86,9.86,0,0,0,.24-1.78c0-.48,0-.8,0-.8s0-.33,0-.81c0-.12,0-.26,0-.39a3.73,3.73,0,0,0-.08-.44c-.06-.3-.11-.62-.19-.94-.36-1.28-1.06-2.47-.94-2.53a7.29,7.29,0,0,1,1.48,2.4c.12.33.2.66.3,1s.09.31.12.45,0,.29,0,.42c.07.51.11.86.11.86s0,.34-.09.85a8.88,8.88,0,0,1-.42,1.85A7.36,7.36,0,0,1,1034.53,385.18Z"/><path class="cls-10" d="M1036.88,377.47a4.54,4.54,0,0,1,.57,1.92,8.7,8.7,0,0,1,.09,1.37,5.85,5.85,0,0,1,0,.63s0,.25-.14.63a5.09,5.09,0,0,1-.59,1.32,3.45,3.45,0,0,1-1.1,1.06,1.3,1.3,0,0,1-.69.25s.21-.19.49-.45a3.33,3.33,0,0,0,.8-1.07,4.56,4.56,0,0,0,.37-1.23c0-.35.08-.58.08-.58a11.37,11.37,0,0,0,.16-1.9A13,13,0,0,1,1036.88,377.47Z"/><path class="cls-10" d="M1038,382.92c-.06,0,0-.31.12-.74a9,9,0,0,0,.17-1.6,8.06,8.06,0,0,0-.14-1.58,3.92,3.92,0,0,0-.12-.51l0-.2s0-.07,0-.19-.08-.3-.14-.51a6,6,0,0,0-.72-1.43,4.34,4.34,0,0,0-1.22-1.17c-.4-.26-.72-.39-.7-.45a2,2,0,0,1,.87.23,4.52,4.52,0,0,1,1.51,1.12,5.68,5.68,0,0,1,1,1.52l.2.54a1,1,0,0,1,.06.2s0,.08,0,.21a4.65,4.65,0,0,1,.08.56,7.42,7.42,0,0,1,0,1.69,5.94,5.94,0,0,1-.44,1.63C1038.22,382.68,1038,382.94,1038,382.92Z"/><path class="cls-11" d="M1106.22,364.26c1.12,7.12-11.63,10.31-11.63,10.31,6.61-2,1-10.66,1-10.66a5.36,5.36,0,0,1,0,1.83,14.67,14.67,0,0,1-1,6.15c-2.21,5.58-13.84,5.45-13.84,5.45,15.25,4.91,24.69-6.52,24.69-6.52.15,4.52-3.31,20.47-25.64,24.2s-32.39-7.31-35.69-12,6.89-7.66,6.89-7.66-2.8-.71-6.11-1.37,2.83-6.65,2.83-6.65a8.29,8.29,0,0,1-6.13,2.12c-2.53-.18,3.27-6.26,7.37-10.25-10.77,5.22-14.2,16.18-14.2,16.18s-4.06-4.27-7.42-5.13a1.14,1.14,0,0,0-.45-.05l-.21.24c0,1.38,7.78,8.22,7.78,8.22s-6.21-.72-9.31-.27,8.86,2.76,8.86,2.76-8.94,1.56-9.75,3.84,9.87-.08,9.87-.08c1.1,21.15,30.58,32.79,59.45,16.2S1106.22,364.26,1106.22,364.26Z"/><path class="cls-11" d="M1087.84,373.88c4.2-.32,6-3.11,6.66-5.95-1.12,1.18-3.27,2-7.33,1.51s-7-3.17-10.29-5.94C1079.51,368.89,1080.56,374.43,1087.84,373.88Z"/><path class="cls-12" d="M1046.79,362.85s-.44.31-1.08.79-1.48,1.15-2.26,1.85a24.9,24.9,0,0,0-2,2c-.5.59-.81,1-.81,1s-.31.4-.74,1a11.05,11.05,0,0,0-1.23,2.41,5.87,5.87,0,0,0-.31,2.6,4.08,4.08,0,0,0,.18.86c.06.2.09.33.07.33a1.64,1.64,0,0,1-.14-.31,3.55,3.55,0,0,1-.26-.86,5.61,5.61,0,0,1,.19-2.68,10.2,10.2,0,0,1,1.18-2.5c.42-.64.73-1.06.73-1.06s.33-.41.85-1a24,24,0,0,1,4.45-3.8c.33-.23.63-.4.84-.52A1.41,1.41,0,0,1,1046.79,362.85Z"/><path class="cls-12" d="M1097.11,372.55l-.12.16a7.74,7.74,0,0,1-.81.91h0l-.42.4a9.29,9.29,0,0,1-.89.76,13.19,13.19,0,0,1-3.33,1.92,17.05,17.05,0,0,1-5.27,1.17,25.82,25.82,0,0,1-6.11-.35,48,48,0,0,1-10.59-3.28c-2.72-1.19-4.43-2.12-4.43-2.12s-.47-.24-1.28-.69-1.95-1.12-3.32-1.9a30.69,30.69,0,0,0-4.92-2.3,11.16,11.16,0,0,0-6.24-.51,14.35,14.35,0,0,0-5.37,2.91,20.28,20.28,0,0,0-3.51,3.72,14.83,14.83,0,0,0-1.75,3,6.69,6.69,0,0,0-.33.9c-.07.21-.12.32-.12.32s0-.11.08-.33a6.81,6.81,0,0,1,.29-.91,14.38,14.38,0,0,1,1.7-3.08,20.59,20.59,0,0,1,3.49-3.78,14.48,14.48,0,0,1,5.44-3,11.6,11.6,0,0,1,6.45.48,31.28,31.28,0,0,1,5,2.3c1.39.78,2.51,1.46,3.33,1.89s1.28.68,1.29.68,1.69.93,4.39,2.12a47,47,0,0,0,10.48,3.32,25.74,25.74,0,0,0,6,.39,16.84,16.84,0,0,0,5.21-1.1,13.62,13.62,0,0,0,3.34-1.86,10.53,10.53,0,0,0,.91-.73l.44-.38h0a10.06,10.06,0,0,0,.82-.9Z"/><path class="cls-12" d="M1046.48,394.22a2.08,2.08,0,0,1-.3-.21c-.18-.14-.44-.33-.73-.58a25.1,25.1,0,0,1-2-1.94,23.62,23.62,0,0,1-1.73-2.14c-.22-.3-.37-.56-.49-.74l-.19-.29s-.25-.42-.57-1.07a15.39,15.39,0,0,1-1-2.46,12.49,12.49,0,0,1-.44-2.56,7.41,7.41,0,0,1,0-.85,1.5,1.5,0,0,1,0-.33,10.35,10.35,0,0,1,.11,1.17,13.7,13.7,0,0,0,.55,2.51,17.92,17.92,0,0,0,1,2.4c.34.63.59,1,.59,1l.18.28c.11.18.26.44.47.74a22.5,22.5,0,0,0,1.64,2.15,26.91,26.91,0,0,0,1.9,2A11.85,11.85,0,0,1,1046.48,394.22Z"/><path class="cls-12" d="M1106.23,384.21a37.2,37.2,0,0,1-3.58,5.38,48.34,48.34,0,0,1-4.5,5.06,43.74,43.74,0,0,1-6.19,5,32.4,32.4,0,0,1-7.38,3.73l-1.91.58-1.86.45c-1.22.26-2.38.51-3.46.66a50.45,50.45,0,0,1-5.27.57c-1.28.06-2,.07-2,.07h-.52l-1.49,0c-.64,0-1.42-.08-2.31-.13-.45,0-.92-.1-1.41-.15s-1-.1-1.57-.2a42.45,42.45,0,0,1-14.85-5.06,20.5,20.5,0,0,1-3.15-2.57,25,25,0,0,1-2.42-2.94,23.68,23.68,0,0,1-3-5.8,17.59,17.59,0,0,1-1-4.39c-.06-.54,0-1,0-1.26s0-.44,0-.44,0,.15,0,.44a12.22,12.22,0,0,0,.09,1.25,18.8,18.8,0,0,0,1.06,4.36,24,24,0,0,0,3,5.74,23.06,23.06,0,0,0,2.43,2.9,19.32,19.32,0,0,0,3.12,2.52,42.45,42.45,0,0,0,14.75,4.95c.53.09,1.05.14,1.55.19s1,.12,1.4.14c.88,0,1.65.12,2.29.12l1.47,0h.52s.73,0,2-.06a50.89,50.89,0,0,0,5.23-.54c1.08-.15,2.23-.39,3.44-.65l1.85-.44,1.89-.57a32.36,32.36,0,0,0,7.33-3.65,43.89,43.89,0,0,0,6.19-5,50.3,50.3,0,0,0,4.54-5c1.23-1.53,2.12-2.87,2.75-3.81l.7-1.11Z"/><path class="cls-12" d="M1099.47,387.17a3,3,0,0,1,.37-.34c.24-.21.62-.49,1-.86a14.88,14.88,0,0,0,4.07-6.4c.18-.48.27-.89.35-1.17s.13-.45.13-.45.17-.65.38-1.64.42-2.31.63-3.64.44-2.67.65-3.66c.1-.5.22-.91.29-1.19a2.54,2.54,0,0,1,.14-.45,1.74,1.74,0,0,1-.06.46c0,.29-.14.7-.21,1.2-.17,1-.35,2.33-.53,3.66s-.36,2.68-.55,3.67-.36,1.66-.36,1.66,0,.16-.13.45-.19.7-.38,1.19a15.78,15.78,0,0,1-1.68,3.43,15.27,15.27,0,0,1-2.62,3c-.41.36-.81.62-1.06.82A3,3,0,0,1,1099.47,387.17Z"/><path class="cls-12" d="M1074.78,362.71l.14.12a5,5,0,0,1,.37.35,12.37,12.37,0,0,1,1.13,1.38c.86,1.18,1.79,2.86,2.8,4.48a13.71,13.71,0,0,0,3.47,4,7.29,7.29,0,0,0,1.61.87l.5.16.18,0,.18,0a3.2,3.2,0,0,0,.52.1,7.12,7.12,0,0,0,1.92.06l.62-.05.65-.13.34-.07.33-.1c.22-.09.46-.13.68-.24a7,7,0,0,0,2.42-1.65,11.7,11.7,0,0,0,2.53-4.51c.23-.66.38-1.22.49-1.61.06-.2.1-.35.13-.46s0-.16.06-.16,0,.06,0,.17l-.09.46c-.09.4-.22,1-.43,1.64a11.56,11.56,0,0,1-2.46,4.62,7.26,7.26,0,0,1-2.49,1.75c-.23.11-.48.17-.71.26l-.35.11-.35.08-.68.14-.65.06a7.61,7.61,0,0,1-2,0,4.76,4.76,0,0,1-.55-.11l-.2,0-.19-.05-.53-.18a7.66,7.66,0,0,1-1.69-.94,13.67,13.67,0,0,1-3.48-4.15c-1-1.65-1.87-3.34-2.68-4.53a15.47,15.47,0,0,0-1.06-1.4C1075,362.9,1074.77,362.72,1074.78,362.71Z"/><path class="cls-12" d="M1063.46,361.39s-.42-.25-1.12-.52a12.4,12.4,0,0,0-2.66-.67,16.53,16.53,0,0,0-2.78-.16c-.76,0-1.27.07-1.27.07s-.5,0-1.24.14a11.29,11.29,0,0,0-2.63.73,5.82,5.82,0,0,0-2.12,1.47,10.65,10.65,0,0,0-.65.93,1.43,1.43,0,0,1,.1-.29,3.66,3.66,0,0,1,.42-.71,5.65,5.65,0,0,1,2.12-1.6,10.78,10.78,0,0,1,2.68-.82c.76-.14,1.28-.18,1.28-.18s.52,0,1.3,0a16.77,16.77,0,0,1,2.83.24,11.39,11.39,0,0,1,2.69.78,6.41,6.41,0,0,1,.79.43C1063.37,361.3,1063.47,361.38,1063.46,361.39Z"/><path class="cls-12" d="M1049.78,389.57a8.85,8.85,0,0,1-.93-.6c-.55-.37-1.28-.86-2-1.38s-1.4-1.06-1.9-1.48l-.81-.71-.2-.22a7.71,7.71,0,0,1-.54-.56,13.08,13.08,0,0,1-1.39-1.85,8.47,8.47,0,0,1-.88-2.06,3.71,3.71,0,0,1-.15-.7.75.75,0,0,1,0-.28,10,10,0,0,1,.32.95,9.75,9.75,0,0,0,1,2,13.35,13.35,0,0,0,1.42,1.77c.21.24.41.41.54.54l.21.21s.3.29.78.72,1.14,1,1.82,1.52l1.9,1.46A5.54,5.54,0,0,1,1049.78,389.57Z"/><path class="cls-12" d="M1051.82,375.61a7.24,7.24,0,0,1-.84-.09,10.83,10.83,0,0,0-1.83,0,14.67,14.67,0,0,0-1.81.25c-.49.1-.81.19-.81.19l-.79.22a14.42,14.42,0,0,0-1.67.63,9,9,0,0,0-1.52.89,7.23,7.23,0,0,1-.63.47,2.17,2.17,0,0,1,.53-.57,7.43,7.43,0,0,1,1.48-1,12.44,12.44,0,0,1,1.68-.72l.81-.25.84-.17a13.64,13.64,0,0,1,1.87-.18,9.61,9.61,0,0,1,1.88.13A2.83,2.83,0,0,1,1051.82,375.61Z"/><path class="cls-12" d="M1103.4,376.54a.75.75,0,0,1-.12.22c-.08.15-.21.36-.38.63a16.22,16.22,0,0,1-1.58,2.11,21.19,21.19,0,0,1-6.81,4.92c-.7.36-1.46.62-2.19.91s-1.5.48-2.22.71-1.45.36-2.14.48-1.35.24-2,.31l-1.67.16c-.5,0-.94,0-1.29.05l-.84,0h-.3l-1.13-.05c-.36,0-.79-.05-1.28-.11s-1.07-.09-1.67-.22a35.16,35.16,0,0,1-8.39-2.71c-2.9-1.29-5.64-2.8-7.67-4-1-.58-1.85-1.07-2.43-1.43l-.67-.41c-.15-.1-.23-.15-.22-.16l.25.13.69.38c.6.34,1.44.82,2.47,1.38,2.05,1.13,4.81,2.6,7.71,3.86a35.78,35.78,0,0,0,8.34,2.62c.58.12,1.14.13,1.63.2a11,11,0,0,0,1.28.1l1.11,0h.29c.18,0,.47,0,.82,0l1.27,0,1.65-.15c.61-.06,1.25-.19,1.93-.29s1.39-.3,2.13-.46,1.46-.42,2.19-.68a23.14,23.14,0,0,0,2.18-.89,21.54,21.54,0,0,0,6.83-4.78,18.82,18.82,0,0,0,1.63-2.07l.42-.61A1.72,1.72,0,0,1,1103.4,376.54Z"/><path class="cls-12" d="M1042.23,397.5a10,10,0,0,1-.93-.83,26.64,26.64,0,0,1-1.87-2c-.31-.38-.6-.77-.88-1.13a9.4,9.4,0,0,1-.7-1l-.65-1-.14-.29-.36-.78a17.55,17.55,0,0,1-.91-2.41,16.44,16.44,0,0,1-.44-2.51,7.53,7.53,0,0,1,0-1.14,7.11,7.11,0,0,1,.2,1.13,17.26,17.26,0,0,0,.55,2.46,19.72,19.72,0,0,0,1,2.36c.16.31.29.58.38.76l.15.29.61,1a8.64,8.64,0,0,0,.66,1l.83,1.14c.63.74,1.22,1.51,1.76,2A8.58,8.58,0,0,1,1042.23,397.5Z"/><path class="cls-12" d="M1093.81,392.71a20.31,20.31,0,0,1-3.17,2.63,33.09,33.09,0,0,1-8.47,4.12,40.78,40.78,0,0,1-9.51,2c-.67.07-1.28.1-1.82.12s-1,.05-1.41.05h-1.23l-1.23-.05c-.39,0-.86,0-1.4-.11s-1.15-.1-1.81-.2a34.22,34.22,0,0,1-4.45-.91,30.62,30.62,0,0,1-4.78-1.82,24.11,24.11,0,0,1-4.18-2.67,20,20,0,0,1-1.63-1.5l-.7-.74-.58-.73a12.48,12.48,0,0,1-1-1.32l-.36-.56-.27-.5-.36-.7-.12-.25a1.23,1.23,0,0,1,.15.24l.41.68c.08.15.17.31.28.49s.24.36.38.55a11.46,11.46,0,0,0,1,1.3c.19.23.38.47.59.71s.47.48.71.73a20.18,20.18,0,0,0,1.64,1.47,24.17,24.17,0,0,0,4.17,2.6,30.24,30.24,0,0,0,4.74,1.76,34.71,34.71,0,0,0,4.4.87c.65.1,1.26.15,1.79.19s1,.09,1.39.09l1.21.05h1.22c.38,0,.85,0,1.39,0s1.15-.05,1.81-.11c1.32-.09,2.85-.32,4.47-.6a46.09,46.09,0,0,0,5-1.27,34.16,34.16,0,0,0,8.47-4c.52-.35,1-.67,1.39-1s.75-.57,1-.82.49-.41.63-.54Z"/><path class="cls-13" d="M1068.69,366.18a2.31,2.31,0,0,0-.32,2,2.91,2.91,0,0,0,1.44,1.58,4.75,4.75,0,0,0,1.78.77,3.41,3.41,0,0,0,1.62,0,3.13,3.13,0,0,0,1.34-.66,2.29,2.29,0,0,0,.48-3.12,3.79,3.79,0,0,0-.6-.67,6.49,6.49,0,0,0-.82-.53l-.65-.35A3.48,3.48,0,0,0,1068.69,366.18Z"/><path class="cls-13" d="M1054.48,364.56c3.31-1.92,7.49,1.14,10.7,1.6,2.21.32,4.19-2,3.07-3.68-3.32-4.91-13.12-5.44-18.14-2.37C1046.51,362.31,1050.89,366.65,1054.48,364.56Z"/><g class="cls-14"><path class="cls-12" d="M1060.47,361.49c-.14.43-.85.64-1.6.47s-1.24-.65-1.1-1.08.85-.64,1.59-.47S1060.61,361.07,1060.47,361.49Z"/><path class="cls-12" d="M1056.34,361.06c.15.33-.2.73-.77.9s-1.14.05-1.28-.27.21-.73.78-.9S1056.21,360.74,1056.34,361.06Z"/></g><path class="cls-15" d="M973.22,395.45l-6.9,10.64s-1.06,4.48,3.85,11.45l-.47-8.93,7.85-6.64S979.12,396,973.22,395.45Z"/><path class="cls-16" d="M973.22,395.45l-6.9,10.64s-1.06,4.48,3.85,11.45L970,415c-1.73.17-3.21-6.51-2.11-6.91.62-.23,1.35,1.11,1.86,2.32l-.09-1.75,1.56-1.33a2.39,2.39,0,0,1-2.55-.9c-1.26-1.92,3.54-5.45,3.54-5.45,1,1.82,3.3,1.75,4.78,1.48l.52-.44S979.12,396,973.22,395.45Z"/><path class="cls-17" d="M973.62,401.18c.94.83,2.51.88,4,.68.18-.79,1.1-5.94-4.34-6.41l-.1.16C972.74,396.34,971.68,399.49,973.62,401.18Z"/><path class="cls-17" d="M972.77,396.54c-.38,1.27-.61,3.37.85,4.64a4.16,4.16,0,0,0,2.83.78C976.59,400.34,976.39,397.25,972.77,396.54Z"/><path class="cls-16" d="M969.74,408.77s-.21-.19-.35-.38l-.35-.34-.33-.38c-.18-.19-.35-.39-.31-.42s.28.1.5.25l.44.34s.16.22.29.44S969.79,408.76,969.74,408.77Z"/><path class="cls-16" d="M968.79,406.51c.06,0,.2.2.34.41l.3.42s.1.23.21.46.15.49.1.51-.21-.2-.35-.41-.31-.41-.31-.41-.11-.23-.21-.47S968.74,406.53,968.79,406.51Z"/><path class="cls-16" d="M974,404.11c.15.17-.05.53-.46.8s-.87.37-1,.21,0-.52.46-.8S973.81,404,974,404.11Z"/><path class="cls-16" d="M972,405.63c.1.1,0,.32-.28.49s-.53.23-.63.12,0-.32.29-.49S971.92,405.53,972,405.63Z"/><path class="cls-18" d="M1011.74,364.17c-4.77-3.49-11.74.44-15.16,2.24s7.09,4.84,7.09,4.84l-.42.43c-1.45.23-6.87,1.21-9.4,3.13a100.79,100.79,0,0,0-16.56,18.37c-1.39,2.1-3.2,4.17-4.3,6.4-.37.74.29,1.46,1,1.89A17,17,0,0,0,975.8,400c.68-.61,1.36-1.21,2.07-1.79,3.35-2.71,6.71-5.4,10.12-8.05,8.56-6.66,24.07-12.37,26.83-17.94S1011.74,364.17,1011.74,364.17Z"/><path class="cls-19" d="M1011.74,364.17c-4.77-3.49-11.74.44-15.16,2.24s7.09,4.84,7.09,4.84l-.42.43c-1.45.23-6.87,1.21-9.4,3.13a100.79,100.79,0,0,0-16.56,18.37c-1.39,2.1-3.2,4.17-4.3,6.4-.37.74.29,1.46,1,1.89A17,17,0,0,0,975.8,400c.68-.61,1.36-1.21,2.07-1.79,3.35-2.71,6.71-5.4,10.12-8.05,8.56-6.66,24.07-12.37,26.83-17.94S1011.74,364.17,1011.74,364.17Z"/><path class="cls-19" d="M1011.74,364.17c-4.77-3.49-11.74.44-15.16,2.24s7.09,4.84,7.09,4.84l-.42.43c-1.45.23-6.87,1.21-9.4,3.13a100.79,100.79,0,0,0-16.56,18.37c-1.39,2.1-3.2,4.17-4.3,6.4-.37.74.29,1.46,1,1.89A17,17,0,0,0,975.8,400c.68-.61,1.36-1.21,2.07-1.79q2.6-2.1,5.22-4.19a16.88,16.88,0,0,1-4.23,1.12c-3.78,0,11.79-14.88,15.72-16.88s13.06-3.59,13.06-3.59a43.18,43.18,0,0,0,.78-5.71c.17-2,2.9-2.89,5.46-3.32A7.73,7.73,0,0,0,1011.74,364.17Z"/><path class="cls-18" d="M1014.36,369.18c-.23,0-.43-.29-.46-.68s.12-.71.34-.73.43.3.46.69S1014.58,369.17,1014.36,369.18Z"/><path class="cls-18" d="M1014.18,371c-.15,0-.26-.24-.23-.51s.16-.48.31-.47.27.23.25.5S1014.34,371,1014.18,371Z"/><path class="cls-15" d="M978.79,408.64l-2.42,12s.73,4.51,8.06,9.75l-3.9-8.31,4.86-8.44S984.56,407.5,978.79,408.64Z"/><path class="cls-16" d="M978.79,408.64l-2.42,12s.73,4.51,8.06,9.75L983.3,428c-1.57.63-5.55-5.28-4.66-5.95.51-.39,1.71.68,2.65,1.67l-.76-1.63,1-1.68a2.54,2.54,0,0,1-2.75-.15c-1.94-1.48,1.24-6.13,1.24-6.13,1.66,1.44,3.79.74,5.08.08l.32-.56S984.56,407.5,978.79,408.64Z"/><path class="cls-17" d="M981.37,414a5.17,5.17,0,0,0,4-.44c-.14-.8-1.25-5.93-6.58-4.87l0,.18C978.67,409.61,978.89,412.89,981.37,414Z"/><path class="cls-17" d="M978.78,409.8c.14,1.3.73,3.35,2.59,4.15a4.31,4.31,0,0,0,3,0C983.87,412.34,982.47,409.47,978.78,409.8Z"/><path class="cls-16" d="M980.63,422.2s-.27-.12-.47-.27l-.47-.23-.46-.26c-.24-.14-.47-.28-.45-.32a1.37,1.37,0,0,1,.58.1c.27.09.54.2.54.2l.45.33C980.52,422,980.68,422.17,980.63,422.2Z"/><path class="cls-16" d="M978.87,420.32s.26.14.47.3l.44.31.38.38c.18.21.33.42.29.45s-.28-.13-.49-.29l-.45-.3s-.2-.19-.38-.39S978.82,420.35,978.87,420.32Z"/><path class="cls-16" d="M982.83,416.63c.2.11.15.51-.13.88s-.67.59-.88.47-.16-.5.12-.88S982.62,416.52,982.83,416.63Z"/><path class="cls-16" d="M981.57,418.6c.13.06.1.31-.08.54s-.41.36-.54.29-.1-.31.07-.54S981.44,418.53,981.57,418.6Z"/><path class="cls-18" d="M1002.6,368.43c-5.87-1.95-10.9,3.72-13.41,6.38s8.6,2.57,8.6,2.57l-.23.52c-1.28.63-6,3.08-7.64,5.6-1.89,2.92-6.71,13.73-8.39,22-.48,2.38-1.37,4.84-1.53,7.26-.06.79.84,1.29,1.65,1.5a12.91,12.91,0,0,0,1.16-1.9c.41-.76.81-1.52,1.25-2.27q3.13-5.24,6.38-10.43c5.46-8.69,17.83-18.43,18.24-24.46S1002.6,368.43,1002.6,368.43Z"/><path class="cls-20" d="M983.94,403.08c.21-8.15,8.7-21.27,11.12-22.86s6.81-.36,6.81-.36-2.52-4.7-2.2-7.44c.22-1.93,4.19-2.46,6.56-2.61a8.81,8.81,0,0,0-3.63-1.38c-5.87-1.95-10.9,3.72-13.41,6.38s8.6,2.57,8.6,2.57l-.23.51c-1.28.63-6,3.08-7.64,5.6-1.89,2.93-6.71,13.74-8.39,22-.48,2.38-1.37,4.84-1.53,7.25-.06.8.84,1.29,1.65,1.51a12.91,12.91,0,0,0,1.16-1.9c.41-.76.81-1.53,1.25-2.27q1.16-1.94,2.34-3.87C984.94,406.43,983.87,405.73,983.94,403.08Z"/><path class="cls-18" d="M1007.63,373.52c-.21,0-.47-.24-.57-.62s0-.72.2-.76.48.23.58.62S1007.85,373.48,1007.63,373.52Z"/><path class="cls-18" d="M1007.79,375.3c-.15,0-.3-.2-.33-.47s.08-.5.23-.51.3.2.33.47S1007.94,375.29,1007.79,375.3Z"/><path class="cls-2" d="M998.86,304.22c0,.74-.67,1-1.54,1s-1.62-.22-1.62-1a1.6,1.6,0,0,1,3.16,0Z"/><path class="cls-2" d="M996.74,305s-.25.69,0,.63a.43.43,0,0,0,.31-.31s0,.54.19.42a.42.42,0,0,0,.21-.39s.16.48.4.34,0-.72,0-.72Z"/><path class="cls-12" d="M998.56,304.27a.43.43,0,0,1-.34.54.52.52,0,0,1-.59-.36.42.42,0,0,1,.34-.54A.52.52,0,0,1,998.56,304.27Z"/><path class="cls-12" d="M996,304.27a.43.43,0,0,0,.34.54.52.52,0,0,0,.59-.36.42.42,0,0,0-.34-.54A.52.52,0,0,0,996,304.27Z"/><path class="cls-12" d="M997.23,304.72l-.05,0s-.17.21-.08.24.14-.09.14-.09.13.19.17.06A.19.19,0,0,0,997.23,304.72Z"/><path class="cls-21" d="M976.11,334.08c0,.35-.51.63-1.12.62s-1.09-.3-1.08-.65.5-.62,1.11-.62S976.11,333.74,976.11,334.08Z"/><path class="cls-21" d="M986,334.17c.07.26-.24.56-.71.65s-.9-.05-1-.31.24-.56.71-.66S985.92,333.9,986,334.17Z"/><path class="cls-21" d="M983.7,334.83c0,.16-.15.34-.43.4s-.56,0-.6-.19.14-.35.43-.41S983.66,334.66,983.7,334.83Z"/><path class="cls-18" d="M984.27,331.85s.78,6.36,2.19,14.19a52.79,52.79,0,0,0,3.48,11.6c.8,1.83,1.84,3.39,2.8,5.14.4.72.31,1.36,1,2,1,.83,2.37,1.16,3.39,1.94,1.44,1.1,3.21,3.3,3.33,2.27a2.45,2.45,0,0,0-.94-1.88s2.74,3.89,4.13,3.26-1.43-4.64-1.43-4.64l-.92-.92s1.79.11,1.47-1-7.95-1.88-7.95-1.88a121,121,0,0,1-3.61-16.58c-.78-6,.17-11.95-1.37-14.58C986.69,325.37,983.52,330.19,984.27,331.85Z"/><path class="cls-19" d="M1000.21,364.92s1.79.1,1.48-1-8-1.88-8-1.88a120,120,0,0,1-3.6-16.59c-.79-6,.16-11.94-1.39-14.57-.94-1.61-1.89-2.31-2.74-2.44-1.34.56-2.15,2.48-1.73,3.41,0,0,.78,6.36,2.19,14.19a52.79,52.79,0,0,0,3.48,11.6c.8,1.83,1.84,3.39,2.8,5.14.4.72.31,1.36,1,2,1,.83,2.37,1.16,3.39,1.94.74.56,1.56,1.41,2.21,2a1.77,1.77,0,0,0-.15-.46c.25.31.56.65.88,1,.21.09.35,0,.39-.22a1.67,1.67,0,0,0-.17-.89,8.35,8.35,0,0,0,2.49,2.22c.77-1-1.66-4.45-1.66-4.45Z"/><path class="cls-19" d="M993.85,358.36a3,3,0,0,1-1.1.32c-3.25.36-6.71-14.26-5.45-17.63.82-2.22,2.52-1.59,3.58-.91-.1-4,.06-7.53-1-9.39-3.16-5.38-6.33-.56-5.58,1.1,0,0,.78,6.36,2.19,14.19a52.79,52.79,0,0,0,3.48,11.6c.8,1.83,1.84,3.39,2.8,5.14.4.72.31,1.36,1,2a5,5,0,0,0,.52.38c2.56.06,4.7.13,5,.2s-.07-1.22-.62-2.91c-1.93-.33-3.8-.51-3.8-.51S994.42,360.54,993.85,358.36Z"/><path class="cls-22" d="M981.52,319s5.33-3.67,10.21.08,2.94,8.47-.59,12.4c0,0,3.49,5.51,1.55,4.79s-2.44-3.3-2.44-3.3,1.07,5.46-.5,4.42-2-4.77-2-4.77-1,4.83-2.41,3.2.32-3.73.32-3.73-3.14,4.25-4.07,3.4,1.85-3.73,1.85-3.73-2.62.24-5-3.15S977.51,321.68,981.52,319Z"/><path class="cls-22" d="M993.38,327.26a8.89,8.89,0,0,1-2,.35c-1.4.34-4,1.44-4.34-.52-.47-2.33-.47-5.25-3-6.78-1.24-.75-1.46-1.42-1.38-1.91a9.54,9.54,0,0,0-1.15.63c-2.75,1.82-4.28,4.06-4.21,6.39.15.55.31,1.13.45,1.74,0,.18.1.37.15.56a8.69,8.69,0,0,0,.54.91c2.37,3.4,5,3.16,5,3.16a12.77,12.77,0,0,0-1.68,2.17c.38.41.76.8,1.14,1.18a17.86,17.86,0,0,0,2.6-2.82c-.39.56-1.35,2.19-.16,3.53,1.45,1.63,2.4-3.2,2.4-3.2s.45,3.72,2,4.77c.42.28.65.09.76-.34-.13-.31-.28-.61-.41-.89a4.46,4.46,0,0,1-.32-2.66s.3.66.76,1.46c-.11-1-.29-2-.29-2s.49,2.57,2.43,3.29a.73.73,0,0,0,.38.06,8.44,8.44,0,0,1-2.1-3.41c-.12-.45.15-.61.66-.65l-.48-.79c2.3-2.55,3.92-5.45,3.43-8.19a6.35,6.35,0,0,1-.73,3.44A1.24,1.24,0,0,1,993.38,327.26Z"/><path class="cls-22" d="M985,323.59a10.3,10.3,0,0,1-.26-1.09,4.31,4.31,0,0,0-.3-.7l-.17-.31s-.07-.12-.19-.29a3.17,3.17,0,0,0-.5-.6c-.43-.4-1-.68-1-.73a3.17,3.17,0,0,1,1.18.56,3.5,3.5,0,0,1,.61.61l.24.31.15.34a4.13,4.13,0,0,1,.24.77A2.66,2.66,0,0,1,985,323.59Zm5.24,6.29a6.47,6.47,0,0,1-.93.86,3.62,3.62,0,0,1-.49.3,1.86,1.86,0,0,1-.53.22,1.67,1.67,0,0,1-1.22-.12,2.22,2.22,0,0,1-.91-.81l-.11-.19c0-.06,0-.12,0-.16s-.06-.14-.07-.14,0,.05,0,.15a1.21,1.21,0,0,0,0,.18c0,.06.05.14.07.22a2.2,2.2,0,0,0,.91.95,2,2,0,0,0,1.47.22,2.27,2.27,0,0,0,.63-.24,3.4,3.4,0,0,0,.53-.35,5.55,5.55,0,0,0,.91-1,5.62,5.62,0,0,0,.93-1.55S990.84,329.2,990.23,329.88Zm1.07.55a4.33,4.33,0,0,1-.77.51,3.68,3.68,0,0,1-.87.35,9.85,9.85,0,0,0-1,.19,2.68,2.68,0,0,0,1.06,0,3.56,3.56,0,0,0,1-.3,3.4,3.4,0,0,0,.77-.64,2.06,2.06,0,0,0,.5-.78S991.66,330.12,991.3,330.43Zm-2,3.7-.16-.49c0-.14-.06-.23-.06-.23s0-.08-.07-.22a3.8,3.8,0,0,1-.13-.49,2.24,2.24,0,0,1,0-.49c0-.14,0-.23,0-.24s-.08.07-.15.21a1.46,1.46,0,0,0-.08.54,2.12,2.12,0,0,0,.05.53c0,.15,0,.24,0,.24l.1.24a4.3,4.3,0,0,0,.24.49c.2.35.49.66.53.63S989.45,334.49,989.33,334.13Zm2.39-.34a3.2,3.2,0,0,0-.33-.75,7.28,7.28,0,0,0-.55-.63c-.29-.3-.56-.6-.61-.58s.15.38.38.71.43.66.43.66a4.53,4.53,0,0,1,.41.65c.15.34.18.72.24.73S991.82,334.19,991.72,333.79Z"/><g class="cls-14"><path class="cls-11" d="M992.53,325.81l0,0c1.43-1.27.67-4.15-.18-5.43-1.92-2.87-6.49-2.65-7.41-.72-.53,1.1.79,1.59,1.82,1.84,1.27.31,2.82.56,3.53,1.63C990.64,323.61,991,327.14,992.53,325.81Z"/><path class="cls-12" d="M992.14,322a.79.79,0,0,1-.87-.53c-.17-.39,0-.79.26-.88a.79.79,0,0,1,.87.53C992.58,321.52,992.46,321.92,992.14,322Z"/><path class="cls-12" d="M990.9,320c-.15.18-.53.17-.84,0s-.45-.49-.3-.67a.7.7,0,0,1,.84,0C990.92,319.56,991.05,319.86,990.9,320Z"/></g><path class="cls-18" d="M971.78,313.4s.63,5.94-1.26,6.2a14.91,14.91,0,0,1-4.5-.35s.1,12,5.24,14.71,10.69,2.74,12.79,1.59c2.54-1.4,2.53-2.91,1.47-4.92s-1.13-4.05-1.41-6.3a5.42,5.42,0,0,0-1.58-3.45c-1.37-1.23-3.09-.07-4.27-1-.83-.67-.39-2.35-.22-3.17a9.52,9.52,0,0,1,.79-2.4,19.15,19.15,0,0,0,.91-1.87C979.67,312.43,971.88,312.6,971.78,313.4Z"/><path class="cls-19" d="M984.11,324.34a5.37,5.37,0,0,0-1.58-3.45,2.28,2.28,0,0,0-.76-.46,24.79,24.79,0,0,1,.63,2.88,12.93,12.93,0,0,0,1.81,5.45c.86,1.06.55,4-1,3.92s-3.85-2.53-3.85-2.53,1.26,3.46-.87,3.39-6.84-1.26-8.41-3.66-.63-4.92-1.49-8.17a6.11,6.11,0,0,0-1.08-2.2,14.64,14.64,0,0,1-1.46-.26s.1,12,5.24,14.71,10.69,2.75,12.79,1.59c2.54-1.39,2.53-2.91,1.47-4.91S984.39,326.59,984.11,324.34Z"/><path class="cls-19" d="M974.85,323c3.57.53,4.35-1,4.77-2.76a2.12,2.12,0,0,1-1.35-.42c-.83-.66-.4-2.35-.23-3.17a9.72,9.72,0,0,1,.79-2.39c.12-.23,1-1.88.92-1.87s-7.86.17-8,1c0,0,.1.93.1,2.06,1.57-.3,4.64-.75,4.47.6-.24,1.79,2.12,4.45.47,5.51s-4.56-.07-5.66-1.33S970,322.31,974.85,323Z"/><path class="cls-23" d="M981.43,335.11c-.1,0-.1-.67-.32-1.29a7.09,7.09,0,0,0-.39-.82l-.21-.37s-.3-.6-.65-1.2a3.61,3.61,0,0,1-.53-1.28,6.47,6.47,0,0,1,.9,1.11c.43.56.82,1.16.82,1.16l.18.4a4.78,4.78,0,0,1,.28.92A2.29,2.29,0,0,1,981.43,335.11Z"/><path class="cls-23" d="M986.72,332.27a5.17,5.17,0,0,1-1-1.16c-.47-.59-.92-1.18-.92-1.18l-.85-1.21a5.43,5.43,0,0,1-.86-1.23,5.82,5.82,0,0,1,1.19,1c.52.57,1,1.16,1,1.16s.4.63.78,1.27A5.21,5.21,0,0,1,986.72,332.27Z"/><path class="cls-23" d="M979.64,320.31c.08,0,.1.46,0,.91a4.48,4.48,0,0,1-.35.87,6.47,6.47,0,0,1-.66.72,2.18,2.18,0,0,1-.85.56c-.06-.05.25-.41.52-.77s.47-.75.47-.75a8,8,0,0,0,.48-.74C979.43,320.73,979.56,320.3,979.64,320.31Z"/><path class="cls-23" d="M976,323a3.73,3.73,0,0,1-1.72,0,8.47,8.47,0,0,1-1.66-.43l-.47-.24a5.61,5.61,0,0,1-.94-.64,3.28,3.28,0,0,1-.72-.81c-.14-.25-.18-.43-.15-.44s.15.14.35.34a4.64,4.64,0,0,0,.79.65,8.08,8.08,0,0,0,.94.5l.46.19a9.67,9.67,0,0,0,1.5.53C975.19,322.89,976,322.91,976,323Z"/><path class="cls-22" d="M961.25,332.54s3,6.51,3.46,9.71a34.89,34.89,0,0,1-.16,7.84S948.51,363,954,371.35s13.68,7,25.48,7.32a117,117,0,0,0,19.18-.93s-7.08-2.93-6.45-2.79a42.63,42.63,0,0,0,12.11-2.53l-5.81-2.53s13.36-.26,20.91-7.58l-9.43,2.4,5.66-2.93s-22.18,1.07-30.67-3.72-5.5-6.91-5.19-7.71,3.15-4.25,3.31-7.58c0,0,5.5-1.73,5-5.71s-1.73-5.05-1.73-5.05a7.8,7.8,0,0,0-5.51,2.66,8.25,8.25,0,0,0-9.9-1.86s-2.68-1.47-2.68-6.92S960.14,328.82,961.25,332.54Z"/><path class="cls-11" d="M981.85,356.47s3.88,3.9,13.1,5.84,12.16,1.51,12.16,1.51l-6.5,1.77,5.45.53s-11.21,2.66-19.5,1.33l11.12,3.9s-10.91,1.6-14,.89,9.44,4.87,9.44,4.87,1.95.25,4.9.33c-1.77-.73-6.25-2.6-5.74-2.5a42.87,42.87,0,0,0,12.11-2.52l-5.82-2.53s13.37-.27,20.91-7.58L1010,364.7l5.66-2.92s-22.17,1.06-30.66-3.72a29.32,29.32,0,0,1-2.92-1.85C982,356.3,981.86,356.38,981.85,356.47Z"/><path class="cls-19" d="M978.25,319.06c-.07,0-.19.26-.4.48a2.64,2.64,0,0,1-.46.37,5.78,5.78,0,0,1-.52.36l-.47.27a.59.59,0,0,0,0-.14,1.76,1.76,0,0,0-3.46,0l-.35-.17a4.73,4.73,0,0,1-.68-.48,3,3,0,0,1-.62-.52c-.29-.29-.36-.67-.41-.67s-.09.43.17.8a2.63,2.63,0,0,0,.59.65,4.27,4.27,0,0,0,.81.43,3.15,3.15,0,0,0,.51.15c.08.48.5.72,1,.82-.06.22-.12.54.06.5a.49.49,0,0,0,.35-.34s-.05.59.2.46a.48.48,0,0,0,.23-.43s.18.52.43.37.11-.36.05-.55c.54-.09.94-.32,1-.77a3.47,3.47,0,0,0,.61-.16,4.38,4.38,0,0,0,.65-.3,2.16,2.16,0,0,0,.44-.51C978.26,319.38,978.3,319.07,978.25,319.06Z"/><path class="cls-17" d="M973.41,320.05a1.76,1.76,0,0,1-.93-.17,4.56,4.56,0,0,1-.82-.43,2.86,2.86,0,0,1-.59-.65c-.26-.36-.23-.81-.17-.8s.13.38.41.67a3.28,3.28,0,0,0,.62.53,5.73,5.73,0,0,0,.69.47C973,319.89,973.41,320,973.41,320.05Z"/><path class="cls-17" d="M978.25,318.52a.86.86,0,0,1-.16.6,2.17,2.17,0,0,1-.44.51,3.47,3.47,0,0,1-.65.3,1.62,1.62,0,0,1-.69.15s.28-.2.56-.36a5.78,5.78,0,0,0,.52-.36,2.18,2.18,0,0,0,.46-.37C978.06,318.77,978.19,318.5,978.25,318.52Z"/><path class="cls-2" d="M976.42,319.85c0,.81-.74,1.06-1.69,1.06s-1.77-.25-1.77-1.06a1.75,1.75,0,0,1,3.46,0Z"/><path class="cls-2" d="M974.1,320.66s-.27.75,0,.7a.49.49,0,0,0,.34-.35s0,.6.2.46a.44.44,0,0,0,.23-.42s.18.52.44.36,0-.79,0-.79Z"/><path class="cls-12" d="M976.08,319.91a.46.46,0,0,1-.37.59.56.56,0,0,1-.64-.39.48.48,0,0,1,.37-.6A.56.56,0,0,1,976.08,319.91Z"/><path class="cls-12" d="M973.34,319.91a.46.46,0,0,0,.37.59.56.56,0,0,0,.64-.39.48.48,0,0,0-.37-.6A.56.56,0,0,0,973.34,319.91Z"/><path class="cls-12" d="M974.63,320.4l0,0s-.18.23-.08.26.14-.1.14-.1.14.22.19.07A.21.21,0,0,0,974.63,320.4Z"/><path class="cls-24" d="M992.94,375.31c.14.42-.9.72-4.6.66-9.85-.18-32.6-2.84-28.2-11.61,3.57-7.12,17.13-7.94,22.14-8-2.21-1.58-3-2.79-3.2-3.72-2.83.49-8.33,1-9.71-2.29-1.89-4.43,4-6.38,8.38-6.38A4.82,4.82,0,0,1,982,346.6a10,10,0,0,0,1.12-3.82s3.66-1.15,4.76-3.74a7.46,7.46,0,0,1-2.24,1c-2.73.71-4.19-2.22-4.19-2.22s-2.83,3.55-9.12,1.87c-5.18-1.39-4.47-8.64-3.82-11.62a14.5,14.5,0,0,1-.17-2.21c0-5.45-8.18,2.92-7.08,6.65,0,0,3,6.51,3.46,9.7a34.89,34.89,0,0,1-.16,7.84s-16,12.9-10.53,21.27,13.68,7,25.47,7.31a115.66,115.66,0,0,0,19.19-.93S994.65,376.07,992.94,375.31Z"/><path class="cls-22" d="M978.6,341.4a8.21,8.21,0,0,1-2.53,1,8.66,8.66,0,0,1-1.91.24,5.74,5.74,0,0,1-.64,0l-.25,0a6.31,6.31,0,0,1-.86-.18,7.94,7.94,0,0,1-1.75-.71,7.07,7.07,0,0,1-2-1.58c.07-.06,1.08.73,2.25,1.27a7.83,7.83,0,0,0,1.68.58,7.54,7.54,0,0,0,.8.13l.22,0c.14,0,.34,0,.59,0A8.59,8.59,0,0,0,976,342C977.3,341.8,978.56,341.33,978.6,341.4Zm5.64.55a4.8,4.8,0,0,1-.81.08,4.17,4.17,0,0,1-.81,0,3.73,3.73,0,0,0-.88-.11c0,.05.33.31.78.45a3.68,3.68,0,0,0,1,.14,3.74,3.74,0,0,0,.92-.25c.42-.19.75-.47.7-.52A4.23,4.23,0,0,0,984.24,342Zm-10.11,11.54a8.76,8.76,0,0,1-2,.41,8.36,8.36,0,0,1-2.05-.08c-.28,0-.5-.1-.66-.13l-.24-.07a1.28,1.28,0,0,1-.25-.06c-.15-.05-.38-.1-.63-.2a7.73,7.73,0,0,1-1.76-.9,6.54,6.54,0,0,1-1.35-1.32,5.51,5.51,0,0,0-.51-.7,1.94,1.94,0,0,0,.31.79,5.73,5.73,0,0,0,1.27,1.5,7.79,7.79,0,0,0,1.81,1c.27.12.51.18.67.24l.26.08.27.06a5.59,5.59,0,0,0,.72.11,8.07,8.07,0,0,0,2.19,0,7.66,7.66,0,0,0,2.07-.58,3.05,3.05,0,0,0,.8-.48A4.27,4.27,0,0,0,974.13,353.49Zm5.65-.85a3.31,3.31,0,0,1-.42.41,6.23,6.23,0,0,1-1.58,1,12.08,12.08,0,0,1-1.81.64l-.86.2-.87.19a14.51,14.51,0,0,1-2,.2,8.13,8.13,0,0,1-1.95-.17,3,3,0,0,1-.61-.17.86.86,0,0,0-.26-.05s.06.07.2.14a2.67,2.67,0,0,0,.6.27,7.16,7.16,0,0,0,2,.33,12.83,12.83,0,0,0,2.05-.1c.55-.08.92-.16.92-.16s.36-.09.89-.25a10.39,10.39,0,0,0,1.84-.77,5.46,5.46,0,0,0,1.54-1.15,2.43,2.43,0,0,0,.35-.49c.07-.13.09-.2.07-.21S979.88,352.53,979.78,352.64Z"/><g class="cls-25"><path class="cls-21" d="M976.34,351.82a1.87,1.87,0,0,1,0-.39c0-.25.07-.61.16-1a15.7,15.7,0,0,1,1-3c.46-1.08,1-2.12,1.44-2.9l.72-1.29.21-.34c.12-.23.34-.54.51-.93a9.69,9.69,0,0,0,1-3,16.55,16.55,0,0,0,.17-3.11c0-.43,0-.78,0-1a1.3,1.3,0,0,1,0-.4,1.56,1.56,0,0,1,.06.39c0,.25.06.61.08,1a15.26,15.26,0,0,1,0,3.15,9.58,9.58,0,0,1-.91,3.06c-.17.41-.39.71-.5.94l-.2.36-.75,1.28c-.44.76-1,1.78-1.51,2.84a18.11,18.11,0,0,0-1.09,3c-.11.42-.17.77-.23,1A1.81,1.81,0,0,1,976.34,351.82Z"/></g><path class="cls-11" d="M979.39,334.69a4.09,4.09,0,0,0,2,.43c1.2-.09,2.12-1.14,3.13-1.64,2.31-1.13,4.39,2.79.89,3.35-1.31.21-2.35-.43-3.58-.5a14.45,14.45,0,0,0-3.38.6,14.23,14.23,0,0,1-3.39.13c-2-.14-3.57-1.11-3.46-2.17s1.81-1.81,3.83-1.67a6.39,6.39,0,0,1,2.67.8C978.47,334.22,978.92,334.48,979.39,334.69Z"/><path class="cls-2" d="M980.67,337.23c0,.51-.47.67-1.08.67s-1.13-.16-1.13-.67a1.12,1.12,0,0,1,2.21,0Z"/><path class="cls-2" d="M979.19,337.75s-.18.48,0,.44a.3.3,0,0,0,.21-.22s0,.38.14.29a.27.27,0,0,0,.14-.26s.12.32.28.23,0-.5,0-.5Z"/><path class="cls-12" d="M980.45,337.27a.29.29,0,0,1-.23.37.35.35,0,0,1-.41-.25A.3.3,0,0,1,980,337,.36.36,0,0,1,980.45,337.27Z"/><path class="cls-12" d="M978.71,337.27a.29.29,0,0,0,.23.37.35.35,0,0,0,.41-.25.3.3,0,0,0-.24-.38A.35.35,0,0,0,978.71,337.27Z"/><path class="cls-12" d="M979.53,337.58h0s-.11.15,0,.17.09-.07.09-.07.09.14.12,0S979.59,337.57,979.53,337.58Z"/><path class="cls-2" d="M979.28,343.61c-.1.51-.59.6-1.19.51s-1.08-.31-1-.82a1.11,1.11,0,0,1,1.27-.76A1,1,0,0,1,979.28,343.61Z"/><path class="cls-2" d="M977.72,343.92s-.26.45-.09.43a.33.33,0,0,0,.26-.18s-.1.36.07.3a.3.3,0,0,0,.2-.24s.05.34.22.27.07-.5.07-.5Z"/><path class="cls-12" d="M979.06,343.62a.32.32,0,0,1-.3.34.35.35,0,0,1-.36-.3.32.32,0,0,1,.31-.34A.32.32,0,0,1,979.06,343.62Z"/><path class="cls-12" d="M977.34,343.37a.28.28,0,0,0,.15.41.39.39,0,0,0,.46-.19.29.29,0,0,0-.16-.41A.38.38,0,0,0,977.34,343.37Z"/><path class="cls-12" d="M978.09,343.8h0s-.14.12-.08.16.1-.06.1-.06.07.15.11.06A.12.12,0,0,0,978.09,343.8Z"/><path class="cls-2" d="M976.49,349.18c-.1.51-.59.6-1.19.51s-1.08-.31-1-.82a1.1,1.1,0,0,1,1.27-.76A1,1,0,0,1,976.49,349.18Z"/><path class="cls-2" d="M974.94,349.48s-.27.45-.09.44a.35.35,0,0,0,.26-.19s-.11.37.07.31a.3.3,0,0,0,.19-.24s0,.34.23.26.07-.5.07-.5Z"/><path class="cls-12" d="M976.28,349.18a.33.33,0,1,1-.36-.3A.35.35,0,0,1,976.28,349.18Z"/><path class="cls-12" d="M974.55,348.94a.28.28,0,0,0,.16.4.36.36,0,0,0,.45-.19.28.28,0,0,0-.15-.4A.38.38,0,0,0,974.55,348.94Z"/><path class="cls-12" d="M975.3,349.36h0s-.14.13-.09.16.11,0,.11,0,.06.15.11.06A.13.13,0,0,0,975.3,349.36Z"/><path class="cls-22" d="M984.36,361.79a2.93,2.93,0,0,1-.86.37,8.7,8.7,0,0,1-2.12.34,13.78,13.78,0,0,1-2.15-.13l-1-.16-.93-.24c-.56-.16-1.28-.4-2-.65a21.48,21.48,0,0,1-2.78-1.13,24.51,24.51,0,0,1,2.93.8c.72.21,1.44.41,2,.53s.92.2.92.2.36.09.91.2a14.15,14.15,0,0,0,2,.22,9.64,9.64,0,0,0,2-.17A4.45,4.45,0,0,1,984.36,361.79Z"/><path class="cls-22" d="M963.13,369.09c.19-.22.79-.12,1.34.22s.85.8.65,1-.79.12-1.34-.22S962.94,369.31,963.13,369.09Z"/><path class="cls-22" d="M966,370.66c.12-.13.49-.07.83.14s.52.49.4.63-.49.07-.83-.14S965.92,370.8,966,370.66Z"/><path class="cls-18" d="M952.51,331.73s-1.63,6.25-3.2,14.07a50.91,50.91,0,0,0-1,11.93c.08,1.95.49,3.71.75,5.62.12.8-.21,1.38.23,2.15.6,1,1.81,1.73,2.49,2.73,1,1.43,1.83,4,2.33,3a2.24,2.24,0,0,0-.19-2s1.15,4.42,2.71,4.19.36-4.78.36-4.78l-.53-1.12s1.66.57,1.77-.56-6.85-3.89-6.85-3.89a118.2,118.2,0,0,1,2.74-16.71c1.48-5.9,4.59-11.29,4.1-14.2C957.21,326.23,952.4,330,952.51,331.73Z"/><path class="cls-23" d="M954.69,370.82a3.33,3.33,0,0,1-.38-.77l-.29-.51-.14-.23-.43-.74c-.24-.36-.48-.73-.43-.75s.36.29.67.63.55.72.55.72,0,.1.11.25.14.36.23.56C954.68,370.4,954.75,370.82,954.69,370.82Z"/><path class="cls-23" d="M956.48,373c-.07,0-.08-.81-.23-1.61-.11-.39-.18-.78-.3-1.07l-.17-.48a11.76,11.76,0,0,0-.65-1.51c-.4-.73-.91-1.42-.85-1.45a6.26,6.26,0,0,1,1.1,1.35,10.59,10.59,0,0,1,.78,1.51l.15.5a8.89,8.89,0,0,1,.22,1.12A5.33,5.33,0,0,1,956.48,373Z"/><path class="cls-23" d="M956.79,368s-.28-.25-.49-.51l-.49-.47-.47-.51c-.24-.25-.48-.52-.44-.55a2.22,2.22,0,0,1,.64.38l.57.46s.22.28.42.56S956.84,368,956.79,368Z"/><path class="cls-19" d="M956.62,373.43c1.56-.23.37-4.78.37-4.78l-.54-1.12s1.45.5,1.73-.36A9.52,9.52,0,0,1,954.9,366s-.41-.31.91,1.06,1.58,4.41.64,4.88-.63-1.26-1.34-2.2a11.06,11.06,0,0,0-2.1-1.88s1,1.73.6,1.68-3.22-3.32-2.75-4.91c.19-.63,1.15-.79,2.27-.76-1-.44-1.77-.74-1.77-.74s.07-.84.23-2.25a1.19,1.19,0,0,1-1.83.23c-2-1.73.94-20.61,3.06-23,1.37-1.54,2.71.2,3.49,1.64,1.17-3.12,2.18-5.78,1.89-7.53-1-5.94-5.81-2.21-5.7-.44,0,0-1.63,6.25-3.2,14.06a51,51,0,0,0-1,11.94c.08,1.95.49,3.71.75,5.62.11.8-.21,1.38.23,2.14.6,1.05,1.81,1.74,2.49,2.74,1,1.43,1.82,4,2.33,3a1.81,1.81,0,0,0,.17-.89C954.73,371.68,955.58,373.59,956.62,373.43Z"/><path class="cls-22" d="M965.8,318.45s-5.49-4.08-11.46-1.11-5.16,8.2-2.51,12.89c0,0-5,5-2.79,4.65s3.33-3,3.33-3-2.47,5.44-.59,4.64,3.27-4.55,3.27-4.55-.24,5.15,1.67,3.73.61-3.9.61-3.9,2.17,5,3.34,4.24-1-4.18-1-4.18,2.64.72,5.94-2.35A7.35,7.35,0,0,0,965.8,318.45Z"/><path class="cls-11" d="M949.14,335.06c2.19-.39,3.34-3,3.34-3s-2.47,5.43-.59,4.64,3.27-4.55,3.27-4.55-.24,5.15,1.67,3.73c1.55-1.16,1-3,.72-3.66.45,1,2.21,4.61,3.23,4,1.18-.71-1-4.18-1-4.18s2.64.72,5.93-2.35a7.34,7.34,0,0,0,.18-11.09,12.21,12.21,0,0,0-2.64-1.38c2.61,3.22,3.68,9.46-3.45,10.59-8.39,1.34-8.56-5.82-8.88-7.4-1.88,2.9-.93,6.57,1,10C951.93,330.4,947,335.45,949.14,335.06Z"/><path class="cls-22" d="M952.39,327.81a10.33,10.33,0,0,0,.84,1.18,3.75,3.75,0,0,0,1.1,1,7.42,7.42,0,0,0-.74-1.2c-.37-.59-.67-1.21-.67-1.21s-.34-.59-.62-1.21a8.59,8.59,0,0,0-.49-1.29,2.72,2.72,0,0,0,.09,1.38A8.75,8.75,0,0,0,952.39,327.81Z"/><path class="cls-22" d="M959,331.64a5.74,5.74,0,0,0,1.06-.18,8.59,8.59,0,0,0,2.09-.85,7.46,7.46,0,0,0,2.4-1.92,25.75,25.75,0,0,1-2.62,1.62,9.28,9.28,0,0,1-2,.71,5.25,5.25,0,0,1-1,.12,4.12,4.12,0,0,1-1,0,2.71,2.71,0,0,1-.46-.07l-.25-.05-.22-.09a3.85,3.85,0,0,1-.92-.56,3.76,3.76,0,0,1-1.19-1.52,2.76,2.76,0,0,1-.14-.83,1.07,1.07,0,0,0-.08.89,3.74,3.74,0,0,0,1.11,1.72,4.42,4.42,0,0,0,1,.67,2.85,2.85,0,0,0,.29.12l.28.07a3.61,3.61,0,0,0,.51.11A4.81,4.81,0,0,0,959,331.64Z"/><path class="cls-22" d="M967.22,326.83c-.07,0-.63,1-1.44,1.86a9.8,9.8,0,0,1-1.21,1.11c-.36.28-.61.45-.61.45l-.18.11c-.11.07-.26.19-.46.3a7.93,7.93,0,0,1-1.56.7,7.61,7.61,0,0,1-1.73.32,3.67,3.67,0,0,0-.83.07,2.33,2.33,0,0,0,.83.13,7.1,7.1,0,0,0,1.86-.18,7.66,7.66,0,0,0,1.72-.65,4.93,4.93,0,0,0,.52-.3l.19-.11s.26-.19.62-.5a10,10,0,0,0,1.17-1.23A5.41,5.41,0,0,0,967.22,326.83Z"/><path class="cls-22" d="M953.41,329.82a4.75,4.75,0,0,1-.64-.32l-.26-.17a3.82,3.82,0,0,1-.78-.61c-.31-.37-.45-.84-.54-.84s-.09.53.19,1a3.16,3.16,0,0,0,.77.82l.34.17a5.23,5.23,0,0,0,.79.26,2.31,2.31,0,0,0,1.21,0C954.48,330.07,953.92,330,953.41,329.82Z"/><path class="cls-22" d="M953.85,331.52c-.22.48-.46.94-.46.94a7.61,7.61,0,0,1-.47.92c-.29.44-.69.83-.64.89a2.24,2.24,0,0,0,1-.69,6.32,6.32,0,0,0,.67-.93,7.17,7.17,0,0,0,.32-1c.11-.53.15-1.05.07-1.07S954.05,331,953.85,331.52Z"/><path class="cls-22" d="M956.17,332.52s0-.28-.12-.57-.07-.59-.15-.61-.19.29-.27.61,0,.64,0,.64.1.31.22.61.32.56.4.54,0-.33,0-.63S956.17,332.52,956.17,332.52Z"/><path class="cls-22" d="M959.34,333.08a4.56,4.56,0,0,1-.32-.5c-.13-.27-.21-.57-.29-.57s-.15.32-.11.65a2.32,2.32,0,0,0,.19.64,3.53,3.53,0,0,0,.5.52c.29.22.63.37.68.32s-.18-.3-.35-.55A3.5,3.5,0,0,1,959.34,333.08Z"/><path class="cls-11" d="M962,317.56l0,0c-2-1.33-6.11-.19-7.87.84-3.93,2.33-3.07,7.05-.16,7.78,1.67.42,2.22-1,2.46-2.11.3-1.35.49-3,2-3.85C959,319.79,964.12,319,962,317.56Z"/><path class="cls-22" d="M956.53,318.42c.17.31-.12.75-.67,1s-1.14.14-1.32-.17.12-.75.67-1S956.35,318.1,956.53,318.42Z"/><path class="cls-22" d="M953.81,320c.28.13.31.52.08.87a.81.81,0,0,1-.93.39c-.28-.14-.31-.53-.08-.88A.81.81,0,0,1,953.81,320Z"/><path class="cls-22" d="M925.66,267.23s19.07,9.39,47.59,18.08,59.13,9.21,70,8.33c0,0-36.48-8.16-43.82-13.29S931.53,265.64,925.66,267.23Z"/><path class="cls-12" d="M931.88,267.23a376.26,376.26,0,0,0,42.21,15.6c22.13,6.74,45.52,8.57,60,8.63-11.32-2.77-29.64-7.63-34.61-11.11C993.25,276,948.94,268.48,931.88,267.23Z"/><path class="cls-26" d="M993.08,306s-2,13.87,15.47,17.77c19.11,4.26,28.25-9.67,22.18-13.25-5.07-3-6.85,1.75-6.85,1.75s3.41-2.63,4.41.35c.59,1.78-3.48,5.53-7.7,4.54s-4.27-6.58,1.92-9.55a11.84,11.84,0,0,0,4.45-17.75c-4.75-6.72-23.66-12.57-28.93-8.39S993.08,306,993.08,306Z"/><g class="cls-27"><path class="cls-26" d="M993.08,306s-2,13.87,15.47,17.77c19.11,4.26,28.25-9.67,22.18-13.25-5.07-3-6.85,1.75-6.85,1.75s3.41-2.63,4.41.35c.59,1.78-3.48,5.53-7.7,4.54s-4.27-6.58,1.92-9.55a11.84,11.84,0,0,0,4.45-17.75c-4.75-6.72-23.66-12.57-28.93-8.39S993.08,306,993.08,306Z"/></g><path class="cls-26" d="M1004.59,304.33c-.12.44-.18.7-.18.7Z"/><path class="cls-28" d="M993.8,306.89c2-1.07,4.09,5.78,4.09,5.78s-1-9.24.42-9.14,3.74,4.75,3.74,4.75-3-12.23.47-12c2.86.22,1.81,6.65,2.06,8-.49-2.67,4.27-14.92,10.44-14.92,7.08,0,3.54,12.09-.15,14a9.64,9.64,0,0,0,5-5.05s1.41,2.86-3.77,5.45-7.55,4.92-6.21,9c0,0,.08-4.65,5.5-6.51a24.13,24.13,0,0,0,8.1-4.31,28.89,28.89,0,0,1-6.69,5.5c-5.11,3.2-3.93,11,3.85,12.17,6.92,1,10.11-8.17,6.49-10.18a4.39,4.39,0,0,0-3.29,2.71s3.41-2.63,4.41.35c.59,1.78-3.48,5.53-7.7,4.54s-4.27-6.58,1.92-9.55a11.84,11.84,0,0,0,4.45-17.75c-4.75-6.72-23.66-12.57-28.93-8.39S993.08,306,993.08,306a13.09,13.09,0,0,0,0,2.55A1.76,1.76,0,0,1,993.8,306.89Z"/><path class="cls-28" d="M1030.73,310.5l-.48-.27c1.92,3.54-1.63,10-7.52,11.41-8.07,1.95-16.15-2.66-17.82-15.33s8-20.73,8.38-21.17a11.84,11.84,0,0,0-2.14-4c-5.46-1.4-10.72-1.59-13.13.32-5.27,4.17-4.95,24.52-4.95,24.52s-2,13.87,15.48,17.77C1027.66,328,1036.8,314.08,1030.73,310.5Z"/><path class="cls-29" d="M1027.76,313.67a10.17,10.17,0,0,0,.12-1.09,3.17,3.17,0,0,0-.2-1s0-.12-.1-.31a2,2,0,0,0-.37-.61,1.89,1.89,0,0,0-.65-.43c-.21-.08-.37-.12-.37-.16s.17,0,.44,0a1.92,1.92,0,0,1,.88.38,2.37,2.37,0,0,1,.58.69c.1.2.16.35.16.35a3,3,0,0,1,0,1.18C1028.22,313.2,1027.84,313.71,1027.76,313.67Zm2.7-2.78a6.37,6.37,0,0,1,.2.9,6.56,6.56,0,0,1-.29,3.22,6.72,6.72,0,0,1-1,2,9.44,9.44,0,0,1-1.76,1.9,12.44,12.44,0,0,1-5.3,2.6,9.18,9.18,0,0,1-5.94-.54,7.4,7.4,0,0,1-3.34-3.42,9.37,9.37,0,0,1-1-3.08c0-.39,0-.69,0-.89s0-.31,0-.31,0-.11,0-.32a4.69,4.69,0,0,1,.22-.86,3.19,3.19,0,0,1,.24-.61c.11-.21.2-.45.34-.69l.49-.76c.17-.27.4-.53.61-.81a16,16,0,0,1,3.76-3.28c.78-.52,1.63-1,2.51-1.51a22.9,22.9,0,0,0,2.63-1.58l.61-.47.53-.53.26-.27.22-.29c.15-.19.3-.38.43-.58a8.31,8.31,0,0,0,1-2.51,12,12,0,0,0,0-4.67,20.94,20.94,0,0,0-.86-3.22c-.13-.38-.25-.68-.33-.88a1.64,1.64,0,0,0-.14-.31,1.32,1.32,0,0,0,.08.32c.06.21.17.51.27.89a24.14,24.14,0,0,1,.75,3.22,11.73,11.73,0,0,1-.1,4.59,8.08,8.08,0,0,1-1,2.41c-.13.19-.29.37-.42.56l-.22.27-.25.25-.52.5-.59.45a22.86,22.86,0,0,1-2.61,1.52c-.89.49-1.76,1-2.56,1.51a16.57,16.57,0,0,0-3.9,3.34c-.22.29-.46.56-.64.84s-.35.54-.52.78-.25.51-.37.73a3.59,3.59,0,0,0-.26.64,5.08,5.08,0,0,0-.25.93c0,.22,0,.34,0,.34s0,.12,0,.33a8.84,8.84,0,0,0,0,1,9.81,9.81,0,0,0,1.08,3.22,8,8,0,0,0,3.59,3.6,9.69,9.69,0,0,0,6.29.52,12.74,12.74,0,0,0,5.44-2.75,9.55,9.55,0,0,0,1.77-2,7.24,7.24,0,0,0,.6-1,6.51,6.51,0,0,0,.4-1,6.25,6.25,0,0,0,.18-3.29,4.83,4.83,0,0,0-.26-.9c-.07-.2-.11-.31-.13-.3A2.24,2.24,0,0,0,1030.46,310.89Zm-29.09,5.81a14.15,14.15,0,0,1-2.22-2.77,16.13,16.13,0,0,1-1.41-3.12c-.16-.44-.23-.82-.31-1.07l-.11-.41s0-.15-.09-.41-.17-.64-.23-1.09a23.66,23.66,0,0,1-.31-3.35,27.57,27.57,0,0,1,.19-3.37,13,13,0,0,0,.17-1.54,1.36,1.36,0,0,0-.14.41c-.07.27-.18.65-.26,1.1a22.23,22.23,0,0,0-.37,3.39,20.8,20.8,0,0,0,.19,3.42c0,.46.15.84.19,1.11l.08.43.13.41a10.73,10.73,0,0,0,.35,1.1,16.08,16.08,0,0,0,1.56,3.16,13.76,13.76,0,0,0,2.42,2.73,9.93,9.93,0,0,0,1,.75,2.1,2.1,0,0,0,.41.25S1002.09,317.38,1001.37,316.7Zm1.81-6.5a14.28,14.28,0,0,1-.74-1.38,19.76,19.76,0,0,1-1.49-4.41,24.33,24.33,0,0,1-.46-4.57c0-1.25.08-2.08.08-2.08s0-.21,0-.58,0-.88.17-1.5a28.43,28.43,0,0,1,2.73-8.88c.56-1.17,1-1.92,1-1.94a4.06,4.06,0,0,0-.36.5,14.48,14.48,0,0,0-.82,1.36,27.2,27.2,0,0,0-1.93,4.35,29.28,29.28,0,0,0-1.14,4.55c-.12.63-.14,1.16-.2,1.53s-.06.58-.06.58,0,.84,0,2.12a22.72,22.72,0,0,0,.59,4.62,18.05,18.05,0,0,0,1.69,4.43,11.11,11.11,0,0,0,.84,1.35.31.31,0,1,0,.11-.05Zm6,9.48c-.46-.47-.94-.92-1.25-1.29l-.53-.61-.52-.61c-.34-.36-.68-.89-1.07-1.4-.69-1.06-1.16-2.22-1.26-2.2a7.48,7.48,0,0,0,.89,2.36,16.81,16.81,0,0,0,1,1.49l.5.66.58.59c.34.37.87.8,1.37,1.25a12.29,12.29,0,0,0,2.28,1.54C1011.26,321.41,1010.18,320.58,1009.22,319.68Zm-4-10.09c-.05-.19-.11-.42-.17-.69s-.07-.28-.11-.43,0-.31-.07-.48a22,22,0,0,1-.29-4.91,25.65,25.65,0,0,1,.82-4.87c.16-.66.37-1.19.48-1.57s.2-.59.2-.59l.22-.59a15.86,15.86,0,0,1,.61-1.53,32.07,32.07,0,0,1,2.4-4.49,35.08,35.08,0,0,1,3.19-4.13c1-1.07,1.68-1.74,1.64-1.77a3.21,3.21,0,0,0-.53.43c-.31.29-.8.68-1.29,1.22a31.17,31.17,0,0,0-3.38,4.08,31.7,31.7,0,0,0-2.54,4.49c-.32.63-.49,1.18-.65,1.55l-.24.6-.19.6c-.1.39-.31.93-.45,1.6a24.15,24.15,0,0,0-.7,4.95,20,20,0,0,0,.48,5c0,.16.06.32.1.47s.09.3.13.43.16.5.22.69a3,3,0,0,0,.23.59A3.37,3.37,0,0,0,1005.22,309.59Zm14.68-11.93c.13-.29.24-.64.38-1s.21-.78.32-1.19.12-.83.19-1.22.05-.76.07-1.07c0-.63,0-1,0-1s0-.11,0-.29-.06-.44-.11-.75-.11-.67-.19-1.06l-.06-.29a.83.83,0,0,1,0-.13l0-.15c0-.2-.07-.41-.09-.62a5.24,5.24,0,0,0-.8-2.21,1.54,1.54,0,0,0-.66-.54.69.69,0,0,0-.33-.06s.11.05.27.15a1.46,1.46,0,0,1,.52.55,5.34,5.34,0,0,1,.58,2.15l.06.61v.15c0,.06,0,.13,0,.17a2.89,2.89,0,0,1,0,.29,9.11,9.11,0,0,1,.14,1c0,.3,0,.56.06.73s0,.28,0,.28,0,.41.06,1c0,.31,0,.66,0,1s-.06.79-.11,1.2-.13.81-.23,1.18-.18.73-.27,1a5.1,5.1,0,0,0-.31,1A4.12,4.12,0,0,0,1019.9,297.66Zm3.75,1.22a10,10,0,0,1-2.26,2.16,22.25,22.25,0,0,1-2.85,1.62c-.82.4-1.37.65-1.37.65l-1.37.69a27,27,0,0,0-2.9,1.68,9.76,9.76,0,0,0-2.32,2.23,2.23,2.23,0,0,0-.3.49c-.08.15-.15.28-.2.39s-.16.35-.14.36a1.19,1.19,0,0,0,.24-.31l.25-.37a2.53,2.53,0,0,1,.34-.45,10.27,10.27,0,0,1,2.39-2.06,28.65,28.65,0,0,1,2.91-1.56l1.38-.65,1.36-.69a22.75,22.75,0,0,0,2.85-1.75,9.31,9.31,0,0,0,2.18-2.34,5.11,5.11,0,0,0,.44-.9c.1-.22.14-.35.12-.35S1024.12,298.2,1023.65,298.88Zm-6.51,17.32a5.54,5.54,0,0,1-.52-2.25,3.26,3.26,0,0,1,.17-1l.1-.27c0-.09.07-.19.12-.31s.14-.24.22-.39a10.54,10.54,0,0,1,1.46-2c.34-.32.64-.66,1-.93l.49-.41.47-.32a5.63,5.63,0,0,1,.76-.44c.19-.1.29-.17.28-.18s-.12,0-.33.09a4.24,4.24,0,0,0-.84.37l-.52.3-.53.38a13.13,13.13,0,0,0-1.09.91,10.54,10.54,0,0,0-1.63,2l-.25.4c-.07.13-.11.25-.15.34s-.12.3-.12.3a3.66,3.66,0,0,0-.14,1.13,5.73,5.73,0,0,0,.68,2.38,9.25,9.25,0,0,0,1.52,2,4.52,4.52,0,0,0,.89.79A17.75,17.75,0,0,1,1017.14,316.2Zm-7,7.31c-.71-.24-1.44-.44-2-.67l-.88-.33-.85-.37a17.19,17.19,0,0,1-1.8-.92c-1.26-.75-2.25-1.75-2.33-1.7a8,8,0,0,0,2.08,2,16.17,16.17,0,0,0,1.79,1l.86.42.91.31a20,20,0,0,0,2.06.58,12.67,12.67,0,0,0,3.1.36C1013.1,324.13,1011.56,323.92,1010.1,323.51Z"/><path class="cls-26" d="M962,274.92a10.08,10.08,0,0,1-2.19.47,13.33,13.33,0,0,0-4.37,2.06c-1.67,1.26-3.65,4-3.73,5.95-.1,2.15,2.14,3.75,3.4,5.42.65.86,2,2.35,1.19,3.41-1.06,1.32-2.76-.42-1.53-1.59,0,0-3.65,1.28-.06,3.06s5.5.34,5.5.34l15-19.19S963.91,272.82,962,274.92Z"/><path class="cls-26" d="M955.31,281.07a1.21,1.21,0,0,1-.21.33,3.48,3.48,0,0,0-.45.89,3.7,3.7,0,0,0,.65,2.82c.59,1,1.33,1.86,1.82,2.59a9.36,9.36,0,0,1,.75,1.26,2.57,2.57,0,0,1,.15.37c0,.13.09.27.14.45s.06.37.09.59a4.38,4.38,0,0,1-.19,1.46,2.28,2.28,0,0,1-1.1,1.44,1.93,1.93,0,0,1-1.05.19,2.28,2.28,0,0,1-1-.27,2,2,0,0,1-1-1.19,1.15,1.15,0,0,1,.18-1,1.13,1.13,0,0,1,.22-.22l.11-.06s-.11.12-.22.33a1.08,1.08,0,0,0-.06.92,1.86,1.86,0,0,0,1,1,1.89,1.89,0,0,0,.81.19,1.45,1.45,0,0,0,.81-.17,2,2,0,0,0,.86-1.24,3.9,3.9,0,0,0,.11-1.33c0-.19-.07-.37-.1-.52s-.1-.29-.14-.4a2.3,2.3,0,0,0-.15-.34,8.86,8.86,0,0,0-.68-1.21c-.45-.72-1.15-1.65-1.72-2.66a5.33,5.33,0,0,1-.59-1.58,2.49,2.49,0,0,1,.68-2.33C955.19,281.16,955.29,281.05,955.31,281.07Z"/><path class="cls-26" d="M958.3,294.16a17.41,17.41,0,0,0,1.83-.88,5.25,5.25,0,0,0,1.45-1.28,3,3,0,0,0,.61-1.92,4.05,4.05,0,0,0-.18-1c0-.17-.09-.34-.13-.5s-.13-.31-.2-.46a5.79,5.79,0,0,0-.47-.85,6.82,6.82,0,0,0-.55-.7c-.36-.43-.7-.77-.93-1l-.37-.38-.36-.4a6.49,6.49,0,0,1-.83-1.13,6.1,6.1,0,0,1-.71-1.8,4.58,4.58,0,0,1,.09-2.17,6.12,6.12,0,0,1,1.05-1.95,8,8,0,0,1,1.39-1.44,4.93,4.93,0,0,1,1.28-.76,1.58,1.58,0,0,1,.41-.12l.16,0s-.2.07-.52.23a4.85,4.85,0,0,0-1.16.8,8,8,0,0,0-1.28,1.45,6,6,0,0,0-.93,1.89,4.4,4.4,0,0,0,0,2,6.22,6.22,0,0,0,.71,1.67,6.1,6.1,0,0,0,.82,1l.36.38s.12.15.35.39.56.6.93,1c.2.22.36.49.56.76a7.22,7.22,0,0,1,.48.92c.06.16.12.33.19.5s.08.35.13.53a4.93,4.93,0,0,1,.14,1.09,3.34,3.34,0,0,1-.74,2.08,5.32,5.32,0,0,1-1.61,1.29,8,8,0,0,1-1.39.58A3,3,0,0,1,958.3,294.16Z"/><path class="cls-26" d="M957,276.94c.06.06-.77.75-1.45,1.52a12.21,12.21,0,0,0-1.22,1.62s-.15.21-.34.52a6.33,6.33,0,0,0-.56,1.22,5.24,5.24,0,0,0-.24,1.29c0,.36,0,.61,0,.61a1.26,1.26,0,0,1-.19-.6,4.13,4.13,0,0,1,.06-1.38,6.2,6.2,0,0,1,.48-1.33c.18-.35.32-.57.32-.57a11.08,11.08,0,0,1,1.41-1.6A7.07,7.07,0,0,1,957,276.94Z"/><path class="cls-26" d="M960.18,282.93a4.23,4.23,0,0,1-.71-1.62,4.69,4.69,0,0,1-.09-.64l0-.29c0-.1,0-.18,0-.27,0-.33,0-.55,0-.55a6.7,6.7,0,0,1,.67-1.65,5.09,5.09,0,0,1,1.14-1.43,14.58,14.58,0,0,1-.75,1.57,7.88,7.88,0,0,0-.48,1.59s0,.2-.07.5a1.87,1.87,0,0,0,0,.25v.27c0,.19,0,.4,0,.61C960,282.09,960.28,282.9,960.18,282.93Z"/><path class="cls-28" d="M960.19,294l10.52-13.45a15.57,15.57,0,0,0-2.85-6.59c-2.59-.12-5.06,0-5.87.92a10.08,10.08,0,0,1-2.19.47,18,18,0,0,0-1.91.68,12,12,0,0,1-2.18,3.4c-3.23,3.86-.71,6.18-.09,8.11.36,1.09-1,.22-2.27-.76.6.69,1.25,1.34,1.75,2,.65.86,2,2.35,1.19,3.41-1.06,1.32-2.76-.43-1.53-1.59,0,0-3.65,1.28-.06,3.05S960.19,294,960.19,294Z"/><path class="cls-26" d="M952.5,316.09a20.41,20.41,0,0,0,2.6-.48,3.48,3.48,0,0,0,1.86-1.34,1.5,1.5,0,0,0,.24-1,2.08,2.08,0,0,0-.14-.53,3.4,3.4,0,0,0-.31-.52,8.63,8.63,0,0,0-2.15-1.73,22,22,0,0,1-2.27-1.59,5.58,5.58,0,0,1-1.34-1.59,4.08,4.08,0,0,1-.26-.53c0-.12-.07-.19-.07-.19a.91.91,0,0,1,0-.2c0-.13-.07-.32-.1-.56a4.71,4.71,0,0,1,.25-2,7,7,0,0,1,1.51-2.33,25.08,25.08,0,0,1,2.3-2.05c.4-.33.78-.64,1.16-1a9.08,9.08,0,0,0,1-1,9.8,9.8,0,0,0,1.32-2,5.66,5.66,0,0,1,1.39-2.06c.13.06-.24.93-.67,2.29a8.62,8.62,0,0,1-1.12,2.3,8.86,8.86,0,0,1-1,1.16c-.33.36-.71.73-1.08,1.09a25.37,25.37,0,0,0-2,2.06,5.25,5.25,0,0,0-1.07,1.91,3.27,3.27,0,0,0-.08,1.39l.09.37a.63.63,0,0,0,0,.13s0,.19.19.49a4,4,0,0,0,.9,1.2,23.07,23.07,0,0,0,2,1.58c.39.29.81.61,1.21,1A5.53,5.53,0,0,1,958,311.6a2.65,2.65,0,0,1-.05,3.14,3.42,3.42,0,0,1-.56.58,3.86,3.86,0,0,1-.66.42l-.33.17L956,316a5.49,5.49,0,0,1-3.51,0Z"/><g class="cls-27"><path class="cls-26" d="M952.5,316.09a20.41,20.41,0,0,0,2.6-.48,3.48,3.48,0,0,0,1.86-1.34,1.5,1.5,0,0,0,.24-1,2.08,2.08,0,0,0-.14-.53,3.4,3.4,0,0,0-.31-.52,8.63,8.63,0,0,0-2.15-1.73,22,22,0,0,1-2.27-1.59,5.58,5.58,0,0,1-1.34-1.59,4.08,4.08,0,0,1-.26-.53c0-.12-.07-.19-.07-.19a.91.91,0,0,1,0-.2c0-.13-.07-.32-.1-.56a4.71,4.71,0,0,1,.25-2,7,7,0,0,1,1.51-2.33,25.08,25.08,0,0,1,2.3-2.05c.4-.33.78-.64,1.16-1a9.08,9.08,0,0,0,1-1,9.8,9.8,0,0,0,1.32-2,5.66,5.66,0,0,1,1.39-2.06c.13.06-.24.93-.67,2.29a8.62,8.62,0,0,1-1.12,2.3,8.86,8.86,0,0,1-1,1.16c-.33.36-.71.73-1.08,1.09a25.37,25.37,0,0,0-2,2.06,5.25,5.25,0,0,0-1.07,1.91,3.27,3.27,0,0,0-.08,1.39l.09.37a.63.63,0,0,0,0,.13s0,.19.19.49a4,4,0,0,0,.9,1.2,23.07,23.07,0,0,0,2,1.58c.39.29.81.61,1.21,1A5.53,5.53,0,0,1,958,311.6a2.65,2.65,0,0,1-.05,3.14,3.42,3.42,0,0,1-.56.58,3.86,3.86,0,0,1-.66.42l-.33.17L956,316a5.49,5.49,0,0,1-3.51,0Z"/></g><path class="cls-26" d="M957.92,314.73a2.66,2.66,0,0,0,0-3.13,5.57,5.57,0,0,0-1.1-1.25c-.4-.36-.82-.68-1.21-1a18.93,18.93,0,0,1-2-1.58,3.9,3.9,0,0,1-.91-1.2,3,3,0,0,1-.18-.48.36.36,0,0,1,0-.13c0-.09,0-.22-.1-.38a3.31,3.31,0,0,1,.09-1.39,5.18,5.18,0,0,1,1.07-1.91,23.79,23.79,0,0,1,2-2.06c.36-.35.74-.72,1.07-1.09a10.58,10.58,0,0,0,1-1.15,8.44,8.44,0,0,0,1.11-2.31h0a9.88,9.88,0,0,1-1.2,1.8,11.61,11.61,0,0,1-1,1c-.38.34-.76.65-1.15,1a25.18,25.18,0,0,0-2.3,2.06,6.54,6.54,0,0,0-1.52,2.33,4.62,4.62,0,0,0-.24,2c0,.24.07.43.09.56a.91.91,0,0,0,0,.2l.08.19a2.38,2.38,0,0,0,.25.53,5.75,5.75,0,0,0,1.34,1.59,20.56,20.56,0,0,0,2.27,1.59,8.67,8.67,0,0,1,2.15,1.73,4,4,0,0,1,.31.52,2.15,2.15,0,0,1,.14.54,1.47,1.47,0,0,1-.24,1A3.44,3.44,0,0,1,956,315.6a18.73,18.73,0,0,1-2.61.48c0,.05.37.21,1.06.26a7.39,7.39,0,0,0,1-.12A4.41,4.41,0,0,0,956,316l.35-.13.33-.17a4.59,4.59,0,0,0,.66-.42A3.45,3.45,0,0,0,957.92,314.73Z"/><path class="cls-18" d="M993.36,278.77c10.16,5.47,2,17.05,2,17.05s.46-2,5.06-1.26,3.21,6.78.12,9.75c-3.54,3.39-6.52.62-6.52.62-7.74,8.38-19,9.43-23.38,9.37s-11.46-2.69-14.52-7,2.07-9,2.07-9a42.11,42.11,0,0,1,.23-11.17,14.08,14.08,0,0,1,5.2-8.79C965.52,276.43,983.19,273.31,993.36,278.77Z"/><path class="cls-18" d="M1000.74,303.64c-3.54,3.39-6.51.62-6.51.62-7.74,8.39-19,9.43-23.39,9.37s-11.45-2.69-14.51-7a5.17,5.17,0,0,1-.71-4.69,5.33,5.33,0,0,0,.47,5.35c3.06,4.3,10.11,6.93,14.51,7s15.65-1,23.39-9.37c0,0,3,2.77,6.51-.62a9.93,9.93,0,0,0,2.5-4.05A10,10,0,0,1,1000.74,303.64Z"/><path class="cls-18" d="M996.23,294.32a20.45,20.45,0,0,0,1.46-3.31,21.88,21.88,0,0,1-1.74,3.54A2.3,2.3,0,0,1,996.23,294.32Z"/><path class="cls-18" d="M958.39,297.63a42,42,0,0,1,.23-11.16,13.86,13.86,0,0,1,.47-2,14,14,0,0,0-.71,2.63,42.91,42.91,0,0,0-.27,10.78Z"/><path class="cls-26" d="M991.62,317.76a18,18,0,0,0,2.5-.79,3.26,3.26,0,0,0,1.62-1.55,1.47,1.47,0,0,0,.06-1.05,2.36,2.36,0,0,0-.23-.52,3.47,3.47,0,0,0-.39-.47,9.32,9.32,0,0,0-2.42-1.46,22.57,22.57,0,0,1-2.51-1.3,5.93,5.93,0,0,1-1.6-1.41,3.16,3.16,0,0,1-.34-.5l-.11-.18a.79.79,0,0,1-.08-.19c0-.12-.12-.31-.19-.54a4.76,4.76,0,0,1-.08-2,6.21,6.21,0,0,1,1.11-2.48A21.19,21.19,0,0,1,990.9,301c.33-.37.66-.73,1-1.11a9.67,9.67,0,0,0,.83-1.07,9.32,9.32,0,0,0,1-2.15c.43-1.36.91-2.25,1-2.21a9.92,9.92,0,0,1-.29,2.34,8.23,8.23,0,0,1-.72,2.42,9.33,9.33,0,0,1-.78,1.26c-.27.4-.59.81-.89,1.2a22.37,22.37,0,0,0-1.63,2.29,4.87,4.87,0,0,0-.75,2,3.44,3.44,0,0,0,.16,1.39c.06.15.11.28.15.36a.33.33,0,0,0,.06.12,3.33,3.33,0,0,0,.27.46,4.13,4.13,0,0,0,1.1,1.08,20.48,20.48,0,0,0,2.23,1.33c.44.24.9.51,1.36.81a5.64,5.64,0,0,1,1.3,1.11,2.67,2.67,0,0,1,.48,3.11,3,3,0,0,1-.46.64,4.63,4.63,0,0,1-.58.5l-.3.2-.32.17a5.55,5.55,0,0,1-.62.27A4.2,4.2,0,0,1,991.62,317.76Z"/><path class="cls-19" d="M973.91,303.64c.16,1.43,2.52,2.41,5.28,2.2s4.88-1.54,4.73-3-2.52-2.4-5.28-2.19S973.76,302.22,973.91,303.64Z"/><path class="cls-19" d="M962.55,303.77c.43-1.38-1.39-3-4.08-3.59a8.88,8.88,0,0,0-1.74-.21,7.64,7.64,0,0,0-1.6,4.62,8.27,8.27,0,0,0,1.78.6C959.59,305.79,962.11,305.16,962.55,303.77Z"/><path class="cls-23" d="M965.28,304.43a2.58,2.58,0,0,1-.64-.38,5.15,5.15,0,0,1-.59-.45,1.31,1.31,0,0,1-.48-.75.77.77,0,0,1,0-.26.42.42,0,0,1,.19-.24,3.61,3.61,0,0,1,.41-.24l.71-.32c.43-.17.72-.26.72-.26l.21-.06.26-.05h.06s0-.09.05-.19a3.11,3.11,0,0,0,0-.33,3.69,3.69,0,0,0,0-.73,11.86,11.86,0,0,1-.16-1.42,1.44,1.44,0,0,1,.09-.66c.06,0,.06.26.14.64s.23.87.35,1.39a4.31,4.31,0,0,1,.11.78c0,.13,0,.26,0,.38a2.39,2.39,0,0,1-.07.42.5.5,0,0,1,0,.13l-.14,0-.25,0-.21.06-.19.06-.7.22-.7.26a3.68,3.68,0,0,0-.34.16c-.05,0-.07,0-.07.06a.61.61,0,0,0,0,.13,1,1,0,0,0,.31.59c.16.19.35.35.5.5C965.11,304.2,965.31,304.41,965.28,304.43Z"/><path class="cls-23" d="M968.88,304.06c0,.06-.32,0-.58,0a4.94,4.94,0,0,0-.52,0,3.83,3.83,0,0,0-.52,0c-.26,0-.53.09-.58,0s.16-.25.46-.37a2.74,2.74,0,0,1,.63-.16,2.54,2.54,0,0,1,.63.13C968.71,303.81,968.93,304,968.88,304.06Z"/><path class="cls-23" d="M969.2,304.77s0-.1.06-.2a1.55,1.55,0,0,0,.21-.33.41.41,0,0,0,.07-.17c0-.05,0-.1,0-.13a.56.56,0,0,1,0-.12s0-.05,0-.13a1,1,0,0,0-.14-.31c-.15-.23-.38-.47-.32-.52s.37.08.65.31a1.11,1.11,0,0,1,.41.6,1.27,1.27,0,0,1,0,.24.94.94,0,0,1-.28.42,1.19,1.19,0,0,1-.39.28C969.31,304.77,969.22,304.8,969.2,304.77Z"/><path class="cls-19" d="M963.84,302.59c0-.19.77,1,2.13,1s3.22-.93,3.56.05-.65,1.28-2.12,1.43S963.86,304.14,963.84,302.59Z"/><path class="cls-18" d="M966.77,302.77c0,.14-.3.26-.66.25s-.65-.13-.65-.27.3-.27.66-.26S966.78,302.62,966.77,302.77Z"/><path class="cls-19" d="M973.62,301.09s.82-4.52,3.83-5.31c4.69-1.22,6.85,3.34,6.85,3.34A10.67,10.67,0,0,0,973.62,301.09Z"/><path class="cls-19" d="M975.61,296.91a9.39,9.39,0,0,0-2,4.18,10.59,10.59,0,0,1,3.22-1.95C975.71,298.93,975.57,297.82,975.61,296.91Z"/><path class="cls-19" d="M978.7,295.59c.39,1,.73,2.27.08,3a11,11,0,0,1,5.52.51S982.53,295.37,978.7,295.59Z"/><path class="cls-16" d="M973.4,301.71s2.09-3.7,4.9-4.1c3-.42,4.8,1.09,5.67.93a27.44,27.44,0,0,0,3.41-1.33s-2.44,3.55-4.56,3.13S978.34,298.37,973.4,301.71Z"/><path class="cls-19" d="M963.82,300.86s-.27-4.79-2.88-5.14a3,3,0,0,0-3.3,2.29A6.78,6.78,0,0,1,963.82,300.86Z"/><path class="cls-19" d="M961.8,296c-.18.84-.56,1.78-1.64,1.66-1.37-.14-1.12-1.17-.86-1.76a3.4,3.4,0,0,0-1.66,2.06,6.8,6.8,0,0,1,6.18,2.86S963.61,297.18,961.8,296Z"/><path class="cls-16" d="M964,301.63s-1.12-3.56-3.08-4.19-3.46.37-4.06.13a22.14,22.14,0,0,1-2.56-1.76s1.52,3.89,3.11,3.64S960.93,297.88,964,301.63Z"/><path class="cls-19" d="M964.11,306.72a1.91,1.91,0,0,1,2.75.57,2.1,2.1,0,0,1,1.89-.37,5,5,0,0,0,4.66.1s-3.17,3.91-6.44,3.53-1.2-2.28-1.2-2.28S963.84,307.57,964.11,306.72Z"/><path class="cls-16" d="M964.11,306.68a1.94,1.94,0,0,1,2.68.54,2.11,2.11,0,0,1,1.83-.33,5.16,5.16,0,0,0,4.52.11s-3.06,3.57-6.23,3.22-1.17-2.11-1.17-2.11S963.86,307.46,964.11,306.68Z"/><path class="cls-23" d="M973.4,306.58a1.81,1.81,0,0,1-.35.48,4.06,4.06,0,0,1-1.18.74,10.83,10.83,0,0,1-1.35.46l-.64.15-.65.1a9.14,9.14,0,0,1-1.46.09,3.28,3.28,0,0,1-.78-.07,2.39,2.39,0,0,1-.66-.14,2.57,2.57,0,0,1-.6-.23,3.06,3.06,0,0,1,.64.11,3.84,3.84,0,0,0,.65.08,4.64,4.64,0,0,0,.75,0,10.08,10.08,0,0,0,1.39-.16l.63-.13.63-.12a8.91,8.91,0,0,0,1.33-.38,4.54,4.54,0,0,0,1.19-.62C973.21,306.74,973.36,306.56,973.4,306.58Z"/><path class="cls-23" d="M975.08,307s-.07.08-.23.11a1.89,1.89,0,0,1-.59,0,2.39,2.39,0,0,1-.8-.26,1.2,1.2,0,0,1-.2-.15,1,1,0,0,1-.32-.45.59.59,0,0,1,.06-.51c.08-.12.16-.18.18-.17s0,.1,0,.21a.55.55,0,0,0,.06.39,1,1,0,0,0,.3.3l.18.11a2.47,2.47,0,0,0,.64.3A3.79,3.79,0,0,0,975.08,307Z"/><path class="cls-30" d="M973.1,307a5.1,5.1,0,0,1-4.48-.13,2.1,2.1,0,0,0-1.83.34,1.94,1.94,0,0,0-2.68-.54c-.25.78,1.62,1.43,1.62,1.43l0,0a6,6,0,0,0,3,.25A10.12,10.12,0,0,0,973.1,307Z"/><path class="cls-31" d="M968.93,309.27c0,.18-.35.35-.81.37s-.85-.1-.87-.28.35-.36.82-.38S968.92,309.08,968.93,309.27Z"/><path class="cls-23" d="M1000.25,301.87s0,.13-.13.32a4,4,0,0,1-.52.78,2.76,2.76,0,0,1-1.17.82,2.51,2.51,0,0,1-1.79,0,1.21,1.21,0,0,1-.62-.64,1,1,0,0,1-.09-.41,1.4,1.4,0,0,1,0-.4l.06-.3a2.09,2.09,0,0,1,.35,0,1.06,1.06,0,0,0,.36-.05,1.71,1.71,0,0,0,.55-.21,1.68,1.68,0,0,0,.59-.56c.1-.17.13-.26.12-.26a.89.89,0,0,0,.07-.27.53.53,0,0,0-.26-.55.48.48,0,0,0-.23-.09l-.13,0h-.32l-.32,0-.33,0c-.09,0-.27.07-.18-.07a2.8,2.8,0,0,1,.24-.54l.08-.14.06-.08.12-.15a5.88,5.88,0,0,1,.52-.6,8,8,0,0,1,2.38-1.79,1,1,0,0,1,.64-.07.44.44,0,0,1,.28.36c0,.22,0,.34,0,.34a2.94,2.94,0,0,1-.08-.32.35.35,0,0,0-.22-.24.76.76,0,0,0-.48.1,8.09,8.09,0,0,0-2.15,1.84,6.28,6.28,0,0,0-.47.58l-.1.15-.05.08h0a.14.14,0,0,1,0,.06h.51l.21,0a1,1,0,0,1,.38.14,1,1,0,0,1,.47.49,1.07,1.07,0,0,1,.07.47,1,1,0,0,1-.08.39l0,.09c0,.06-.08.15-.15.26a2.2,2.2,0,0,1-.8.7,2.55,2.55,0,0,1-.72.26,1.38,1.38,0,0,1-.2,0h-.18s0,0,0,0a.89.89,0,0,0,.41,1,2.15,2.15,0,0,0,1.46,0,2.54,2.54,0,0,0,1.11-.69C1000,302.3,1000.2,301.85,1000.25,301.87Z"/><path class="cls-16" d="M980.72,291.33c-.1.06-.51-.18-1-.27a6.18,6.18,0,0,0-.64-.08h-.29a6.34,6.34,0,0,0-1-.08c-.48,0-1,.09-1,0s.41-.34.95-.47a5.05,5.05,0,0,1,1.11-.12l.35.07a3.65,3.65,0,0,1,.72.25C980.48,290.87,980.8,291.27,980.72,291.33Z"/><path class="cls-16" d="M962.61,290.41c-.07.08-.57-.09-1.07-.09a4.54,4.54,0,0,0-1,.17l-.28.08a3.51,3.51,0,0,0-.63.23c-.43.22-.78.58-.88.54s.1-.52.53-.91A3.22,3.22,0,0,1,960,290l.36-.15a3.72,3.72,0,0,1,1.24,0C962.22,290,962.67,290.34,962.61,290.41Z"/><path class="cls-32" d="M967.06,294.62s-9.32-6.83-2-8.69S980.9,290.63,967.06,294.62Z"/><path class="cls-33" d="M996.75,315.78a2.68,2.68,0,0,0-.47-3.12,6.13,6.13,0,0,0-1.31-1.1c-.46-.31-.92-.57-1.36-.82a23.59,23.59,0,0,1-2.23-1.32,4.29,4.29,0,0,1-1.1-1.08,2.6,2.6,0,0,1-.26-.46.36.36,0,0,1-.07-.12c0-.09-.09-.21-.15-.36a3.29,3.29,0,0,1-.15-1.39,4.87,4.87,0,0,1,.74-2,22.47,22.47,0,0,1,1.64-2.28c.3-.4.61-.8.88-1.2a8.84,8.84,0,0,0,.78-1.27,7.09,7.09,0,0,0,.65-2,7.11,7.11,0,0,1-.7,1.41,7.81,7.81,0,0,1-.83,1.08c-.31.38-.64.73-1,1.11a22.27,22.27,0,0,0-1.94,2.3,6.3,6.3,0,0,0-1.11,2.49,4.58,4.58,0,0,0,.09,2c.07.23.14.41.19.54a1.16,1.16,0,0,0,.08.19l.1.18a5.11,5.11,0,0,0,.34.49,5.92,5.92,0,0,0,1.6,1.41,22.58,22.58,0,0,0,2.51,1.31,9.05,9.05,0,0,1,2.42,1.46,4.42,4.42,0,0,1,.39.47,2.17,2.17,0,0,1,.23.52,1.47,1.47,0,0,1-.06,1.05,3.35,3.35,0,0,1-1.62,1.55,8.55,8.55,0,0,1-2.29.7h-.06c-.1,0-.16,0-.15.08a2.89,2.89,0,0,0,1.57.09l.33-.1a4.27,4.27,0,0,0,.63-.27l.32-.16.3-.21a4.41,4.41,0,0,0,.58-.5A2.62,2.62,0,0,0,996.75,315.78Z"/><path class="cls-19" d="M1000.38,294.56c-2.87-.48-4.12.13-4.67.65,1.51-2.44,6.43-11.72-2.35-16.44-10.17-5.46-27.85-2.34-29.77-.42a12.09,12.09,0,0,0-2.29,2.25c-.24,1.45.24,4.07,4.73,7.28a12.74,12.74,0,0,0,13.3,1,8.88,8.88,0,0,0,6.47,1.42c4.2-.47,6.14,2.57,4.21,4.67s-4.65,1.71-4.62.11,1.91-.86,1.91-.86-2.07-1.44-3.16.67,2.13,3.75,7.39,3.12l.16,1.95s4.81-4.36,6.8-4.42a4.68,4.68,0,0,1,4.84,3.09C1003.48,296.64,1002.68,294.94,1000.38,294.56Z"/><path class="cls-26" d="M962.53,278.6c-.23.2-2.48,3.69,4.24,8.48a12.76,12.76,0,0,0,13.3,1,8.91,8.91,0,0,0,6.47,1.42c4.2-.47,6.13,2.57,4.2,4.66s-4.64,1.71-4.61.12,1.9-.86,1.9-.86-2.07-1.45-3.15.66,2.12,3.75,7.38,3.12l.17,1.95s4.81-4.36,6.8-4.42a3.92,3.92,0,0,1,4.32,3s8-6.21,5.5-11.9C1005.39,277.37,977.89,266,962.53,278.6Z"/><path class="cls-28" d="M1009.05,285.82c-.86-2-3-4.14-6.08-6.11a13.37,13.37,0,0,1-2.46.37c-.94-.26,1.89,4.43-.39,10.29s-10.41,5.39-9,4.48l.31-.21c1.29-.93,2.32-2.34,1.73-4s-3.15-3.28-8-3-9.6-7.08-9.6-7.08,1.32,4.87.17,5-4-5-4-5,1.47,5.84-3.35,5.67c-3.16-.12-5.28-3.28-6.43-5.51.1,1.51,1.08,3.75,4.78,6.39a12.74,12.74,0,0,0,13.29,1,9,9,0,0,0,6.48,1.42c4.2-.47,6.13,2.57,4.2,4.66s-4.65,1.71-4.61.12,1.9-.86,1.9-.86-2.07-1.45-3.16.66,2.13,3.75,7.39,3.12l.17,1.95s4.8-4.36,6.8-4.42a3.92,3.92,0,0,1,4.32,3S1011.52,291.51,1009.05,285.82Z"/><path class="cls-26" d="M963.45,283.43a5.33,5.33,0,0,1-1.14-1.85,9.29,9.29,0,0,1-.37-1.41l-.1-.66s0-.26,0-.66a7,7,0,0,1,.24-1.43,4.84,4.84,0,0,1,1-1.9c.08,0-.42,1-.61,2a9,9,0,0,0-.1,1.38c0,.37,0,.62,0,.62l0,.63a9.52,9.52,0,0,0,.23,1.37C963,282.47,963.53,283.38,963.45,283.43Z"/><path class="cls-26" d="M998.67,282.89a7.89,7.89,0,0,1,.72,1.28c.15.41.35.88.51,1.4.06.26.12.53.19.81l.09.41.05.43c0,.29,0,.57.08.85s0,.56,0,.83a7.05,7.05,0,0,1-.17,1.46c0,.22-.06.41-.11.58s-.11.32-.14.44l-.13.38-.13.38c-.11.24-.29.57-.49,1a7.13,7.13,0,0,1-2.32,2.48,9,9,0,0,1-3.29,1.46,5.59,5.59,0,0,1-1.21.13,1.54,1.54,0,0,1-.47-.06,10.62,10.62,0,0,0,1.62-.26,9.07,9.07,0,0,0,3.08-1.54,6.67,6.67,0,0,0,2.09-2.4c.18-.38.35-.7.44-.93s.12-.36.12-.36l.13-.37c0-.11.09-.25.14-.41s.08-.36.13-.56a7,7,0,0,0,.22-1.4c0-.26.05-.53.05-.8s0-.55,0-.83l0-.42c0-.13,0-.27-.07-.41l-.15-.8c-.12-.51-.28-1-.4-1.39A8.06,8.06,0,0,1,998.67,282.89Z"/><path class="cls-26" d="M993.25,284.36s.08.13.18.38.21.62.34,1.06a14.83,14.83,0,0,1,.52,3.29,8.62,8.62,0,0,1-.48,3.34,3.2,3.2,0,0,1-.27.59,2.07,2.07,0,0,1-.24.45l-.26.38a3.3,3.3,0,0,1-.3.35,5,5,0,0,1-1,.79l-.34.23-.41.19-.44.19c-.15.06-.32.09-.48.14A6,6,0,0,1,988,296a3.31,3.31,0,0,1-2-.67,1.48,1.48,0,0,1-.49-.77,1.49,1.49,0,0,1,.09-.77,1.06,1.06,0,0,1,.94-.76.7.7,0,0,1,.37.08c.07,0,.11.06.1.07a2,2,0,0,0-.46-.05.89.89,0,0,0-.73.71,1.08,1.08,0,0,0,.4,1.29,3,3,0,0,0,1.81.51,5.39,5.39,0,0,0,1.95-.31c.15-.05.31-.08.45-.14l.39-.19.36-.17.31-.22a4.92,4.92,0,0,0,.85-.73,1.93,1.93,0,0,0,.25-.33l.26-.33a3.54,3.54,0,0,0,.23-.41,2.82,2.82,0,0,0,.26-.55,8.36,8.36,0,0,0,.58-3.18,16.46,16.46,0,0,0-.32-3.27A10.44,10.44,0,0,1,993.25,284.36Z"/><path class="cls-26" d="M982.55,289a4.78,4.78,0,0,1-1.15-.29,8.13,8.13,0,0,1-2.24-1.21,9.73,9.73,0,0,1-1.65-1.78c-.2-.26-.32-.49-.43-.65l-.15-.25s-.21-.37-.48-.94a11.51,11.51,0,0,1-.71-2.17c0-.2-.06-.4-.09-.6a4,4,0,0,1,0-.59V280c0-.17,0-.34.07-.49a2.12,2.12,0,0,1,.22-.72c.07-.17.12-.26.14-.26s0,.11,0,.29a2.49,2.49,0,0,0-.1.7c0,.15,0,.31,0,.48s0,.35,0,.54a3.83,3.83,0,0,0,.09.56c.05.19.08.39.14.58a12.11,12.11,0,0,0,.8,2.07c.28.54.5.89.5.89l.14.24c.1.16.21.39.39.64a8.83,8.83,0,0,0,1.47,1.76,8.66,8.66,0,0,0,2,1.29A6.46,6.46,0,0,1,982.55,289Z"/><path class="cls-26" d="M980.35,288.54a3.89,3.89,0,0,1-.94-.15,13.15,13.15,0,0,1-2-.6,7.49,7.49,0,0,1-1.8-1l-.52-.42-.18-.16a8.44,8.44,0,0,1-.59-.65,10.58,10.58,0,0,1-1.1-1.54,5.89,5.89,0,0,1-.71-1.7,2,2,0,0,1-.06-.6c0-.14,0-.22,0-.22s0,.08.08.22a2.56,2.56,0,0,0,.16.55,7.09,7.09,0,0,0,.85,1.58,13.45,13.45,0,0,0,1.16,1.43c.35.37.61.6.61.6a7.56,7.56,0,0,0,2.24,1.6C978.91,288.08,980.39,288.46,980.35,288.54Z"/><path class="cls-26" d="M966.52,282.36a5.21,5.21,0,0,1-1.11-2.06,8.18,8.18,0,0,1-.22-1.57V278l.15-.71a8.1,8.1,0,0,1,.5-1.52,6,6,0,0,1,1.39-1.93c.07.05-.61,1-1,2.05a8.75,8.75,0,0,0-.35,1.47l-.1.68s0,.27,0,.67a9,9,0,0,0,.08,1.5C966,281.32,966.6,282.32,966.52,282.36Z"/><path class="cls-22" d="M924.6,266.88S946,270.07,962.35,275s16.29,4.89,23.69,8.15c9.65,4.26,11.74,1.42,27.68,4.61s31,6,31,6-23.9-11.7-37.11-17a19.4,19.4,0,0,1-3.14-17.55s6.91,6.74,8.17,6.74,7.13-3.72,7.13-3.72l6.71,3.72-6.08-7.27-4.19,3s-13.63-17.55-18.87-16.84S981.29,266.7,974.3,268.3C952.07,264,924.6,266.88,924.6,266.88Z"/><path class="cls-34" d="M994.43,272.19c7,1.2,11.06,5.22,13.49,4.73l-.28-.12a19.55,19.55,0,0,1-3.91-9.85c-5.53-4.33-10.56-5.75-20.59-6.4-3.15,3.9-6.26,7.15-8.84,7.75l.49.35C976.74,270,984.71,270.52,994.43,272.19Z"/><path class="cls-11" d="M964.75,273.63a19,19,0,0,0-2.56-.91S963.14,273.07,964.75,273.63Z"/><path class="cls-11" d="M1007.64,276.8a19.4,19.4,0,0,1-3.15-17.54s6.92,6.73,8.18,6.73,7.13-3.72,7.13-3.72l6.71,3.72-4.31-5.14c-1.37.14-2.54,1.42-3.71,1.24-.62-.09-.37-1,.22-2.13l-2.48,1.78-.1-.13.09.25c.72,1.89,1,.9-2.61,1.17-2.33.17-4.55-3.19-5.58-4.52-.68-.89-5-5.88-4.47-6.87-.3.51-.73.94-1.07,1.42-3.15,4.47-2.41,10-4.89,14.62a33,33,0,0,0-1.71,3.85c-.55,1.45-.12,1.48,1.37,2.26,2.83,1.49,9,5.9,2.83,7.71-6.34,1.86-27.9-5.28-35.34-7.86.76.35,1.3.75.9,1.09-.82.69-22.84-6.79-28.22-8.64-7.66.26-12.82.79-12.82.79s21.38,3.2,37.74,8.16,16.29,4.89,23.69,8.15c9.65,4.25,11.75,1.42,27.68,4.61s31,6,31,6S1020.85,282.12,1007.64,276.8Z"/><path class="cls-22" d="M1006.22,255.58s-.49.57-.87,1.19c-.17.32-.35.62-.45.87l-.17.41-.17.41a8.32,8.32,0,0,0-.3.92c-.18.68-.18,1.38-.24,1.39a3.3,3.3,0,0,1,0-1.43,6.55,6.55,0,0,1,.24-1c.08-.26.14-.43.14-.43l.21-.41a9.11,9.11,0,0,1,.55-.88A4,4,0,0,1,1006.22,255.58Z"/><path class="cls-22" d="M1017.86,262a1.26,1.26,0,0,1-.83.12,2.7,2.7,0,0,1-.82-.23,3.27,3.27,0,0,1-.63-.47c-.28-.27-.46-.59-.4-.62s.29.24.6.45a4.5,4.5,0,0,0,.63.36,2.92,2.92,0,0,0,.67.27C1017.45,262,1017.84,261.91,1017.86,262Z"/><path class="cls-22" d="M1022.26,261.56a5.26,5.26,0,0,0-.82-.22,1.72,1.72,0,0,0-.79.13,2.78,2.78,0,0,0-.72.36c-.34.24-.6.55-.65.53s.13-.39.45-.7a2.59,2.59,0,0,1,.77-.5,1.78,1.78,0,0,1,.3-.07,2,2,0,0,1,.68,0A1.19,1.19,0,0,1,1022.26,261.56Z"/><path class="cls-22" d="M1008,256.77c0,.05-.57.2-1.06.47a6.24,6.24,0,0,0-.9.64,7.3,7.3,0,0,0-.8.73,9.13,9.13,0,0,1-.7.82,2.42,2.42,0,0,1,.47-1,6,6,0,0,1,.76-.83,5.46,5.46,0,0,1,1-.6A3.13,3.13,0,0,1,1008,256.77Z"/><path class="cls-22" d="M980.27,279.24l-.63-.19-1.64-.54c-1.36-.44-3.13-1.11-4.92-1.77L966,274l-2.22-.83c-1.32-.53-3.13-1.12-4.92-1.75s-3.64-1.14-5-1.45l-1.69-.42a4.79,4.79,0,0,1-.63-.18,5.51,5.51,0,0,1,.65.11l1.71.37c1.43.26,3.26.84,5.11,1.35s3.64,1.17,5,1.68l2.23.81,7,2.8c1.77.68,3.52,1.39,4.87,1.87l1.61.6A4.51,4.51,0,0,1,980.27,279.24Z"/><path class="cls-22" d="M990.49,283.23a3.19,3.19,0,0,1-.71,0,6.38,6.38,0,0,1-1.54-.28,7.89,7.89,0,0,1-1.41-.62c-.36-.2-.58-.35-.58-.35l-.55-.38c-.32-.23-.75-.54-1.18-.83a12.9,12.9,0,0,0-1.28-.73,4.38,4.38,0,0,1-.61-.29,2.42,2.42,0,0,1,.68.18,9.2,9.2,0,0,1,1.37.65c.47.27.92.57,1.25.78l.56.36s.21.15.55.36a8.87,8.87,0,0,0,1.31.65,7.19,7.19,0,0,0,1.45.37A3,3,0,0,1,990.49,283.23Z"/><path class="cls-22" d="M1026.19,288.94a4.78,4.78,0,0,1-.6-.11l-1.56-.35c-1.29-.29-3-.74-4.7-1.17s-3.42-.84-4.74-1l-2.17-.36s-.22,0-.61-.08-.94-.12-1.6-.23c-1.32-.21-3.06-.56-4.8-.85a26,26,0,0,0-4.85-.41c-.33,0-.63,0-.9.05s-.51,0-.7.07l-.6.07a4.26,4.26,0,0,1,.59-.14c.19,0,.43-.07.7-.1a7.71,7.71,0,0,1,.91-.08,24.77,24.77,0,0,1,4.9.3c1.76.27,3.5.6,4.82.79.65.1,1.2.17,1.59.21l.6.07,2.19.39c1.33.19,3,.67,4.75,1.08s3.39.95,4.67,1.27l1.54.42A4.66,4.66,0,0,1,1026.19,288.94Z"/><path class="cls-11" d="M1002,248.53s-2.82-3.58-5.81-1.46-8,10.77-9,11.83,5.82,2.79,7.08.93,2.83-9.17,4.41-10S1002.29,249.73,1002,248.53Z"/><path class="cls-11" d="M989.86,273s-11.63-1.33-16.35-3.19-26.73-2.92-26-2.26,27.05,9.71,27.21,8.64-5-3.46-3.46-3.46S987.82,274.45,989.86,273Z"/><path class="cls-22" d="M996.74,248.89c.25.28.07.75-.41,1.07s-1.08.35-1.33.07-.06-.76.41-1.07A1.13,1.13,0,0,1,996.74,248.89Z"/><path class="cls-22" d="M994.46,250.87a.61.61,0,0,1,.3.84.75.75,0,0,1-.81.54.59.59,0,0,1-.3-.84A.74.74,0,0,1,994.46,250.87Z"/><path class="cls-22" d="M965.22,269.76c0,.35-.52.61-1.13.6S963,270,963,269.69s.52-.61,1.13-.6S965.24,269.41,965.22,269.76Z"/><path class="cls-22" d="M962,269.56c0,.27-.39.49-.86.48s-.86-.22-.86-.49.39-.49.86-.49S962,269.29,962,269.56Z"/><path class="cls-11" d="M985.45,263.36c1.28-.54,9.92.55,9.92.55a1.83,1.83,0,0,0-.32-.46,39,39,0,0,0-11-1.89c-2.58,3.19-5.13,5.86-7.24,6.35l.4.29c1.43,1,6.79,1.43,13.59,2.49-2.72-.76-8.35-2.36-9.22-2.86C980.42,267.18,984.16,263.91,985.45,263.36Z"/><path class="cls-6" d="M843.71,54.35a26,26,0,0,1,6,1.19,16.43,16.43,0,0,1,5.16,2.7,13.28,13.28,0,0,1,3.57,4.28,12,12,0,0,1,1.35,5.79,16.63,16.63,0,0,1-1.23,6.79,11.71,11.71,0,0,1-3.49,4.6,14.48,14.48,0,0,1-5.36,2.61,26.29,26.29,0,0,1-6.9.84H814.75a16.52,16.52,0,0,0,.84-3.25c.23-1.38.43-2.89.59-4.53s.28-3.37.36-5.19.14-3.58.2-5.28.09-3.25.11-4.68,0-2.59,0-3.49c0-1.85,0-4,0-6.54s-.11-5.08-.27-7.69-.4-5.17-.72-7.66a38.25,38.25,0,0,0-1.26-6.34,18.11,18.11,0,0,0,3.17.47c1.32.11,2.71.17,4.16.2s2.91,0,4.36,0h15a25.73,25.73,0,0,1,5.67.63,16.33,16.33,0,0,1,5,2,11.17,11.17,0,0,1,3.56,3.45,9,9,0,0,1,1.39,5.11,11.06,11.06,0,0,1-1,5,12.06,12.06,0,0,1-2.81,3.69,21.71,21.71,0,0,1-4.17,2.86Q846.5,53.14,843.71,54.35ZM830.78,29.92a35,35,0,0,0-1.19,5.44q-.48,3.21-.76,6.66t-.39,6.62c-.08,2.12-.12,3.86-.12,5.24l3.33.08q6.11,0,9.68-2.86t3.57-9.6a10.84,10.84,0,0,0-3.34-8.28q-3.33-3.15-10.78-3.32Zm-.16,52.51a25.41,25.41,0,0,0,6.7-1.3,17.12,17.12,0,0,0,5.28-2.9,13.27,13.27,0,0,0,3.48-4.36,12.42,12.42,0,0,0,1.27-5.71q0-6.19-3.52-9.8t-9.72-3.61h-5.79c0,1.85,0,4,.08,6.43s.16,4.94.31,7.53.39,5.09.68,7.5a38.43,38.43,0,0,0,1.23,6.2Z"/><path class="cls-6" d="M895.66,53.14a9.5,9.5,0,0,1-.4,3.89,4.82,4.82,0,0,1-1.66,2.34,6.53,6.53,0,0,1-2.74,1.15,18.11,18.11,0,0,1-3.53.32,5.59,5.59,0,0,1-2.58-.44A1.43,1.43,0,0,1,884,59a7,7,0,0,1,.71-2.42c.45-1,1-2.12,1.63-3.45.9-1.69,1-3.06.32-4.12a4,4,0,0,0-3.65-1.59A4.56,4.56,0,0,0,879.4,49a11,11,0,0,0-2.06,3.89q-.48,3.72-.64,8.13c-.1,2.93-.12,5.8,0,8.6a77.88,77.88,0,0,0,.6,7.78,21.63,21.63,0,0,0,1.42,5.71H863a16.85,16.85,0,0,0,1-3.81q.43-2.53.76-5.67c.21-2.09.36-4.3.47-6.62a64.49,64.49,0,0,0,0-6.67,49.63,49.63,0,0,0-.51-5.71,12.61,12.61,0,0,0-1.12-3.88,19.28,19.28,0,0,0,4-.56A28.3,28.3,0,0,0,871.27,49c1.19-.48,2.35-1,3.49-1.59l3.53-1.82a14,14,0,0,0-.36,1.82c-.13.9-.25,1.56-.36,2a8.83,8.83,0,0,1,7.86-4.13,13.42,13.42,0,0,1,3.57.48,10.55,10.55,0,0,1,3.17,1.43,8.28,8.28,0,0,1,2.38,2.41A7.44,7.44,0,0,1,895.66,53.14Z"/><path class="cls-6" d="M923.34,83.13a20.45,20.45,0,0,0,1.35-4.52,48.5,48.5,0,0,0,.71-5.24,30.61,30.61,0,0,1-1.66,3.09,22.45,22.45,0,0,1-2.1,2.94,18.75,18.75,0,0,1-2.46,2.42,10.25,10.25,0,0,1-2.74,1.63,8.87,8.87,0,0,1-2.18.43c-.87.08-1.68.12-2.42.12a11.65,11.65,0,0,1-5-1,10.79,10.79,0,0,1-3.68-2.82,12.17,12.17,0,0,1-2.27-4.24,18.44,18.44,0,0,1-.75-5.32c0-1.53,0-3.07.12-4.64s.12-3.1.12-4.63V58.69c0-1.08-.09-2.21-.2-3.37s-.25-2.26-.44-3.3a7.11,7.11,0,0,0-.83-2.49,46.77,46.77,0,0,0,7.46-1,27.5,27.5,0,0,0,7.06-2.45,12.59,12.59,0,0,0-.87,3.68c-.22,1.72-.39,3.55-.52,5.48s-.21,3.8-.24,5.63,0,3.16,0,4v4a46.55,46.55,0,0,0,.4,5.28A25.06,25.06,0,0,0,913.31,79a3.86,3.86,0,0,0,2.18,2.66,2.74,2.74,0,0,0,2.22-.44,11.68,11.68,0,0,0,2.78-2.26,26.53,26.53,0,0,0,2.77-3.49,23.48,23.48,0,0,0,2.3-4.2c.11-1.8.15-3.49.12-5.08s0-3.12,0-4.6V58.8c0-1.11-.09-2.24-.2-3.37a23.09,23.09,0,0,0-.51-3.3,8.87,8.87,0,0,0-.91-2.54,45.19,45.19,0,0,0,7.61-.91,26,26,0,0,0,7.06-2.57,21.41,21.41,0,0,0-.79,3.72c-.21,1.54-.39,3.14-.52,4.8s-.21,3.29-.24,4.88,0,2.88,0,3.89v4.52c0,1.8.12,3.63.28,5.51s.38,3.69.68,5.43a19.29,19.29,0,0,0,1.15,4.29Z"/><path class="cls-6" d="M958.8,46.09a9.27,9.27,0,0,0-.8,2.77c-.23,1.44-.38,2.9-.47,4.36-.11,1.64-.2,3.36-.28,5.16s-.12,3.54-.12,5.23v7.74q0,3.65.08,7.26c.06,2.41.08,4.82.08,7.25a18.41,18.41,0,0,1-.72,5.32,12.48,12.48,0,0,1-2.1,4.28A9.5,9.5,0,0,1,951,98.32a11.09,11.09,0,0,1-5,1,22.37,22.37,0,0,1-4-.36,10.26,10.26,0,0,1-3.45-1.27,7.91,7.91,0,0,1-2.5-2.42A7.46,7.46,0,0,1,935,91.39a2.13,2.13,0,0,1,.67-1.75,2.57,2.57,0,0,1,1.79-.71,2.42,2.42,0,0,1,1.63.59,1.75,1.75,0,0,1,.67,1.31,1.61,1.61,0,0,1-.36,1l-.75,1A5.47,5.47,0,0,0,938,94a2,2,0,0,0,.08,1.43,2.92,2.92,0,0,0,1.67,1.67,2.59,2.59,0,0,0,2.14.15,4.25,4.25,0,0,0,2.5-2.85,20.36,20.36,0,0,0,1.11-5.12,52.59,52.59,0,0,0,.28-5.47v-8c0-1.68.05-3.45.08-5.43s0-4,0-6.15-.1-4.14-.2-6.07a51,51,0,0,0-.52-5.2,14.3,14.3,0,0,0-.91-3.57,38.65,38.65,0,0,0,7.5-1A35.5,35.5,0,0,0,958.8,46.09Zm-7.06-3.81a5.92,5.92,0,0,1-4.41-1.83A6.14,6.14,0,0,1,945.55,36a6.26,6.26,0,0,1,1.82-4.48,5.93,5.93,0,0,1,4.37-1.86,5.76,5.76,0,0,1,4.32,1.86,6.43,6.43,0,0,1,0,8.88A5.74,5.74,0,0,1,951.74,42.28Z"/><path class="cls-6" d="M977.28,46.09a32.68,32.68,0,0,0-.92,4.91c-.23,2-.42,4.19-.55,6.55s-.21,4.8-.24,7.33,0,5,.2,7.26.38,4.42.67,6.35a18.17,18.17,0,0,0,1.23,4.64H961.93a16.86,16.86,0,0,0,1-3.89q.45-2.61.75-5.91c.21-2.19.37-4.51.48-6.94s.12-4.74,0-6.94a48.76,48.76,0,0,0-.52-5.91,12.68,12.68,0,0,0-1.11-4,41,41,0,0,0,7.66-.91A31.24,31.24,0,0,0,977.28,46.09ZM963.63,35.85a6.37,6.37,0,0,1,6.27-6.26,5.88,5.88,0,0,1,4.36,1.86,6,6,0,0,1,1.83,4.4,6.13,6.13,0,0,1-1.83,4.48,5.84,5.84,0,0,1-4.36,1.87,6,6,0,0,1-4.44-1.83A6.12,6.12,0,0,1,963.63,35.85Z"/><path class="cls-6" d="M1023.64,64a13.68,13.68,0,0,0,3.29,2.14,13,13,0,0,0,3.84,1.15,10.49,10.49,0,0,0,3.91-.16,8.87,8.87,0,0,0,3.6-1.7c0,1.9-.06,4-.19,6.19a21.74,21.74,0,0,1-1.23,6.18,9.34,9.34,0,0,1-3,4.41,8.1,8.1,0,0,1-4.31,1.86,6.88,6.88,0,0,1-7.43-5.16,21.88,21.88,0,0,1-1-3.92c-.26-1.51-.53-3.07-.79-4.68s-.59-3.21-1-4.8a16.15,16.15,0,0,0-1.7-4.28,10.48,10.48,0,0,0-2.89-3.22,8.73,8.73,0,0,0-4.55-1.54v3.84c0,1.5.08,3.14.16,4.88s.19,3.53.32,5.36.3,3.58.51,5.27.45,3.11.79,4.64a14.8,14.8,0,0,0,1.11,3.37,21.59,21.59,0,0,0-3.22-.36c-1.4-.07-2.91-.14-4.52-.19s-3.2-.1-4.76-.12-2.87,0-3.92,0a37.31,37.31,0,0,0,1.11-6.39c.31-2.88.56-6.11.75-9.67s.28-7.33.28-11.27-.07-7.67-.2-11.18-.36-6.65-.67-9.4a24.13,24.13,0,0,0-1.27-6h23.54a32.41,32.41,0,0,1,6.37.67,20.3,20.3,0,0,1,6,2.19,12.49,12.49,0,0,1,4.39,4,10.85,10.85,0,0,1,1.7,6.19c0,3.38-.86,6-2.57,7.93a15.57,15.57,0,0,1-6.41,4.24,30.47,30.47,0,0,1-8.23,1.71q-4.4.31-8,.32a9.61,9.61,0,0,1,2.69,1.11,17.89,17.89,0,0,1,2.61,1.86c.85.71,1.68,1.47,2.49,2.26S1022.85,63.27,1023.64,64Zm-10.92-33.87a29.17,29.17,0,0,0-1.26,5.55c-.32,2.22-.57,4.53-.75,6.9s-.32,4.73-.4,7-.12,4.25-.12,5.84a28.6,28.6,0,0,0,6.24-1,21,21,0,0,0,5.65-2.42,13.8,13.8,0,0,0,4.07-3.8,9.12,9.12,0,0,0,1.57-5.36,9.75,9.75,0,0,0-1.1-4.36,13.35,13.35,0,0,0-3.08-4,17,17,0,0,0-4.74-3,17.39,17.39,0,0,0-6.08-1.35Z"/><path class="cls-6" d="M1057.23,46.09a32.65,32.65,0,0,0-.91,4.91c-.24,2-.42,4.18-.56,6.55s-.21,4.8-.23,7.33,0,5,.19,7.26.39,4.42.68,6.35a18.17,18.17,0,0,0,1.23,4.64h-15.7a16.86,16.86,0,0,0,1-3.89q.43-2.61.76-5.91c.21-2.19.37-4.51.47-6.94s.12-4.74,0-6.94a53.14,53.14,0,0,0-.51-5.91,13,13,0,0,0-1.11-4,40.89,40.89,0,0,0,7.65-.91A30.68,30.68,0,0,0,1057.23,46.09Zm-13.64-10.24a6.35,6.35,0,0,1,6.26-6.26,5.9,5.9,0,0,1,4.37,1.86,6.07,6.07,0,0,1,1.82,4.4,6.16,6.16,0,0,1-1.82,4.48,5.86,5.86,0,0,1-4.37,1.87,6,6,0,0,1-4.44-1.83A6.17,6.17,0,0,1,1043.59,35.85Z"/><path class="cls-6" d="M1084.83,30.54a6,6,0,0,1,3.61,2.06,6.18,6.18,0,0,1,1.55,4.28,8,8,0,0,1-.91,3.89,3.27,3.27,0,0,1-2.74,1.82A3,3,0,0,1,1083,40l0-.37a3.81,3.81,0,0,1,.44-1.78c.29-.56.61-1.1,1-1.63a9.24,9.24,0,0,0,.83-1.55,2.38,2.38,0,0,0,.08-1.62,1.74,1.74,0,0,0-1.71-1.27,7.35,7.35,0,0,0-2.89.47,16.17,16.17,0,0,0-3,1.43,9.47,9.47,0,0,0-2,1.51c-.26,1.22-.5,2.74-.71,4.56s-.4,4.16-.56,7h7.57v.79h-7.54c-.16,3.23-.23,6.63-.23,10.2s.06,7,.19,10.27.36,6.25.68,8.92a24.86,24.86,0,0,0,1.35,6.15H1060.8a31.74,31.74,0,0,0,1.31-6.47q.51-4.24.75-9.28t.24-10.31c0-3.52-.08-6.67-.24-9.48h-1.93v-.79h1.82c-.1-1.43-.26-2.8-.47-4.13a16,16,0,0,0-1.19-4,17.48,17.48,0,0,0,7.53-1.31,45.78,45.78,0,0,0,5.67-3c1.72-1.09,3.39-2.05,5-2.9A9.56,9.56,0,0,1,1084.83,30.54Z"/><path class="cls-6" d="M1121.93,46.64a18.33,18.33,0,0,0-.76,4.09c-.18,1.87-.33,4-.43,6.34s-.14,4.84-.08,7.46.16,5.13.32,7.53a60,60,0,0,0,.75,6.55,18.35,18.35,0,0,0,1.2,4.44c-.9,0-1.77,0-2.62-.08s-1.69-.13-2.54-.24a41.4,41.4,0,0,0-6-.16c-1.66.11-3.24.27-4.72.48l-4.44.63a36.2,36.2,0,0,1-5,.32q-5.94,0-9.51-2.82t-3.57-8.92a12.62,12.62,0,0,1,.91-5.12,9.78,9.78,0,0,1,2.46-3.37,10.82,10.82,0,0,1,3.57-2.06,37.08,37.08,0,0,1,4.24-1.19c.69-.16,1.61-.34,2.78-.55s2.39-.48,3.68-.8a32.94,32.94,0,0,0,3.89-1.19,12,12,0,0,0,3.37-1.82v-2.3a14.64,14.64,0,0,0-.2-1.75,6.35,6.35,0,0,0-2-2.06,21.39,21.39,0,0,0-3.17-1.86,19.93,19.93,0,0,0-3.45-1.31,7.47,7.47,0,0,0-2.86-.32,2.3,2.3,0,0,0-1.42.87,2.86,2.86,0,0,0-.56,1.83,16.84,16.84,0,0,0,.24,2.65,11.1,11.1,0,0,1,.12,2.82,3.86,3.86,0,0,1-.91,2.26,3.65,3.65,0,0,1-2.86.91,3.93,3.93,0,0,1-3.25-1.46,5.65,5.65,0,0,1-1.19-3.69,7.11,7.11,0,0,1,1-4,6.68,6.68,0,0,1,2.66-2.34,10.4,10.4,0,0,1,3.61-1,17.83,17.83,0,0,1,4,0,20.89,20.89,0,0,1,3.69.79c1.19.37,2.38.77,3.57,1.19s2.35.81,3.49,1.15a17.7,17.7,0,0,0,3.45.68,8.73,8.73,0,0,0,2.5,0,10.37,10.37,0,0,0,2.06-.6,14.92,14.92,0,0,0,1.94-.91A18,18,0,0,1,1121.93,46.64Zm-14.57,34.71q.63-2.77,1.07-5.83c.3-2,.52-4.1.68-6.18s.25-4.14.27-6.15,0-3.91,0-5.71a10,10,0,0,1-2,1.47q-1.28.75-2.58,1.38l-2.46,1.19c-.76.37-1.33.66-1.7.88a13,13,0,0,0-4,3.52q-1.74,2.27-1.74,6.63a10.46,10.46,0,0,0,1,4.8,8.59,8.59,0,0,0,2.74,3.21,8.37,8.37,0,0,0,4,1.43A10.66,10.66,0,0,0,1107.36,81.35Z"/><path class="cls-6" d="M1155.43,56.48c-.74-.8-1.67-1.68-2.78-2.66a35.57,35.57,0,0,0-3.57-2.78,25.62,25.62,0,0,0-3.88-2.22,8.86,8.86,0,0,0-3.65-.91,3.27,3.27,0,0,0-2.22.59,2,2,0,0,0-.64,1.47,4.83,4.83,0,0,0,.44,1.87,8,8,0,0,0,1.07,1.78,51.37,51.37,0,0,0,4.52,4.92,40.55,40.55,0,0,0,5.16,4.28c1,.79,1.95,1.59,2.85,2.38a18.74,18.74,0,0,1,2.38,2.5,10.8,10.8,0,0,1,1.63,2.78,8.58,8.58,0,0,1,.59,3.21,9.46,9.46,0,0,1-1.07,4.72,9,9,0,0,1-2.89,3.17,13.16,13.16,0,0,1-4.29,1.83,21.7,21.7,0,0,1-5.15.59,9.4,9.4,0,0,1-2.58-.36,23.83,23.83,0,0,1-2.42-.83c-.79-.32-1.59-.66-2.38-1s-1.59-.71-2.38-1a10.31,10.31,0,0,0-4-.8,13.28,13.28,0,0,0-4,1,3.63,3.63,0,0,0,1-1.75,11.39,11.39,0,0,0,.4-2.38,20.85,20.85,0,0,0,0-2.5c-.06-.82-.11-1.54-.16-2.18a30.63,30.63,0,0,0,2.7,3.41,31.24,31.24,0,0,0,3.33,3.18,18.63,18.63,0,0,0,3.49,2.3,7.3,7.3,0,0,0,3.25.87,4.68,4.68,0,0,0,2.42-.68,2.25,2.25,0,0,0,1.15-2.1,6.38,6.38,0,0,0-1.27-3.88,20.07,20.07,0,0,0-3.17-3.41q-1.9-1.68-4.09-3.34a41.87,41.87,0,0,1-4.08-3.57,18.89,18.89,0,0,1-3.18-4.2,10.84,10.84,0,0,1-1.27-5.23,9.82,9.82,0,0,1,2.86-7.42,10.74,10.74,0,0,1,7.77-2.74,12.5,12.5,0,0,1,4.92.87,31.52,31.52,0,0,1,3.81,1.91c1.16.69,2.27,1.32,3.33,1.9a7,7,0,0,0,3.49.87,8.93,8.93,0,0,0,1.47-.15,9.11,9.11,0,0,0,1.47-.4,18.94,18.94,0,0,0-.4,3.09A21.46,21.46,0,0,0,1155.43,56.48Zm0,0c-.74-.8-1.67-1.7-2.78-2.7a34.83,34.83,0,0,0-3.57-2.82,25.62,25.62,0,0,0-3.88-2.22,8.86,8.86,0,0,0-3.65-.91,3.21,3.21,0,0,0-2.22.6,1.92,1.92,0,0,0-.64,1.46,4.83,4.83,0,0,0,.44,1.87,8,8,0,0,0,1.07,1.78,44.64,44.64,0,0,0,4.52,5,41.83,41.83,0,0,0,5.16,4.24c1,.8,1.95,1.59,2.85,2.38a18.74,18.74,0,0,1,2.38,2.5,10.86,10.86,0,0,1,1.63,2.82,8.82,8.82,0,0,1,.59,3.25,9.46,9.46,0,0,1-1.07,4.72,9,9,0,0,1-2.89,3.17,13.16,13.16,0,0,1-4.29,1.83,22.23,22.23,0,0,1-5.15.59,9.4,9.4,0,0,1-2.58-.36,23.83,23.83,0,0,1-2.42-.83c-.79-.32-1.59-.66-2.38-1s-1.59-.71-2.38-1a10.31,10.31,0,0,0-4-.8,13.28,13.28,0,0,0-4,1,3.63,3.63,0,0,0,1-1.75,11.39,11.39,0,0,0,.4-2.38,21.52,21.52,0,0,0,0-2.54c-.06-.84-.11-1.55-.16-2.14a30.63,30.63,0,0,0,2.7,3.41,31.24,31.24,0,0,0,3.33,3.18,18.63,18.63,0,0,0,3.49,2.3,7.3,7.3,0,0,0,3.25.87,4.68,4.68,0,0,0,2.42-.68,2.25,2.25,0,0,0,1.15-2.1,6.51,6.51,0,0,0-1.27-3.92,18.63,18.63,0,0,0-3.17-3.41q-1.9-1.64-4.09-3.3a38.72,38.72,0,0,1-4.08-3.61,20,20,0,0,1-3.18-4.2,10.55,10.55,0,0,1-1.27-5.19,9.8,9.8,0,0,1,2.86-7.46,10.82,10.82,0,0,1,7.77-2.7,12.5,12.5,0,0,1,4.92.87,31.52,31.52,0,0,1,3.81,1.91c1.16.69,2.27,1.32,3.33,1.9a7,7,0,0,0,3.49.87,6.58,6.58,0,0,0,1.47-.19,14.64,14.64,0,0,0,1.47-.44,22,22,0,0,0-.4,3.13A23.1,23.1,0,0,0,1155.43,56.48Z"/></g></g></svg>