<?xml version="1.0" encoding="utf-8"?>
<!-- Generator: Adobe Illustrator 25.2.1, SVG Export Plug-In . SVG Version: 6.00 Build 0)  -->
<svg version="1.1" id="Capa_1" xmlns="http://www.w3.org/2000/svg" xmlns:xlink="http://www.w3.org/1999/xlink" x="0px" y="0px"
	 viewBox="0 0 792 612" style="enable-background:new 0 0 792 612;" xml:space="preserve">
<style type="text/css">
	.st0{display:none;}
	.st1{display:inline;}
	.st2{fill:#FDCB67;}
	.st3{fill:#4C4B66;}
	.st4{display:inline;fill:#FDCB67;}
	.st5{fill:#020203;}
	.st6{fill:#FFFFFF;}
</style>
<g>
	<g class="st0">
		<g class="st1">
			<path class="st2" d="M-1910.24,366.18c0,0,4.76,10.5,7.47,13.12c2.72,2.63,13.38,7.02,13.38,7.02s-10.51,4.77-13.13,7.49
				c-2.62,2.71-7.03,13.38-7.03,13.38s-4.76-10.5-7.48-13.13c-2.71-2.62-13.38-7.02-13.38-7.02s10.5-4.76,13.14-7.48
				C-1914.64,376.84-1910.24,366.18-1910.24,366.18z"/>
			<path class="st2" d="M-1874.94,425.87c0,0,1.94,4.28,3.05,5.35c1.11,1.07,5.46,2.86,5.46,2.86s-4.28,1.94-5.35,3.05
				c-1.07,1.1-2.86,5.45-2.86,5.45s-1.94-4.28-3.05-5.35c-1.11-1.07-5.45-2.86-5.45-2.86s4.28-1.94,5.35-3.05
				C-1876.73,430.22-1874.94,425.87-1874.94,425.87z"/>
		</g>
	</g>
	<g>
		<g>
			<path class="st2" d="M-2185.86,465.98c2.11,0.16,4.18,0.57,6.18,1.22c2.01,0.65,3.77,1.57,5.29,2.77
				c1.52,1.19,2.74,2.66,3.66,4.39c0.92,1.74,1.38,3.72,1.38,5.94c0,2.71-0.42,5.03-1.26,6.96c-0.84,1.93-2.03,3.5-3.58,4.72
				c-1.54,1.22-3.38,2.11-5.49,2.68c-2.11,0.57-4.47,0.85-7.08,0.85h-28.8c0.32-0.81,0.61-1.93,0.85-3.34
				c0.25-1.41,0.45-2.96,0.61-4.64c0.16-1.68,0.28-3.46,0.37-5.33c0.08-1.87,0.15-3.67,0.2-5.41c0.05-1.73,0.09-3.34,0.12-4.8
				c0.03-1.46,0.04-2.66,0.04-3.58c0-1.9-0.01-4.14-0.04-6.71c-0.03-2.58-0.12-5.21-0.28-7.89c-0.16-2.69-0.41-5.3-0.73-7.85
				c-0.33-2.55-0.76-4.72-1.3-6.51c0.81,0.22,1.9,0.38,3.25,0.49c1.36,0.11,2.78,0.18,4.27,0.2c1.49,0.03,2.98,0.04,4.47,0.04
				c1.49,0,2.81,0,3.94,0h11.39c1.95,0,3.89,0.22,5.82,0.65c1.92,0.43,3.63,1.11,5.13,2.03c1.49,0.92,2.71,2.1,3.66,3.54
				c0.95,1.44,1.42,3.19,1.42,5.25c0,1.95-0.35,3.65-1.06,5.08c-0.7,1.44-1.67,2.7-2.89,3.78c-1.22,1.09-2.64,2.06-4.27,2.93
				C-2182.2,464.32-2183.97,465.16-2185.86,465.98z M-2199.12,440.92c-0.49,1.52-0.9,3.38-1.22,5.57c-0.32,2.2-0.58,4.47-0.77,6.83
				c-0.19,2.36-0.33,4.62-0.41,6.79c-0.08,2.17-0.12,3.96-0.12,5.37l3.42,0.08c4.18,0,7.48-0.98,9.92-2.93
				c2.44-1.95,3.66-5.23,3.66-9.84c0-3.52-1.14-6.36-3.42-8.5C-2190.34,442.15-2194.03,441.03-2199.12,440.92z M-2199.29,494.77
				c2.49-0.16,4.79-0.61,6.87-1.34c2.09-0.73,3.89-1.72,5.41-2.97c1.52-1.25,2.71-2.74,3.58-4.48c0.87-1.73,1.3-3.69,1.3-5.86
				c0-4.23-1.21-7.58-3.62-10.05c-2.41-2.47-5.74-3.7-9.97-3.7h-5.94c0,1.9,0.03,4.1,0.08,6.59c0.05,2.49,0.16,5.07,0.32,7.73
				c0.16,2.66,0.39,5.22,0.69,7.69C-2200.25,490.86-2199.83,492.98-2199.29,494.77z"/>
			<path class="st2" d="M-2132.58,464.75c0.11,1.63-0.03,2.96-0.41,3.99c-0.38,1.03-0.95,1.83-1.71,2.4
				c-0.76,0.57-1.7,0.96-2.81,1.18c-1.11,0.22-2.32,0.33-3.62,0.33c-1.25,0-2.13-0.15-2.64-0.45c-0.52-0.3-0.76-0.77-0.73-1.42
				c0.03-0.65,0.27-1.48,0.73-2.48c0.46-1,1.02-2.18,1.67-3.54c0.92-1.73,1.03-3.14,0.33-4.23c-0.71-1.08-1.95-1.63-3.74-1.63
				c-1.57,0-2.82,0.54-3.74,1.63c-0.92,1.09-1.63,2.41-2.11,3.99c-0.33,2.55-0.54,5.33-0.65,8.34c-0.11,3.01-0.12,5.95-0.04,8.83
				c0.08,2.87,0.29,5.53,0.61,7.97c0.33,2.44,0.81,4.39,1.46,5.86h-16.11c0.38-0.87,0.72-2.17,1.02-3.9s0.56-3.67,0.77-5.82
				c0.22-2.14,0.38-4.41,0.49-6.79c0.11-2.39,0.12-4.66,0.04-6.83c-0.08-2.17-0.26-4.12-0.53-5.86c-0.27-1.73-0.65-3.06-1.14-3.99
				c1.46-0.05,2.83-0.24,4.11-0.57c1.27-0.33,2.52-0.73,3.74-1.22c1.22-0.49,2.41-1.03,3.58-1.63c1.17-0.6,2.37-1.22,3.62-1.87
				c-0.11,0.33-0.23,0.95-0.37,1.87c-0.14,0.92-0.26,1.6-0.37,2.03c1.84-2.82,4.53-4.23,8.05-4.23c1.25,0,2.47,0.16,3.66,0.49
				c1.19,0.33,2.28,0.81,3.25,1.46c0.98,0.65,1.79,1.48,2.44,2.48C-2133.07,462.14-2132.69,463.34-2132.58,464.75z"/>
			<path class="st2" d="M-2104.19,495.5c0.6-1.35,1.06-2.9,1.38-4.64c0.33-1.74,0.57-3.52,0.73-5.37c-0.49,1.03-1.06,2.09-1.71,3.17
				c-0.65,1.09-1.37,2.09-2.15,3.01c-0.79,0.92-1.63,1.75-2.52,2.48s-1.83,1.29-2.81,1.67c-0.6,0.22-1.34,0.37-2.24,0.45
				c-0.9,0.08-1.72,0.12-2.48,0.12c-1.95,0-3.67-0.35-5.17-1.06c-1.49-0.7-2.75-1.67-3.78-2.89c-1.03-1.22-1.8-2.67-2.32-4.35
				c-0.52-1.68-0.77-3.5-0.77-5.45c0-1.57,0.04-3.16,0.12-4.76c0.08-1.6,0.12-3.18,0.12-4.76c0-0.7-0.01-1.61-0.04-2.73
				c-0.03-1.11-0.09-2.26-0.2-3.46c-0.11-1.19-0.26-2.32-0.45-3.38c-0.19-1.06-0.47-1.91-0.85-2.56c2.49-0.11,5.04-0.43,7.65-0.98
				c2.6-0.54,5.02-1.38,7.24-2.52c-0.38,0.76-0.68,2.02-0.9,3.78c-0.22,1.76-0.39,3.63-0.53,5.61c-0.14,1.98-0.22,3.9-0.24,5.78
				c-0.03,1.87-0.04,3.24-0.04,4.11c0,0.92,0.01,2.28,0.04,4.07c0.03,1.79,0.16,3.59,0.41,5.41c0.24,1.82,0.62,3.47,1.14,4.96
				c0.52,1.49,1.26,2.4,2.24,2.73c0.6,0.22,1.36,0.07,2.28-0.45c0.92-0.52,1.87-1.29,2.85-2.32c0.98-1.03,1.93-2.22,2.85-3.58
				c0.92-1.35,1.71-2.79,2.36-4.31c0.11-1.84,0.15-3.58,0.12-5.21c-0.03-1.63-0.04-3.2-0.04-4.72c0-0.76-0.01-1.71-0.04-2.85
				c-0.03-1.14-0.09-2.29-0.2-3.46c-0.11-1.17-0.28-2.29-0.53-3.38c-0.24-1.08-0.56-1.95-0.94-2.6c2.71-0.11,5.31-0.42,7.81-0.94
				c2.49-0.52,4.91-1.4,7.24-2.64c-0.33,0.98-0.6,2.25-0.81,3.82c-0.22,1.57-0.39,3.21-0.53,4.92c-0.14,1.71-0.22,3.38-0.25,5
				c-0.03,1.63-0.04,2.96-0.04,3.99c0,1.25,0.01,2.79,0.04,4.64c0.03,1.84,0.12,3.73,0.29,5.65c0.16,1.93,0.39,3.78,0.69,5.57
				c0.3,1.79,0.69,3.25,1.18,4.39H-2104.19z"/>
			<path class="st2" d="M-2067.83,457.51c-0.33,0.6-0.6,1.55-0.81,2.85c-0.22,1.3-0.38,2.79-0.49,4.48
				c-0.11,1.68-0.2,3.44-0.29,5.29c-0.08,1.84-0.12,3.63-0.12,5.37c0,1.74,0,3.31,0,4.72c0,1.41,0,2.49,0,3.25
				c0,2.49,0.03,4.98,0.08,7.44c0.05,2.47,0.08,4.95,0.08,7.44c0,1.95-0.24,3.77-0.73,5.45c-0.49,1.68-1.21,3.14-2.15,4.39
				c-0.95,1.25-2.14,2.22-3.58,2.93c-1.44,0.7-3.13,1.06-5.08,1.06c-1.41,0-2.78-0.12-4.11-0.37c-1.33-0.25-2.51-0.68-3.54-1.3
				c-1.03-0.62-1.88-1.45-2.56-2.48c-0.68-1.03-1.04-2.36-1.1-3.99c-0.05-0.7,0.18-1.3,0.69-1.79c0.52-0.49,1.13-0.73,1.83-0.73
				c0.65,0,1.21,0.2,1.67,0.61c0.46,0.41,0.69,0.85,0.69,1.34c0,0.38-0.12,0.73-0.37,1.06c-0.25,0.33-0.5,0.68-0.77,1.06
				c-0.27,0.38-0.49,0.78-0.65,1.22s-0.14,0.92,0.08,1.46c0.27,0.76,0.84,1.33,1.71,1.71c0.87,0.38,1.6,0.43,2.2,0.16
				c1.14-0.38,1.99-1.36,2.56-2.93c0.57-1.57,0.95-3.32,1.14-5.25c0.19-1.93,0.28-3.8,0.28-5.61s0-3.19,0-4.11
				c0-1.03,0.01-2.39,0.04-4.07c0.03-1.68,0.05-3.54,0.08-5.57c0.03-2.03,0.03-4.14,0-6.3c-0.03-2.17-0.1-4.24-0.2-6.22
				c-0.11-1.98-0.29-3.76-0.53-5.33c-0.24-1.57-0.56-2.79-0.94-3.66c2.6-0.11,5.17-0.46,7.69-1.06
				C-2072.51,459.44-2070.11,458.6-2067.83,457.51z M-2075.07,453.61c-1.79,0-3.29-0.62-4.51-1.87c-1.22-1.25-1.83-2.77-1.83-4.55
				c0-1.79,0.62-3.32,1.87-4.6c1.25-1.27,2.74-1.91,4.47-1.91s3.21,0.64,4.43,1.91c1.22,1.28,1.83,2.81,1.83,4.6
				c0,1.74-0.61,3.24-1.83,4.51C-2071.85,452.97-2073.33,453.61-2075.07,453.61z"/>
			<path class="st2" d="M-2048.87,457.51c-0.38,1.3-0.69,2.98-0.94,5.04c-0.24,2.06-0.43,4.3-0.57,6.71
				c-0.14,2.41-0.22,4.92-0.24,7.52c-0.03,2.6,0.04,5.08,0.2,7.44c0.16,2.36,0.39,4.53,0.69,6.51c0.3,1.98,0.72,3.57,1.26,4.76
				h-16.11c0.38-0.87,0.72-2.2,1.02-3.99c0.3-1.79,0.56-3.81,0.77-6.06c0.22-2.25,0.38-4.62,0.49-7.12s0.12-4.87,0.04-7.12
				c-0.08-2.25-0.26-4.27-0.53-6.06c-0.27-1.79-0.65-3.14-1.14-4.07c2.93-0.11,5.55-0.42,7.85-0.94
				C-2053.77,459.64-2051.37,458.76-2048.87,457.51z M-2062.87,447.02c0-1.74,0.64-3.24,1.91-4.52c1.28-1.27,2.78-1.91,4.52-1.91
				c1.73,0,3.23,0.64,4.47,1.91c1.25,1.28,1.87,2.78,1.87,4.52c0,1.79-0.62,3.32-1.87,4.6c-1.25,1.28-2.74,1.91-4.47,1.91
				c-1.79,0-3.31-0.62-4.56-1.87C-2062.24,450.41-2062.87,448.87-2062.87,447.02z"/>
			<path class="st2" d="M-2001.33,475.9c0.97,0.87,2.1,1.6,3.37,2.2c1.27,0.6,2.58,0.99,3.93,1.18c1.35,0.19,2.69,0.14,4.02-0.16
				c1.32-0.3,2.56-0.88,3.69-1.75c0,1.95-0.07,4.07-0.2,6.34c-0.13,2.28-0.55,4.39-1.26,6.34c-0.65,1.9-1.66,3.4-3.04,4.52
				c-1.38,1.11-2.85,1.75-4.42,1.91c-1.57,0.16-3.07-0.18-4.5-1.02c-1.43-0.84-2.48-2.26-3.12-4.27c-0.43-1.14-0.78-2.48-1.05-4.03
				c-0.27-1.55-0.54-3.14-0.81-4.8c-0.27-1.65-0.61-3.29-1.01-4.92c-0.41-1.63-0.99-3.09-1.75-4.39c-0.76-1.3-1.74-2.4-2.96-3.29
				c-1.22-0.9-2.77-1.42-4.66-1.59c0,1.08,0.01,2.4,0.04,3.94c0.03,1.55,0.08,3.21,0.16,5c0.08,1.79,0.19,3.62,0.32,5.49
				c0.14,1.87,0.31,3.67,0.53,5.41c0.22,1.74,0.49,3.32,0.81,4.76c0.32,1.44,0.7,2.59,1.13,3.46c-0.76-0.16-1.86-0.29-3.29-0.37
				c-1.44-0.08-2.98-0.15-4.64-0.2c-1.66-0.05-3.28-0.1-4.88-0.12c-1.6-0.03-2.94-0.04-4.03-0.04c0.43-1.41,0.81-3.59,1.14-6.55
				c0.33-2.96,0.58-6.26,0.77-9.92c0.19-3.66,0.29-7.51,0.29-11.55c0-4.04-0.07-7.86-0.2-11.47c-0.14-3.61-0.37-6.82-0.69-9.64
				c-0.33-2.82-0.76-4.88-1.3-6.18h24.14c2.11,0,4.29,0.23,6.53,0.69c2.24,0.46,4.29,1.21,6.12,2.24c1.84,1.03,3.34,2.41,4.5,4.15
				c1.16,1.74,1.75,3.85,1.75,6.35c0,3.47-0.88,6.18-2.64,8.13c-1.76,1.95-3.95,3.4-6.57,4.35c-2.62,0.95-5.44,1.53-8.44,1.75
				c-3,0.22-5.75,0.33-8.24,0.33c0.92,0.22,1.84,0.6,2.76,1.14c0.92,0.54,1.81,1.18,2.68,1.91c0.86,0.73,1.72,1.5,2.55,2.32
				C-2002.96,474.35-2002.14,475.14-2001.33,475.9z M-2012.52,441.16c-0.54,1.52-0.97,3.42-1.3,5.69c-0.32,2.28-0.58,4.64-0.77,7.08
				c-0.19,2.44-0.32,4.84-0.4,7.2c-0.08,2.36-0.12,4.35-0.12,5.98c2.11-0.11,4.24-0.46,6.4-1.06c2.16-0.6,4.09-1.42,5.79-2.48
				c1.7-1.06,3.09-2.36,4.17-3.91c1.08-1.55,1.62-3.38,1.62-5.49c0-1.46-0.38-2.96-1.13-4.48c-0.76-1.52-1.81-2.89-3.16-4.11
				c-1.35-1.22-2.97-2.24-4.86-3.05C-2008.18,441.73-2010.26,441.27-2012.52,441.16z"/>
			<path class="st2" d="M-1966.88,457.51c-0.38,1.3-0.69,2.98-0.94,5.04c-0.24,2.06-0.43,4.3-0.57,6.71
				c-0.14,2.41-0.22,4.92-0.24,7.52c-0.03,2.6,0.04,5.08,0.2,7.44c0.16,2.36,0.39,4.53,0.69,6.51c0.3,1.98,0.72,3.57,1.26,4.76
				h-16.11c0.38-0.87,0.72-2.2,1.02-3.99c0.3-1.79,0.56-3.81,0.77-6.06c0.22-2.25,0.38-4.62,0.49-7.12
				c0.11-2.49,0.12-4.87,0.04-7.12c-0.08-2.25-0.26-4.27-0.53-6.06c-0.27-1.79-0.65-3.14-1.14-4.07c2.93-0.11,5.55-0.42,7.85-0.94
				C-1971.77,459.64-1969.37,458.76-1966.88,457.51z M-1980.87,447.02c0-1.74,0.64-3.24,1.91-4.52c1.28-1.27,2.78-1.91,4.52-1.91
				c1.73,0,3.23,0.64,4.47,1.91c1.25,1.28,1.87,2.78,1.87,4.52c0,1.79-0.62,3.32-1.87,4.6c-1.25,1.28-2.74,1.91-4.47,1.91
				c-1.79,0-3.31-0.62-4.56-1.87C-1980.24,450.41-1980.87,448.87-1980.87,447.02z"/>
			<path class="st2" d="M-1938.57,441.57c1.41,0.22,2.64,0.92,3.7,2.12c1.06,1.19,1.59,2.66,1.59,4.39c0,1.52-0.31,2.85-0.94,3.99
				c-0.62,1.14-1.56,1.76-2.81,1.87c-1.03,0.11-1.87-0.15-2.52-0.77c-0.65-0.62-0.98-1.37-0.98-2.24c0-0.65,0.15-1.26,0.45-1.83
				c0.3-0.57,0.62-1.12,0.98-1.67c0.35-0.54,0.64-1.07,0.85-1.59c0.22-0.51,0.24-1.07,0.08-1.67c-0.27-0.81-0.85-1.25-1.75-1.3
				c-0.9-0.05-1.88,0.11-2.97,0.49c-1.09,0.38-2.11,0.87-3.09,1.46c-0.98,0.6-1.65,1.11-2.03,1.55c-0.27,1.25-0.52,2.81-0.73,4.68
				c-0.22,1.87-0.41,4.27-0.57,7.2h7.73v0.81h-7.73c-0.16,3.31-0.24,6.79-0.24,10.45c0,3.66,0.07,7.17,0.2,10.53
				c0.13,3.36,0.37,6.41,0.69,9.15c0.33,2.74,0.78,4.84,1.38,6.3h-15.94c0.54-1.52,0.99-3.73,1.34-6.63
				c0.35-2.9,0.61-6.07,0.77-9.52c0.16-3.44,0.25-6.97,0.25-10.57s-0.08-6.85-0.25-9.72h-1.95v-0.81h1.87
				c-0.11-1.46-0.27-2.87-0.49-4.23c-0.22-1.36-0.62-2.71-1.22-4.07c3.04,0.05,5.61-0.39,7.73-1.34c2.11-0.95,4.05-1.98,5.82-3.09
				s3.47-2.1,5.13-2.97C-1942.57,441.68-1940.68,441.35-1938.57,441.57z"/>
			<path class="st2" d="M-1900.58,458.08c-0.33,0.87-0.58,2.26-0.77,4.19c-0.19,1.93-0.34,4.1-0.45,6.51
				c-0.11,2.41-0.13,4.96-0.08,7.65c0.05,2.69,0.16,5.26,0.33,7.73c0.16,2.47,0.42,4.71,0.77,6.71c0.35,2.01,0.77,3.53,1.26,4.56
				c-0.92,0-1.82-0.03-2.69-0.08c-0.87-0.05-1.74-0.13-2.6-0.24c-2.39-0.22-4.43-0.27-6.14-0.16c-1.71,0.11-3.32,0.27-4.84,0.49
				c-1.52,0.22-3.04,0.43-4.55,0.65c-1.52,0.22-3.23,0.33-5.13,0.33c-4.07,0-7.32-0.96-9.76-2.89c-2.44-1.92-3.66-4.97-3.66-9.15
				c0-2.12,0.31-3.86,0.94-5.25c0.62-1.38,1.46-2.53,2.52-3.46c1.06-0.92,2.28-1.63,3.66-2.11c1.38-0.49,2.83-0.9,4.35-1.22
				c0.7-0.16,1.65-0.35,2.85-0.57c1.19-0.22,2.45-0.49,3.78-0.81c1.33-0.33,2.66-0.73,3.99-1.22c1.33-0.49,2.48-1.11,3.46-1.87
				c0-1.08-0.01-1.87-0.04-2.36c-0.03-0.49-0.09-1.08-0.2-1.79c-0.38-0.7-1.07-1.41-2.07-2.11c-1-0.7-2.09-1.34-3.25-1.91
				c-1.17-0.57-2.35-1.02-3.54-1.34c-1.19-0.33-2.17-0.43-2.93-0.33c-0.6,0.11-1.09,0.41-1.46,0.9c-0.38,0.49-0.57,1.11-0.57,1.87
				c0,0.81,0.08,1.72,0.24,2.73c0.16,1.01,0.2,1.97,0.12,2.89c-0.08,0.92-0.39,1.7-0.94,2.32c-0.54,0.63-1.52,0.94-2.93,0.94
				c-1.41,0-2.52-0.5-3.34-1.51c-0.81-1-1.22-2.26-1.22-3.78c0-1.68,0.35-3.05,1.06-4.11c0.7-1.06,1.61-1.86,2.73-2.4
				c1.11-0.54,2.35-0.88,3.7-1.02c1.35-0.13,2.71-0.12,4.07,0.04c1.3,0.16,2.56,0.43,3.78,0.81c1.22,0.38,2.44,0.79,3.66,1.22
				c1.22,0.44,2.41,0.83,3.58,1.18c1.17,0.35,2.35,0.58,3.54,0.69c0.98,0.11,1.83,0.1,2.56-0.04c0.73-0.13,1.44-0.34,2.12-0.61
				c0.68-0.27,1.34-0.58,1.99-0.94C-1902.04,458.83-1901.34,458.46-1900.58,458.08z M-1915.46,493.71c0.43-1.9,0.8-3.89,1.1-5.98
				c0.3-2.09,0.53-4.2,0.69-6.35c0.16-2.14,0.26-4.24,0.28-6.3c0.03-2.06,0.04-4.01,0.04-5.86c-0.49,0.49-1.17,0.99-2.03,1.51
				c-0.87,0.51-1.75,0.99-2.64,1.42c-0.9,0.43-1.74,0.84-2.52,1.22c-0.79,0.38-1.37,0.68-1.75,0.9c-1.57,0.87-2.96,2.07-4.15,3.62
				c-1.19,1.55-1.79,3.81-1.79,6.79c0,1.9,0.35,3.54,1.06,4.92c0.7,1.38,1.64,2.48,2.81,3.29c1.17,0.81,2.52,1.3,4.07,1.46
				C-1918.76,494.53-1917.14,494.31-1915.46,493.71z"/>
			<path class="st2" d="M-1866.17,468.17c-0.76-0.81-1.71-1.72-2.85-2.73c-1.14-1-2.36-1.95-3.66-2.85
				c-1.3-0.89-2.63-1.65-3.99-2.28c-1.36-0.62-2.6-0.94-3.74-0.94c-1.09,0-1.84,0.2-2.28,0.61c-0.44,0.41-0.65,0.91-0.65,1.5
				c0,0.6,0.15,1.23,0.45,1.91s0.66,1.29,1.1,1.83c1.3,1.63,2.85,3.31,4.64,5.04c1.79,1.74,3.55,3.2,5.29,4.39
				c1.03,0.81,2.01,1.63,2.93,2.44c0.92,0.81,1.74,1.67,2.44,2.56c0.7,0.9,1.26,1.84,1.67,2.85c0.41,1,0.61,2.1,0.61,3.29
				c0,1.9-0.37,3.51-1.1,4.84s-1.72,2.41-2.97,3.25c-1.25,0.84-2.71,1.46-4.39,1.87c-1.68,0.41-3.45,0.61-5.29,0.61
				c-0.92,0-1.8-0.12-2.64-0.37c-0.84-0.24-1.67-0.53-2.48-0.85c-0.81-0.33-1.63-0.68-2.44-1.06c-0.81-0.38-1.63-0.73-2.44-1.06
				c-1.57-0.6-2.96-0.87-4.15-0.81c-1.19,0.06-2.58,0.38-4.15,0.98c0.49-0.43,0.84-1.03,1.06-1.79c0.22-0.76,0.35-1.57,0.41-2.44
				c0.05-0.87,0.05-1.72,0-2.56c-0.05-0.84-0.11-1.59-0.16-2.24c0.76,1.14,1.68,2.31,2.77,3.5c1.08,1.19,2.22,2.28,3.42,3.25
				c1.19,0.98,2.39,1.76,3.58,2.36c1.19,0.6,2.3,0.9,3.34,0.9c0.87,0,1.69-0.23,2.48-0.69c0.79-0.46,1.18-1.18,1.18-2.16
				c0-1.46-0.43-2.79-1.3-3.99c-0.87-1.19-1.95-2.36-3.25-3.5s-2.7-2.28-4.19-3.42c-1.49-1.14-2.89-2.36-4.19-3.66
				c-1.3-1.3-2.39-2.74-3.25-4.31c-0.87-1.57-1.3-3.36-1.3-5.37c0-3.2,0.98-5.73,2.93-7.61c1.95-1.87,4.61-2.81,7.97-2.81
				c1.95,0,3.63,0.3,5.04,0.9c1.41,0.6,2.71,1.25,3.91,1.95c1.19,0.71,2.33,1.36,3.42,1.95c1.08,0.6,2.28,0.9,3.58,0.9
				c0.43,0,0.94-0.05,1.5-0.16c0.57-0.11,1.07-0.24,1.5-0.41c-0.22,1.03-0.35,2.09-0.41,3.17
				C-1866.3,466.08-1866.27,467.14-1866.17,468.17z M-1866.17,468.17c-0.76-0.81-1.71-1.74-2.85-2.77
				c-1.14-1.03-2.36-1.99-3.66-2.89c-1.3-0.9-2.63-1.65-3.99-2.28c-1.36-0.62-2.6-0.94-3.74-0.94c-1.09,0-1.84,0.2-2.28,0.61
				c-0.44,0.41-0.65,0.91-0.65,1.5c0,0.6,0.15,1.23,0.45,1.91c0.3,0.68,0.66,1.29,1.1,1.83c1.3,1.68,2.85,3.38,4.64,5.08
				c1.79,1.71,3.55,3.16,5.29,4.35c1.03,0.81,2.01,1.63,2.93,2.44c0.92,0.81,1.74,1.67,2.44,2.56c0.7,0.9,1.26,1.86,1.67,2.89
				c0.41,1.03,0.61,2.14,0.61,3.34c0,1.9-0.37,3.51-1.1,4.84s-1.72,2.41-2.97,3.25c-1.25,0.84-2.71,1.46-4.39,1.87
				c-1.68,0.41-3.45,0.61-5.29,0.61c-0.92,0-1.8-0.12-2.64-0.37c-0.84-0.24-1.67-0.53-2.48-0.85c-0.81-0.33-1.63-0.68-2.44-1.06
				c-0.81-0.38-1.63-0.73-2.44-1.06c-1.57-0.6-2.96-0.87-4.15-0.81c-1.19,0.06-2.58,0.38-4.15,0.98c0.49-0.43,0.84-1.03,1.06-1.79
				c0.22-0.76,0.35-1.57,0.41-2.44c0.05-0.87,0.05-1.74,0-2.6c-0.05-0.87-0.11-1.6-0.16-2.2c0.76,1.14,1.68,2.31,2.77,3.5
				c1.08,1.19,2.22,2.28,3.42,3.25c1.19,0.98,2.39,1.76,3.58,2.36c1.19,0.6,2.3,0.9,3.34,0.9c0.87,0,1.69-0.23,2.48-0.69
				c0.79-0.46,1.18-1.18,1.18-2.16c0-1.46-0.43-2.81-1.3-4.03c-0.87-1.22-1.95-2.39-3.25-3.5c-1.3-1.11-2.7-2.24-4.19-3.38
				c-1.49-1.14-2.89-2.37-4.19-3.7c-1.3-1.33-2.39-2.77-3.25-4.31c-0.87-1.55-1.3-3.32-1.3-5.33c0-3.25,0.98-5.8,2.93-7.65
				c1.95-1.84,4.61-2.77,7.97-2.77c1.95,0,3.63,0.3,5.04,0.9c1.41,0.6,2.71,1.25,3.91,1.95c1.19,0.71,2.33,1.36,3.42,1.95
				c1.08,0.6,2.28,0.9,3.58,0.9c0.43,0,0.94-0.07,1.5-0.2c0.57-0.13,1.07-0.28,1.5-0.45c-0.22,1.09-0.35,2.15-0.41,3.21
				C-1866.3,466.02-1866.27,467.09-1866.17,468.17z"/>
		</g>
	</g>
	<g class="st0">
		<g class="st1">
			<path class="st2" d="M-2009.62,287.15c9.49,0.69,18.75,2.42,27.76,5.18c9,2.76,16.92,6.67,23.74,11.73
				c6.81,5.06,12.29,11.27,16.44,18.63c4.14,7.37,6.21,15.76,6.21,25.19c0,11.51-1.89,21.34-5.66,29.5
				c-3.78,8.17-9.13,14.84-16.07,20.01c-6.94,5.18-15.16,8.97-24.65,11.39c-9.49,2.42-20.09,3.62-31.77,3.62h-129.28
				c1.46-3.45,2.74-8.16,3.83-14.15c1.1-5.98,2.01-12.54,2.74-19.67c0.73-7.13,1.28-14.67,1.64-22.6
				c0.37-7.94,0.67-15.58,0.91-22.95c0.24-7.36,0.42-14.15,0.55-20.36c0.12-6.21,0.18-11.27,0.18-15.18
				c0-8.05-0.06-17.54-0.18-28.47c-0.12-10.92-0.55-22.08-1.28-33.47c-0.73-11.39-1.83-22.48-3.29-33.3
				c-1.46-10.81-3.41-20.01-5.84-27.6c3.65,0.92,8.52,1.61,14.61,2.07c6.08,0.46,12.47,0.75,19.17,0.86
				c6.69,0.12,13.39,0.17,20.09,0.17c6.69,0,12.6,0,17.71,0h51.13c8.76,0,17.47,0.92,26.11,2.76c8.64,1.84,16.31,4.72,23.01,8.63
				c6.69,3.91,12.17,8.92,16.43,15.01c4.26,6.1,6.39,13.52,6.39,22.26c0,8.28-1.59,15.47-4.75,21.57
				c-3.17,6.1-7.49,11.45-12.96,16.05c-5.48,4.6-11.87,8.74-19.17,12.42C-1993.19,280.14-2001.1,283.7-2009.62,287.15z"/>
		</g>
		<g class="st1">
			<path class="st3" d="M-2031.86,308.8c3.18,2.83,6.84,5.22,10.98,7.16c4.15,1.95,8.43,3.23,12.84,3.85
				c4.41,0.62,8.78,0.44,13.1-0.53c4.32-0.97,8.34-2.87,12.04-5.71c0,6.37-0.22,13.27-0.66,20.7c-0.44,7.43-1.81,14.33-4.1,20.7
				c-2.12,6.2-5.43,11.1-9.92,14.73c-4.5,3.62-9.3,5.7-14.42,6.23c-5.11,0.53-10.01-0.58-14.68-3.32
				c-4.68-2.74-8.07-7.38-10.19-13.93c-1.41-3.72-2.56-8.09-3.44-13.14c-0.88-5.04-1.77-10.26-2.65-15.66
				c-0.88-5.39-1.99-10.75-3.31-16.05c-1.32-5.31-3.22-10.08-5.69-14.33c-2.47-4.25-5.69-7.83-9.65-10.75
				c-3.97-2.92-9.04-4.64-15.22-5.18c0,3.54,0.04,7.83,0.13,12.87c0.09,5.04,0.26,10.48,0.53,16.32c0.27,5.84,0.62,11.81,1.05,17.91
				c0.44,6.1,1.01,11.99,1.72,17.64c0.71,5.66,1.58,10.84,2.64,15.52c1.05,4.69,2.29,8.45,3.7,11.28
				c-2.48-0.53-6.06-0.93-10.75-1.19c-4.69-0.27-9.73-0.49-15.13-0.66c-5.4-0.18-10.7-0.31-15.92-0.4
				c-5.22-0.09-9.6-0.13-13.14-0.13c1.41-4.6,2.65-11.72,3.72-21.36c1.06-9.64,1.9-20.43,2.52-32.37
				c0.62-11.94,0.93-24.5,0.93-37.68c0-13.18-0.23-25.65-0.67-37.41c-0.44-11.76-1.19-22.24-2.25-31.44
				c-1.06-9.2-2.48-15.92-4.25-20.17h78.75c6.88,0,13.98,0.75,21.31,2.26c7.32,1.51,13.98,3.94,19.98,7.3
				c6,3.36,10.9,7.87,14.69,13.53c3.79,5.66,5.69,12.56,5.69,20.7c0,11.32-2.87,20.17-8.6,26.53c-5.74,6.37-12.88,11.1-21.44,14.2
				c-8.56,3.1-17.73,5-27.53,5.71c-9.79,0.71-18.74,1.06-26.86,1.06c3,0.71,5.99,1.95,9,3.72c3,1.77,5.91,3.85,8.73,6.24
				c2.82,2.39,5.6,4.91,8.33,7.56C-2037.2,303.75-2034.5,306.32-2031.86,308.8z M-2068.37,195.49c-1.76,4.96-3.17,11.14-4.23,18.57
				c-1.06,7.43-1.89,15.13-2.51,23.09c-0.62,7.96-1.05,15.79-1.32,23.48c-0.27,7.7-0.39,14.2-0.39,19.5
				c6.87-0.35,13.82-1.5,20.87-3.45c7.04-1.94,13.34-4.64,18.89-8.09c5.55-3.45,10.08-7.69,13.6-12.74
				c3.52-5.04,5.28-11.01,5.28-17.91c0-4.78-1.24-9.64-3.7-14.6c-2.47-4.95-5.9-9.42-10.3-13.4c-4.4-3.98-9.69-7.3-15.85-9.95
				C-2054.2,197.35-2060.98,195.85-2068.37,195.49z"/>
		</g>
	</g>
	<g class="st0">
		<path class="st4" d="M-2195.63,99.82c0,0,4.76,10.5,7.47,13.12c2.72,2.63,13.38,7.02,13.38,7.02s-10.51,4.77-13.12,7.49
			c-2.62,2.71-7.03,13.38-7.03,13.38s-4.76-10.5-7.48-13.13c-2.71-2.62-13.38-7.02-13.38-7.02s10.5-4.76,13.14-7.48
			C-2200.03,110.48-2195.63,99.82-2195.63,99.82z"/>
		<path class="st4" d="M-2160.33,159.51c0,0,1.94,4.28,3.05,5.35c1.11,1.07,5.46,2.86,5.46,2.86s-4.28,1.94-5.35,3.05
			c-1.07,1.1-2.86,5.45-2.86,5.45s-1.94-4.28-3.05-5.35c-1.11-1.07-5.45-2.86-5.45-2.86s4.28-1.94,5.35-3.05
			C-2162.12,163.86-2160.33,159.51-2160.33,159.51z"/>
	</g>
</g>
<g class="st0">
	<g class="st1">
		<path class="st3" d="M-1101.48,364.68c0,0,4.64,10.24,7.29,12.8c2.65,2.57,13.05,6.85,13.05,6.85s-10.24,4.65-12.8,7.3
			c-2.56,2.65-6.85,13.04-6.85,13.04s-4.64-10.24-7.29-12.8c-2.64-2.56-13.04-6.85-13.04-6.85s10.24-4.64,12.81-7.3
			C-1105.77,375.08-1101.48,364.68-1101.48,364.68z"/>
		<path class="st3" d="M-1067.06,422.88c0,0,1.89,4.18,2.97,5.22c1.08,1.05,5.32,2.79,5.32,2.79s-4.18,1.89-5.22,2.98
			c-1.04,1.08-2.79,5.32-2.79,5.32s-1.89-4.18-2.97-5.22c-1.08-1.04-5.32-2.79-5.32-2.79s4.17-1.89,5.22-2.97
			C-1068.81,427.12-1067.06,422.88-1067.06,422.88z"/>
	</g>
	<g class="st1">
		<g>
			<path class="st3" d="M-1370.22,461.98c2.06,0.16,4.07,0.56,6.03,1.19c1.96,0.64,3.68,1.54,5.16,2.7
				c1.48,1.16,2.67,2.59,3.57,4.28c0.9,1.69,1.35,3.62,1.35,5.79c0,2.65-0.41,4.91-1.23,6.78c-0.82,1.88-1.98,3.41-3.49,4.6
				c-1.51,1.19-3.29,2.06-5.35,2.62c-2.06,0.56-4.36,0.83-6.9,0.83h-28.08c0.32-0.79,0.59-1.88,0.83-3.25
				c0.24-1.37,0.44-2.88,0.6-4.52s0.28-3.37,0.36-5.2c0.08-1.82,0.15-3.58,0.2-5.28c0.05-1.69,0.09-3.25,0.12-4.68
				c0.03-1.43,0.04-2.59,0.04-3.49c0-1.85-0.01-4.03-0.04-6.54c-0.03-2.51-0.12-5.08-0.28-7.69c-0.16-2.62-0.4-5.17-0.71-7.65
				c-0.32-2.49-0.74-4.6-1.27-6.35c0.79,0.21,1.85,0.37,3.17,0.47c1.32,0.11,2.71,0.17,4.17,0.2c1.45,0.03,2.91,0.04,4.36,0.04
				c1.45,0,2.74,0,3.85,0h11.11c1.9,0,3.79,0.21,5.67,0.63c1.88,0.42,3.54,1.08,5,1.98c1.45,0.9,2.64,2.05,3.57,3.45
				c0.93,1.4,1.39,3.11,1.39,5.12c0,1.9-0.34,3.56-1.03,4.96c-0.69,1.4-1.63,2.63-2.81,3.69c-1.19,1.06-2.58,2.01-4.16,2.86
				C-1366.65,460.37-1368.37,461.19-1370.22,461.98z M-1383.15,437.55c-0.48,1.48-0.87,3.29-1.19,5.43
				c-0.32,2.14-0.57,4.36-0.75,6.66c-0.19,2.3-0.32,4.51-0.4,6.62c-0.08,2.12-0.12,3.86-0.12,5.23l3.33,0.08
				c4.07,0,7.3-0.95,9.68-2.85c2.38-1.9,3.57-5.1,3.57-9.6c0-3.44-1.11-6.2-3.33-8.29
				C-1374.59,438.76-1378.18,437.66-1383.15,437.55z M-1383.31,490.06c2.43-0.16,4.67-0.59,6.7-1.31s3.8-1.68,5.28-2.9
				c1.48-1.22,2.64-2.67,3.49-4.36c0.85-1.69,1.27-3.6,1.27-5.71c0-4.12-1.18-7.39-3.53-9.8c-2.35-2.4-5.59-3.61-9.72-3.61h-5.79
				c0,1.85,0.03,3.99,0.08,6.43c0.05,2.43,0.16,4.94,0.32,7.54c0.16,2.59,0.38,5.09,0.67,7.49
				C-1384.25,486.24-1383.84,488.32-1383.31,490.06z"/>
			<path class="st3" d="M-1318.27,460.79c0.1,1.59-0.03,2.88-0.4,3.89c-0.37,1-0.93,1.78-1.67,2.34c-0.74,0.56-1.65,0.94-2.74,1.15
				c-1.08,0.21-2.26,0.32-3.53,0.32c-1.22,0-2.08-0.15-2.58-0.44c-0.5-0.29-0.74-0.75-0.71-1.39c0.03-0.64,0.26-1.44,0.71-2.42
				c0.45-0.98,0.99-2.13,1.63-3.45c0.9-1.69,1-3.07,0.32-4.12c-0.69-1.06-1.9-1.59-3.65-1.59c-1.54,0-2.75,0.53-3.65,1.59
				c-0.9,1.06-1.59,2.35-2.06,3.89c-0.32,2.49-0.53,5.2-0.64,8.13c-0.11,2.93-0.12,5.8-0.04,8.61c0.08,2.8,0.28,5.39,0.59,7.77
				c0.32,2.38,0.79,4.28,1.43,5.71h-15.7c0.37-0.85,0.7-2.11,0.99-3.81c0.29-1.69,0.54-3.58,0.75-5.67c0.21-2.09,0.37-4.3,0.47-6.62
				c0.11-2.33,0.12-4.55,0.04-6.66c-0.08-2.11-0.25-4.02-0.51-5.71c-0.27-1.69-0.64-2.99-1.11-3.89c1.43-0.05,2.76-0.24,4.01-0.56
				c1.24-0.32,2.46-0.71,3.65-1.19c1.19-0.48,2.35-1,3.49-1.59c1.14-0.58,2.31-1.19,3.53-1.82c-0.11,0.32-0.23,0.93-0.36,1.82
				c-0.13,0.9-0.25,1.56-0.36,1.98c1.8-2.75,4.42-4.12,7.85-4.12c1.22,0,2.41,0.16,3.57,0.48c1.16,0.32,2.22,0.79,3.17,1.43
				c0.95,0.63,1.75,1.44,2.38,2.42C-1318.75,458.24-1318.38,459.42-1318.27,460.79z"/>
			<path class="st3" d="M-1290.59,490.78c0.58-1.32,1.03-2.83,1.35-4.52s0.56-3.44,0.71-5.23c-0.48,1-1.03,2.04-1.67,3.09
				c-0.63,1.06-1.34,2.04-2.1,2.93c-0.77,0.9-1.59,1.71-2.46,2.42c-0.87,0.71-1.78,1.26-2.74,1.63c-0.58,0.21-1.31,0.36-2.18,0.44
				c-0.87,0.08-1.68,0.12-2.42,0.12c-1.9,0-3.58-0.34-5.04-1.03c-1.46-0.69-2.68-1.63-3.69-2.82c-1.01-1.19-1.76-2.6-2.26-4.24
				c-0.5-1.64-0.75-3.41-0.75-5.32c0-1.53,0.04-3.08,0.12-4.64c0.08-1.56,0.12-3.11,0.12-4.64c0-0.69-0.01-1.57-0.04-2.66
				c-0.03-1.08-0.09-2.21-0.2-3.37c-0.11-1.16-0.25-2.26-0.44-3.29c-0.18-1.03-0.46-1.86-0.83-2.5c2.43-0.11,4.92-0.42,7.46-0.95
				c2.54-0.53,4.89-1.35,7.06-2.46c-0.37,0.74-0.66,1.97-0.87,3.69c-0.21,1.72-0.38,3.54-0.52,5.47c-0.13,1.93-0.21,3.81-0.24,5.63
				c-0.03,1.82-0.04,3.16-0.04,4.01c0,0.9,0.01,2.22,0.04,3.97c0.03,1.74,0.16,3.5,0.4,5.27c0.24,1.77,0.61,3.39,1.11,4.84
				c0.5,1.46,1.23,2.34,2.18,2.66c0.58,0.21,1.32,0.07,2.22-0.44c0.9-0.5,1.83-1.26,2.78-2.26c0.95-1,1.88-2.17,2.78-3.49
				c0.9-1.32,1.67-2.72,2.3-4.2c0.11-1.8,0.15-3.49,0.12-5.08c-0.03-1.59-0.04-3.12-0.04-4.6c0-0.74-0.01-1.67-0.04-2.78
				c-0.03-1.11-0.09-2.23-0.2-3.37c-0.11-1.14-0.28-2.23-0.52-3.29c-0.24-1.06-0.54-1.9-0.91-2.54c2.64-0.1,5.18-0.41,7.62-0.91
				c2.43-0.5,4.78-1.36,7.06-2.58c-0.32,0.95-0.58,2.19-0.79,3.73c-0.21,1.53-0.38,3.13-0.52,4.8c-0.13,1.67-0.21,3.29-0.24,4.88
				c-0.03,1.59-0.04,2.88-0.04,3.89c0,1.22,0.01,2.72,0.04,4.52c0.03,1.8,0.12,3.64,0.28,5.51c0.16,1.88,0.38,3.69,0.67,5.43
				c0.29,1.75,0.67,3.17,1.15,4.28H-1290.59z"/>
			<path class="st3" d="M-1255.13,453.74c-0.32,0.58-0.58,1.51-0.79,2.78c-0.21,1.27-0.37,2.72-0.47,4.36
				c-0.11,1.64-0.2,3.36-0.28,5.15c-0.08,1.8-0.12,3.54-0.12,5.23c0,1.69,0,3.23,0,4.6c0,1.38,0,2.43,0,3.17
				c0,2.43,0.03,4.85,0.08,7.26c0.05,2.41,0.08,4.83,0.08,7.26c0,1.9-0.24,3.68-0.71,5.32c-0.47,1.64-1.18,3.07-2.1,4.28
				c-0.93,1.22-2.09,2.17-3.49,2.86c-1.4,0.69-3.05,1.03-4.96,1.03c-1.38,0-2.71-0.12-4.01-0.36c-1.3-0.24-2.44-0.66-3.45-1.27
				c-1-0.61-1.84-1.41-2.5-2.42c-0.66-1.01-1.02-2.3-1.07-3.89c-0.05-0.69,0.17-1.27,0.67-1.74c0.5-0.48,1.1-0.71,1.78-0.71
				c0.63,0,1.18,0.2,1.63,0.59c0.45,0.4,0.67,0.83,0.67,1.31c0,0.37-0.12,0.71-0.36,1.03c-0.24,0.32-0.49,0.66-0.75,1.03
				c-0.26,0.37-0.48,0.77-0.64,1.19c-0.16,0.42-0.13,0.9,0.08,1.43c0.27,0.74,0.82,1.3,1.67,1.67c0.85,0.37,1.56,0.42,2.14,0.16
				c1.11-0.37,1.94-1.32,2.5-2.85c0.56-1.54,0.92-3.24,1.11-5.12c0.18-1.88,0.28-3.7,0.28-5.47c0-1.77,0-3.11,0-4.01
				c0-1,0.01-2.33,0.04-3.97c0.03-1.64,0.05-3.45,0.08-5.43c0.03-1.98,0.03-4.03,0-6.15c-0.03-2.11-0.09-4.14-0.2-6.07
				c-0.11-1.93-0.28-3.66-0.52-5.2c-0.24-1.53-0.54-2.72-0.91-3.57c2.54-0.1,5.04-0.45,7.5-1.03
				C-1259.7,455.61-1257.36,454.79-1255.13,453.74z M-1262.19,449.93c-1.74,0-3.21-0.61-4.4-1.83c-1.19-1.21-1.78-2.7-1.78-4.44
				c0-1.75,0.61-3.24,1.82-4.48c1.22-1.24,2.67-1.86,4.36-1.86c1.69,0,3.13,0.62,4.32,1.86c1.19,1.24,1.78,2.74,1.78,4.48
				c0,1.69-0.59,3.16-1.78,4.4C-1259.06,449.31-1260.5,449.93-1262.19,449.93z"/>
			<path class="st3" d="M-1236.65,453.74c-0.37,1.27-0.67,2.91-0.91,4.92c-0.24,2.01-0.42,4.19-0.56,6.54
				c-0.13,2.35-0.21,4.8-0.24,7.34c-0.03,2.54,0.04,4.96,0.2,7.26c0.16,2.3,0.38,4.42,0.67,6.35c0.29,1.93,0.7,3.48,1.23,4.64h-15.7
				c0.37-0.85,0.7-2.14,0.99-3.89c0.29-1.74,0.54-3.71,0.75-5.91c0.21-2.19,0.37-4.51,0.47-6.94c0.11-2.43,0.12-4.75,0.04-6.94
				c-0.08-2.19-0.25-4.16-0.51-5.91c-0.27-1.74-0.64-3.07-1.11-3.97c2.86-0.1,5.41-0.41,7.65-0.91
				C-1241.43,455.81-1239.09,454.95-1236.65,453.74z M-1250.3,443.5c0-1.69,0.62-3.16,1.86-4.4c1.24-1.24,2.71-1.86,4.4-1.86
				c1.69,0,3.15,0.62,4.36,1.86c1.22,1.24,1.82,2.71,1.82,4.4c0,1.75-0.61,3.24-1.82,4.48c-1.22,1.24-2.67,1.86-4.36,1.86
				c-1.75,0-3.23-0.61-4.44-1.82C-1249.69,446.81-1250.3,445.3-1250.3,443.5z"/>
			<path class="st3" d="M-1190.29,471.66c0.95,0.85,2.04,1.56,3.28,2.14c1.24,0.58,2.52,0.96,3.84,1.15
				c1.32,0.19,2.62,0.13,3.92-0.16c1.29-0.29,2.49-0.86,3.6-1.7c0,1.9-0.07,3.97-0.2,6.19s-0.54,4.28-1.23,6.19
				c-0.63,1.85-1.62,3.32-2.97,4.4c-1.34,1.08-2.78,1.7-4.31,1.86s-2.99-0.17-4.39-0.99c-1.4-0.82-2.41-2.21-3.05-4.16
				c-0.42-1.11-0.77-2.42-1.03-3.93c-0.26-1.51-0.53-3.07-0.79-4.68c-0.26-1.61-0.59-3.21-0.99-4.8c-0.4-1.59-0.96-3.01-1.7-4.28
				c-0.74-1.27-1.7-2.34-2.89-3.21c-1.19-0.87-2.7-1.39-4.55-1.55c0,1.06,0.01,2.34,0.04,3.85c0.03,1.51,0.08,3.13,0.16,4.88
				c0.08,1.75,0.18,3.53,0.32,5.35s0.3,3.58,0.51,5.27c0.21,1.69,0.47,3.24,0.79,4.64c0.31,1.4,0.69,2.53,1.11,3.37
				c-0.74-0.16-1.81-0.28-3.21-0.36c-1.4-0.08-2.91-0.15-4.52-0.2c-1.61-0.05-3.2-0.09-4.76-0.12c-1.56-0.03-2.87-0.04-3.93-0.04
				c0.42-1.37,0.79-3.5,1.11-6.39c0.32-2.88,0.57-6.11,0.75-9.68c0.18-3.57,0.28-7.32,0.28-11.26c0-3.94-0.07-7.67-0.2-11.18
				c-0.13-3.52-0.36-6.65-0.67-9.4c-0.32-2.75-0.74-4.76-1.27-6.03h23.54c2.06,0,4.18,0.23,6.37,0.67c2.19,0.45,4.18,1.18,5.97,2.18
				c1.79,1,3.26,2.35,4.39,4.04c1.13,1.69,1.7,3.76,1.7,6.19c0,3.38-0.86,6.03-2.57,7.93c-1.71,1.9-3.85,3.32-6.41,4.24
				c-2.56,0.93-5.3,1.5-8.23,1.71c-2.93,0.21-5.6,0.32-8.03,0.32c0.9,0.21,1.79,0.58,2.69,1.11c0.9,0.53,1.77,1.15,2.61,1.86
				c0.84,0.71,1.67,1.47,2.49,2.26C-1191.89,470.15-1191.08,470.92-1190.29,471.66z M-1201.21,437.79
				c-0.53,1.48-0.95,3.33-1.26,5.55c-0.32,2.22-0.57,4.52-0.75,6.9c-0.18,2.38-0.32,4.72-0.39,7.02c-0.08,2.3-0.12,4.24-0.12,5.83
				c2.05-0.11,4.13-0.45,6.24-1.03c2.11-0.58,3.99-1.39,5.65-2.42c1.66-1.03,3.01-2.3,4.07-3.81c1.05-1.51,1.58-3.29,1.58-5.35
				c0-1.43-0.37-2.88-1.1-4.36c-0.74-1.48-1.76-2.81-3.08-4.01c-1.32-1.19-2.9-2.18-4.74-2.97
				C-1196.97,438.35-1199,437.9-1201.21,437.79z"/>
			<path class="st3" d="M-1156.7,453.74c-0.37,1.27-0.67,2.91-0.91,4.92c-0.24,2.01-0.42,4.19-0.56,6.54
				c-0.13,2.35-0.21,4.8-0.24,7.34c-0.03,2.54,0.04,4.96,0.2,7.26c0.16,2.3,0.38,4.42,0.67,6.35c0.29,1.93,0.7,3.48,1.23,4.64h-15.7
				c0.37-0.85,0.7-2.14,0.99-3.89c0.29-1.74,0.54-3.71,0.75-5.91c0.21-2.19,0.37-4.51,0.47-6.94c0.11-2.43,0.12-4.75,0.04-6.94
				c-0.08-2.19-0.25-4.16-0.51-5.91c-0.27-1.74-0.64-3.07-1.11-3.97c2.86-0.1,5.41-0.41,7.66-0.91
				C-1161.47,455.81-1159.13,454.95-1156.7,453.74z M-1170.34,443.5c0-1.69,0.62-3.16,1.86-4.4c1.24-1.24,2.71-1.86,4.4-1.86
				c1.69,0,3.15,0.62,4.36,1.86c1.22,1.24,1.82,2.71,1.82,4.4c0,1.75-0.61,3.24-1.82,4.48c-1.22,1.24-2.67,1.86-4.36,1.86
				c-1.75,0-3.23-0.61-4.44-1.82C-1169.73,446.81-1170.34,445.3-1170.34,443.5z"/>
			<path class="st3" d="M-1129.1,438.19c1.37,0.21,2.58,0.9,3.61,2.06c1.03,1.16,1.55,2.59,1.55,4.28c0,1.48-0.3,2.78-0.91,3.89
				c-0.61,1.11-1.52,1.72-2.74,1.82c-1.01,0.11-1.82-0.15-2.46-0.75c-0.63-0.61-0.95-1.33-0.95-2.18c0-0.64,0.15-1.23,0.44-1.78
				s0.61-1.1,0.95-1.63c0.34-0.53,0.62-1.04,0.83-1.55c0.21-0.5,0.24-1.04,0.08-1.63c-0.27-0.79-0.83-1.21-1.71-1.27
				c-0.87-0.05-1.84,0.11-2.9,0.48c-1.06,0.37-2.06,0.85-3.01,1.43c-0.95,0.58-1.61,1.08-1.98,1.51c-0.26,1.22-0.5,2.74-0.71,4.56
				s-0.4,4.16-0.56,7.02h7.54v0.79h-7.54c-0.16,3.23-0.24,6.62-0.24,10.19s0.07,6.99,0.2,10.27c0.13,3.28,0.36,6.25,0.67,8.92
				c0.32,2.67,0.77,4.72,1.35,6.15h-15.55c0.53-1.48,0.96-3.63,1.31-6.46c0.34-2.83,0.59-5.92,0.75-9.28
				c0.16-3.36,0.24-6.79,0.24-10.31c0-3.52-0.08-6.67-0.24-9.48h-1.9v-0.79h1.82c-0.11-1.43-0.26-2.8-0.48-4.12
				s-0.61-2.64-1.19-3.97c2.96,0.05,5.47-0.38,7.54-1.31c2.06-0.92,3.95-1.93,5.67-3.01s3.38-2.05,5-2.9
				C-1133,438.3-1131.16,437.98-1129.1,438.19z"/>
			<path class="st3" d="M-1092.05,454.29c-0.32,0.85-0.57,2.21-0.75,4.09c-0.19,1.88-0.33,3.99-0.44,6.35
				c-0.11,2.35-0.13,4.84-0.08,7.46c0.05,2.62,0.16,5.13,0.32,7.54c0.16,2.41,0.41,4.59,0.75,6.54c0.34,1.96,0.75,3.44,1.23,4.44
				c-0.9,0-1.77-0.03-2.62-0.08c-0.85-0.05-1.69-0.13-2.54-0.24c-2.33-0.21-4.32-0.26-5.99-0.16c-1.67,0.11-3.24,0.26-4.72,0.48
				c-1.48,0.21-2.96,0.42-4.44,0.63c-1.48,0.21-3.15,0.32-5,0.32c-3.97,0-7.14-0.94-9.52-2.82c-2.38-1.88-3.57-4.85-3.57-8.92
				c0-2.06,0.3-3.77,0.91-5.12c0.61-1.35,1.43-2.47,2.46-3.37c1.03-0.9,2.22-1.59,3.57-2.06c1.35-0.48,2.76-0.87,4.24-1.19
				c0.69-0.16,1.61-0.34,2.78-0.56c1.16-0.21,2.39-0.48,3.69-0.79c1.29-0.32,2.59-0.71,3.89-1.19c1.29-0.48,2.42-1.08,3.37-1.82
				c0-1.06-0.01-1.82-0.04-2.3c-0.03-0.48-0.09-1.06-0.2-1.75c-0.37-0.69-1.05-1.37-2.02-2.06c-0.98-0.69-2.04-1.31-3.17-1.86
				c-1.14-0.56-2.29-0.99-3.45-1.31c-1.16-0.32-2.12-0.42-2.86-0.32c-0.58,0.11-1.06,0.4-1.43,0.87c-0.37,0.48-0.56,1.08-0.56,1.82
				c0,0.79,0.08,1.68,0.24,2.66c0.16,0.98,0.2,1.92,0.12,2.82c-0.08,0.9-0.38,1.65-0.91,2.26c-0.53,0.61-1.48,0.91-2.86,0.91
				s-2.46-0.49-3.25-1.47c-0.79-0.98-1.19-2.21-1.19-3.69c0-1.64,0.34-2.98,1.03-4.01c0.69-1.03,1.57-1.81,2.66-2.34
				c1.08-0.53,2.29-0.86,3.61-0.99c1.32-0.13,2.64-0.12,3.97,0.04c1.27,0.16,2.5,0.42,3.69,0.79c1.19,0.37,2.38,0.77,3.57,1.19
				c1.19,0.43,2.35,0.81,3.49,1.15c1.14,0.34,2.29,0.57,3.45,0.67c0.95,0.11,1.78,0.09,2.5-0.04c0.71-0.13,1.4-0.33,2.06-0.59
				c0.66-0.26,1.31-0.57,1.94-0.91C-1093.48,455.02-1092.79,454.66-1092.05,454.29z M-1106.57,489.03c0.42-1.85,0.78-3.79,1.07-5.83
				c0.29-2.04,0.52-4.1,0.67-6.19c0.16-2.09,0.25-4.14,0.28-6.15c0.03-2.01,0.04-3.91,0.04-5.71c-0.47,0.48-1.14,0.97-1.98,1.47
				c-0.85,0.5-1.7,0.97-2.58,1.39c-0.87,0.42-1.69,0.82-2.46,1.19c-0.77,0.37-1.34,0.66-1.7,0.87c-1.54,0.85-2.88,2.02-4.05,3.53
				c-1.16,1.51-1.74,3.72-1.74,6.62c0,1.85,0.34,3.45,1.03,4.8c0.69,1.35,1.6,2.42,2.74,3.21c1.14,0.79,2.46,1.27,3.97,1.43
				C-1109.78,489.83-1108.21,489.61-1106.57,489.03z"/>
			<path class="st3" d="M-1058.5,464.13c-0.74-0.79-1.67-1.68-2.78-2.66c-1.11-0.98-2.3-1.9-3.57-2.78
				c-1.27-0.87-2.57-1.61-3.89-2.22c-1.32-0.61-2.54-0.91-3.65-0.91c-1.06,0-1.8,0.2-2.22,0.59c-0.43,0.4-0.64,0.89-0.64,1.47
				c0,0.58,0.15,1.2,0.44,1.86s0.65,1.26,1.07,1.78c1.27,1.59,2.78,3.23,4.52,4.92c1.74,1.69,3.46,3.12,5.15,4.28
				c1,0.79,1.96,1.59,2.86,2.38c0.9,0.79,1.69,1.63,2.38,2.5c0.69,0.87,1.23,1.8,1.63,2.78c0.4,0.98,0.59,2.05,0.59,3.21
				c0,1.85-0.36,3.42-1.07,4.72c-0.71,1.3-1.68,2.35-2.9,3.17c-1.22,0.82-2.65,1.43-4.28,1.83c-1.64,0.4-3.36,0.59-5.16,0.59
				c-0.9,0-1.76-0.12-2.58-0.36c-0.82-0.24-1.63-0.52-2.42-0.83c-0.79-0.32-1.59-0.66-2.38-1.03c-0.79-0.37-1.59-0.71-2.38-1.03
				c-1.54-0.58-2.88-0.85-4.05-0.79c-1.16,0.05-2.51,0.37-4.04,0.95c0.47-0.42,0.82-1,1.03-1.75c0.21-0.74,0.34-1.53,0.4-2.38
				c0.05-0.85,0.05-1.68,0-2.5c-0.05-0.82-0.11-1.55-0.16-2.18c0.74,1.11,1.64,2.25,2.7,3.41c1.06,1.16,2.17,2.22,3.33,3.17
				c1.16,0.95,2.33,1.72,3.49,2.3c1.16,0.58,2.25,0.87,3.25,0.87c0.85,0,1.65-0.22,2.42-0.67c0.77-0.45,1.15-1.15,1.15-2.1
				c0-1.43-0.42-2.72-1.27-3.89c-0.85-1.16-1.9-2.3-3.17-3.41s-2.63-2.22-4.09-3.33c-1.46-1.11-2.81-2.3-4.08-3.57
				c-1.27-1.27-2.33-2.67-3.17-4.2c-0.85-1.53-1.27-3.28-1.27-5.23c0-3.12,0.95-5.59,2.86-7.42c1.9-1.83,4.49-2.74,7.77-2.74
				c1.9,0,3.54,0.29,4.92,0.87c1.37,0.58,2.64,1.22,3.81,1.9c1.16,0.69,2.27,1.32,3.33,1.9c1.06,0.58,2.22,0.87,3.49,0.87
				c0.42,0,0.91-0.05,1.47-0.16c0.56-0.1,1.04-0.24,1.47-0.4c-0.21,1.01-0.34,2.04-0.4,3.09
				C-1058.63,462.09-1058.61,463.12-1058.5,464.13z M-1058.5,464.13c-0.74-0.79-1.67-1.69-2.78-2.7s-2.3-1.94-3.57-2.82
				c-1.27-0.87-2.57-1.61-3.89-2.22c-1.32-0.61-2.54-0.91-3.65-0.91c-1.06,0-1.8,0.2-2.22,0.6c-0.43,0.4-0.64,0.89-0.64,1.47
				c0,0.58,0.15,1.2,0.44,1.86c0.29,0.66,0.65,1.26,1.07,1.78c1.27,1.64,2.78,3.29,4.52,4.96c1.74,1.67,3.46,3.08,5.15,4.24
				c1,0.79,1.96,1.59,2.86,2.38c0.9,0.79,1.69,1.63,2.38,2.5c0.69,0.87,1.23,1.81,1.63,2.81c0.4,1.01,0.59,2.09,0.59,3.25
				c0,1.85-0.36,3.42-1.07,4.72c-0.71,1.3-1.68,2.35-2.9,3.17c-1.22,0.82-2.65,1.43-4.28,1.83c-1.64,0.4-3.36,0.59-5.16,0.59
				c-0.9,0-1.76-0.12-2.58-0.36c-0.82-0.24-1.63-0.52-2.42-0.83c-0.79-0.32-1.59-0.66-2.38-1.03c-0.79-0.37-1.59-0.71-2.38-1.03
				c-1.54-0.58-2.88-0.85-4.05-0.79c-1.16,0.05-2.51,0.37-4.04,0.95c0.47-0.42,0.82-1,1.03-1.75c0.21-0.74,0.34-1.53,0.4-2.38
				c0.05-0.85,0.05-1.69,0-2.54c-0.05-0.85-0.11-1.56-0.16-2.14c0.74,1.11,1.64,2.25,2.7,3.41c1.06,1.16,2.17,2.22,3.33,3.17
				c1.16,0.95,2.33,1.72,3.49,2.3c1.16,0.58,2.25,0.87,3.25,0.87c0.85,0,1.65-0.22,2.42-0.67c0.77-0.45,1.15-1.15,1.15-2.1
				c0-1.43-0.42-2.74-1.27-3.93c-0.85-1.19-1.9-2.33-3.17-3.41c-1.27-1.08-2.63-2.18-4.09-3.29c-1.46-1.11-2.81-2.31-4.08-3.61
				c-1.27-1.29-2.33-2.7-3.17-4.2c-0.85-1.51-1.27-3.24-1.27-5.2c0-3.17,0.95-5.66,2.86-7.46c1.9-1.8,4.49-2.7,7.77-2.7
				c1.9,0,3.54,0.29,4.92,0.87c1.37,0.58,2.64,1.22,3.81,1.9c1.16,0.69,2.27,1.32,3.33,1.9c1.06,0.58,2.22,0.87,3.49,0.87
				c0.42,0,0.91-0.07,1.47-0.2c0.56-0.13,1.04-0.28,1.47-0.44c-0.21,1.06-0.34,2.1-0.4,3.13
				C-1058.63,462.02-1058.61,463.07-1058.5,464.13z"/>
		</g>
	</g>
	<g class="st1">
		<g>
			<path class="st3" d="M-1198.38,287.62c9.26,0.67,18.28,2.36,27.06,5.05c8.78,2.69,16.5,6.51,23.15,11.44
				c6.64,4.94,11.99,10.99,16.03,18.17c4.03,7.18,6.05,15.37,6.05,24.56c0,11.22-1.84,20.81-5.52,28.77
				c-3.68,7.96-8.9,14.47-15.67,19.51c-6.77,5.05-14.78,8.75-24.04,11.1c-9.26,2.36-19.58,3.53-30.98,3.53h-126.06
				c1.42-3.36,2.67-7.96,3.74-13.79c1.07-5.83,1.96-12.22,2.67-19.18c0.71-6.95,1.25-14.3,1.6-22.04
				c0.36-7.74,0.65-15.19,0.89-22.37c0.23-7.18,0.41-13.79,0.53-19.85c0.12-6.06,0.18-10.99,0.18-14.8c0-7.85-0.06-17.1-0.18-27.76
				c-0.12-10.65-0.53-21.53-1.25-32.63c-0.71-11.1-1.78-21.92-3.2-32.47c-1.43-10.54-3.33-19.51-5.7-26.92
				c3.56,0.9,8.31,1.57,14.24,2.02c5.93,0.45,12.16,0.73,18.69,0.84c6.53,0.12,13.05,0.17,19.59,0.17c6.53,0,12.29,0,17.27,0h49.85
				c8.55,0,17.03,0.9,25.46,2.69c8.42,1.8,15.9,4.6,22.43,8.41c6.53,3.82,11.87,8.69,16.02,14.64c4.15,5.95,6.23,13.18,6.23,21.7
				c0,8.07-1.55,15.09-4.63,21.03c-3.09,5.95-7.3,11.16-12.64,15.65c-5.34,4.49-11.57,8.53-18.69,12.11
				C-1182.35,280.78-1190.07,284.26-1198.38,287.62z"/>
		</g>
		<g>
			<path class="st2" d="M-1220.06,308.73c3.1,2.76,6.67,5.09,10.71,6.99c4.04,1.9,8.22,3.15,12.52,3.75
				c4.3,0.61,8.56,0.43,12.77-0.52c4.21-0.95,8.13-2.8,11.74-5.56c0,6.21-0.22,12.94-0.65,20.18c-0.43,7.25-1.76,13.97-4,20.18
				c-2.07,6.04-5.29,10.83-9.67,14.36c-4.39,3.53-9.07,5.56-14.06,6.08c-4.99,0.52-9.76-0.56-14.32-3.23
				c-4.56-2.67-7.87-7.2-9.93-13.58c-1.38-3.62-2.5-7.89-3.36-12.81c-0.86-4.92-1.72-10-2.58-15.27
				c-0.86-5.26-1.94-10.48-3.22-15.65c-1.29-5.18-3.14-9.83-5.55-13.97s-5.55-7.63-9.41-10.48c-3.87-2.85-8.82-4.53-14.84-5.05
				c0,3.45,0.04,7.63,0.13,12.55c0.09,4.92,0.26,10.22,0.51,15.91c0.26,5.69,0.6,11.51,1.03,17.46c0.43,5.95,0.99,11.69,1.68,17.2
				c0.69,5.52,1.54,10.57,2.57,15.14c1.03,4.57,2.23,8.24,3.61,11c-2.42-0.52-5.91-0.91-10.48-1.16c-4.57-0.26-9.49-0.48-14.75-0.65
				c-5.26-0.17-10.44-0.3-15.52-0.39c-5.09-0.09-9.36-0.13-12.81-0.13c1.38-4.48,2.59-11.42,3.62-20.83
				c1.03-9.4,1.85-19.92,2.46-31.57c0.6-11.64,0.91-23.89,0.91-36.74c0-12.85-0.22-25.01-0.65-36.48
				c-0.43-11.47-1.16-21.69-2.2-30.66c-1.03-8.97-2.42-15.52-4.14-19.66h76.78c6.71,0,13.64,0.74,20.78,2.2
				c7.14,1.47,13.63,3.84,19.48,7.11c5.85,3.28,10.62,7.68,14.32,13.2c3.7,5.52,5.55,12.25,5.55,20.18c0,11.04-2.8,19.66-8.39,25.87
				c-5.59,6.21-12.56,10.83-20.91,13.84c-8.34,3.02-17.29,4.88-26.84,5.56c-9.55,0.69-18.28,1.03-26.19,1.03
				c2.92,0.69,5.85,1.9,8.77,3.62c2.93,1.73,5.76,3.75,8.52,6.08c2.75,2.33,5.46,4.79,8.13,7.37
				C-1225.27,303.81-1222.64,306.31-1220.06,308.73z M-1255.66,198.25c-1.72,4.83-3.09,10.87-4.13,18.11
				c-1.03,7.25-1.85,14.75-2.45,22.51c-0.6,7.76-1.03,15.39-1.29,22.9c-0.26,7.5-0.39,13.84-0.39,19.02
				c6.7-0.34,13.48-1.46,20.35-3.36c6.87-1.9,13.01-4.53,18.42-7.89c5.41-3.36,9.83-7.5,13.26-12.42
				c3.43-4.92,5.15-10.74,5.15-17.46c0-4.66-1.2-9.4-3.61-14.23c-2.41-4.83-5.75-9.18-10.05-13.06c-4.29-3.88-9.45-7.12-15.46-9.7
				S-1248.45,198.6-1255.66,198.25z"/>
		</g>
	</g>
	<g class="st1">
		<path class="st3" d="M-1379.75,104.96c0,0,4.64,10.24,7.29,12.8c2.65,2.57,13.05,6.85,13.05,6.85s-10.24,4.65-12.8,7.3
			c-2.56,2.65-6.85,13.04-6.85,13.04s-4.64-10.24-7.29-12.8c-2.64-2.56-13.04-6.85-13.04-6.85s10.24-4.64,12.81-7.3
			C-1384.04,115.36-1379.75,104.96-1379.75,104.96z"/>
		<path class="st3" d="M-1345.33,163.16c0,0,1.89,4.18,2.97,5.22c1.08,1.05,5.32,2.79,5.32,2.79s-4.18,1.89-5.22,2.98
			c-1.04,1.08-2.79,5.32-2.79,5.32s-1.89-4.18-2.97-5.22c-1.08-1.04-5.32-2.79-5.32-2.79s4.17-1.89,5.22-2.97
			C-1347.08,167.4-1345.33,163.16-1345.33,163.16z"/>
	</g>
</g>
<g class="st0">
	<g class="st1">
		<path class="st5" d="M-286.69,365.98c0,0,4.75,10.47,7.45,13.08c2.71,2.62,13.34,7,13.34,7s-10.47,4.75-13.08,7.46
			c-2.61,2.7-7,13.33-7,13.33s-4.74-10.47-7.45-13.08c-2.7-2.62-13.33-7-13.33-7s10.47-4.74,13.09-7.46
			C-291.07,376.6-286.69,365.98-286.69,365.98z"/>
		<path class="st5" d="M-251.51,425.46c0,0,1.93,4.27,3.04,5.33c1.11,1.07,5.44,2.85,5.44,2.85s-4.27,1.94-5.33,3.04
			c-1.07,1.1-2.85,5.43-2.85,5.43s-1.93-4.27-3.04-5.33c-1.1-1.07-5.43-2.85-5.43-2.85s4.27-1.93,5.34-3.04
			C-253.3,429.79-251.51,425.46-251.51,425.46z"/>
	</g>
	<g class="st1">
		<g>
			<g>
				<g>
					<path class="st5" d="M-561.36,465.42c2.11,0.16,4.16,0.57,6.16,1.22s3.76,1.57,5.27,2.76c1.51,1.19,2.73,2.65,3.65,4.38
						c0.92,1.73,1.38,3.7,1.38,5.92c0,2.7-0.42,5.01-1.26,6.93c-0.84,1.92-2.03,3.49-3.57,4.7c-1.54,1.22-3.36,2.11-5.47,2.68
						c-2.11,0.57-4.46,0.85-7.05,0.85h-28.7c0.32-0.81,0.61-1.92,0.85-3.32c0.24-1.41,0.45-2.95,0.61-4.62
						c0.16-1.68,0.28-3.45,0.36-5.31c0.08-1.86,0.15-3.66,0.2-5.39c0.05-1.73,0.09-3.32,0.12-4.78c0.03-1.46,0.04-2.65,0.04-3.57
						c0-1.89-0.01-4.12-0.04-6.69c-0.03-2.57-0.12-5.19-0.28-7.86c-0.16-2.68-0.41-5.28-0.73-7.82c-0.32-2.54-0.76-4.7-1.3-6.49
						c0.81,0.22,1.89,0.38,3.24,0.49c1.35,0.11,2.77,0.18,4.26,0.2c1.49,0.03,2.97,0.04,4.46,0.04c1.49,0,2.8,0,3.93,0h11.35
						c1.95,0,3.88,0.21,5.8,0.65c1.92,0.43,3.62,1.11,5.11,2.03s2.7,2.09,3.65,3.53c0.94,1.43,1.42,3.17,1.42,5.23
						c0,1.95-0.35,3.64-1.05,5.07c-0.7,1.43-1.66,2.69-2.88,3.77c-1.22,1.08-2.63,2.05-4.26,2.92
						C-557.71,463.77-559.47,464.61-561.36,465.42z M-574.57,440.45c-0.49,1.51-0.89,3.36-1.22,5.55c-0.33,2.19-0.58,4.46-0.77,6.81
						c-0.19,2.35-0.32,4.61-0.4,6.77c-0.08,2.16-0.12,3.95-0.12,5.35l3.4,0.08c4.16,0,7.46-0.97,9.89-2.92
						c2.43-1.95,3.65-5.22,3.65-9.81c0-3.51-1.14-6.34-3.4-8.47C-565.82,441.68-569.49,440.56-574.57,440.45z M-574.73,494.12
						c2.48-0.16,4.77-0.61,6.85-1.34c2.08-0.73,3.88-1.71,5.39-2.96c1.51-1.24,2.7-2.73,3.57-4.46c0.86-1.73,1.3-3.67,1.3-5.83
						c0-4.22-1.2-7.55-3.61-10.01c-2.41-2.46-5.72-3.69-9.93-3.69h-5.92c0,1.89,0.03,4.08,0.08,6.57c0.05,2.49,0.16,5.05,0.33,7.7
						c0.16,2.65,0.39,5.2,0.69,7.66C-575.69,490.22-575.27,492.34-574.73,494.12z"/>
					<path class="st5" d="M-508.26,464.21c0.11,1.62-0.03,2.95-0.41,3.97c-0.38,1.03-0.95,1.82-1.7,2.39s-1.69,0.96-2.8,1.18
						c-1.11,0.21-2.31,0.32-3.61,0.32c-1.24,0-2.12-0.15-2.64-0.45c-0.51-0.3-0.76-0.77-0.73-1.42c0.03-0.65,0.27-1.47,0.73-2.47
						c0.46-1,1.01-2.17,1.66-3.53c0.92-1.73,1.03-3.13,0.33-4.21c-0.7-1.08-1.95-1.62-3.73-1.62c-1.57,0-2.81,0.54-3.73,1.62
						c-0.92,1.08-1.62,2.4-2.11,3.97c-0.33,2.54-0.54,5.31-0.65,8.31c-0.11,3-0.12,5.93-0.04,8.8c0.08,2.86,0.28,5.51,0.61,7.94
						c0.32,2.43,0.81,4.38,1.46,5.84h-16.05c0.38-0.86,0.72-2.16,1.02-3.89c0.3-1.73,0.55-3.66,0.77-5.8
						c0.22-2.13,0.38-4.39,0.49-6.77c0.11-2.38,0.12-4.65,0.04-6.81c-0.08-2.16-0.26-4.11-0.53-5.84c-0.27-1.73-0.65-3.05-1.14-3.97
						c1.46-0.05,2.83-0.24,4.09-0.57c1.27-0.32,2.51-0.73,3.73-1.21c1.22-0.49,2.4-1.03,3.57-1.62c1.16-0.59,2.36-1.22,3.61-1.86
						c-0.11,0.33-0.23,0.95-0.36,1.86c-0.13,0.92-0.26,1.59-0.36,2.03c1.84-2.81,4.51-4.21,8.03-4.21c1.24,0,2.46,0.16,3.65,0.49
						c1.19,0.32,2.27,0.81,3.24,1.46c0.97,0.65,1.78,1.47,2.43,2.47C-508.74,461.6-508.37,462.8-508.26,464.21z"/>
					<path class="st5" d="M-479.97,494.85c0.59-1.35,1.05-2.89,1.38-4.62c0.32-1.73,0.57-3.51,0.73-5.35
						c-0.49,1.03-1.05,2.08-1.7,3.16c-0.65,1.08-1.36,2.08-2.15,3c-0.78,0.92-1.62,1.74-2.51,2.47c-0.89,0.73-1.82,1.29-2.8,1.66
						c-0.6,0.22-1.34,0.37-2.23,0.45c-0.89,0.08-1.72,0.12-2.47,0.12c-1.95,0-3.66-0.35-5.15-1.05s-2.74-1.66-3.77-2.88
						c-1.03-1.22-1.8-2.66-2.31-4.34c-0.51-1.68-0.77-3.49-0.77-5.43c0-1.56,0.04-3.15,0.12-4.74s0.12-3.18,0.12-4.74
						c0-0.7-0.01-1.61-0.04-2.72c-0.03-1.11-0.09-2.25-0.2-3.45c-0.11-1.19-0.26-2.31-0.45-3.36c-0.19-1.05-0.47-1.91-0.85-2.56
						c2.49-0.11,5.03-0.43,7.62-0.97c2.59-0.54,5-1.38,7.22-2.51c-0.38,0.76-0.68,2.01-0.89,3.77c-0.22,1.76-0.39,3.62-0.53,5.59
						c-0.14,1.97-0.22,3.89-0.24,5.76c-0.03,1.86-0.04,3.23-0.04,4.09c0,0.92,0.01,2.27,0.04,4.06c0.03,1.78,0.16,3.58,0.41,5.39
						c0.24,1.81,0.62,3.46,1.14,4.95c0.51,1.49,1.26,2.39,2.23,2.72c0.6,0.21,1.35,0.07,2.27-0.45c0.92-0.51,1.86-1.28,2.84-2.31
						c0.97-1.02,1.92-2.21,2.84-3.57c0.92-1.35,1.7-2.78,2.35-4.3c0.11-1.83,0.15-3.57,0.12-5.19c-0.03-1.62-0.04-3.19-0.04-4.7
						c0-0.75-0.01-1.7-0.04-2.84c-0.03-1.14-0.09-2.28-0.2-3.45c-0.11-1.16-0.28-2.28-0.53-3.37c-0.24-1.08-0.56-1.95-0.93-2.59
						c2.7-0.11,5.29-0.42,7.78-0.93c2.48-0.51,4.89-1.39,7.22-2.64c-0.33,0.97-0.6,2.24-0.81,3.81c-0.21,1.57-0.39,3.2-0.53,4.9
						c-0.14,1.7-0.22,3.37-0.24,4.99c-0.03,1.62-0.04,2.95-0.04,3.97c0,1.24,0.01,2.78,0.04,4.62c0.03,1.84,0.12,3.72,0.28,5.63
						c0.16,1.92,0.39,3.77,0.69,5.55c0.3,1.78,0.69,3.24,1.18,4.38H-479.97z"/>
					<path class="st5" d="M-443.73,456.99c-0.32,0.6-0.6,1.54-0.81,2.84c-0.22,1.3-0.38,2.79-0.49,4.46
						c-0.11,1.68-0.2,3.43-0.28,5.27c-0.08,1.84-0.12,3.62-0.12,5.35c0,1.73,0,3.3,0,4.7s0,2.49,0,3.24c0,2.49,0.03,4.96,0.08,7.42
						c0.05,2.46,0.08,4.93,0.08,7.42c0,1.95-0.24,3.76-0.73,5.43c-0.49,1.67-1.2,3.13-2.15,4.38c-0.95,1.24-2.13,2.22-3.57,2.92
						c-1.43,0.7-3.12,1.05-5.07,1.05c-1.41,0-2.77-0.12-4.09-0.36c-1.33-0.24-2.5-0.68-3.53-1.3c-1.03-0.62-1.88-1.44-2.56-2.47
						c-0.67-1.03-1.04-2.35-1.09-3.97c-0.05-0.7,0.18-1.3,0.69-1.78c0.51-0.48,1.12-0.73,1.82-0.73c0.65,0,1.2,0.2,1.66,0.61
						c0.46,0.4,0.69,0.85,0.69,1.34c0,0.38-0.12,0.73-0.37,1.05c-0.24,0.32-0.5,0.67-0.77,1.05c-0.27,0.38-0.49,0.78-0.65,1.22
						c-0.16,0.43-0.13,0.92,0.08,1.46c0.27,0.76,0.84,1.32,1.7,1.7c0.86,0.38,1.59,0.43,2.19,0.16c1.14-0.38,1.98-1.35,2.55-2.92
						c0.57-1.57,0.95-3.31,1.14-5.23c0.19-1.92,0.28-3.78,0.28-5.59s0-3.18,0-4.09c0-1.03,0.01-2.38,0.04-4.05
						c0.03-1.68,0.05-3.53,0.08-5.55c0.03-2.03,0.03-4.12,0-6.28c-0.03-2.16-0.1-4.23-0.2-6.2c-0.11-1.97-0.28-3.74-0.53-5.31
						c-0.24-1.57-0.56-2.78-0.93-3.65c2.59-0.11,5.15-0.46,7.66-1.05C-448.39,458.91-446,458.07-443.73,456.99z M-450.94,453.1
						c-1.78,0-3.28-0.62-4.5-1.86c-1.22-1.24-1.82-2.76-1.82-4.54c0-1.78,0.62-3.31,1.86-4.58s2.73-1.91,4.46-1.91
						c1.73,0,3.2,0.64,4.42,1.91c1.21,1.27,1.82,2.8,1.82,4.58c0,1.73-0.61,3.23-1.82,4.5C-447.74,452.47-449.22,453.1-450.94,453.1
						z"/>
					<path class="st5" d="M-424.84,456.99c-0.38,1.3-0.69,2.97-0.93,5.03c-0.24,2.05-0.43,4.28-0.57,6.69
						c-0.14,2.41-0.22,4.9-0.24,7.5c-0.03,2.59,0.04,5.07,0.2,7.42c0.16,2.35,0.39,4.51,0.69,6.49c0.3,1.97,0.72,3.55,1.26,4.74
						h-16.05c0.38-0.86,0.72-2.19,1.02-3.97c0.3-1.78,0.55-3.8,0.77-6.04c0.22-2.24,0.38-4.61,0.49-7.09
						c0.11-2.49,0.12-4.85,0.04-7.1c-0.08-2.24-0.26-4.26-0.53-6.04c-0.27-1.78-0.65-3.13-1.14-4.05c2.92-0.11,5.53-0.42,7.82-0.93
						C-429.72,459.11-427.33,458.24-424.84,456.99z M-438.79,446.53c0-1.73,0.63-3.23,1.91-4.5c1.27-1.27,2.77-1.91,4.5-1.91
						c1.73,0,3.22,0.64,4.46,1.91c1.24,1.27,1.86,2.77,1.86,4.5c0,1.78-0.62,3.31-1.86,4.58c-1.24,1.27-2.73,1.9-4.46,1.9
						c-1.78,0-3.3-0.62-4.54-1.86C-438.16,449.91-438.79,448.37-438.79,446.53z"/>
					<path class="st5" d="M-377.46,475.31c0.97,0.87,2.09,1.59,3.35,2.19c1.27,0.6,2.58,0.99,3.92,1.18c1.35,0.19,2.68,0.13,4-0.16
						c1.32-0.3,2.55-0.88,3.68-1.74c0,1.95-0.07,4.06-0.2,6.32c-0.13,2.27-0.55,4.38-1.25,6.32c-0.65,1.89-1.66,3.39-3.03,4.5
						c-1.38,1.11-2.84,1.74-4.41,1.9c-1.56,0.16-3.06-0.18-4.49-1.01c-1.43-0.84-2.47-2.25-3.11-4.26
						c-0.43-1.13-0.78-2.47-1.05-4.01c-0.27-1.54-0.54-3.13-0.81-4.78c-0.27-1.65-0.61-3.28-1.01-4.9c-0.4-1.62-0.98-3.08-1.74-4.38
						c-0.75-1.3-1.74-2.39-2.95-3.28c-1.21-0.89-2.76-1.42-4.65-1.58c0,1.08,0.01,2.39,0.04,3.93c0.03,1.54,0.08,3.2,0.16,4.99
						c0.08,1.78,0.19,3.61,0.32,5.47c0.13,1.86,0.31,3.66,0.52,5.39c0.21,1.73,0.48,3.31,0.81,4.74c0.32,1.43,0.7,2.58,1.13,3.45
						c-0.76-0.16-1.85-0.28-3.28-0.36c-1.43-0.08-2.97-0.15-4.62-0.2c-1.65-0.05-3.27-0.09-4.87-0.12
						c-1.59-0.03-2.93-0.04-4.01-0.04c0.43-1.41,0.81-3.58,1.14-6.52c0.33-2.95,0.58-6.24,0.77-9.89c0.19-3.65,0.28-7.49,0.28-11.51
						s-0.07-7.84-0.2-11.43c-0.14-3.59-0.36-6.79-0.69-9.61c-0.32-2.81-0.76-4.86-1.3-6.16h24.06c2.1,0,4.27,0.23,6.51,0.69
						c2.24,0.46,4.27,1.2,6.1,2.23c1.83,1.03,3.33,2.4,4.49,4.13c1.16,1.73,1.74,3.84,1.74,6.32c0,3.46-0.88,6.16-2.63,8.11
						c-1.75,1.95-3.94,3.39-6.55,4.34c-2.61,0.95-5.42,1.53-8.41,1.74c-2.99,0.22-5.73,0.32-8.21,0.32c0.92,0.22,1.83,0.6,2.75,1.14
						c0.92,0.54,1.81,1.17,2.67,1.9c0.86,0.73,1.71,1.5,2.55,2.31C-379.09,473.77-378.27,474.56-377.46,475.31z M-388.61,440.7
						c-0.54,1.51-0.97,3.4-1.29,5.68c-0.32,2.27-0.58,4.62-0.77,7.05c-0.19,2.43-0.32,4.82-0.4,7.17c-0.08,2.35-0.12,4.34-0.12,5.96
						c2.1-0.11,4.22-0.46,6.37-1.05c2.15-0.59,4.08-1.42,5.77-2.47c1.69-1.05,3.08-2.35,4.16-3.89c1.08-1.54,1.61-3.37,1.61-5.47
						c0-1.46-0.38-2.95-1.13-4.46c-0.75-1.51-1.8-2.88-3.15-4.09c-1.35-1.21-2.96-2.23-4.84-3.04
						C-384.28,441.26-386.36,440.81-388.61,440.7z"/>
					<path class="st5" d="M-343.13,456.99c-0.38,1.3-0.69,2.97-0.93,5.03c-0.24,2.05-0.43,4.28-0.57,6.69
						c-0.14,2.41-0.22,4.9-0.24,7.5c-0.03,2.59,0.04,5.07,0.2,7.42c0.16,2.35,0.39,4.51,0.69,6.49c0.3,1.97,0.72,3.55,1.26,4.74
						h-16.05c0.38-0.86,0.72-2.19,1.02-3.97c0.3-1.78,0.55-3.8,0.77-6.04c0.22-2.24,0.38-4.61,0.49-7.09
						c0.11-2.49,0.12-4.85,0.04-7.1c-0.08-2.24-0.26-4.26-0.53-6.04c-0.27-1.78-0.65-3.13-1.14-4.05c2.92-0.11,5.53-0.42,7.82-0.93
						C-348,459.11-345.61,458.24-343.13,456.99z M-357.07,446.53c0-1.73,0.63-3.23,1.91-4.5c1.27-1.27,2.77-1.91,4.5-1.91
						c1.73,0,3.22,0.64,4.46,1.91c1.24,1.27,1.86,2.77,1.86,4.5c0,1.78-0.62,3.31-1.86,4.58c-1.24,1.27-2.73,1.9-4.46,1.9
						c-1.78,0-3.3-0.62-4.54-1.86C-356.45,449.91-357.07,448.37-357.07,446.53z"/>
					<path class="st5" d="M-314.91,441.1c1.41,0.22,2.64,0.92,3.69,2.11c1.05,1.19,1.58,2.65,1.58,4.38c0,1.51-0.31,2.84-0.93,3.97
						c-0.62,1.13-1.55,1.76-2.8,1.86c-1.03,0.11-1.86-0.15-2.51-0.77c-0.65-0.62-0.97-1.36-0.97-2.23c0-0.65,0.15-1.26,0.45-1.82
						c0.3-0.57,0.62-1.12,0.97-1.66c0.35-0.54,0.63-1.07,0.85-1.58c0.21-0.51,0.24-1.07,0.08-1.66c-0.27-0.81-0.85-1.24-1.74-1.3
						c-0.89-0.05-1.88,0.11-2.96,0.48c-1.08,0.38-2.11,0.87-3.08,1.46c-0.97,0.6-1.65,1.11-2.03,1.54c-0.27,1.24-0.51,2.8-0.73,4.66
						c-0.22,1.86-0.41,4.26-0.57,7.17h7.7v0.81h-7.7c-0.16,3.3-0.24,6.77-0.24,10.42c0,3.65,0.07,7.15,0.2,10.5
						c0.13,3.35,0.36,6.39,0.69,9.12c0.32,2.73,0.78,4.82,1.38,6.28h-15.89c0.54-1.51,0.99-3.72,1.34-6.61
						c0.35-2.89,0.61-6.05,0.77-9.48c0.16-3.43,0.24-6.94,0.24-10.54s-0.08-6.82-0.24-9.69h-1.95v-0.81h1.86
						c-0.11-1.46-0.27-2.86-0.49-4.21c-0.22-1.35-0.62-2.7-1.22-4.05c3.03,0.05,5.59-0.39,7.7-1.34c2.11-0.94,4.04-1.97,5.8-3.08
						c1.76-1.11,3.46-2.09,5.11-2.96C-318.9,441.21-317.02,440.89-314.91,441.1z"/>
					<path class="st5" d="M-277.05,457.56c-0.33,0.87-0.58,2.26-0.77,4.18s-0.34,4.08-0.45,6.49c-0.11,2.4-0.14,4.94-0.08,7.62
						c0.05,2.68,0.16,5.24,0.32,7.7c0.16,2.46,0.42,4.69,0.77,6.69c0.35,2,0.77,3.51,1.26,4.54c-0.92,0-1.81-0.03-2.68-0.08
						c-0.86-0.05-1.73-0.13-2.59-0.24c-2.38-0.21-4.42-0.27-6.12-0.16c-1.7,0.11-3.31,0.27-4.82,0.49
						c-1.51,0.21-3.03,0.43-4.54,0.65c-1.51,0.21-3.22,0.32-5.11,0.32c-4.05,0-7.3-0.96-9.73-2.88c-2.43-1.92-3.65-4.96-3.65-9.12
						c0-2.11,0.31-3.85,0.93-5.23c0.62-1.38,1.46-2.53,2.51-3.44c1.05-0.92,2.27-1.62,3.65-2.11c1.38-0.48,2.82-0.89,4.34-1.21
						c0.7-0.16,1.65-0.35,2.84-0.57c1.19-0.22,2.45-0.49,3.77-0.81c1.32-0.33,2.65-0.73,3.97-1.22c1.32-0.49,2.47-1.11,3.44-1.86
						c0-1.08-0.01-1.86-0.04-2.35c-0.03-0.49-0.09-1.08-0.2-1.78c-0.38-0.7-1.07-1.4-2.07-2.11c-1-0.7-2.08-1.34-3.24-1.9
						c-1.16-0.57-2.34-1.01-3.52-1.34c-1.19-0.32-2.16-0.43-2.92-0.32c-0.6,0.11-1.08,0.4-1.46,0.89c-0.38,0.49-0.57,1.11-0.57,1.86
						c0,0.81,0.08,1.72,0.24,2.72c0.16,1,0.2,1.96,0.12,2.88s-0.39,1.69-0.93,2.31s-1.51,0.93-2.92,0.93c-1.41,0-2.51-0.5-3.32-1.5
						c-0.81-1-1.22-2.26-1.22-3.77c0-1.67,0.35-3.04,1.05-4.09c0.7-1.05,1.61-1.85,2.72-2.39c1.11-0.54,2.34-0.88,3.69-1.02
						c1.35-0.13,2.7-0.12,4.05,0.04c1.3,0.16,2.56,0.43,3.77,0.81c1.21,0.38,2.43,0.78,3.65,1.22c1.22,0.43,2.4,0.82,3.57,1.17
						c1.16,0.35,2.34,0.58,3.53,0.69c0.97,0.11,1.82,0.09,2.55-0.04c0.73-0.13,1.43-0.34,2.11-0.61s1.34-0.58,1.99-0.93
						C-278.51,458.3-277.81,457.94-277.05,457.56z M-291.89,493.07c0.43-1.89,0.8-3.88,1.09-5.96c0.3-2.08,0.53-4.19,0.69-6.32
						c0.16-2.13,0.26-4.23,0.28-6.28c0.03-2.05,0.04-4,0.04-5.84c-0.48,0.49-1.16,0.99-2.03,1.5c-0.86,0.51-1.74,0.99-2.63,1.42
						c-0.89,0.43-1.73,0.84-2.51,1.22c-0.78,0.38-1.37,0.68-1.74,0.89c-1.57,0.86-2.95,2.07-4.14,3.61
						c-1.19,1.54-1.78,3.8-1.78,6.77c0,1.89,0.35,3.53,1.05,4.91c0.7,1.38,1.63,2.47,2.8,3.28c1.16,0.81,2.51,1.3,4.05,1.46
						C-295.17,493.88-293.57,493.66-291.89,493.07z"/>
					<path class="st5" d="M-242.77,467.61c-0.76-0.81-1.7-1.71-2.84-2.71c-1.14-1-2.35-1.95-3.65-2.84
						c-1.3-0.89-2.62-1.65-3.97-2.27c-1.35-0.62-2.59-0.93-3.73-0.93c-1.08,0-1.84,0.2-2.27,0.61c-0.43,0.41-0.65,0.91-0.65,1.5
						c0,0.6,0.15,1.23,0.45,1.91c0.3,0.68,0.66,1.28,1.1,1.82c1.3,1.62,2.84,3.3,4.62,5.03c1.78,1.73,3.54,3.19,5.27,4.38
						c1.02,0.81,2,1.62,2.92,2.43c0.92,0.81,1.73,1.66,2.43,2.55c0.7,0.89,1.26,1.84,1.66,2.84c0.41,1,0.61,2.09,0.61,3.28
						c0,1.89-0.36,3.5-1.09,4.82c-0.73,1.32-1.71,2.4-2.96,3.24s-2.7,1.46-4.38,1.86c-1.68,0.41-3.43,0.61-5.27,0.61
						c-0.92,0-1.8-0.12-2.63-0.36c-0.84-0.24-1.66-0.53-2.47-0.85c-0.81-0.33-1.62-0.68-2.43-1.05c-0.81-0.38-1.62-0.73-2.43-1.05
						c-1.57-0.59-2.95-0.86-4.13-0.81c-1.19,0.06-2.57,0.38-4.14,0.97c0.49-0.43,0.84-1.03,1.05-1.78c0.21-0.76,0.35-1.57,0.41-2.43
						c0.05-0.86,0.05-1.71,0-2.55c-0.06-0.84-0.11-1.58-0.16-2.23c0.76,1.13,1.68,2.3,2.76,3.49c1.08,1.19,2.22,2.27,3.4,3.24
						c1.19,0.97,2.38,1.76,3.57,2.35c1.19,0.6,2.3,0.89,3.32,0.89c0.87,0,1.69-0.23,2.47-0.69c0.78-0.46,1.17-1.17,1.17-2.15
						c0-1.46-0.43-2.78-1.3-3.97c-0.87-1.19-1.95-2.35-3.24-3.49c-1.3-1.13-2.69-2.27-4.18-3.4c-1.49-1.14-2.88-2.35-4.18-3.65
						c-1.3-1.3-2.38-2.73-3.24-4.3c-0.87-1.57-1.3-3.35-1.3-5.35c0-3.19,0.97-5.72,2.92-7.58c1.95-1.86,4.59-2.8,7.94-2.8
						c1.95,0,3.62,0.3,5.03,0.89c1.4,0.6,2.7,1.24,3.89,1.95c1.19,0.7,2.32,1.35,3.4,1.95c1.08,0.6,2.27,0.89,3.57,0.89
						c0.43,0,0.93-0.05,1.5-0.16c0.57-0.11,1.07-0.24,1.5-0.4c-0.22,1.03-0.35,2.08-0.41,3.16
						C-242.9,465.53-242.87,466.59-242.77,467.61z M-242.77,467.61c-0.76-0.81-1.7-1.73-2.84-2.76c-1.14-1.02-2.35-1.98-3.65-2.88
						c-1.3-0.89-2.62-1.65-3.97-2.27c-1.35-0.62-2.59-0.93-3.73-0.93c-1.08,0-1.84,0.2-2.27,0.61c-0.43,0.41-0.65,0.91-0.65,1.5
						c0,0.6,0.15,1.23,0.45,1.9c0.3,0.68,0.66,1.29,1.1,1.83c1.3,1.68,2.84,3.36,4.62,5.07c1.78,1.7,3.54,3.15,5.27,4.34
						c1.02,0.81,2,1.62,2.92,2.43c0.92,0.81,1.73,1.66,2.43,2.55c0.7,0.89,1.26,1.85,1.66,2.88c0.41,1.03,0.61,2.13,0.61,3.32
						c0,1.89-0.36,3.5-1.09,4.82c-0.73,1.32-1.71,2.4-2.96,3.24s-2.7,1.46-4.38,1.86c-1.68,0.41-3.43,0.61-5.27,0.61
						c-0.92,0-1.8-0.12-2.63-0.36c-0.84-0.24-1.66-0.53-2.47-0.85c-0.81-0.33-1.62-0.68-2.43-1.05c-0.81-0.38-1.62-0.73-2.43-1.05
						c-1.57-0.59-2.95-0.86-4.13-0.81c-1.19,0.06-2.57,0.38-4.14,0.97c0.49-0.43,0.84-1.03,1.05-1.78c0.21-0.76,0.35-1.57,0.41-2.43
						c0.05-0.86,0.05-1.73,0-2.59c-0.06-0.86-0.11-1.59-0.16-2.19c0.76,1.13,1.68,2.3,2.76,3.49c1.08,1.19,2.22,2.27,3.4,3.24
						c1.19,0.97,2.38,1.76,3.57,2.35c1.19,0.6,2.3,0.89,3.32,0.89c0.87,0,1.69-0.23,2.47-0.69c0.78-0.46,1.17-1.17,1.17-2.15
						c0-1.46-0.43-2.8-1.3-4.01c-0.87-1.22-1.95-2.38-3.24-3.49c-1.3-1.11-2.69-2.23-4.18-3.37c-1.49-1.14-2.88-2.36-4.18-3.69
						c-1.3-1.32-2.38-2.76-3.24-4.3c-0.87-1.54-1.3-3.31-1.3-5.31c0-3.24,0.97-5.78,2.92-7.62c1.95-1.84,4.59-2.76,7.94-2.76
						c1.95,0,3.62,0.3,5.03,0.89c1.4,0.6,2.7,1.24,3.89,1.95c1.19,0.7,2.32,1.35,3.4,1.95c1.08,0.6,2.27,0.89,3.57,0.89
						c0.43,0,0.93-0.07,1.5-0.2c0.57-0.13,1.07-0.28,1.5-0.45c-0.22,1.08-0.35,2.15-0.41,3.2S-242.87,466.53-242.77,467.61z"/>
				</g>
			</g>
			<g>
				<path class="st5" d="M-318.03,322.64c-4.13-7.33-9.59-13.52-16.38-18.57c-6.8-5.04-14.68-8.94-23.66-11.69
					c-8.98-2.75-18.2-4.47-27.66-5.16c8.49-3.44,16.38-6.99,23.66-10.66c7.28-3.66,13.65-7.79,19.11-12.38
					c5.46-4.58,9.76-9.91,12.92-15.99c3.15-6.07,4.73-13.24,4.73-21.49c0-8.71-2.13-16.1-6.37-22.18
					c-4.25-6.07-9.71-11.06-16.38-14.96c-6.68-3.9-14.32-6.76-22.93-8.6c-8.61-1.83-17.29-2.75-26.02-2.75h-50.95
					c-5.1,0-10.98,0-17.65,0c-6.67,0-13.35-0.05-20.02-0.17c-6.67-0.11-13.05-0.4-19.11-0.86c-6.07-0.46-10.92-1.14-14.56-2.06
					c2.42,7.56,4.37,16.74,5.82,27.51c1.46,10.78,2.55,21.83,3.27,33.18c0.73,11.35,1.15,22.47,1.27,33.35
					c0.12,10.89,0.18,20.35,0.18,28.37c0,3.9-0.06,8.94-0.18,15.13c-0.12,6.19-0.31,12.95-0.55,20.29
					c-0.24,7.34-0.55,14.96-0.91,22.87c-0.36,7.91-0.91,15.42-1.64,22.52c-0.73,7.11-1.64,13.64-2.73,19.6
					c-1.09,5.96-2.37,10.66-3.82,14.1h128.83c11.65,0,22.2-1.2,31.66-3.61c9.46-2.41,17.65-6.19,24.57-11.35
					c6.91-5.16,12.25-11.8,16.01-19.94c3.76-8.13,5.64-17.93,5.64-29.4C-311.85,338.34-313.91,329.98-318.03,322.64z
					 M-359.75,334.17c-0.44,7.41-1.8,14.28-4.09,20.63c-2.11,6.17-5.41,11.07-9.89,14.68c-4.48,3.61-9.27,5.68-14.37,6.21
					c-5.1,0.53-9.98-0.57-14.63-3.3c-4.66-2.73-8.05-7.36-10.15-13.88c-1.41-3.7-2.55-8.07-3.43-13.09
					c-0.88-5.02-1.76-10.22-2.64-15.6c-0.88-5.38-1.98-10.71-3.29-16c-1.32-5.29-3.21-10.05-5.67-14.28
					c-2.46-4.23-5.67-7.8-9.62-10.71c-3.96-2.91-9.01-4.63-15.17-5.16c0,3.53,0.04,7.8,0.13,12.83c0.09,5.02,0.26,10.45,0.53,16.26
					c0.26,5.82,0.62,11.77,1.05,17.85c0.44,6.08,1.01,11.94,1.71,17.58c0.7,5.65,1.58,10.8,2.63,15.47
					c1.05,4.67,2.28,8.42,3.69,11.24c-2.47-0.53-6.04-0.92-10.71-1.19c-4.68-0.27-9.7-0.49-15.08-0.66
					c-5.38-0.18-10.67-0.31-15.86-0.4c-5.2-0.09-9.56-0.13-13.09-0.13c1.41-4.58,2.65-11.68,3.7-21.29
					c1.06-9.61,1.89-20.36,2.51-32.26c0.62-11.9,0.93-24.42,0.93-37.55c0-13.13-0.23-25.56-0.66-37.29
					c-0.44-11.72-1.19-22.17-2.25-31.33c-1.06-9.17-2.47-15.87-4.23-20.1h78.48c6.86,0,13.94,0.75,21.23,2.25
					c7.3,1.5,13.93,3.92,19.91,7.27c5.98,3.35,10.86,7.85,14.64,13.49c3.78,5.64,5.67,12.52,5.67,20.63
					c0,11.28-2.86,20.1-8.57,26.44c-5.72,6.35-12.84,11.07-21.37,14.15c-8.53,3.09-17.67,4.98-27.43,5.69
					c-9.76,0.71-18.68,1.06-26.77,1.06c2.99,0.71,5.97,1.94,8.97,3.7c2.99,1.76,5.89,3.83,8.7,6.21c2.81,2.38,5.58,4.89,8.3,7.54
					c2.73,2.64,5.41,5.2,8.05,7.67c3.17,2.82,6.81,5.2,10.94,7.14c4.13,1.94,8.4,3.22,12.79,3.83c4.4,0.62,8.75,0.44,13.05-0.53
					c4.3-0.97,8.31-2.86,12-5.69C-359.09,319.89-359.31,326.77-359.75,334.17z"/>
				<path class="st5" d="M-413.08,268.73c5.53-3.44,10.05-7.67,13.56-12.69c3.51-5.02,5.27-10.97,5.27-17.85
					c0-4.76-1.23-9.61-3.69-14.54c-2.46-4.93-5.88-9.39-10.27-13.35c-4.39-3.97-9.66-7.27-15.8-9.92c-6.14-2.64-12.9-4.14-20.26-4.5
					c-1.76,4.94-3.16,11.11-4.22,18.51c-1.05,7.41-1.89,15.07-2.5,23.01c-0.62,7.93-1.05,15.73-1.32,23.4
					c-0.27,7.67-0.39,14.15-0.39,19.44c6.84-0.35,13.78-1.5,20.8-3.44C-424.88,274.85-418.61,272.16-413.08,268.73z"/>
			</g>
		</g>
		<g>
			<path class="st5" d="M-571.1,100.53c0,0,4.75,10.47,7.45,13.08c2.71,2.62,13.34,7,13.34,7s-10.47,4.75-13.08,7.46
				c-2.61,2.7-7,13.33-7,13.33s-4.74-10.47-7.46-13.08c-2.7-2.62-13.33-7-13.33-7s10.47-4.74,13.09-7.46
				C-575.48,111.16-571.1,100.53-571.1,100.53z"/>
			<path class="st5" d="M-535.92,160.02c0,0,1.93,4.27,3.04,5.33c1.11,1.07,5.44,2.85,5.44,2.85s-4.27,1.94-5.33,3.04
				c-1.07,1.1-2.85,5.43-2.85,5.43s-1.93-4.27-3.04-5.33c-1.1-1.07-5.43-2.85-5.43-2.85s4.27-1.93,5.34-3.04
				C-537.7,164.35-535.92,160.02-535.92,160.02z"/>
		</g>
	</g>
</g>
<rect x="3.29" y="1.57" width="787.46" height="606.86"/>
<g class="st0">
	<g class="st1">
		<path class="st6" d="M511.12,359.39c0,0,4.23,9.32,6.63,11.64c2.42,2.33,11.87,6.23,11.87,6.23s-9.32,4.23-11.64,6.64
			c-2.33,2.41-6.23,11.87-6.23,11.87s-4.22-9.32-6.64-11.65c-2.41-2.33-11.87-6.23-11.87-6.23s9.32-4.22,11.65-6.64
			C507.22,368.85,511.12,359.39,511.12,359.39z"/>
		<path class="st6" d="M542.44,412.35c0,0,1.72,3.8,2.7,4.75c0.98,0.95,4.84,2.54,4.84,2.54s-3.8,1.72-4.75,2.71
			c-0.95,0.98-2.54,4.84-2.54,4.84s-1.72-3.8-2.71-4.75c-0.98-0.95-4.84-2.54-4.84-2.54s3.8-1.72,4.75-2.71
			C540.85,416.21,542.44,412.35,542.44,412.35z"/>
	</g>
	<g class="st1">
		<g>
			<g>
				<g>
					<path class="st6" d="M266.6,447.93c1.88,0.14,3.7,0.51,5.48,1.08s3.35,1.4,4.69,2.45c1.35,1.06,2.43,2.36,3.25,3.9
						c0.82,1.54,1.23,3.3,1.23,5.27c0,2.41-0.37,4.46-1.12,6.17c-0.75,1.71-1.8,3.1-3.18,4.19c-1.37,1.08-2.99,1.88-4.87,2.38
						c-1.88,0.51-3.97,0.76-6.28,0.76h-25.55c0.29-0.72,0.54-1.71,0.76-2.96c0.22-1.25,0.4-2.62,0.54-4.11
						c0.14-1.49,0.25-3.07,0.32-4.73c0.07-1.66,0.13-3.26,0.18-4.8c0.05-1.54,0.08-2.96,0.11-4.26c0.02-1.3,0.03-2.36,0.03-3.17
						c0-1.68-0.01-3.67-0.03-5.95c-0.03-2.28-0.11-4.62-0.25-7c-0.15-2.38-0.36-4.7-0.65-6.97c-0.29-2.26-0.67-4.19-1.15-5.77
						c0.72,0.19,1.68,0.34,2.89,0.43c1.2,0.1,2.47,0.16,3.79,0.18c1.32,0.02,2.65,0.04,3.97,0.04s2.49,0,3.5,0h10.1
						c1.73,0,3.45,0.19,5.16,0.58c1.71,0.38,3.22,0.99,4.55,1.8c1.32,0.82,2.41,1.86,3.25,3.14c0.84,1.27,1.26,2.83,1.26,4.65
						c0,1.73-0.31,3.24-0.94,4.51c-0.63,1.28-1.48,2.39-2.56,3.36c-1.08,0.96-2.34,1.83-3.79,2.6
						C269.84,446.46,268.28,447.21,266.6,447.93z M254.83,425.7c-0.43,1.35-0.8,2.99-1.08,4.94c-0.29,1.95-0.52,3.97-0.69,6.06
						c-0.17,2.09-0.29,4.1-0.36,6.03c-0.07,1.93-0.11,3.51-0.11,4.76l3.03,0.07c3.7,0,6.64-0.87,8.8-2.6
						c2.17-1.73,3.25-4.64,3.25-8.73c0-3.13-1.01-5.64-3.03-7.54C262.63,426.79,259.35,425.79,254.83,425.7z M254.69,473.48
						c2.21-0.14,4.25-0.54,6.1-1.19c1.85-0.65,3.45-1.53,4.8-2.63c1.35-1.11,2.41-2.43,3.18-3.97c0.77-1.54,1.15-3.27,1.15-5.19
						c0-3.75-1.07-6.72-3.21-8.91c-2.14-2.19-5.09-3.28-8.84-3.28h-5.27c0,1.68,0.02,3.63,0.07,5.85c0.05,2.21,0.14,4.5,0.29,6.85
						c0.14,2.36,0.35,4.63,0.61,6.82C253.83,470,254.21,471.89,254.69,473.48z"/>
					<path class="st6" d="M313.87,446.84c0.09,1.44-0.02,2.62-0.36,3.54c-0.34,0.91-0.84,1.62-1.52,2.13
						c-0.67,0.51-1.5,0.85-2.49,1.05c-0.99,0.19-2.06,0.29-3.21,0.29c-1.11,0-1.89-0.13-2.35-0.4c-0.46-0.26-0.67-0.69-0.65-1.26
						c0.02-0.58,0.24-1.31,0.65-2.2c0.41-0.89,0.9-1.94,1.48-3.14c0.82-1.54,0.91-2.79,0.29-3.75c-0.63-0.96-1.73-1.44-3.32-1.44
						c-1.4,0-2.5,0.48-3.32,1.44c-0.82,0.96-1.44,2.14-1.88,3.54c-0.29,2.26-0.48,4.73-0.58,7.4c-0.1,2.67-0.11,5.28-0.04,7.83
						c0.07,2.55,0.25,4.91,0.54,7.07c0.29,2.17,0.72,3.9,1.3,5.2h-14.29c0.34-0.77,0.64-1.92,0.9-3.46
						c0.26-1.54,0.49-3.26,0.68-5.16c0.19-1.9,0.34-3.91,0.43-6.03c0.1-2.12,0.11-4.14,0.04-6.06c-0.07-1.92-0.23-3.66-0.47-5.2
						c-0.24-1.54-0.58-2.72-1.01-3.54c1.3-0.05,2.52-0.22,3.65-0.51c1.13-0.29,2.24-0.65,3.32-1.08c1.08-0.43,2.14-0.91,3.17-1.44
						c1.04-0.53,2.1-1.08,3.21-1.66c-0.1,0.29-0.2,0.84-0.32,1.66c-0.12,0.82-0.23,1.42-0.32,1.8c1.64-2.5,4.02-3.75,7.15-3.75
						c1.11,0,2.19,0.14,3.25,0.43c1.06,0.29,2.02,0.72,2.89,1.3c0.87,0.58,1.59,1.31,2.17,2.2
						C313.43,444.52,313.77,445.59,313.87,446.84z"/>
					<path class="st6" d="M339.05,474.12c0.53-1.2,0.94-2.57,1.23-4.11c0.29-1.54,0.51-3.13,0.65-4.76
						c-0.43,0.91-0.94,1.85-1.52,2.82c-0.58,0.96-1.21,1.85-1.91,2.67c-0.7,0.82-1.44,1.55-2.24,2.2c-0.8,0.65-1.62,1.14-2.49,1.48
						c-0.53,0.19-1.19,0.33-1.98,0.4c-0.79,0.07-1.53,0.11-2.2,0.11c-1.73,0-3.26-0.31-4.58-0.94c-1.32-0.62-2.44-1.48-3.36-2.56
						s-1.6-2.37-2.06-3.86c-0.46-1.49-0.69-3.1-0.69-4.84c0-1.39,0.04-2.8,0.11-4.22c0.07-1.42,0.11-2.83,0.11-4.22
						c0-0.62-0.01-1.43-0.04-2.42c-0.02-0.98-0.08-2.01-0.18-3.07c-0.1-1.06-0.23-2.06-0.4-2.99c-0.17-0.94-0.42-1.7-0.76-2.27
						c2.21-0.09,4.48-0.38,6.78-0.87s4.45-1.23,6.42-2.24c-0.34,0.67-0.6,1.79-0.79,3.36c-0.19,1.57-0.35,3.22-0.47,4.98
						c-0.12,1.76-0.19,3.46-0.22,5.12s-0.03,2.87-0.03,3.64c0,0.82,0.01,2.02,0.03,3.61c0.02,1.59,0.14,3.19,0.36,4.8
						c0.22,1.61,0.55,3.08,1.01,4.4c0.46,1.32,1.12,2.13,1.98,2.42c0.53,0.19,1.2,0.06,2.02-0.4c0.82-0.46,1.66-1.14,2.53-2.06
						c0.87-0.91,1.71-1.97,2.53-3.17c0.82-1.2,1.51-2.48,2.09-3.83c0.1-1.63,0.13-3.17,0.11-4.62c-0.02-1.44-0.04-2.84-0.04-4.19
						c0-0.67-0.01-1.51-0.03-2.53c-0.02-1.01-0.08-2.03-0.18-3.07c-0.1-1.03-0.25-2.03-0.47-3c-0.22-0.96-0.5-1.73-0.83-2.31
						c2.4-0.1,4.71-0.37,6.93-0.83c2.21-0.46,4.35-1.24,6.42-2.35c-0.29,0.87-0.53,2-0.72,3.39c-0.19,1.4-0.35,2.85-0.47,4.37
						c-0.12,1.51-0.19,3-0.22,4.44c-0.02,1.44-0.04,2.62-0.04,3.54c0,1.11,0.01,2.48,0.04,4.11c0.02,1.64,0.11,3.31,0.25,5.02
						c0.14,1.71,0.35,3.36,0.61,4.94c0.27,1.59,0.61,2.89,1.05,3.9H339.05z"/>
					<path class="st6" d="M371.31,440.42c-0.29,0.53-0.53,1.37-0.72,2.53c-0.19,1.15-0.34,2.48-0.43,3.97
						c-0.1,1.49-0.18,3.06-0.25,4.69c-0.07,1.64-0.11,3.22-0.11,4.76c0,1.54,0,2.94,0,4.19c0,1.25,0,2.21,0,2.89
						c0,2.21,0.02,4.41,0.07,6.6c0.05,2.19,0.07,4.39,0.07,6.6c0,1.73-0.22,3.35-0.65,4.84c-0.43,1.49-1.07,2.79-1.91,3.9
						c-0.84,1.11-1.9,1.97-3.17,2.6c-1.28,0.62-2.78,0.94-4.51,0.94c-1.25,0-2.47-0.11-3.64-0.32c-1.18-0.22-2.23-0.6-3.14-1.15
						s-1.67-1.29-2.27-2.2c-0.6-0.91-0.92-2.09-0.97-3.54c-0.05-0.63,0.16-1.15,0.61-1.59c0.46-0.43,1-0.65,1.62-0.65
						c0.58,0,1.07,0.18,1.48,0.54c0.41,0.36,0.61,0.76,0.61,1.19c0,0.34-0.11,0.65-0.33,0.94c-0.22,0.29-0.44,0.6-0.68,0.94
						c-0.24,0.34-0.43,0.7-0.58,1.08s-0.12,0.82,0.07,1.3c0.24,0.67,0.75,1.18,1.52,1.52c0.77,0.34,1.42,0.38,1.95,0.14
						c1.01-0.34,1.77-1.2,2.27-2.6c0.51-1.4,0.84-2.95,1.01-4.66c0.17-1.71,0.25-3.37,0.25-4.98s0-2.83,0-3.65
						c0-0.91,0.01-2.12,0.04-3.61c0.02-1.49,0.05-3.14,0.07-4.94c0.02-1.8,0.02-3.67,0-5.59c-0.02-1.93-0.09-3.76-0.18-5.52
						c-0.1-1.76-0.25-3.33-0.47-4.73c-0.22-1.4-0.5-2.48-0.83-3.25c2.31-0.1,4.58-0.41,6.82-0.94S369.29,441.38,371.31,440.42z
						 M364.89,436.96c-1.59,0-2.92-0.55-4-1.66c-1.08-1.11-1.62-2.45-1.62-4.04c0-1.59,0.55-2.95,1.66-4.08
						c1.11-1.13,2.43-1.7,3.97-1.7s2.85,0.57,3.93,1.7c1.08,1.13,1.62,2.49,1.62,4.08c0,1.54-0.54,2.88-1.62,4.01
						C367.74,436.39,366.43,436.96,364.89,436.96z"/>
					<path class="st6" d="M388.13,440.42c-0.34,1.15-0.61,2.65-0.83,4.48c-0.22,1.83-0.39,3.81-0.51,5.95
						c-0.12,2.14-0.19,4.37-0.22,6.68s0.04,4.51,0.18,6.6c0.14,2.09,0.35,4.02,0.61,5.77c0.26,1.76,0.64,3.16,1.12,4.22H374.2
						c0.34-0.77,0.64-1.95,0.9-3.54c0.26-1.59,0.49-3.38,0.68-5.38c0.19-2,0.34-4.1,0.43-6.31c0.1-2.21,0.11-4.32,0.04-6.32
						c-0.07-2-0.23-3.79-0.47-5.38c-0.24-1.59-0.58-2.79-1.01-3.61c2.6-0.1,4.92-0.37,6.97-0.83
						C383.79,442.31,385.92,441.53,388.13,440.42z M375.72,431.11c0-1.54,0.57-2.87,1.7-4c1.13-1.13,2.46-1.7,4-1.7
						c1.54,0,2.86,0.57,3.97,1.7c1.11,1.13,1.66,2.47,1.66,4c0,1.59-0.55,2.95-1.66,4.08c-1.11,1.13-2.43,1.7-3.97,1.7
						c-1.59,0-2.94-0.55-4.04-1.66C376.27,434.12,375.72,432.75,375.72,431.11z"/>
					<path class="st6" d="M430.31,456.73c0.86,0.77,1.86,1.42,2.99,1.95c1.13,0.53,2.29,0.88,3.49,1.05
						c1.2,0.17,2.39,0.12,3.56-0.15c1.18-0.26,2.27-0.78,3.28-1.55c0,1.73-0.06,3.61-0.18,5.63s-0.49,3.9-1.12,5.63
						c-0.58,1.68-1.48,3.02-2.7,4c-1.22,0.99-2.53,1.55-3.92,1.7c-1.39,0.15-2.72-0.16-3.99-0.9c-1.27-0.74-2.2-2.01-2.77-3.79
						c-0.38-1.01-0.7-2.2-0.93-3.57c-0.24-1.37-0.48-2.79-0.72-4.26c-0.24-1.47-0.54-2.92-0.9-4.37c-0.36-1.44-0.88-2.74-1.55-3.9
						c-0.67-1.15-1.55-2.13-2.63-2.92c-1.08-0.79-2.46-1.26-4.14-1.41c0,0.96,0.01,2.13,0.03,3.5c0.02,1.37,0.07,2.85,0.14,4.44
						c0.07,1.59,0.17,3.21,0.29,4.87c0.12,1.66,0.28,3.26,0.47,4.8c0.19,1.54,0.43,2.95,0.72,4.22c0.29,1.28,0.62,2.3,1,3.07
						c-0.67-0.14-1.65-0.25-2.92-0.32c-1.28-0.07-2.65-0.13-4.11-0.18c-1.47-0.05-2.91-0.08-4.33-0.11
						c-1.42-0.03-2.61-0.04-3.57-0.04c0.39-1.25,0.72-3.19,1.01-5.81c0.29-2.62,0.52-5.56,0.69-8.81c0.17-3.25,0.25-6.66,0.25-10.25
						s-0.06-6.98-0.18-10.18c-0.12-3.2-0.32-6.05-0.61-8.55c-0.29-2.5-0.67-4.33-1.15-5.48h21.42c1.87,0,3.8,0.2,5.79,0.61
						c1.99,0.41,3.8,1.07,5.43,1.98c1.63,0.91,2.96,2.14,4,3.68c1.03,1.54,1.55,3.42,1.55,5.63c0,3.08-0.78,5.49-2.34,7.22
						c-1.56,1.73-3.5,3.02-5.83,3.86c-2.33,0.84-4.82,1.36-7.49,1.55c-2.66,0.19-5.1,0.29-7.31,0.29c0.82,0.19,1.63,0.53,2.45,1.01
						c0.82,0.48,1.61,1.05,2.38,1.7c0.77,0.65,1.52,1.34,2.27,2.06C428.86,455.36,429.59,456.06,430.31,456.73z M420.38,425.91
						c-0.48,1.35-0.86,3.03-1.15,5.05c-0.29,2.02-0.52,4.11-0.68,6.28c-0.17,2.16-0.29,4.29-0.36,6.39
						c-0.07,2.09-0.11,3.86-0.11,5.31c1.87-0.1,3.76-0.41,5.68-0.94c1.92-0.53,3.63-1.26,5.14-2.2c1.51-0.94,2.74-2.09,3.7-3.46
						c0.96-1.37,1.44-3,1.44-4.87c0-1.3-0.34-2.62-1.01-3.97c-0.67-1.35-1.6-2.56-2.8-3.65c-1.2-1.08-2.64-1.98-4.31-2.71
						C424.23,426.42,422.39,426.01,420.38,425.91z"/>
					<path class="st6" d="M460.87,440.42c-0.34,1.15-0.61,2.65-0.83,4.48c-0.22,1.83-0.39,3.81-0.51,5.95
						c-0.12,2.14-0.19,4.37-0.22,6.68s0.04,4.51,0.18,6.6c0.14,2.09,0.35,4.02,0.61,5.77c0.26,1.76,0.64,3.16,1.12,4.22h-14.29
						c0.34-0.77,0.64-1.95,0.9-3.54c0.26-1.59,0.49-3.38,0.68-5.38c0.19-2,0.34-4.1,0.43-6.31c0.1-2.21,0.11-4.32,0.04-6.32
						c-0.07-2-0.23-3.79-0.47-5.38c-0.24-1.59-0.58-2.79-1.01-3.61c2.6-0.1,4.92-0.37,6.97-0.83
						C456.53,442.31,458.66,441.53,460.87,440.42z M448.46,431.11c0-1.54,0.57-2.87,1.7-4c1.13-1.13,2.46-1.7,4-1.7
						c1.54,0,2.86,0.57,3.97,1.7c1.11,1.13,1.66,2.47,1.66,4c0,1.59-0.55,2.95-1.66,4.08c-1.11,1.13-2.43,1.7-3.97,1.7
						c-1.59,0-2.94-0.55-4.04-1.66C449.01,434.12,448.46,432.75,448.46,431.11z"/>
					<path class="st6" d="M485.99,426.28c1.25,0.19,2.35,0.82,3.28,1.88c0.94,1.06,1.41,2.36,1.41,3.9c0,1.35-0.28,2.53-0.83,3.54
						c-0.55,1.01-1.38,1.56-2.49,1.66c-0.91,0.1-1.66-0.13-2.24-0.69s-0.87-1.21-0.87-1.98c0-0.58,0.13-1.12,0.4-1.62
						c0.27-0.51,0.55-1,0.87-1.48c0.31-0.48,0.57-0.95,0.76-1.41c0.19-0.46,0.22-0.95,0.07-1.48c-0.24-0.72-0.76-1.11-1.55-1.15
						c-0.8-0.05-1.67,0.1-2.63,0.43c-0.96,0.34-1.88,0.77-2.74,1.3c-0.87,0.53-1.47,0.99-1.8,1.37c-0.24,1.11-0.46,2.49-0.65,4.15
						c-0.19,1.66-0.36,3.79-0.51,6.39h6.85v0.72h-6.85c-0.15,2.94-0.22,6.03-0.22,9.28c0,3.25,0.06,6.36,0.18,9.35
						c0.12,2.99,0.32,5.69,0.61,8.12c0.29,2.43,0.7,4.29,1.23,5.59h-14.15c0.48-1.35,0.88-3.31,1.19-5.88
						c0.31-2.57,0.54-5.39,0.69-8.44c0.14-3.06,0.22-6.18,0.22-9.38c0-3.2-0.07-6.07-0.22-8.63h-1.73v-0.72h1.66
						c-0.1-1.3-0.24-2.55-0.43-3.75c-0.19-1.2-0.55-2.41-1.08-3.61c2.69,0.05,4.98-0.35,6.86-1.19c1.88-0.84,3.6-1.76,5.16-2.74
						c1.56-0.98,3.08-1.86,4.55-2.63C482.44,426.37,484.12,426.08,485.99,426.28z"/>
					<path class="st6" d="M519.7,440.93c-0.29,0.77-0.52,2.01-0.69,3.72c-0.17,1.71-0.3,3.63-0.4,5.77c-0.1,2.14-0.12,4.4-0.07,6.78
						c0.05,2.38,0.14,4.67,0.29,6.86c0.15,2.19,0.37,4.18,0.69,5.95c0.31,1.78,0.69,3.13,1.12,4.04c-0.82,0-1.61-0.02-2.38-0.07
						c-0.77-0.05-1.54-0.12-2.31-0.22c-2.12-0.19-3.93-0.24-5.45-0.14c-1.52,0.1-2.95,0.24-4.29,0.43c-1.35,0.19-2.7,0.38-4.04,0.58
						c-1.35,0.19-2.86,0.29-4.55,0.29c-3.61,0-6.5-0.85-8.66-2.56c-2.17-1.71-3.25-4.41-3.25-8.12c0-1.88,0.28-3.43,0.83-4.66
						c0.55-1.23,1.3-2.25,2.24-3.07c0.94-0.82,2.02-1.44,3.25-1.88c1.23-0.43,2.51-0.79,3.86-1.08c0.62-0.15,1.47-0.31,2.53-0.51
						s2.18-0.43,3.36-0.72c1.18-0.29,2.36-0.65,3.54-1.08c1.18-0.43,2.2-0.99,3.07-1.66c0-0.96-0.01-1.66-0.03-2.09
						c-0.02-0.43-0.08-0.96-0.18-1.59c-0.34-0.62-0.95-1.25-1.84-1.88c-0.89-0.62-1.85-1.19-2.89-1.7c-1.03-0.51-2.08-0.9-3.14-1.19
						c-1.06-0.29-1.93-0.38-2.6-0.29c-0.53,0.1-0.96,0.36-1.3,0.79c-0.34,0.43-0.51,0.99-0.51,1.66c0,0.72,0.07,1.53,0.22,2.42
						c0.15,0.89,0.18,1.74,0.11,2.56c-0.07,0.82-0.35,1.5-0.83,2.06c-0.48,0.55-1.35,0.83-2.6,0.83c-1.25,0-2.24-0.45-2.96-1.34
						c-0.72-0.89-1.08-2.01-1.08-3.36c0-1.49,0.31-2.71,0.94-3.64c0.62-0.94,1.43-1.65,2.42-2.13c0.99-0.48,2.08-0.78,3.28-0.9
						c1.2-0.12,2.41-0.11,3.61,0.04c1.15,0.14,2.27,0.39,3.36,0.72c1.08,0.34,2.16,0.7,3.25,1.08c1.08,0.39,2.14,0.73,3.18,1.05
						c1.03,0.31,2.08,0.52,3.14,0.61c0.87,0.1,1.62,0.08,2.27-0.04c0.65-0.12,1.27-0.3,1.88-0.54c0.6-0.24,1.19-0.52,1.77-0.83
						C518.4,441.59,519.02,441.26,519.7,440.93z M506.49,472.54c0.38-1.68,0.71-3.45,0.97-5.3c0.27-1.85,0.47-3.73,0.61-5.63
						c0.14-1.9,0.23-3.76,0.25-5.59c0.02-1.83,0.03-3.56,0.03-5.2c-0.43,0.43-1.03,0.88-1.8,1.34c-0.77,0.46-1.55,0.88-2.34,1.26
						c-0.8,0.39-1.54,0.75-2.24,1.08c-0.7,0.34-1.22,0.6-1.55,0.8c-1.4,0.77-2.62,1.84-3.68,3.21c-1.06,1.37-1.59,3.38-1.59,6.02
						c0,1.68,0.31,3.14,0.94,4.37c0.62,1.23,1.45,2.2,2.49,2.92c1.03,0.72,2.24,1.15,3.61,1.3
						C503.57,473.26,505,473.07,506.49,472.54z"/>
					<path class="st6" d="M550.22,449.87c-0.67-0.72-1.51-1.53-2.53-2.42c-1.01-0.89-2.09-1.73-3.25-2.53
						c-1.15-0.79-2.33-1.47-3.54-2.02c-1.2-0.55-2.31-0.83-3.32-0.83c-0.96,0-1.64,0.18-2.02,0.54c-0.38,0.36-0.58,0.81-0.58,1.34
						c0,0.53,0.13,1.1,0.4,1.7c0.27,0.6,0.59,1.14,0.98,1.62c1.15,1.44,2.53,2.93,4.11,4.48c1.59,1.54,3.15,2.84,4.69,3.9
						c0.91,0.72,1.78,1.44,2.6,2.17s1.54,1.48,2.17,2.27c0.62,0.8,1.12,1.64,1.48,2.53s0.54,1.86,0.54,2.92
						c0,1.68-0.32,3.12-0.97,4.29c-0.65,1.18-1.53,2.14-2.63,2.89c-1.11,0.75-2.41,1.3-3.9,1.66s-3.06,0.54-4.69,0.54
						c-0.82,0-1.6-0.11-2.34-0.32c-0.75-0.22-1.48-0.47-2.2-0.76c-0.72-0.29-1.44-0.6-2.17-0.94c-0.72-0.34-1.44-0.65-2.17-0.94
						c-1.4-0.53-2.62-0.77-3.68-0.72c-1.06,0.05-2.29,0.34-3.68,0.87c0.43-0.39,0.75-0.91,0.94-1.59c0.19-0.67,0.31-1.4,0.36-2.17
						c0.05-0.77,0.05-1.53,0-2.27c-0.05-0.75-0.1-1.41-0.15-1.98c0.67,1.01,1.49,2.04,2.46,3.1c0.96,1.06,1.97,2.02,3.03,2.89
						c1.06,0.87,2.12,1.56,3.17,2.09c1.06,0.53,2.04,0.79,2.96,0.79c0.77,0,1.5-0.2,2.2-0.61c0.7-0.41,1.05-1.05,1.05-1.91
						c0-1.3-0.39-2.48-1.15-3.54c-0.77-1.06-1.73-2.09-2.89-3.1c-1.15-1.01-2.39-2.02-3.72-3.03c-1.32-1.01-2.56-2.09-3.72-3.25
						c-1.15-1.15-2.12-2.43-2.89-3.82c-0.77-1.4-1.15-2.98-1.15-4.76c0-2.84,0.87-5.09,2.6-6.75c1.73-1.66,4.09-2.49,7.07-2.49
						c1.73,0,3.22,0.27,4.48,0.79c1.25,0.53,2.4,1.11,3.46,1.73c1.06,0.63,2.07,1.2,3.03,1.73c0.96,0.53,2.02,0.79,3.17,0.79
						c0.38,0,0.83-0.05,1.34-0.14c0.51-0.09,0.95-0.22,1.34-0.36c-0.19,0.91-0.31,1.85-0.36,2.81
						C550.1,448.02,550.13,448.96,550.22,449.87z M550.22,449.87c-0.67-0.72-1.51-1.54-2.53-2.45c-1.01-0.91-2.09-1.77-3.25-2.56
						c-1.15-0.79-2.33-1.47-3.54-2.02c-1.2-0.55-2.31-0.83-3.32-0.83c-0.96,0-1.64,0.18-2.02,0.54c-0.38,0.36-0.58,0.81-0.58,1.34
						c0,0.53,0.13,1.1,0.4,1.7c0.27,0.6,0.59,1.14,0.98,1.63c1.15,1.49,2.53,2.99,4.11,4.51c1.59,1.52,3.15,2.8,4.69,3.86
						c0.91,0.72,1.78,1.44,2.6,2.17s1.54,1.48,2.17,2.27c0.62,0.8,1.12,1.65,1.48,2.56c0.36,0.91,0.54,1.9,0.54,2.96
						c0,1.68-0.32,3.12-0.97,4.29c-0.65,1.18-1.53,2.14-2.63,2.89c-1.11,0.75-2.41,1.3-3.9,1.66s-3.06,0.54-4.69,0.54
						c-0.82,0-1.6-0.11-2.34-0.32c-0.75-0.22-1.48-0.47-2.2-0.76c-0.72-0.29-1.44-0.6-2.17-0.94c-0.72-0.34-1.44-0.65-2.17-0.94
						c-1.4-0.53-2.62-0.77-3.68-0.72c-1.06,0.05-2.29,0.34-3.68,0.87c0.43-0.39,0.75-0.91,0.94-1.59c0.19-0.67,0.31-1.4,0.36-2.17
						c0.05-0.77,0.05-1.54,0-2.31c-0.05-0.77-0.1-1.42-0.15-1.95c0.67,1.01,1.49,2.04,2.46,3.1c0.96,1.06,1.97,2.02,3.03,2.89
						c1.06,0.87,2.12,1.56,3.17,2.09c1.06,0.53,2.04,0.79,2.96,0.79c0.77,0,1.5-0.2,2.2-0.61c0.7-0.41,1.05-1.05,1.05-1.91
						c0-1.3-0.39-2.49-1.15-3.57c-0.77-1.08-1.73-2.12-2.89-3.1c-1.15-0.99-2.39-1.98-3.72-3c-1.32-1.01-2.56-2.1-3.72-3.28
						c-1.15-1.18-2.12-2.45-2.89-3.83c-0.77-1.37-1.15-2.95-1.15-4.73c0-2.89,0.87-5.15,2.6-6.78s4.09-2.45,7.07-2.45
						c1.73,0,3.22,0.27,4.48,0.79c1.25,0.53,2.4,1.11,3.46,1.73c1.06,0.63,2.07,1.2,3.03,1.73c0.96,0.53,2.02,0.79,3.17,0.79
						c0.38,0,0.83-0.06,1.34-0.18c0.51-0.12,0.95-0.25,1.34-0.4c-0.19,0.96-0.31,1.91-0.36,2.85S550.13,448.91,550.22,449.87z"/>
				</g>
			</g>
			<g>
				<path class="st6" d="M483.22,320.81c-3.68-6.53-8.54-12.04-14.58-16.53c-6.05-4.49-13.07-7.96-21.06-10.41
					c-7.99-2.45-16.2-3.98-24.62-4.59c7.56-3.06,14.58-6.22,21.06-9.49c6.48-3.26,12.15-6.94,17.01-11.02
					c4.86-4.08,8.69-8.83,11.5-14.24c2.8-5.4,4.21-11.79,4.21-19.13c0-7.75-1.89-14.34-5.67-19.74c-3.78-5.41-8.64-9.84-14.58-13.32
					c-5.94-3.47-12.75-6.02-20.41-7.65c-7.67-1.63-15.39-2.45-23.16-2.45h-45.36c-4.54,0-9.78,0-15.71,0
					c-5.94,0-11.88-0.05-17.82-0.15c-5.94-0.1-11.61-0.35-17.01-0.77c-5.4-0.41-9.72-1.02-12.96-1.84
					c2.16,6.73,3.89,14.9,5.19,24.49c1.3,9.6,2.27,19.44,2.91,29.54c0.65,10.1,1.02,20,1.13,29.69c0.11,9.7,0.16,18.11,0.16,25.26
					c0,3.47-0.06,7.96-0.16,13.47c-0.11,5.51-0.27,11.53-0.49,18.06c-0.22,6.53-0.49,13.32-0.81,20.36
					c-0.32,7.04-0.81,13.73-1.46,20.05c-0.65,6.33-1.46,12.14-2.43,17.45c-0.97,5.31-2.11,9.49-3.4,12.55h114.69
					c10.37,0,19.76-1.07,28.19-3.21c8.42-2.14,15.71-5.51,21.87-10.1c6.16-4.59,10.9-10.51,14.25-17.76
					c3.35-7.24,5.02-15.97,5.02-26.17C488.72,334.79,486.89,327.34,483.22,320.81z M446.07,331.08c-0.39,6.59-1.6,12.71-3.64,18.36
					c-1.88,5.5-4.82,9.85-8.8,13.07c-3.99,3.21-8.25,5.06-12.79,5.53c-4.54,0.47-8.88-0.51-13.03-2.94
					c-4.15-2.43-7.16-6.55-9.04-12.36c-1.25-3.3-2.27-7.18-3.05-11.65c-0.78-4.47-1.57-9.1-2.35-13.89
					c-0.78-4.79-1.76-9.53-2.93-14.24c-1.17-4.71-2.86-8.95-5.05-12.71c-2.19-3.77-5.05-6.94-8.56-9.53
					c-3.52-2.59-8.02-4.12-13.5-4.59c0,3.14,0.04,6.95,0.12,11.42c0.08,4.47,0.23,9.3,0.47,14.48c0.24,5.18,0.55,10.48,0.94,15.89
					c0.39,5.41,0.9,10.63,1.52,15.65c0.63,5.03,1.4,9.62,2.34,13.77c0.93,4.16,2.03,7.5,3.28,10.01c-2.2-0.47-5.38-0.82-9.53-1.06
					c-4.16-0.24-8.64-0.43-13.42-0.59c-4.79-0.16-9.5-0.28-14.12-0.35c-4.63-0.08-8.51-0.12-11.65-0.12
					c1.25-4.08,2.35-10.39,3.3-18.95c0.94-8.55,1.68-18.13,2.24-28.72c0.55-10.59,0.83-21.74,0.83-33.43
					c0-11.69-0.2-22.75-0.59-33.19c-0.39-10.44-1.06-19.73-2-27.9c-0.94-8.16-2.2-14.13-3.77-17.89h69.86c6.11,0,12.41,0.67,18.9,2
					c6.5,1.34,12.4,3.49,17.73,6.47c5.32,2.98,9.67,6.99,13.03,12.01c3.36,5.02,5.05,11.15,5.05,18.36
					c0,10.05-2.55,17.89-7.63,23.54c-5.09,5.65-11.43,9.85-19.02,12.59c-7.59,2.75-15.73,4.44-24.42,5.06
					c-8.69,0.63-16.63,0.94-23.83,0.94c2.66,0.63,5.32,1.73,7.98,3.3c2.66,1.57,5.24,3.41,7.75,5.53c2.5,2.12,4.97,4.35,7.39,6.71
					s4.82,4.63,7.17,6.83c2.82,2.51,6.07,4.63,9.74,6.36c3.68,1.73,7.48,2.87,11.39,3.41c3.91,0.55,7.79,0.39,11.62-0.47
					c3.83-0.86,7.4-2.55,10.68-5.06C446.66,318.37,446.47,324.49,446.07,331.08z"/>
				<path class="st6" d="M398.6,272.82c4.92-3.06,8.94-6.83,12.07-11.3c3.12-4.47,4.69-9.77,4.69-15.89c0-4.24-1.1-8.55-3.28-12.95
					c-2.19-4.39-5.24-8.36-9.14-11.89c-3.91-3.53-8.6-6.47-14.06-8.83c-5.47-2.35-11.48-3.69-18.04-4
					c-1.56,4.4-2.82,9.89-3.75,16.48c-0.94,6.59-1.68,13.42-2.23,20.48c-0.55,7.06-0.94,14.01-1.17,20.83
					c-0.24,6.83-0.35,12.6-0.35,17.3c6.09-0.31,12.26-1.33,18.51-3.06C388.09,278.27,393.68,275.88,398.6,272.82z"/>
			</g>
		</g>
		<g>
			<path class="st6" d="M257.93,123.08c0,0,4.23,9.32,6.63,11.64c2.42,2.33,11.87,6.23,11.87,6.23s-9.32,4.23-11.64,6.64
				c-2.33,2.41-6.23,11.87-6.23,11.87s-4.22-9.32-6.64-11.65c-2.41-2.33-11.87-6.23-11.87-6.23s9.32-4.22,11.65-6.64
				C254.03,132.54,257.93,123.08,257.93,123.08z"/>
			<path class="st6" d="M289.24,176.04c0,0,1.72,3.8,2.7,4.75c0.98,0.95,4.84,2.54,4.84,2.54s-3.8,1.72-4.75,2.71
				c-0.95,0.98-2.54,4.84-2.54,4.84s-1.72-3.8-2.71-4.75c-0.98-0.95-4.84-2.54-4.84-2.54s3.8-1.72,4.75-2.71
				C287.66,179.89,289.24,176.04,289.24,176.04z"/>
		</g>
	</g>
</g>
</svg>
