<?xml version="1.0" encoding="iso-8859-1"?>
<!-- Generator: Adobe Illustrator 19.0.0, SVG Export Plug-In . SVG Version: 6.00 Build 0)  -->
<svg version="1.1" id="Layer_1" xmlns="http://www.w3.org/2000/svg" xmlns:xlink="http://www.w3.org/1999/xlink" x="0px" y="0px"
	 viewBox="0 0 460 460" style="enable-background:new 0 0 460 460;" xml:space="preserve">
<g>
	<path style="fill:#FFC240;" d="M230,0C102.974,0,0,102.974,0,230c0,114.02,82.968,208.662,191.825,226.846l265.021-265.021
		C438.662,82.968,344.02,0,230,0z"/>
	<path style="fill:#FF984C;" d="M460,230c0-13.006-1.097-25.754-3.171-38.171L385,120L30,295l161.829,161.829
		C204.246,458.903,216.994,460,230,460C357.025,460,460,357.025,460,230z"/>
	<path style="fill:#FFE1A0;" d="M430,295V165c-24.853,0-45-20.147-45-45h-68.5l-10,10l-10-10H230l-31.765,110L230,340h66.5l10-10
		l10,10H385C385,315.147,405.147,295,430,295z"/>
	<path style="fill:#FFF0CF;" d="M75,120c0,24.853-20.147,45-45,45v130c24.853,0,45,20.147,45,45h155V120H75z"/>
	<path style="fill:#FFF0CF;" d="M353,167H230l-12.941,63L230,293h123c16.5,0,30-13.5,30-30v-66C383,180.5,369.5,167,353,167z"/>
	<rect x="296.5" y="120" style="fill:#FF984C;" width="20" height="30"/>
	<rect x="296.5" y="183.333" style="fill:#FF984C;" width="20" height="30"/>
	<rect x="296.5" y="246.667" style="fill:#FF984C;" width="20" height="30"/>
	<rect x="296.5" y="310" style="fill:#FF984C;" width="20" height="30"/>
	<path style="fill:#FFFFFF;" d="M107,167c-16.5,0-30,13.5-30,30v66c0,16.5,13.5,30,30,30h123V167H107z"/>
</g>
<g>
</g>
<g>
</g>
<g>
</g>
<g>
</g>
<g>
</g>
<g>
</g>
<g>
</g>
<g>
</g>
<g>
</g>
<g>
</g>
<g>
</g>
<g>
</g>
<g>
</g>
<g>
</g>
<g>
</g>
</svg>
