<svg xmlns="http://www.w3.org/2000/svg" viewBox="0 0 1920 170"><defs><style>.cls-1{fill:#fdcb59;}.cls-2{fill:#e7e6e6;}.cls-3{fill:#fff;}.cls-4{fill:#4b4c65;}.cls-5{fill:#010101;opacity:0.2;isolation:isolate;}.cls-6{fill:#f6b6b9;}.cls-7{fill:#585b8a;}.cls-8{fill:#302f42;}.cls-9{fill:#403e56;}</style></defs><g id="Capa_2" data-name="Capa 2"><g id="Fondo"><rect class="cls-1" width="1920" height="170"/></g><g id="Imagen_1" data-name="Imagen 1"><path class="cls-2" d="M939,43.15H937.9V19.59C937.9,12.06,930.19,6,920.69,6h-63c-9.5,0-17.2,6.11-17.2,13.64h0V148.87c0,7.53,7.7,13.63,17.2,13.63h63c9.5,0,17.21-6.1,17.21-13.63h0V59.93H939Z"/><path class="cls-3" d="M921.38,9.5h-8.22c1.28,2.47-.22,5.3-3.34,6.31a7.75,7.75,0,0,1-2.31.36H871.43c-3.37,0-6.1-2.17-6.1-4.84a4,4,0,0,1,.45-1.83H858.1c-7.09,0-12.85,4.56-12.85,10.18h0V148.77c0,5.63,5.76,10.19,12.85,10.19h63.28c7.1,0,12.85-4.56,12.85-10.19h0V19.68c0-5.62-5.75-10.18-12.85-10.18Z"/><path class="cls-2" d="M871.1,35.74h-3.78a.46.46,0,0,0-.5.4v1.31a.46.46,0,0,0,.5.4H868v2h2.52v-2h.63a.46.46,0,0,0,.5-.4V36.14A.46.46,0,0,0,871.1,35.74Z"/><path class="cls-2" d="M874.88,47.77a13.26,13.26,0,0,1-3.38-9.13.33.33,0,0,0-.32-.32v-.57h-4v.56h-.05a.38.38,0,0,0-.41.33v0A12,12,0,0,1,863.55,48a.78.78,0,0,0-.21.54l.44,10.7a1.07,1.07,0,0,0,1.16.89h9a1.07,1.07,0,0,0,1.16-.91l.17-10.39A1.6,1.6,0,0,0,874.88,47.77Z"/><path class="cls-3" d="M873.46,51.33H865.6a.73.73,0,0,0-.81.64s0,.06,0,.09L866,58.18h6.82l1.44-6.1c.08-.34-.21-.68-.65-.74Z"/><path class="cls-2" d="M913.16,67.79h-3.78a.46.46,0,0,0-.5.4V69.5a.46.46,0,0,0,.5.4H910v2h2.52v-2h.63a.46.46,0,0,0,.5-.4V68.19A.46.46,0,0,0,913.16,67.79Z"/><path class="cls-2" d="M916.94,79.82a13.2,13.2,0,0,1-3.37-9.12.35.35,0,0,0-.32-.33V69.8h-4v.56h0a.38.38,0,0,0-.41.33v0a12,12,0,0,1-3.18,9.35.82.82,0,0,0-.21.54l.44,10.7a1.07,1.07,0,0,0,1.16.89h9a1.06,1.06,0,0,0,1.16-.91l.17-10.38A1.61,1.61,0,0,0,916.94,79.82Z"/><path class="cls-3" d="M915.52,83.38h-7.86a.74.74,0,0,0-.81.64s0,.06,0,.1l1.19,6.11h6.82l1.44-6.09a.67.67,0,0,0-.65-.75Z"/><path class="cls-2" d="M865.79,113.1H864a.22.22,0,0,0-.24.19h0v.63c0,.1.1.18.24.18h.29V115h1.2v-.94h.3c.13,0,.24-.08.24-.18h0v-.63a.22.22,0,0,0-.24-.19Z"/><path class="cls-2" d="M867.58,118.81a6.28,6.28,0,0,1-1.6-4.33.16.16,0,0,0-.15-.15v-.27h-1.89v.26h0a.17.17,0,0,0-.19.16h0a5.7,5.7,0,0,1-1.51,4.43.34.34,0,0,0-.1.26l.21,5.07a.5.5,0,0,0,.54.43h4.29a.51.51,0,0,0,.55-.43l.08-4.93A.78.78,0,0,0,867.58,118.81Z"/><rect class="cls-3" x="862.88" y="120.68" width="4.09" height="1.62"/><path class="cls-2" d="M874.13,113.1h-1.79a.22.22,0,0,0-.24.19h0v.63c0,.1.11.18.24.18h.3V115h1.19v-.94h.3c.13,0,.24-.08.24-.18h0v-.63a.22.22,0,0,0-.24-.19Z"/><path class="cls-2" d="M875.93,118.81a6.29,6.29,0,0,1-1.61-4.33.16.16,0,0,0-.15-.15v-.27h-1.89v.26h0a.17.17,0,0,0-.19.16h0a5.7,5.7,0,0,1-1.51,4.43.39.39,0,0,0-.1.26l.21,5.07a.51.51,0,0,0,.55.43h4.28a.51.51,0,0,0,.55-.43l.08-4.93A.83.83,0,0,0,875.93,118.81Z"/><rect class="cls-3" x="871.22" y="120.68" width="4.09" height="1.62"/><path class="cls-2" d="M882.47,113.1h-1.79a.22.22,0,0,0-.24.19h0v.63c0,.1.11.18.24.18h.3V115h1.2v-.94h.29c.13,0,.24-.08.24-.18h0v-.63a.22.22,0,0,0-.24-.19Z"/><path class="cls-2" d="M884.27,118.81a6.23,6.23,0,0,1-1.6-4.33.17.17,0,0,0-.16-.15v-.27h-1.89v.26h0a.18.18,0,0,0-.2.16h0a5.66,5.66,0,0,1-1.51,4.43.39.39,0,0,0-.1.26l.21,5.07a.51.51,0,0,0,.55.43h4.28a.5.5,0,0,0,.55-.43l.08-4.93A.77.77,0,0,0,884.27,118.81Z"/><rect class="cls-3" x="879.57" y="120.68" width="4.09" height="1.62"/><path class="cls-2" d="M906.6,100.7h-3.78a.46.46,0,0,0-.5.4h0v1.32a.45.45,0,0,0,.5.39h.62v2H906v-2h.63a.46.46,0,0,0,.5-.39V101.1a.46.46,0,0,0-.5-.4Z"/><path class="cls-2" d="M910.38,112.74a13.23,13.23,0,0,1-3.38-9.13c0-.16-.13-.29-.32-.33v-.57h-4v.56h-.05c-.23,0-.41.15-.41.33v0A12,12,0,0,1,899,113a.76.76,0,0,0-.2.54l.44,10.7a1.08,1.08,0,0,0,1.15.9h9a1.08,1.08,0,0,0,1.16-.91l.17-10.39A1.63,1.63,0,0,0,910.38,112.74Z"/><path class="cls-3" d="M909,116.29H901.1a.74.74,0,0,0-.81.64.34.34,0,0,0,0,.1l1.19,6.11h6.81l1.44-6.09c.09-.35-.2-.68-.64-.75Z"/><path class="cls-2" d="M908.66,61.52H886.14c1.57-6.75,1.21-14.9,0-23.66h22.52C907.48,46.62,907.13,54.77,908.66,61.52Z"/><ellipse class="cls-3" cx="897.53" cy="49.04" rx="5.43" ry="4.3"/><path class="cls-2" d="M888,92.93H865.51c1.58-6.75,1.22-14.9,0-23.67H888C886.86,78,886.5,86.18,888,92.93Z"/><ellipse class="cls-3" cx="876.91" cy="80.45" rx="5.43" ry="4.3"/><path class="cls-2" d="M921.41,63H898.89c1.57-6.74,1.21-14.89,0-23.66h22.52C920.23,48.13,919.88,56.28,921.41,63Z"/><ellipse class="cls-3" cx="910.29" cy="50.55" rx="5.43" ry="4.3"/><path class="cls-2" d="M921.41,62H898.89c1.57-6.75,1.21-14.9,0-23.66h22.52C920.23,47.05,919.88,55.2,921.41,62Z"/><ellipse class="cls-3" cx="910.29" cy="49.47" rx="5.43" ry="4.3"/><path class="cls-2" d="M921.41,63H898.89c1.57-6.74,1.21-14.89,0-23.66h22.52C920.23,48.13,919.88,56.28,921.41,63Z"/><ellipse class="cls-3" cx="910.29" cy="50.55" rx="5.43" ry="4.3"/><rect class="cls-2" x="852.76" y="60.23" width="73.81" height="6.45"/><rect class="cls-2" x="852.76" y="92.28" width="73.81" height="6.45"/><rect class="cls-2" x="852.76" y="124.33" width="73.81" height="6.45"/><path class="cls-4" d="M1055,150.51l-18.38-10.31c6.2-4.79,11.84-11.61,17.23-19.32l18.39,10.31C1064.85,137.81,1058.63,144.3,1055,150.51Z"/><ellipse class="cls-3" cx="1054.97" cy="135.23" rx="5.43" ry="4.3"/><path class="cls-2" d="M966.26,103.47h-2a.24.24,0,0,0-.27.21v.7a.24.24,0,0,0,.27.21h.34v1h1.35v-1h.33a.24.24,0,0,0,.27-.21v-.7A.24.24,0,0,0,966.26,103.47Z"/><path class="cls-4" d="M968.28,109.89a7,7,0,0,1-1.8-4.87.19.19,0,0,0-.17-.18v-.3h-2.14v.3h0c-.13,0-.22.08-.22.17h0a6.45,6.45,0,0,1-1.7,5,.36.36,0,0,0-.11.29l.23,5.71a.57.57,0,0,0,.62.48h4.82a.58.58,0,0,0,.62-.49l.09-5.54A.86.86,0,0,0,968.28,109.89Z"/><path class="cls-5" d="M965.84,103.69a.53.53,0,0,1-.58.46.52.52,0,0,1-.57-.46"/><rect class="cls-3" x="963.27" y="110.99" width="4.07" height="2.15"/><path class="cls-2" d="M1030.14,125.79h-3.78a.46.46,0,0,0-.5.4v1.32a.45.45,0,0,0,.5.39h.62v2h2.53v-2h.63a.46.46,0,0,0,.5-.39h0v-1.32A.46.46,0,0,0,1030.14,125.79Z"/><path class="cls-4" d="M1033.92,137.83a13.23,13.23,0,0,1-3.38-9.13.36.36,0,0,0-.32-.33v-.57h-4v.57h0a.37.37,0,0,0-.41.32h0v0a12,12,0,0,1-3.19,9.35.76.76,0,0,0-.2.54l.43,10.7a1.09,1.09,0,0,0,1.16.9h9a1.08,1.08,0,0,0,1.16-.91l.17-10.39A1.63,1.63,0,0,0,1033.92,137.83Z"/><path class="cls-5" d="M1029.35,126.22a1.11,1.11,0,0,1-2.16,0"/><path class="cls-3" d="M1032.49,141.38h-7.86a.74.74,0,0,0-.8.64.34.34,0,0,0,0,.1l1.18,6.11h6.82l1.44-6.09c.09-.35-.2-.68-.64-.75Z"/><path class="cls-4" d="M1019.36,150.5H996.83c1.58-6.75,1.21-14.9,0-23.67h22.53C1018.18,135.6,1017.82,143.75,1019.36,150.5Z"/><ellipse class="cls-3" cx="1008.23" cy="138.02" rx="5.43" ry="4.3"/><polygon class="cls-6" points="927.23 76.03 932.29 75.66 935.51 69.47 929.76 66.92 927.23 76.03"/><path class="cls-6" d="M973.63,93h0c.59-1.16-.12-2.47-1.58-2.94a3.39,3.39,0,0,0-.89-.15l-7.85-.38-1.16,3,8.08,1.76A3.08,3.08,0,0,0,973.63,93Z"/><path class="cls-7" d="M965.2,94.42l-.08-5.72-17.44-2.2L934.25,74.29a5.25,5.25,0,0,0-5.73-.63h0c-2,1.06-2.6,3.22-1.26,4.83a3.24,3.24,0,0,0,.49.49l11.08,10.81Z"/><path class="cls-8" d="M923.32,158.74h4.6l11.4-40.86,11.81,12.62,6.9,27.33h4.37l-.92-29.33-15.4-31.34H930.91c-4.15,6-7.4,12.08-3.68,18.4Z"/><path class="cls-8" d="M955.21,161.22a.93.93,0,0,0,.79,1.19.4.4,0,0,0,.15,0L967.39,164a1.92,1.92,0,0,0,2.1-1h0a1.35,1.35,0,0,0-.9-1.73,16.74,16.74,0,0,1-6.2-4.28,3.78,3.78,0,0,1-4.08.15l-1.56.16Z"/><path class="cls-8" d="M921.2,161.22a.92.92,0,0,0,.78,1.19.4.4,0,0,0,.15,0L933.38,164a1.92,1.92,0,0,0,2.1-1h0a1.35,1.35,0,0,0-.9-1.73,16.74,16.74,0,0,1-6.2-4.28,3.79,3.79,0,0,1-4.09.15l-1.55.16Z"/><ellipse class="cls-6" cx="935.62" cy="66.64" rx="6.44" ry="5.1"/><path class="cls-7" d="M929.87,98.53l16.78-.37-4.92-12.29c3.06-3.89,0-7.78-4.39-11.66l-3.44-1.83L928.38,72h0a9.64,9.64,0,0,0-3.65,7.48A39.92,39.92,0,0,0,929.87,98.53Z"/><path class="cls-6" d="M968.42,106.8h0a1.93,1.93,0,0,0,0-3.19,2.57,2.57,0,0,0-.74-.43l-7-2.79-2.58,2.44,6.56,4.14A3.42,3.42,0,0,0,968.42,106.8Z"/><path class="cls-7" d="M960,105.45l2.76-5.28L947.8,92.7l-6.29-15.42c-.67-1.66-2.79-2.66-5-2.35h0c-2.39.34-4,2.15-3.55,4a3,3,0,0,0,.21.6L938,93Z"/><path class="cls-8" d="M925.05,64.64A8.91,8.91,0,0,0,928.73,71c1.38.88,3.2.85,3.9-.37a16.63,16.63,0,0,1,7.59-6c5.83-2.45-2.07-6.65-7.59-6C928.49,59.11,925.05,61.32,925.05,64.64Z"/><ellipse class="cls-8" cx="928.96" cy="58.26" rx="4.6" ry="3.64"/><path class="cls-8" d="M934.24,57c0-1.91-1.85-3.49-4.25-3.63l.34,0c2.54,0,4.6,1.64,4.6,3.65s-2.06,3.64-4.6,3.64H930C932.39,60.48,934.24,58.89,934.24,57Z"/><ellipse class="cls-6" cx="935.74" cy="67.37" rx="1.03" ry="1.09"/><polygon class="cls-9" points="1065.97 152.06 994.42 152.06 979.26 95.28 966.33 95.28 966.33 92.73 981.87 92.73 997.02 149.51 1065.97 149.51 1065.97 152.06"/><ellipse class="cls-9" cx="1004.9" cy="156.97" rx="6.89" ry="5.46"/><ellipse class="cls-9" cx="1056.33" cy="156.97" rx="6.89" ry="5.46"/><path class="cls-9" d="M1064.66,150.86H995.05l-12.29-48.12h93.43c1.83,0,3.3,1.17,3.3,2.62a1.81,1.81,0,0,1,0,.4l-11.52,42.89A3.17,3.17,0,0,1,1064.66,150.86Zm-68.86-.73h68.86a2.28,2.28,0,0,0,2.36-1.59l11.53-42.89c.2-1-.69-2-2-2.16a2.23,2.23,0,0,0-.37,0H983.88Z"/><polygon class="cls-9" points="1008.58 150.7 1000.54 103.16 1001.44 103.04 1009.49 150.59 1008.58 150.7"/><polygon class="cls-9" points="1053.31 150.34 1052.4 150.22 1060.21 103.04 1061.12 103.16 1053.31 150.34"/><rect class="cls-9" x="1031.08" y="103.1" width="0.92" height="47.54"/><polygon class="cls-9" points="987.45 116.57 987.46 115.84 1076.35 116.01 1076.34 116.74 987.45 116.57"/><polygon class="cls-9" points="991.98 138.75 1070.07 138.33 1070.08 139.06 991.99 139.48 991.98 138.75"/><ellipse class="cls-9" cx="967.71" cy="93.64" rx="5.05" ry="2.18"/></g></g></svg>