<svg xmlns="http://www.w3.org/2000/svg" viewBox="0 0 401 171"><defs><style>.cls-1{fill:#fdcb59;stroke:#1d1d1b;stroke-miterlimit:10;}.cls-2{fill:#e7e6e6;}.cls-3{fill:#fff;}.cls-4{fill:#4b4c65;}.cls-5{fill:#010101;opacity:0.2;isolation:isolate;}.cls-6{fill:#f6b6b9;}.cls-7{fill:#585b8a;}.cls-8{fill:#302f42;}.cls-9{fill:#403e56;}</style></defs><g id="Capa_2" data-name="Capa 2"><g id="Capa_1-2" data-name="Capa 1"><rect class="cls-1" x="0.5" y="0.5" width="400" height="170"/></g><g id="Capa_2-2" data-name="Capa 2"><path class="cls-2" d="M193.17,41.43h-.83V16.61c0-7.93-5.88-14.36-13.14-14.36H131.11C123.85,2.25,118,8.68,118,16.61h0V152.76c0,7.93,5.88,14.36,13.14,14.36H179.2c7.26,0,13.14-6.43,13.14-14.36h0V59.09h.83Z"/><path class="cls-3" d="M179.73,6h-6.28a5.26,5.26,0,0,1-2.55,6.64,4.32,4.32,0,0,1-1.76.38H141.59a4.89,4.89,0,0,1-4.66-5.1A5.43,5.43,0,0,1,137.27,6h-5.86c-5.42,0-9.81,4.8-9.81,10.72h0v136c0,5.92,4.39,10.73,9.81,10.73h48.32c5.42,0,9.81-4.81,9.81-10.73h0V16.71c0-5.92-4.39-10.72-9.81-10.72Z"/><path class="cls-2" d="M141.33,33.62h-2.88a.4.4,0,0,0-.38.42v1.39a.39.39,0,0,0,.38.41h.48v2.08h1.92V35.84h.48a.4.4,0,0,0,.39-.41V34A.41.41,0,0,0,141.33,33.62Z"/><path class="cls-2" d="M144.22,46.29a17.35,17.35,0,0,1-2.58-9.61.33.33,0,0,0-.24-.34v-.6h-3.05v.59h0a.33.33,0,0,0-.31.34v0a15.83,15.83,0,0,1-2.43,9.84,1,1,0,0,0-.16.57l.33,11.27a.94.94,0,0,0,.89.94h6.89a.93.93,0,0,0,.88-1l.13-10.94A2,2,0,0,0,144.22,46.29Z"/><path class="cls-3" d="M143.13,50h-6a.64.64,0,0,0-.61.67v.1l.91,6.45h5.21l1.1-6.42a.68.68,0,0,0-.49-.79Z"/><path class="cls-2" d="M173.45,67.38h-2.88a.4.4,0,0,0-.39.42v1.38a.4.4,0,0,0,.39.42H171v2.07H173V69.6h.48a.4.4,0,0,0,.38-.42V67.8A.4.4,0,0,0,173.45,67.38Z"/><path class="cls-2" d="M176.34,80.05a17.31,17.31,0,0,1-2.58-9.62.35.35,0,0,0-.24-.34V69.5h-3.05v.59h0a.33.33,0,0,0-.32.34v0a15.88,15.88,0,0,1-2.43,9.85,1,1,0,0,0-.15.57l.33,11.26a.94.94,0,0,0,.88,1h6.9a.94.94,0,0,0,.88-1l.13-10.94A2.11,2.11,0,0,0,176.34,80.05Z"/><path class="cls-3" d="M175.25,83.79h-6a.65.65,0,0,0-.62.68s0,.06,0,.1l.91,6.44h5.2l1.1-6.42a.66.66,0,0,0-.49-.79Z"/><path class="cls-2" d="M137.28,115.1h-1.37a.19.19,0,0,0-.18.2h0V116a.19.19,0,0,0,.18.2h.23v1h.91v-1h.23a.19.19,0,0,0,.18-.2h0v-.65a.19.19,0,0,0-.18-.2Z"/><path class="cls-2" d="M138.65,121.11a8.23,8.23,0,0,1-1.23-4.56.14.14,0,0,0-.11-.16v-.29h-1.45v.28h0a.16.16,0,0,0-.15.16v0a7.47,7.47,0,0,1-1.15,4.67.41.41,0,0,0-.07.27l.16,5.34a.43.43,0,0,0,.41.45h3.27a.45.45,0,0,0,.42-.46l.06-5.19A.9.9,0,0,0,138.65,121.11Z"/><rect class="cls-3" x="135.06" y="123.07" width="3.12" height="1.71"/><path class="cls-2" d="M143.65,115.1h-1.37a.19.19,0,0,0-.18.2h0V116a.19.19,0,0,0,.18.2h.23v1h.91v-1h.23a.19.19,0,0,0,.18-.2h0v-.65a.19.19,0,0,0-.18-.2Z"/><path class="cls-2" d="M145,121.11a8.23,8.23,0,0,1-1.23-4.56.14.14,0,0,0-.11-.16v-.29h-1.45v.28h0a.16.16,0,0,0-.15.16v0a7.55,7.55,0,0,1-1.16,4.67.47.47,0,0,0-.07.27l.16,5.34a.44.44,0,0,0,.42.45h3.26a.45.45,0,0,0,.42-.46l.07-5.19A1,1,0,0,0,145,121.11Z"/><rect class="cls-3" x="141.43" y="123.07" width="3.12" height="1.71"/><path class="cls-2" d="M150,115.1h-1.37a.19.19,0,0,0-.18.2h0V116a.19.19,0,0,0,.18.2h.23v1h.91v-1H150a.19.19,0,0,0,.18-.2h0v-.65a.19.19,0,0,0-.18-.2Z"/><path class="cls-2" d="M151.39,121.11a8.23,8.23,0,0,1-1.23-4.56.14.14,0,0,0-.11-.16v-.29H148.6v.28h0a.15.15,0,0,0-.14.16v0a7.55,7.55,0,0,1-1.16,4.67.47.47,0,0,0-.07.27l.16,5.34a.44.44,0,0,0,.42.45h3.27a.46.46,0,0,0,.42-.46l.06-5.19A1,1,0,0,0,151.39,121.11Z"/><rect class="cls-3" x="147.8" y="123.07" width="3.12" height="1.71"/><path class="cls-2" d="M168.44,102h-2.89a.4.4,0,0,0-.38.42h0v1.38a.4.4,0,0,0,.38.42H166v2.07H168v-2.07h.48a.4.4,0,0,0,.38-.42v-1.38a.4.4,0,0,0-.38-.42Z"/><path class="cls-2" d="M171.33,114.71a17.29,17.29,0,0,1-2.58-9.61.35.35,0,0,0-.25-.35v-.59h-3v.59h-.05a.33.33,0,0,0-.31.34v0a15.88,15.88,0,0,1-2.43,9.85,1,1,0,0,0-.16.57l.34,11.27a.93.93,0,0,0,.88.94h6.89a.94.94,0,0,0,.89-1l.13-10.94A2.2,2.2,0,0,0,171.33,114.71Z"/><path class="cls-3" d="M170.24,118.45h-6a.66.66,0,0,0-.62.68.34.34,0,0,0,0,.1l.91,6.44h5.2l1.1-6.42a.67.67,0,0,0-.49-.78l-.11,0Z"/><path class="cls-2" d="M170,60.77h-17.2c1.21-7.11.93-15.69,0-24.92H170C169.11,45.08,168.84,53.66,170,60.77Z"/><ellipse class="cls-3" cx="161.52" cy="47.63" rx="4.14" ry="4.53"/><path class="cls-2" d="M154.27,93.85h-17.2c1.2-7.11.92-15.69,0-24.92h17.2C153.36,78.16,153.09,86.74,154.27,93.85Z"/><ellipse class="cls-3" cx="145.77" cy="80.71" rx="4.14" ry="4.53"/><path class="cls-2" d="M179.75,62.36h-17.2c1.21-7.11.93-15.69,0-24.92h17.2C178.85,46.67,178.58,55.25,179.75,62.36Z"/><ellipse class="cls-3" cx="171.26" cy="49.22" rx="4.14" ry="4.53"/><path class="cls-2" d="M179.75,61.22h-17.2c1.21-7.1.93-15.69,0-24.92h17.2C178.85,45.53,178.58,54.12,179.75,61.22Z"/><ellipse class="cls-3" cx="171.26" cy="48.08" rx="4.14" ry="4.53"/><path class="cls-2" d="M179.75,62.36h-17.2c1.21-7.11.93-15.69,0-24.92h17.2C178.85,46.67,178.58,55.25,179.75,62.36Z"/><ellipse class="cls-3" cx="171.26" cy="49.22" rx="4.14" ry="4.53"/><rect class="cls-2" x="127.33" y="59.41" width="56.36" height="6.8"/><rect class="cls-2" x="127.33" y="93.17" width="56.36" height="6.8"/><rect class="cls-2" x="127.33" y="126.92" width="56.36" height="6.8"/><path class="cls-4" d="M281.73,154.49l-14-10.85c4.73-5,9-12.23,13.16-20.35l14,10.86C289.28,141.12,284.53,148,281.73,154.49Z"/><ellipse class="cls-3" cx="281.73" cy="138.4" rx="4.14" ry="4.53"/><path class="cls-2" d="M214,105h-1.54a.21.21,0,0,0-.21.22v.74a.21.21,0,0,0,.21.22h.25v1.11h1v-1.11H214a.21.21,0,0,0,.2-.22v-.74A.21.21,0,0,0,214,105Z"/><path class="cls-4" d="M215.54,111.72a9.28,9.28,0,0,1-1.38-5.14.17.17,0,0,0-.13-.18v-.32H212.4v.31h0a.18.18,0,0,0-.16.19h0a8.47,8.47,0,0,1-1.3,5.26.53.53,0,0,0-.09.3l.18,6a.51.51,0,0,0,.47.51h3.69a.52.52,0,0,0,.47-.52l.07-5.84A1.11,1.11,0,0,0,215.54,111.72Z"/><path class="cls-5" d="M213.68,105.19a.45.45,0,1,1-.89,0"/><rect class="cls-3" x="211.72" y="112.88" width="3.11" height="2.27"/><path class="cls-2" d="M262.77,128.46h-2.88a.41.41,0,0,0-.39.42v1.39a.4.4,0,0,0,.39.41h.48v2.08h1.92v-2.08h.48a.39.39,0,0,0,.38-.41h0v-1.39A.4.4,0,0,0,262.77,128.46Z"/><path class="cls-4" d="M265.66,141.13a17.35,17.35,0,0,1-2.58-9.61.34.34,0,0,0-.24-.34v-.6h-3v.59h0a.33.33,0,0,0-.31.34h0v0a15.77,15.77,0,0,1-2.44,9.84,1,1,0,0,0-.15.57l.33,11.27a.94.94,0,0,0,.89.94H265a.93.93,0,0,0,.88-1l.13-10.94A2,2,0,0,0,265.66,141.13Z"/><path class="cls-5" d="M262.17,128.91a.83.83,0,1,1-1.65,0"/><path class="cls-3" d="M264.57,144.88h-6a.64.64,0,0,0-.61.67v.1l.91,6.45h5.21l1.1-6.42a.68.68,0,0,0-.5-.79Z"/><path class="cls-4" d="M254.54,154.48h-17.2c1.2-7.11.93-15.69,0-24.92h17.2C253.64,138.79,253.37,147.37,254.54,154.48Z"/><ellipse class="cls-3" cx="246.04" cy="141.34" rx="4.14" ry="4.53"/><polygon class="cls-6" points="184.19 76.05 188.06 75.67 190.51 69.14 186.13 66.46 184.19 76.05"/><path class="cls-6" d="M219.63,94h0a2.47,2.47,0,0,0-1.21-3.1,2,2,0,0,0-.68-.16l-6-.39-.88,3.21L217,95.37A2.14,2.14,0,0,0,219.63,94Z"/><path class="cls-7" d="M213.19,95.42l-.06-6-13.32-2.32L189.55,74.22a3.15,3.15,0,0,0-4.37-.66h0a3.89,3.89,0,0,0-1,5.09,3.68,3.68,0,0,0,.37.51l8.46,11.39Z"/><path class="cls-8" d="M181.21,163.16h3.51l8.71-43,9,13.29,5.26,28.78h3.34l-.71-30.89-11.75-33H187c-3.16,6.26-5.64,12.72-2.8,19.38Z"/><path class="cls-8" d="M205.56,165.77a1,1,0,0,0,.6,1.26l.11,0,8.59,1.66a1.4,1.4,0,0,0,1.61-1.05h0a1.62,1.62,0,0,0-.69-1.83,13.59,13.59,0,0,1-4.74-4.5,2.25,2.25,0,0,1-3.12.16l-1.19.16Z"/><path class="cls-8" d="M179.59,165.77a1,1,0,0,0,.6,1.26l.11,0,8.59,1.66a1.39,1.39,0,0,0,1.6-1.05h0a1.6,1.6,0,0,0-.68-1.83,13.5,13.5,0,0,1-4.74-4.5,2.25,2.25,0,0,1-3.12.16l-1.19.16Z"/><ellipse class="cls-6" cx="190.6" cy="66.17" rx="4.91" ry="5.37"/><path class="cls-7" d="M186.21,99.75,199,99.36l-3.76-12.94c2.34-4.1,0-8.2-3.34-12.29l-2.64-1.92-4.21-.38h0a11.89,11.89,0,0,0-2.78,7.87A54.74,54.74,0,0,0,186.21,99.75Z"/><path class="cls-6" d="M215.65,108.46h0a2.55,2.55,0,0,0,0-3.37,2.18,2.18,0,0,0-.57-.44l-5.37-2.94-2,2.57,5,4.36A2,2,0,0,0,215.65,108.46Z"/><path class="cls-7" d="M209.2,107l2.11-5.57L199.9,93.61l-4.8-16.24a3.35,3.35,0,0,0-3.79-2.48h0a3.66,3.66,0,0,0-2.71,4.26,4.61,4.61,0,0,0,.16.64l3.68,14.1Z"/><path class="cls-8" d="M182.53,64.06a10.56,10.56,0,0,0,2.81,6.71c1,.94,2.44.9,3-.38a14.72,14.72,0,0,1,5.79-6.33c4.46-2.59-1.58-7-5.79-6.33C185.15,58.23,182.53,60.56,182.53,64.06Z"/><ellipse class="cls-8" cx="185.51" cy="57.34" rx="3.51" ry="3.84"/><path class="cls-8" d="M189.55,56a3.71,3.71,0,0,0-3.25-3.82l.26,0a3.86,3.86,0,0,1,0,7.68l-.26,0A3.71,3.71,0,0,0,189.55,56Z"/><ellipse class="cls-6" cx="190.69" cy="66.94" rx="0.79" ry="1.15"/><polygon class="cls-9" points="290.13 156.12 235.5 156.12 223.93 96.32 214.05 96.32 214.05 93.64 225.92 93.64 237.49 153.44 290.13 153.44 290.13 156.12"/><ellipse class="cls-9" cx="243.5" cy="161.3" rx="5.26" ry="5.75"/><ellipse class="cls-9" cx="282.77" cy="161.3" rx="5.26" ry="5.75"/><path class="cls-9" d="M289.14,154.86H236l-9.38-50.68h71.34a2.65,2.65,0,0,1,2.52,2.76,3,3,0,0,1,0,.42l-8.8,45.17A2.6,2.6,0,0,1,289.14,154.86Zm-52.58-.77h52.58a1.87,1.87,0,0,0,1.8-1.68l8.8-45.16a2,2,0,0,0-1.52-2.28l-.28,0H227.45Z"/><polygon class="cls-9" points="246.31 154.7 240.17 104.63 240.86 104.5 247 154.57 246.31 154.7"/><polygon class="cls-9" points="280.47 154.31 279.78 154.19 285.74 104.5 286.43 104.63 280.47 154.31"/><rect class="cls-9" x="263.49" y="104.56" width="0.7" height="50.07"/><rect class="cls-9" x="263.74" y="84.52" width="0.77" height="67.88" transform="translate(145.08 382.31) rotate(-89.87)"/><polygon class="cls-9" points="233.64 142.11 293.27 141.66 293.27 142.43 233.64 142.88 233.64 142.11"/><ellipse class="cls-9" cx="215.1" cy="94.6" rx="3.86" ry="2.3"/></g></g></svg>