<svg xmlns="http://www.w3.org/2000/svg" viewBox="0 0 401 169.91"><defs><style>.cls-1{fill:#fdcb59;stroke:#fdcb59;stroke-miterlimit:10;}.cls-2{fill:#f2f2f2;}.cls-3{fill:#4b4c65;}.cls-4{fill:#fff;}.cls-5{fill:#403e56;}.cls-6{fill:#f6b6b9;}.cls-7{fill:#302f42;}.cls-8{fill:#010101;opacity:0.2;isolation:isolate;}</style></defs><g id="Capa_2" data-name="Capa 2"><g id="Capa_1-2" data-name="Capa 1"><rect class="cls-1" x="0.5" y="0.5" width="400" height="168.91"/></g><g id="Imagen"><path class="cls-2" d="M209.3,95.43v.2a7,7,0,0,1-7,6.92H123.22a7,7,0,0,1-7-6.92v-.2Z"/><path class="cls-3" d="M132.75,62.5a10,10,0,0,1-11.74-7l.4-.07A10,10,0,0,1,132.75,62.5Z"/><path class="cls-2" d="M270.88,137.11a2.73,2.73,0,0,1-.64-4.41,2.79,2.79,0,0,1,4.27,1.43L273,123.23c-.35-2.5-.64-5.3.9-7.33a5.83,5.83,0,0,1,6.48-1.69,7.89,7.89,0,0,1,4.62,5.12,12.66,12.66,0,0,1-.07,7,36.16,36.16,0,0,1-2.73,6.57c-1.08,2.17-2.4,4.53-4.71,5.33S270.88,137.11,270.88,137.11Z"/><path class="cls-4" d="M278.13,114a29.37,29.37,0,0,1,1.42,9.67,29.78,29.78,0,0,1-1.76,9.57,28.5,28.5,0,0,1-2.37,5,.34.34,0,0,0,.14.45.34.34,0,0,0,.44-.12,30,30,0,0,0,3.59-9.29,30.75,30.75,0,0,0,.4-10,29.54,29.54,0,0,0-1.22-5.5C278.64,113.43,278,113.6,278.13,114Z"/><path class="cls-4" d="M269.9,133.1l5.28,5.48a.33.33,0,0,0,.47-.46l-5.28-5.48C270.08,132.33,269.61,132.8,269.9,133.1Z"/><path class="cls-5" d="M265.42,112.42a.78.78,0,0,1-.51-.19,36.67,36.67,0,0,1-8.6-7.69.77.77,0,0,1,0-1.08l1.6-1.75.33.3-1.6,1.74a.34.34,0,0,0,0,.48l0,0a36.35,36.35,0,0,0,8.51,7.61l0,0a.34.34,0,0,0,.48,0l3.12-3.41a.33.33,0,0,0,0-.46,24.3,24.3,0,0,1-2.1-1.26l.25-.36a24,24,0,0,0,2.09,1.25l0,0a.77.77,0,0,1,.05,1.1h0l-3.12,3.4a.75.75,0,0,1-.54.26Z"/><path class="cls-3" d="M262,106.69c1,.87,2,1.35,2.25,1.07a.37.37,0,0,0,0-.34,2.75,2.75,0,0,0-.5-.88,31.56,31.56,0,0,1-2.54-2c-.26-.08-.46-.08-.55,0l0,0C260.48,105,261.05,105.85,262,106.69Z"/><path class="cls-5" d="M256.07,99.63a.74.74,0,0,0,.25.52,37.32,37.32,0,0,0,4.32,4.48,35,35,0,0,0,3.63,2.79l.64.42a.78.78,0,0,0,.51.19h0a.79.79,0,0,0,.54-.26l3.12-3.4a.77.77,0,0,0-.05-1.1l0,0a23.93,23.93,0,0,1-8.49-7.59l0,0a.81.81,0,0,0-1.12,0l-3.12,3.41A.76.76,0,0,0,256.07,99.63Zm.45,0a.33.33,0,0,1,.08-.25l3.12-3.4a.32.32,0,0,1,.24-.11.33.33,0,0,1,.23.07,24.27,24.27,0,0,0,8.6,7.69.34.34,0,0,1,0,.46l-3.13,3.41a.34.34,0,0,1-.48,0l0,0c-.47-.3-.93-.61-1.39-.94a31.56,31.56,0,0,1-2.54-2,37,37,0,0,1-4.58-4.7l0,0a.3.3,0,0,1-.11-.23Z"/><ellipse class="cls-3" cx="262.45" cy="101.78" rx="0.7" ry="2.38" transform="translate(11.77 229.83) rotate(-48.25)"/><polygon class="cls-6" points="244.62 136.02 241.89 136.02 240.6 125.64 244.62 125.64 244.62 136.02"/><path class="cls-7" d="M245.31,138.63h-8.78v-.11a3.4,3.4,0,0,1,3.42-3.38h5.36Z"/><polygon class="cls-6" points="252.62 136.02 249.9 136.02 248.6 125.64 252.62 125.64 252.62 136.02"/><path class="cls-7" d="M253.31,138.63h-8.78v-.11a3.4,3.4,0,0,1,3.42-3.38h5.36Z"/><path class="cls-7" d="M254.45,94.06l-.65,38.14a.89.89,0,0,1-.91.86h-.06l-3.19-.29a.9.9,0,0,1-.81-.81L247,108.18a.24.24,0,0,0-.24-.21.24.24,0,0,0-.21.22l-.93,24.33a.88.88,0,0,1-.89.84h-3.42a.89.89,0,0,1-.89-.82L238,93.84l14.23-3.51Z"/><ellipse class="cls-6" cx="244.13" cy="52.86" rx="5.46" ry="5.39"/><path class="cls-5" d="M237.51,95.2a1,1,0,0,1-.3-.7l-.37-26a6.28,6.28,0,0,1,4.29-6c.51-2.29,3.23-2.58,4.82-2.54a2.44,2.44,0,0,1,2,1.08l1.14,1.68,2.51,1.45a6.24,6.24,0,0,1,3,6.77l-.38,1.74a39.44,39.44,0,0,0,.37,18.58l.78,2.93a1,1,0,0,1-.71,1.2.93.93,0,0,1-.33,0l-.91-.06a1,1,0,0,1-.91-.89L252.34,93a.11.11,0,0,0-.13-.09.09.09,0,0,0-.09.09L252,94.39a1,1,0,0,1-1,.89l-12.76.2h0A1,1,0,0,1,237.51,95.2Z"/><path class="cls-7" d="M244.56,56c0,.76.56,1.2,1.21,1.6a7.21,7.21,0,0,0,2.18.74.67.67,0,0,0,.9-.27.58.58,0,0,0,.08-.31l.69-2.59a15.84,15.84,0,0,0,.54-2.53,5.79,5.79,0,0,0-1.4-4.62,3.78,3.78,0,0,0-4.58-.7c-1.66-2.09-9.23,2.53-7.36,4,.33.25.84-.07,1.26-.11a1.36,1.36,0,0,1,1.16.37c.35.42.2,1.05.34,1.58a1.51,1.51,0,0,0,1.88,1h0a4.77,4.77,0,0,0,1-.62,1.26,1.26,0,0,1,1.1-.23c.48.17.65.75.69,1.26A11,11,0,0,0,244.56,56Z"/><polygon class="cls-8" points="243.28 70.42 242.39 81.18 237.73 92.38 244.62 81.4 243.28 70.42"/><path class="cls-6" d="M236.63,96.55a2.19,2.19,0,0,0,.35-3.11,2.47,2.47,0,0,0-.28-.28l3-7.27-4.05.8-2.2,6.79a2.21,2.21,0,0,0,.42,3.11,2.28,2.28,0,0,0,2.78,0Z"/><path class="cls-5" d="M236.42,93.34l-2.29-.82a1,1,0,0,1-.63-1.19l3.78-13.66.58-12.34a2.85,2.85,0,0,1,5.69.25.28.28,0,0,1,0,.09l-1,13.52L237.7,92.74a1,1,0,0,1-1,.65A.75.75,0,0,1,236.42,93.34Z"/><path class="cls-6" d="M260,97.26a2.19,2.19,0,0,0-.89-3,1.73,1.73,0,0,0-.37-.16l-.09-7.85-3.42,2.29.62,7.1a2.21,2.21,0,0,0,1.6,2.71,2.27,2.27,0,0,0,2.55-1.1Z"/><path class="cls-5" d="M258.57,94.38l-2.43.12a1,1,0,0,1-1-.86l-1.85-14L249,68a2.79,2.79,0,0,1,1.7-3.6,2.85,2.85,0,0,1,3.65,1.68l0,.07L258.67,79l.85,14.34a1,1,0,0,1-.68,1A.86.86,0,0,1,258.57,94.38Z"/><path class="cls-5" d="M287.76,138.74H203.07a.22.22,0,1,1,0-.44h84.69a.22.22,0,1,1,0,.44Z"/><path class="cls-5" d="M187.79,91.34a4,4,0,0,1-3-1.12c-1.64-1.67-1.54-4.89-1.46-7.48,0-.75.05-1.46,0-2.06h0a4.44,4.44,0,0,1,4.45-4.4h10.58a4.09,4.09,0,0,1,3,1.11c1.64,1.68,1.54,4.9,1.45,7.49,0,.75,0,1.46,0,2.06a4.45,4.45,0,0,1-4.45,4.41Zm-4-10.67c0,.61,0,1.33,0,2.08-.08,2.51-.18,5.63,1.33,7.17a3.58,3.58,0,0,0,2.7,1h10.58a4,4,0,0,0,4-4c0-.6,0-1.32,0-2.09.08-2.5.18-5.62-1.33-7.16a3.58,3.58,0,0,0-2.7-1H187.79A4,4,0,0,0,183.78,80.67Z"/><path class="cls-5" d="M130.41,62.9a10.33,10.33,0,0,1-9.77-7.41l0-.22.63-.11a10.23,10.23,0,0,1,11.6,7.21l.05.21-.22.05A9.34,9.34,0,0,1,130.41,62.9Zm-9.28-7.28a9.61,9.61,0,0,0,4.28,5.4,9.39,9.39,0,0,0,6.92,1.24,9.78,9.78,0,0,0-11-6.67Z"/><path class="cls-5" d="M124.25,87.86A3.7,3.7,0,0,1,120.92,86a4.51,4.51,0,0,1,0-4.47,3.71,3.71,0,0,1,3.4-1.82h14.11a3.73,3.73,0,0,1,3.4,1.82,4.51,4.51,0,0,1,0,4.47,3.76,3.76,0,0,1-3.41,1.82H124.25Zm0-7.67a3.28,3.28,0,0,0-3,1.6,4.08,4.08,0,0,0,0,4,3.28,3.28,0,0,0,3,1.6h14.11a3.29,3.29,0,0,0,3-1.6,4.08,4.08,0,0,0,0-4,3.33,3.33,0,0,0-3-1.6H124.25Z"/><path class="cls-3" d="M191.41,81.49H187a1.1,1.1,0,1,1,0-2.19h4.45a1.1,1.1,0,1,1,0,2.19Z"/><path class="cls-3" d="M191.41,85H187a1.1,1.1,0,1,1,0-2.2h4.45a1.1,1.1,0,1,1,0,2.2Z"/><path class="cls-3" d="M191.41,88.52H187a1.1,1.1,0,1,1,0-2.2h4.45a1.1,1.1,0,1,1,0,2.2Z"/><path class="cls-3" d="M199.18,81.49h-4.44a1.1,1.1,0,1,1,0-2.19h4.44a1.1,1.1,0,1,1,0,2.19Z"/><path class="cls-3" d="M199.18,85h-4.44a1.1,1.1,0,1,1,0-2.2h4.44a1.1,1.1,0,1,1,0,2.2Z"/><path class="cls-3" d="M199.18,88.52h-4.44a1.1,1.1,0,1,1,0-2.2h4.44a1.1,1.1,0,1,1,0,2.2Z"/><rect class="cls-5" x="116.21" y="65.89" width="93.09" height="0.44"/><path class="cls-5" d="M202,102.68H123.28a7.31,7.31,0,0,1-7.34-7.25V57.67a7.31,7.31,0,0,1,7.34-7.25H202a7.31,7.31,0,0,1,7.34,7.25V95.43A7.31,7.31,0,0,1,202,102.68ZM123.28,50.86a6.86,6.86,0,0,0-6.89,6.81V95.43a6.85,6.85,0,0,0,6.89,6.81H202a6.85,6.85,0,0,0,6.89-6.81V57.67A6.85,6.85,0,0,0,202,50.86Z"/></g></g></svg>