<svg xmlns="http://www.w3.org/2000/svg" viewBox="0 0 1921 171"><defs><style>.cls-1{fill:#fdcb59;stroke:#1d1d1b;stroke-miterlimit:10;}.cls-2{fill:#f2f2f2;}.cls-3{fill:#4b4c65;}.cls-4{fill:#fff;}.cls-5{fill:#403e56;}.cls-6{fill:#f6b6b9;}.cls-7{fill:#302f42;}.cls-8{fill:#010101;opacity:0.2;isolation:isolate;}</style></defs><g id="Capa_2" data-name="Capa 2"><g id="Capa_1-2" data-name="Capa 1"><rect class="cls-1" x="0.5" y="0.5" width="1920" height="170"/><path class="cls-2" d="M1787.14,90.44v.35c0,6.7-5.1,12.12-11.4,12.12H1647.05c-6.3,0-11.4-5.42-11.4-12.12v-.35Z"/><path class="cls-3" d="M1662.57,32.74c-9.3,2.45-17.65-5.16-19.11-12.22l.65-.12C1652,18.55,1660.7,24.51,1662.57,32.74Z"/><path class="cls-2" d="M1887.37,163.46c-2.69-1.23-3.3-5.73-1-7.72s6.3-.55,7,2.49l-2.51-19.09c-.58-4.38-1-9.29,1.45-12.84a9.06,9.06,0,0,1,10.56-3c3.66,1.44,6.37,5,7.52,9a23.69,23.69,0,0,1-.13,12.28,64.6,64.6,0,0,1-4.43,11.5c-1.76,3.82-3.9,7.95-7.68,9.35C1894.46,166.79,1887.37,163.46,1887.37,163.46Z"/><path class="cls-4" d="M1899.15,123a55.08,55.08,0,0,1,2.33,16.94,56.75,56.75,0,0,1-2.86,16.78,53.22,53.22,0,0,1-3.86,8.81.58.58,0,0,0,.22.78.51.51,0,0,0,.71-.2,55,55,0,0,0,5.84-16.28,57.72,57.72,0,0,0,.66-17.5,55.06,55.06,0,0,0-2-9.63A.55.55,0,1,0,1899.15,123Z"/><path class="cls-4" d="M1885.77,156.44l8.59,9.6c.48.53,1.25-.28.77-.82l-8.59-9.6C1886.06,155.08,1885.29,155.9,1885.77,156.44Z"/><path class="cls-5" d="M1878.48,120.2a1.25,1.25,0,0,1-.84-.33,61.15,61.15,0,0,1-14-13.47,1.41,1.41,0,0,1-.07-1.9l2.6-3,.54.51-2.6,3.06a.61.61,0,0,0,0,.83l0,.05a60.66,60.66,0,0,0,13.86,13.34l0,0a.53.53,0,0,0,.79,0l5.08-6a.62.62,0,0,0,0-.81,39.16,39.16,0,0,1-3.42-2.21l.41-.63a37.21,37.21,0,0,0,3.4,2.19l.07,0a1.44,1.44,0,0,1,.09,1.93h0l-5.08,6a1.27,1.27,0,0,1-.89.45Z"/><path class="cls-3" d="M1872.88,110.16c1.59,1.53,3.23,2.37,3.66,1.87a.68.68,0,0,0,.06-.59,4.64,4.64,0,0,0-.81-1.54,53.57,53.57,0,0,1-4.14-3.47c-.42-.15-.74-.14-.89,0a.47.47,0,0,0-.06.09C1870.43,107.14,1871.36,108.7,1872.88,110.16Z"/><path class="cls-5" d="M1863.26,97.79a1.41,1.41,0,0,0,.4.92,65.72,65.72,0,0,0,7,7.85,55.75,55.75,0,0,0,5.9,4.88l1,.74a1.25,1.25,0,0,0,.84.33h.06a1.22,1.22,0,0,0,.89-.44l5.08-6a1.43,1.43,0,0,0-.09-1.92l-.07,0a40.12,40.12,0,0,1-13.82-13.3l0-.07a1.23,1.23,0,0,0-1.81.1l-5.08,6A1.39,1.39,0,0,0,1863.26,97.79Zm.73,0a.58.58,0,0,1,.14-.42l5.07-6a.54.54,0,0,1,.39-.19.5.5,0,0,1,.37.12,40.82,40.82,0,0,0,14,13.48.61.61,0,0,1,0,.8l-5.08,6a.5.5,0,0,1-.38.19.53.53,0,0,1-.41-.15l0,0c-.77-.52-1.53-1.07-2.27-1.64a53.57,53.57,0,0,1-4.14-3.47,64.82,64.82,0,0,1-7.45-8.23l0,0a.56.56,0,0,1-.18-.41Z"/><ellipse class="cls-3" cx="1873.65" cy="101.56" rx="1.18" ry="4.01" transform="translate(493.42 1372.72) rotate(-45.75)"/><polygon class="cls-6" points="1844.62 161.55 1840.19 161.55 1838.08 143.36 1844.62 143.36 1844.62 161.55"/><path class="cls-7" d="M1845.75,166.12h-14.3v-.19A5.76,5.76,0,0,1,1837,160h8.73Z"/><polygon class="cls-6" points="1857.64 161.55 1853.21 161.55 1851.1 143.36 1857.65 143.36 1857.64 161.55"/><path class="cls-7" d="M1858.78,166.12h-14.3v-.19A5.75,5.75,0,0,1,1850,160h8.74Z"/><path class="cls-7" d="M1860.62,88l-1.06,66.81a1.48,1.48,0,0,1-1.47,1.51H1858l-5.18-.5a1.51,1.51,0,0,1-1.32-1.42l-3-41.67a.37.37,0,1,0-.73,0l-1.51,42.63a1.49,1.49,0,0,1-1.45,1.48h-5.57a1.49,1.49,0,0,1-1.44-1.44l-3.9-67.8L1857,81.5Z"/><ellipse class="cls-6" cx="1843.83" cy="15.85" rx="8.88" ry="9.45"/><path class="cls-5" d="M1833.06,90a1.76,1.76,0,0,1-.49-1.22l-.6-45.56a10.94,10.94,0,0,1,7-10.56c.84-4,5.27-4.52,7.85-4.46a4,4,0,0,1,3.25,1.9l1.85,2.95,4.08,2.54a11.27,11.27,0,0,1,4.87,11.86l-.63,3a74.08,74.08,0,0,0,.62,32.56l1.26,5.13a1.74,1.74,0,0,1-1.16,2.11,1.42,1.42,0,0,1-.54.05l-1.47-.12a1.68,1.68,0,0,1-1.49-1.55l-.25-2.58a.18.18,0,0,0-.19-.18.19.19,0,0,0-.17.18l-.23,2.5a1.68,1.68,0,0,1-1.6,1.56l-20.77.33h0A1.58,1.58,0,0,1,1833.06,90Z"/><path class="cls-7" d="M1844.52,21.3a3.48,3.48,0,0,0,2,2.81,11,11,0,0,0,3.55,1.29,1.05,1.05,0,0,0,1.47-.47,1.25,1.25,0,0,0,.12-.54l1.13-4.54a29.25,29.25,0,0,0,.86-4.44,10.63,10.63,0,0,0-2.26-8.09c-1.9-2.09-5.19-2.83-7.46-1.22-2.7-3.66-15,4.43-12,7,.54.45,1.37-.12,2-.18a2.13,2.13,0,0,1,1.9.64c.57.74.32,1.84.55,2.77a2.41,2.41,0,0,0,3,1.68h0a8.15,8.15,0,0,0,1.59-1.09,2,2,0,0,1,1.79-.41c.78.31,1.06,1.33,1.13,2.21A23.14,23.14,0,0,0,1844.52,21.3Z"/><polygon class="cls-8" points="1842.45 46.62 1841 65.47 1833.41 85.09 1844.62 65.85 1842.45 46.62"/><path class="cls-6" d="M1831.63,92.39a4,4,0,0,0,.56-5.44,5.12,5.12,0,0,0-.44-.49l4.83-12.74L1830,75.13,1826.41,87a4.07,4.07,0,0,0,.69,5.45,3.49,3.49,0,0,0,4.53-.08Z"/><path class="cls-5" d="M1831.28,86.77l-3.73-1.43a1.76,1.76,0,0,1-1-2.08l6.15-23.94.94-21.63a4.76,4.76,0,0,1,4.84-4.7,4.83,4.83,0,0,1,4.42,5.16.71.71,0,0,1,0,.14L1841.2,62l-7.83,23.74a1.65,1.65,0,0,1-1.66,1.15A1.58,1.58,0,0,1,1831.28,86.77Z"/><path class="cls-6" d="M1869.69,93.64a4,4,0,0,0-1.46-5.24,3.88,3.88,0,0,0-.58-.28l-.16-13.74-5.56,4,1,12.44a3.93,3.93,0,0,0,2.61,4.75,3.59,3.59,0,0,0,4.15-1.93Z"/><path class="cls-5" d="M1867.33,88.6l-4,.21a1.68,1.68,0,0,1-1.7-1.51l-3-24.6-7-20.35a5,5,0,0,1,2.77-6.32,4.58,4.58,0,0,1,6,2.94c0,.05,0,.09,0,.14l7,22.54,1.37,25.12a1.73,1.73,0,0,1-1.11,1.74A1.65,1.65,0,0,1,1867.33,88.6Z"/><path class="cls-5" d="M1914.83,166.32H1777a.39.39,0,0,1-.37-.39.38.38,0,0,1,.37-.38h137.82a.37.37,0,0,1,.36.38A.38.38,0,0,1,1914.83,166.32Z"/><path class="cls-5" d="M1752.13,83.27a6.36,6.36,0,0,1-4.91-2c-2.67-2.93-2.5-8.58-2.37-13.12,0-1.32.08-2.56,0-3.61h0a7.52,7.52,0,0,1,7.25-7.71h17.22a6.35,6.35,0,0,1,4.91,2c2.67,2.93,2.5,8.57,2.37,13.11,0,1.32-.08,2.57,0,3.62a7.53,7.53,0,0,1-7.25,7.72Zm-6.51-18.7c0,1.07,0,2.33,0,3.66-.13,4.39-.3,9.86,2.16,12.55a5.59,5.59,0,0,0,4.39,1.72h17.22a6.78,6.78,0,0,0,6.53-6.94c0-1.06,0-2.32,0-3.66.12-4.39.28-9.85-2.17-12.54a5.59,5.59,0,0,0-4.39-1.72h-17.22A6.77,6.77,0,0,0,1745.62,64.57Z"/><path class="cls-5" d="M1658.76,33.45a15.52,15.52,0,0,1-8.53-2.65,17.31,17.31,0,0,1-7.37-10.33l-.08-.39,1-.2c8-1.86,17,4.15,18.88,12.63l.09.38-.35.09A14.5,14.5,0,0,1,1658.76,33.45Zm-15.1-12.76a16.62,16.62,0,0,0,6.95,9.45,14.34,14.34,0,0,0,11.27,2.18c-2-7.9-10.46-13.45-17.94-11.68Z"/><path class="cls-5" d="M1648.72,77.17a5.93,5.93,0,0,1-5.41-3.19,8.43,8.43,0,0,1,0-7.83,6,6,0,0,1,5.55-3.18h23a6,6,0,0,1,5.54,3.19,8.4,8.4,0,0,1,0,7.83,6,6,0,0,1-5.54,3.17h-23.08Zm0-13.43a5.25,5.25,0,0,0-4.81,2.8,7.6,7.6,0,0,0,0,7.06,5.24,5.24,0,0,0,4.91,2.79h23a5.25,5.25,0,0,0,4.92-2.79,7.63,7.63,0,0,0,0-7,5.27,5.27,0,0,0-4.91-2.81h-23.07Z"/><path class="cls-3" d="M1758,66h-7.23a1.93,1.93,0,0,1,0-3.85H1758a1.93,1.93,0,0,1,0,3.85Z"/><path class="cls-3" d="M1758,72.17h-7.23a1.93,1.93,0,0,1,0-3.85H1758a1.93,1.93,0,0,1,0,3.85Z"/><path class="cls-3" d="M1758,78.33h-7.23a1.93,1.93,0,0,1,0-3.85H1758a1.93,1.93,0,0,1,0,3.85Z"/><path class="cls-3" d="M1770.68,66h-7.23a1.93,1.93,0,0,1,0-3.85h7.23a1.93,1.93,0,0,1,0,3.85Z"/><path class="cls-3" d="M1770.68,72.17h-7.23a1.93,1.93,0,0,1,0-3.85h7.23a1.93,1.93,0,0,1,0,3.85Z"/><path class="cls-3" d="M1770.68,78.33h-7.23a1.93,1.93,0,0,1,0-3.85h7.23a1.93,1.93,0,0,1,0,3.85Z"/><rect class="cls-5" x="1635.65" y="38.68" width="151.49" height="0.77"/><path class="cls-5" d="M1775.21,103.14H1647.15c-6.59,0-11.93-5.69-11.93-12.7V24.28c0-7,5.34-12.69,11.93-12.69h128.06c6.58,0,11.92,5.68,11.93,12.69V90.44C1787.13,97.45,1781.79,103.13,1775.21,103.14ZM1647.15,12.36c-6.19,0-11.2,5.34-11.21,11.92V90.44c0,6.59,5,11.92,11.21,11.93h128.06c6.19,0,11.2-5.34,11.21-11.93V24.28c0-6.58-5-11.92-11.21-11.92Z"/></g><g id="Capa_2-2" data-name="Capa 2"><path class="cls-2" d="M131.06,92.46v.35c0,6.69,5,12.12,11.25,12.12h127c6.21,0,11.25-5.43,11.25-12.12v-.35Z"/><path class="cls-3" d="M254,34.76c9.17,2.44,17.41-5.17,18.85-12.23l-.64-.12C264.48,20.57,255.84,26.53,254,34.76Z"/><path class="cls-2" d="M32.16,165.48c2.66-1.24,3.26-5.74,1-7.73s-6.22-.54-6.87,2.5l2.48-19.09c.57-4.39,1-9.29-1.44-12.84a8.85,8.85,0,0,0-10.42-3c-3.61,1.43-6.28,5-7.42,9a24.15,24.15,0,0,0,.13,12.29A66.25,66.25,0,0,0,14,158.11c1.74,3.81,3.85,7.94,7.58,9.35C25.16,168.8,32.16,165.48,32.16,165.48Z"/><path class="cls-4" d="M20.53,125a55.62,55.62,0,0,0-2.29,16.94,57.09,57.09,0,0,0,2.82,16.78,53,53,0,0,0,3.81,8.81.6.6,0,0,1-.22.78.53.53,0,0,1-.71-.2,55.81,55.81,0,0,1-5.76-16.28,58.75,58.75,0,0,1-.65-17.51,56.15,56.15,0,0,1,2-9.63A.54.54,0,1,1,20.53,125Z"/><path class="cls-4" d="M33.73,158.45l-8.47,9.6c-.48.54-1.23-.28-.76-.82L33,157.64C33.45,157.1,34.21,157.91,33.73,158.45Z"/><path class="cls-5" d="M40.93,122.21a1.18,1.18,0,0,0,.83-.33,60.73,60.73,0,0,0,13.8-13.46,1.45,1.45,0,0,0,.06-1.9l-2.57-3.06-.52.52,2.56,3a.63.63,0,0,1,0,.84l0,0a60,60,0,0,1-13.67,13.34l-.05,0a.52.52,0,0,1-.77,0l-5-6a.62.62,0,0,1,0-.8c1.16-.68,2.29-1.43,3.37-2.21l-.41-.64a38.69,38.69,0,0,1-3.35,2.2l-.07,0A1.45,1.45,0,0,0,35,115.8h0l5,6a1.25,1.25,0,0,0,.87.44Z"/><path class="cls-3" d="M46.46,112.17c-1.57,1.53-3.19,2.38-3.61,1.88a.68.68,0,0,1-.07-.59,4.55,4.55,0,0,1,.81-1.54,52.92,52.92,0,0,0,4.08-3.48c.41-.14.73-.14.88,0l.06.08C48.87,109.15,48,110.71,46.46,112.17Z"/><path class="cls-5" d="M56,99.8a1.4,1.4,0,0,1-.39.92,65.1,65.1,0,0,1-7,7.85,56.32,56.32,0,0,1-5.83,4.89l-1,.73a1.23,1.23,0,0,1-.83.33h-.06a1.22,1.22,0,0,1-.87-.45l-5-6a1.46,1.46,0,0,1,.09-1.93l.07-.05a39.75,39.75,0,0,0,13.63-13.3l.06-.07a1.2,1.2,0,0,1,1.78.1l5,6A1.39,1.39,0,0,1,56,99.8Zm-.72,0a.64.64,0,0,0-.13-.42l-5-6a.51.51,0,0,0-.38-.2.49.49,0,0,0-.36.13,40.5,40.5,0,0,1-13.81,13.47.63.63,0,0,0,0,.81l5,6a.51.51,0,0,0,.38.2.58.58,0,0,0,.39-.15l.05,0c.76-.52,1.5-1.07,2.24-1.64a52.92,52.92,0,0,0,4.08-3.48A64.74,64.74,0,0,0,55,100.22l0,0a.63.63,0,0,0,.17-.42Z"/><ellipse class="cls-3" cx="45.7" cy="103.57" rx="3.99" ry="1.18" transform="translate(-59.64 62.11) rotate(-44.71)"/><polygon class="cls-6" points="74.34 163.56 78.72 163.56 80.8 145.37 74.34 145.37 74.34 163.56"/><path class="cls-7" d="M73.22,168.14H87.34v-.19a5.72,5.72,0,0,0-5.5-5.92H73.22Z"/><polygon class="cls-6" points="61.49 163.56 65.87 163.56 67.95 145.37 61.49 145.37 61.49 163.56"/><path class="cls-7" d="M60.37,168.14H74.49v-.19A5.72,5.72,0,0,0,69,162H60.37Z"/><path class="cls-7" d="M58.55,90.05l1.05,66.82a1.48,1.48,0,0,0,1.45,1.51h.11l5.12-.5a1.48,1.48,0,0,0,1.29-1.41l3-41.68a.36.36,0,0,1,.38-.35.37.37,0,0,1,.33.37l1.5,42.63a1.49,1.49,0,0,0,1.43,1.48H79.7a1.48,1.48,0,0,0,1.42-1.45L85,89.67,62.12,83.51Z"/><ellipse class="cls-6" cx="75.12" cy="17.87" rx="8.77" ry="9.45"/><path class="cls-5" d="M85.75,92a1.8,1.8,0,0,0,.49-1.22l.59-45.56A11,11,0,0,0,80,34.71c-.83-4-5.2-4.52-7.75-4.46A3.88,3.88,0,0,0,69,32.14l-1.83,3-4,2.55a11.3,11.3,0,0,0-4.81,11.85l.62,3a75.19,75.19,0,0,1-.61,32.57L57.1,90.22a1.74,1.74,0,0,0,1.15,2.11,1.57,1.57,0,0,0,.53.06l1.45-.12a1.68,1.68,0,0,0,1.48-1.56L62,88.13a.17.17,0,0,1,.19-.17.18.18,0,0,1,.16.17l.23,2.5a1.66,1.66,0,0,0,1.58,1.56l20.5.34h0A1.56,1.56,0,0,0,85.75,92Z"/><path class="cls-7" d="M74.44,23.31a3.49,3.49,0,0,1-2,2.81A11,11,0,0,1,69,27.42a1,1,0,0,1-1.44-.48,1.22,1.22,0,0,1-.13-.53L66.3,21.86a30.25,30.25,0,0,1-.85-4.44,10.72,10.72,0,0,1,2.24-8.08C69.56,7.25,72.8,6.51,75,8.12c2.67-3.67,14.83,4.42,11.83,7-.54.45-1.35-.12-2-.17a2.07,2.07,0,0,0-1.87.63c-.56.74-.31,1.85-.55,2.77a2.37,2.37,0,0,1-3,1.68h0a8.34,8.34,0,0,1-1.58-1.08,1.9,1.9,0,0,0-1.76-.42c-.77.31-1,1.33-1.11,2.21A22.71,22.71,0,0,1,74.44,23.31Z"/><polygon class="cls-8" points="76.49 48.63 77.91 67.48 85.41 87.1 74.34 67.87 76.49 48.63"/><path class="cls-6" d="M87.16,94.41A4.09,4.09,0,0,1,86.61,89a3.42,3.42,0,0,1,.44-.49L82.27,75.73l6.5,1.41L92.31,89a4.09,4.09,0,0,1-.68,5.45,3.42,3.42,0,0,1-4.47-.07Z"/><path class="cls-5" d="M87.51,88.78l3.68-1.42a1.78,1.78,0,0,0,1-2.09L86.13,61.34,85.2,39.71A4.73,4.73,0,0,0,80.42,35a4.79,4.79,0,0,0-4.36,5.15.61.61,0,0,0,0,.14L77.72,64l7.73,23.74a1.6,1.6,0,0,0,1.63,1.15A1.28,1.28,0,0,0,87.51,88.78Z"/><path class="cls-6" d="M49.61,95.66A4,4,0,0,1,51,90.41a3.38,3.38,0,0,1,.58-.27l.15-13.75,5.49,4-1,12.44a3.93,3.93,0,0,1-2.58,4.75,3.51,3.51,0,0,1-4.09-1.92Z"/><path class="cls-5" d="M51.94,90.61l3.9.21a1.64,1.64,0,0,0,1.67-1.5l3-24.61,6.88-20.34A5.06,5.06,0,0,0,64.62,38a4.5,4.5,0,0,0-5.87,3l0,.13L51.77,63.67,50.41,88.78a1.75,1.75,0,0,0,1.1,1.75A1.26,1.26,0,0,0,51.94,90.61Z"/><path class="cls-5" d="M5.06,168.33h136a.39.39,0,0,0,0-.77H5.06a.39.39,0,0,0,0,.77Z"/><path class="cls-5" d="M165.61,85.28a6.21,6.21,0,0,0,4.85-2c2.63-2.93,2.47-8.58,2.33-13.11,0-1.32-.07-2.57,0-3.61v0a7.49,7.49,0,0,0-7.15-7.71h-17a6.21,6.21,0,0,0-4.84,1.95c-2.64,2.93-2.47,8.58-2.34,13.11,0,1.32.07,2.57,0,3.62a7.48,7.48,0,0,0,7.15,7.72ZM172,66.59c0,1.06,0,2.32,0,3.65.13,4.39.29,9.86-2.14,12.55a5.46,5.46,0,0,1-4.33,1.72h-17a6.74,6.74,0,0,1-6.44-6.94c0-1,0-2.32,0-3.65-.12-4.39-.28-9.86,2.14-12.55a5.47,5.47,0,0,1,4.33-1.72h17A6.74,6.74,0,0,1,172,66.59Z"/><path class="cls-5" d="M257.75,35.47a15.1,15.1,0,0,0,8.42-2.66,17.28,17.28,0,0,0,7.27-10.33l.08-.39-1-.19c-7.85-1.87-16.73,4.15-18.63,12.63l-.09.37.35.09A13.75,13.75,0,0,0,257.75,35.47Zm14.9-12.76a16.61,16.61,0,0,1-6.86,9.45,14,14,0,0,1-11.12,2.17c2-7.9,10.33-13.44,17.7-11.68Z"/><path class="cls-5" d="M267.65,79.18A5.85,5.85,0,0,0,273,76a8.52,8.52,0,0,0,0-7.83A5.85,5.85,0,0,0,267.53,65H244.88a5.87,5.87,0,0,0-5.46,3.19,8.52,8.52,0,0,0,0,7.83,5.88,5.88,0,0,0,5.47,3.18h22.76Zm0-13.43a5.19,5.19,0,0,1,4.75,2.81,7.66,7.66,0,0,1,0,7,5.17,5.17,0,0,1-4.84,2.8H244.88a5.18,5.18,0,0,1-4.85-2.8,7.69,7.69,0,0,1,0-7,5.22,5.22,0,0,1,4.85-2.81h22.76Z"/><path class="cls-3" d="M159.8,68h7.14a1.93,1.93,0,0,0,0-3.85H159.8a1.93,1.93,0,0,0,0,3.85Z"/><path class="cls-3" d="M159.8,74.19h7.14a1.93,1.93,0,0,0,0-3.85H159.8a1.93,1.93,0,0,0,0,3.85Z"/><path class="cls-3" d="M159.8,80.34h7.14a1.93,1.93,0,0,0,0-3.85H159.8a1.93,1.93,0,0,0,0,3.85Z"/><path class="cls-3" d="M147.3,68h7.14a1.93,1.93,0,0,0,0-3.85H147.3a1.93,1.93,0,0,0,0,3.85Z"/><path class="cls-3" d="M147.3,74.19h7.14a1.93,1.93,0,0,0,0-3.85H147.3a1.93,1.93,0,0,0,0,3.85Z"/><path class="cls-3" d="M147.3,80.34h7.14a1.93,1.93,0,0,0,0-3.85H147.3a1.93,1.93,0,0,0,0,3.85Z"/><rect class="cls-5" x="131.06" y="40.7" width="149.49" height="0.77"/><path class="cls-5" d="M142.84,105.15H269.21c6.5,0,11.77-5.69,11.78-12.69V26.29c0-7-5.28-12.68-11.78-12.69H142.84c-6.5,0-11.77,5.69-11.78,12.69V92.46C131.07,99.46,136.34,105.14,142.84,105.15ZM269.21,14.37c6.1,0,11.05,5.34,11.06,11.92V92.46c0,6.58-5,11.91-11.06,11.92H142.84c-6.11,0-11.06-5.34-11.06-11.92V26.29c0-6.58,4.95-11.91,11.06-11.92Z"/></g></g></svg>